<?xml version="1.0" encoding="UTF-8"?>
<svg width="500px" height="700px" viewBox="0 0 500 700" version="1.1" xmlns="http://www.w3.org/2000/svg" xmlns:xlink="http://www.w3.org/1999/xlink">
    <!-- Generator: Sketch 39.1 (31720) - http://www.bohemiancoding.com/sketch -->
    <title>Artboard</title>
    <desc>Created with Sketch.</desc>
    <defs>
        <path d="M70.3125,0 L4.6875,0 C1.875,0 0,1.875 0,4.6875 L0,70.3125 C0,73.125 1.875,75 4.6875,75 L70.3125,75 C73.125,75 75,73.125 75,70.3125 L75,4.6875 C75,1.875 73.125,0 70.3125,0 L70.3125,0 Z" id="path-1"></path>
        <mask id="mask-2" maskContentUnits="userSpaceOnUse" maskUnits="objectBoundingBox" x="0" y="0" width="75" height="75" fill="white">
            <use xlink:href="#path-1"></use>
        </mask>
    </defs>
    <g id="Page-1" stroke="none" stroke-width="1" fill="none" fill-rule="evenodd" opacity="0.54">
        <g id="Artboard">
            <g id="discourse" transform="translate(115.000000, 113.000000)" fill="#000000">
                <path d="M30.6481928,56.8269714 L15.2339896,60.5551569 L18.4466723,45.0792321 C17.5132301,42.7347047 17,40.177288 17,37.5 C17,26.1781626 26.1781626,17 37.5,17 C48.8218374,17 58,26.1781626 58,37.5 C58,48.8218374 48.8218374,58 37.5,58 C35.0970865,58 32.7907339,57.5865736 30.6481928,56.8269714 Z M0,37.5 C0,16.7893219 16.7847682,0 37.5,0 C58.2106781,0 75,16.7847682 75,37.5 C75,58.2106781 58.2152318,75 37.5,75 L0,75 L0,37.5 Z" id="Combined-Shape"></path>
            </g>
            <g id="date_to" transform="translate(214.000000, 113.000000)" fill="#000000">
                <g id="Layer_1">
                    <rect id="XMLID_6_" x="15" y="0" width="7.5" height="15"></rect>
                    <rect id="XMLID_5_" x="52.5" y="0" width="7.5" height="15"></rect>
                    <polygon id="Shape" points="22.5 37.5 22.5 60 33.75 48.75"></polygon>
                    <rect id="Rectangle-path" x="0" y="45" width="26.25" height="7.5"></rect>
                    <path d="M63.75,7.5 L11.25,7.5 C7.10625,7.5 3.75,10.85625 3.75,15 L3.75,41.25 L11.25,41.25 L11.25,26.25 L63.75,26.25 L63.75,67.5 L11.25,67.5 L11.25,56.25 L3.75,56.25 L3.75,67.5 C3.75,71.64375 7.10625,75 11.25,75 L63.75,75 C67.89375,75 71.25,71.64375 71.25,67.5 L71.25,15 C71.25,10.85625 67.89375,7.5 63.75,7.5 L63.75,7.5 Z" id="Shape"></path>
                </g>
            </g>
            <g id="segfault_archive" transform="translate(13.000000, 113.000000)" fill="#000000">
                <g id="Group">
                    <path d="M0,52.5 L0,63.75 L7.5,63.75 L7.5,71.25 C7.5,73.32 9.18,75 11.25,75 C13.32,75 15,73.32 15,71.25 L15,63.75 L60,63.75 L60,71.25 C60,73.32 61.68,75 63.75,75 C65.82,75 67.5,73.32 67.5,71.25 L67.5,63.75 L75,63.75 L75,52.5 L0,52.5 L0,52.5 Z" id="Shape"></path>
                    <rect id="Rectangle-path" x="41.25" y="22.5" width="11.25" height="18.75"></rect>
                    <rect id="Rectangle-path" x="41.25" y="15" width="11.25" height="3.75"></rect>
                    <rect id="Rectangle-path" x="41.25" y="45" width="11.25" height="3.75"></rect>
                    <rect id="Rectangle-path" transform="translate(65.361692, 31.057767) rotate(-12.386490) translate(-65.361692, -31.057767) " x="59.7368237" y="21.6829863" width="11.2497364" height="18.7495607"></rect>
                    <rect id="Rectangle-path" transform="translate(68.579417, 45.708364) rotate(-12.386490) translate(-68.579417, -45.708364) " x="62.954549" y="43.8334077" width="11.2497364" height="3.74991214"></rect>
                    <rect id="Rectangle-path" transform="translate(62.143591, 16.407170) rotate(-12.386490) translate(-62.143591, -16.407170) " x="56.5187233" y="14.5322134" width="11.2497364" height="3.74991214"></rect>
                    <rect id="Rectangle-path" x="3.75" y="11.25" width="15" height="26.25"></rect>
                    <rect id="Rectangle-path" x="3.75" y="0" width="15" height="7.5"></rect>
                    <rect id="Rectangle-path" x="3.75" y="41.25" width="15" height="7.5"></rect>
                    <rect id="Rectangle-path" x="22.5" y="11.25" width="15" height="26.25"></rect>
                    <rect id="Rectangle-path" x="22.5" y="41.25" width="15" height="7.5"></rect>
                    <rect id="Rectangle-path" x="22.5" y="0" width="15" height="7.5"></rect>
                </g>
            </g>
            <g id="gallery" transform="translate(414.000000, 13.000000)" fill="#000000">
                <g id="Layer_1">
                    <path d="M0,0 L0,45 L52.5,45 L52.5,0 L0,0 L0,0 Z M7.5,30 L16.875,18.75 L22.5,24 L31.875,11.25 L45,30 L7.5,30 L7.5,30 Z" id="Shape"></path>
                    <polygon id="Shape" points="56.25 15.375 56.25 48.75 8.25 48.75 7.5 52.5 59.25 61.5 66.75 16.875"></polygon>
                    <polygon id="Shape" points="68.25 29.625 62.25 65.625 15 57.75 13.5 63 64.875 75 75 31.125"></polygon>
                </g>
            </g>
            <g id="floor_map" transform="translate(313.990574, 14.000000)" fill="#000000">
                <g id="Layer_1">
                    <path d="M60,0 C51.75,0 45,6.75 45,15 C45,23.25 60,41.25 60,41.25 C60,41.25 75,23.25 75,15 C75,6.75 68.25,0 60,0 L60,0 Z M60,20.625 C57,20.625 54.375,18 54.375,15 C54.375,12 57,9.375 60,9.375 C63,9.375 65.625,12 65.625,15 C65.625,18 63,20.625 60,20.625 L60,20.625 Z" id="Shape"></path>
                    <path d="M64.5,45 L60,49.875 L55.5,45 C54,43.125 51.375,39.75 48.75,36 L48.75,66.75 L29.625,57 L26.25,55.5 L26.25,55.5 L26.25,8.25 L26.625,7.875 L39.375,12 C39.75,9.375 40.5,7.125 41.625,4.875 L26.25,0 L0,12.375 L0,73.125 C0,73.5 0,73.875 0.375,73.875 C0.375,73.875 0.375,73.875 0.375,74.25 L0.75,74.625 L1.125,74.625 C1.125,74.625 1.5,74.625 1.875,75 L2.25,75 L2.25,75 C2.625,75 3,75 3,74.625 L26.25,63.75 L48.75,75 L75,62.625 L75,30 C71.25,36.375 66.375,42.375 64.5,45 L64.5,45 Z" id="Shape"></path>
                </g>
            </g>
            <g id="calendar" transform="translate(217.085169, 13.000000)" fill="#000000">
                <g id="Layer_1">
                    <rect id="XMLID_7515_" x="11.3031809" y="0" width="7.53545396" height="14.9669706"></rect>
                    <rect id="XMLID_7514_" x="48.9804507" y="0" width="7.53545396" height="14.9669706"></rect>
                    <path d="M60.2836316,7.48348531 L7.53545396,7.48348531 C3.39095428,7.48348531 0,10.8510537 0,14.9669706 L0,67.3513678 C0,71.4672847 3.39095428,74.8348531 7.53545396,74.8348531 L60.2836316,74.8348531 C64.4281313,74.8348531 67.8190856,71.4672847 67.8190856,67.3513678 L67.8190856,14.9669706 C67.8190856,10.8510537 64.4281313,7.48348531 60.2836316,7.48348531 L60.2836316,7.48348531 Z M60.2836316,67.3513678 L7.53545396,67.3513678 L7.53545396,26.1921986 L60.2836316,26.1921986 L60.2836316,67.3513678 L60.2836316,67.3513678 Z" id="XMLID_7511_"></path>
                    <g id="Group" transform="translate(17.409497, 32.272530)">
                        <polygon id="Shape" points="10.4716826 27.5953521 5.5736375 27.5953521 5.5736375 7.38994174 0.298819726 9.26081307 0.298819726 4.77072188 10.0949099 0.654804964 10.4716826 0.654804964 10.4716826 27.5953521"></polygon>
                        <g transform="translate(17.669340, -0.000000)" id="Shape">
                            <path d="M13.1480679,0.654804964 L13.1480679,5.14489615 L12.7712952,5.14489615 C6.74293207,5.14489615 5.98938668,10.7575101 5.98938668,11.8800329 C6.36615938,11.1316844 7.87325017,10.0091616 10.1338864,10.0091616 C16.1622495,10.0091616 16.5390222,17.8668212 16.5390222,18.989344 C16.5390222,25.7244807 12.0177498,27.9695263 8.62679556,27.9695263 C3.72875049,27.9695263 0.71456891,23.4794352 0.71456891,17.4926469 L0.71456891,15.6217756 C0.71456891,7.76411601 4.48229589,1.02897923 12.3945225,1.02897923 L13.1480679,1.02897923 L13.1480679,0.654804964 Z M8.62679556,14.1250785 C5.61261398,14.1250785 5.98938668,18.2409954 5.98938668,18.2409954 C5.98938668,23.1052609 7.87325017,23.8536094 8.62679556,23.8536094 C9.75711366,23.8536094 11.2642044,22.3569124 11.2642044,18.989344 C11.2642044,18.2409954 11.2642044,14.1250785 8.62679556,14.1250785 L8.62679556,14.1250785 Z"></path>
                        </g>
                    </g>
                </g>
            </g>
            <g id="profiles" transform="translate(115.000000, 20.000000)" fill="#000000">
                <g id="Layer_1">
                    <path d="M67.5,7.4754902 L33.75,7.4754902 L26.25,0 L7.5,0 C3.35625,0 0,3.34528186 0,7.4754902 L0,52.3284314 C0,56.4586397 3.35625,59.8039216 7.5,59.8039216 L67.5,59.8039216 C71.64375,59.8039216 75,56.4586397 75,52.3284314 L75,14.9509804 C75,10.8207721 71.64375,7.4754902 67.5,7.4754902 L67.5,7.4754902 Z M22.5,18.6887255 C26.64375,18.6887255 30,22.0340074 30,26.1642157 C30,30.2906863 26.64375,33.6397059 22.5,33.6397059 C18.35625,33.6397059 15,30.2906863 15,26.1642157 C15,22.0340074 18.35625,18.6887255 22.5,18.6887255 L22.5,18.6887255 Z M37.5,48.5906863 L7.5,48.5906863 L7.5,45.6117034 C7.5,45.6117034 12.59625,37.377451 22.5,37.377451 C32.40375,37.377451 37.5,45.6117034 37.5,45.6117034 L37.5,48.5906863 L37.5,48.5906863 Z M67.5,48.5906863 L45,48.5906863 L45,41.1151961 L67.5,41.1151961 L67.5,48.5906863 L67.5,48.5906863 Z M67.5,37.377451 L45,37.377451 L45,29.9019608 L67.5,29.9019608 L67.5,37.377451 L67.5,37.377451 Z M67.5,26.1642157 L45,26.1642157 L45,18.6887255 L67.5,18.6887255 L67.5,26.1642157 L67.5,26.1642157 Z" id="Shape"></path>
                    <rect id="Rectangle-path" x="48.75" y="56.0661765" width="15" height="7.4754902"></rect>
                    <rect id="Rectangle-path" x="11.25" y="56.0661765" width="15" height="7.4754902"></rect>
                </g>
            </g>
            <g id="alumni_map" transform="translate(13.000000, 14.000000)" fill="#000000">
                <g id="Layer_1">
                    <path d="M73.875,37.3622124 C73.875,57.5378071 57.375,73.6035585 37.5,73.6035585 C17.625,73.6035585 1.125,57.5378071 1.125,37.3622124 C1.125,17.1866177 17.25,1.12086637 37.5,1.12086637 C57.75,1.12086637 73.875,17.1866177 73.875,37.3622124 L73.875,37.3622124 Z M37.125,54.5488301 C37.125,53.8015859 36.75,53.4279638 36,53.0543416 C33.75,52.3070974 31.5,52.3070974 29.625,50.4389868 C29.25,49.6917425 29.25,48.9444983 28.875,48.197254 C28.125,47.4500098 26.25,47.0763876 25.125,46.7027655 L20.25,46.7027655 L17.625,46.7027655 C16.5,46.3291434 15.75,44.8346549 15,43.7137885 C15,43.3401664 15,42.5929222 14.25,42.5929222 C13.5,42.2193 12.75,42.9665443 12,42.5929222 C11.625,42.2193 11.625,41.8456779 11.625,41.4720558 C11.625,40.3511894 12.375,39.230323 13.125,38.4830788 C14.25,37.7358345 15.375,38.8567009 16.5,38.8567009 C16.875,38.8567009 16.875,38.8567009 17.25,39.230323 C18.375,39.6039452 18.75,41.0984337 18.75,42.2193 L18.75,42.9665443 C18.75,43.3401664 19.125,43.3401664 19.5,43.3401664 C19.875,41.4720558 19.875,39.6039452 20.25,37.7358345 C20.25,35.4941018 22.5,33.2523691 24.375,32.5051248 C25.125,32.1315027 25.5,32.8787469 26.25,32.5051248 C28.5,31.7578806 34.125,29.5161478 33,26.5271708 C32.25,23.9118159 30,21.2964611 27,21.6700832 C26.25,22.0437053 25.875,22.4173275 25.125,22.7909496 C24,23.5381938 21.75,25.7799266 20.625,25.7799266 C18.75,25.4063044 18.75,22.7909496 19.125,21.6700832 C19.5,20.1755947 22.875,15.3185071 25.125,16.0657513 C25.5,16.4393735 26.25,17.1866177 26.625,17.5602398 C27.375,17.933862 28.5,17.933862 29.625,17.933862 C30,17.933862 30.375,17.933862 30.75,17.5602398 C31.125,17.1866177 31.125,17.1866177 31.125,16.8129956 C31.125,15.6921292 30,14.5712628 29.25,13.8240186 C28.5,13.0767743 27.375,12.3295301 26.25,11.955908 C22.5,10.8350416 16.5,12.3295301 13.5,14.944885 C10.5,17.5602398 8.25,22.0437053 6.75,25.7799266 C6,28.0216593 5.25,31.0106363 4.875,33.6259912 C4.5,35.4941018 4.125,36.9885903 5.25,38.8567009 C6.375,41.0984337 8.625,43.3401664 10.875,44.8346549 C12.375,45.9555213 15.375,45.9555213 16.875,47.8236319 C18,49.3181204 17.625,51.186231 17.625,53.0543416 C17.625,55.2960744 19.125,57.164185 19.875,59.0322956 C20.25,60.153162 20.625,61.6476505 21,62.7685169 C21,63.142139 21.375,65.3838717 21.375,65.7574939 C23.625,66.8783602 25.5,67.9992266 28.125,68.7464709 C28.5,68.7464709 30,66.5047381 30,66.131116 C31.125,65.0102496 31.875,63.5157611 33,62.7685169 C33.75,62.3948947 34.5,62.0212726 35.25,61.2740284 C36,60.5267841 36.375,59.0322956 36.75,57.9114292 C37.125,57.164185 37.5,55.6696965 37.125,54.5488301 L37.125,54.5488301 Z M37.875,20.1755947 C38.25,20.1755947 38.625,19.8019726 39.375,19.4283505 C40.5,18.6811062 41.625,17.5602398 42.75,16.8129956 C43.875,16.0657513 45,14.944885 45.75,14.1976407 C46.875,13.4503965 47.625,11.955908 48,10.8350416 C48.375,10.0877974 49.5,8.59330886 49.125,7.47244248 C48.75,6.72519824 46.875,6.35157611 46.125,5.97795399 C43.125,5.23070974 40.5,4.85708761 37.5,4.85708761 C36.375,4.85708761 34.875,5.23070974 34.5,6.35157611 C34.125,8.21968673 35.625,7.84606461 37.125,8.21968673 C37.125,8.21968673 37.5,11.2086637 37.5,11.5822858 C37.875,13.4503965 36.75,14.5712628 36.75,16.4393735 C36.75,17.5602398 36.75,19.4283505 37.5,20.1755947 C37.5,20.1755947 37.875,20.1755947 37.875,20.1755947 L37.875,20.1755947 Z M69.375,46.3291434 C69.75,45.5818992 69.75,44.4610328 70.125,43.7137885 C70.5,41.8456779 70.5,39.9775673 70.5,38.1094567 C70.5,34.3732354 70.125,30.6370142 69,27.2744151 C68.25,26.1535487 67.875,25.0326823 67.5,23.9118159 C66.75,22.0437053 65.625,20.1755947 64.125,18.6811062 C62.625,16.8129956 60.75,11.5822858 57.375,13.0767743 C56.25,13.4503965 55.5,14.944885 54.75,15.6921292 C54,16.8129956 53.25,17.933862 52.5,19.0547283 C52.125,19.4283505 51.75,20.1755947 52.125,20.5492168 C52.125,20.922839 52.5,20.922839 52.875,20.922839 C53.625,21.2964611 54,21.2964611 54.75,21.6700832 C55.125,21.6700832 55.5,22.0437053 55.125,22.4173275 C55.125,22.4173275 55.125,22.7909496 54.75,22.7909496 C52.875,24.6590602 51,26.1535487 49.125,28.0216593 C48.75,28.3952814 48.375,29.1425257 48.375,29.5161478 C48.375,29.8897699 48.75,29.8897699 48.75,30.2633921 C48.75,30.6370142 48.375,30.6370142 48,31.0106363 C47.25,31.3842584 46.5,31.7578806 46.125,32.1315027 C45.75,32.8787469 46.125,33.9996133 45.75,34.7468575 C45.375,36.6149682 44.25,38.1094567 43.5,39.9775673 C42.75,41.0984337 42.375,42.2193 41.625,43.3401664 C41.625,44.8346549 41.25,45.9555213 42,47.0763876 C43.875,49.6917425 47.25,48.197254 49.875,49.3181204 C50.625,49.6917425 51.375,49.6917425 51.75,50.4389868 C52.875,51.5598531 52.875,53.4279638 53.25,54.5488301 C53.625,56.0433186 54,57.5378071 54.75,59.0322956 C55.125,60.9004062 55.875,62.7685169 56.25,64.2630054 C59.625,61.6476505 62.625,58.6586735 64.875,54.9224523 C67.125,52.3070974 68.25,49.3181204 69.375,46.3291434 L69.375,46.3291434 Z" id="Shape"></path>
                    <path d="M37.5,0 C16.875,0 0,16.8129956 0,37.3622124 C0,57.9114292 16.875,74.7244248 37.5,74.7244248 C58.125,74.7244248 75,57.9114292 75,37.3622124 C75,16.8129956 58.125,0 37.5,0 L37.5,0 Z M37.5,68.7464709 C20.25,68.7464709 6,54.5488301 6,37.3622124 C6,20.1755947 20.25,5.97795399 37.5,5.97795399 C54.75,5.97795399 69,20.1755947 69,37.3622124 C69,54.5488301 54.75,68.7464709 37.5,68.7464709 L37.5,68.7464709 Z" id="Shape"></path>
                </g>
            </g>
            <g id="news" transform="translate(317.000000, 117.000000)">
                <g id="Layer_1">
                    <path d="M52.8888889,60.4444444 L52.8888889,0 L0,0 L0,60.4444444 C0,64.6188889 3.38111111,68 7.55555556,68 L60.4444444,68 C56.27,68 52.8888889,64.6188889 52.8888889,60.4444444 L52.8888889,60.4444444 Z" id="Shape" stroke="#000000" stroke-width="7"></path>
                    <path d="M52.8888889,15.1111111 L68,15.1111111 L68,60.4444444 C68,64.6188889 64.6188889,68 60.4444444,68" id="Shape" stroke="#000000" stroke-width="7"></path>
                    <rect id="Rectangle-path" fill="#000000" x="11.3333333" y="15.1111111" width="30.2222222" height="11.3333333"></rect>
                    <rect id="Rectangle-path" fill="#000000" x="11.3333333" y="34" width="30.2222222" height="7.55555556"></rect>
                    <rect id="Rectangle-path" fill="#000000" x="11.3333333" y="45.3333333" width="30.2222222" height="7.55555556"></rect>
                </g>
            </g>
            <g id="rainloop" transform="translate(413.000000, 113.000000)" fill="#000000">
                <g id="Layer_1">
                    <g id="Group">
                        <path d="M37.5,14.79375 L61.88625,56.25 L13.11375,56.25 L37.5,14.79375 L37.5,14.79375 Z M37.5,0 L0,63.75 L75,63.75 L37.5,0 L37.5,0 L37.5,0 Z" id="Shape"></path>
                    </g>
                    <polygon id="Shape" points="30 63.75 37.5 22.5 45 63.75 37.5 75"></polygon>
                </g>
            </g>
            <g id="books" transform="translate(315.000000, 214.000000)">
                <g id="Layer_1">
                    <path d="M17.5,42 L10.5,42 C6.65,42 3.5,45.15 3.5,49 L3.5,49 C3.5,52.85 6.65,56 10.5,56 L17.5,56" id="Shape" stroke="#000000" stroke-width="7"></path>
                    <path d="M28,10.5 C24.542,10.5 21,14.042 21,17.5 L21,59.5 C21,56.042 24.542,52.5 28,52.5 L70,52.5 L70,10.5 L28,10.5 L28,10.5 Z M59.5,28 L35,28 L35,21 L59.5,21 L59.5,28 L59.5,28 Z" id="Shape" fill="#000000"></path>
                    <path d="M17.5,17.5 L17.5,14 C17.5,10.542 21.042,7 24.5,7 L28,7 L49,7 L49,0 L7,0 C3.542,0 0,3.542 0,7 L0,49 C0,45.542 3.542,42 7,42 L17.5,42 L17.5,17.5 L17.5,17.5 Z" id="Shape" fill="#000000"></path>
                    <path d="M70,52.5 L31.5,52.5 C27.65,52.5 24.5,55.65 24.5,59.5 L24.5,59.5 C24.5,63.35 27.65,66.5 31.5,66.5 L70,66.5" id="Shape" stroke="#000000" stroke-width="7"></path>
                </g>
            </g>
            <g id="lists" transform="translate(13.000000, 212.000000)" fill="#000000">
                <g id="Layer_1">
                    <path d="M0,0 L0,56.25 L52.5,56.25 L75,75 L75,0 L0,0 L0,0 Z M35.625,15 C38.73,15 41.25,17.52 41.25,20.625 C41.25,23.73 38.73,26.25 35.625,26.25 C32.52,26.25 30,23.73 30,20.625 C30,17.52 32.52,15 35.625,15 L35.625,15 Z M18.75,41.25 L11.25,41.25 C11.25,37.125 14.625,33.75 18.75,33.75 C19.42125,33.75 20.0625,33.86625 20.68125,34.035 C19.48875,36.1875 18.75,38.62125 18.75,41.25 L18.75,41.25 Z M18.75,30 C16.68,30 15,28.32 15,26.25 C15,24.18 16.68,22.5 18.75,22.5 C20.82,22.5 22.5,24.18 22.5,26.25 C22.5,28.32 20.82,30 18.75,30 L18.75,30 Z M22.5,41.25 C22.5,35.0625 27.5625,30 33.75,30 L37.5,30 C43.6875,30 48.75,35.0625 48.75,41.25 L22.5,41.25 L22.5,41.25 Z M48.75,26.25 C48.75,24.18 50.43,22.5 52.5,22.5 C54.57,22.5 56.25,24.18 56.25,26.25 C56.25,28.32 54.57,30 52.5,30 C50.43,30 48.75,28.32 48.75,26.25 L48.75,26.25 Z M52.5,41.25 C52.5,38.62125 51.76125,36.1875 50.56875,34.035 C51.1875,33.86625 51.82875,33.75 52.5,33.75 C56.625,33.75 60,37.125 60,41.25 L52.5,41.25 L52.5,41.25 Z" id="Shape"></path>
                </g>
            </g>
            <g id="conditional" transform="translate(115.000000, 212.000000)" fill="#000000">
                <g id="Layer_1">
                    <ellipse id="Oval" cx="28.5714286" cy="14.2857143" rx="14.2857143" ry="14.2857143"></ellipse>
                    <path d="M37.1892857,37.1857143 C37.3642857,37.0107143 37.5535714,36.8607143 37.7321429,36.6928571 C35.0142857,36.0964286 32,35.7142857 28.5714286,35.7142857 C6.78571429,35.7142857 0,50 0,50 L0,57.1428571 L30.7035714,57.1428571 C29.6178571,50.0821429 31.7607143,42.6142857 37.1892857,37.1857143 L37.1892857,37.1857143 Z" id="Shape"></path>
                    <path d="M53.5892857,35.7285714 C49.0178571,35.7285714 44.4642857,37.4857143 40.9785714,40.975 C34.0035714,47.95 34.0035714,59.225 40.9785714,66.2 C47.9535714,73.175 59.2285714,73.175 66.2035714,66.2 C73.175,59.2285714 73.175,47.95 66.2035714,40.975 C62.7142857,37.4857143 58.1571429,35.7285714 53.5892857,35.7285714 L53.5892857,35.7285714 Z M59.95,45.6607143 L65.0857143,50.7964286 L51.8035714,63.9678571 L42.0928571,54.3678571 L47.2285714,49.2321429 L51.8035714,53.9214286 L59.95,45.6607143 L59.95,45.6607143 Z" id="Shape"></path>
                </g>
            </g>
            <g id="user_machines" transform="translate(216.000000, 218.000000)">
                <g id="Layer_1" transform="translate(0.000000, -0.000000)">
                    <path d="M0,58.3333333 C0,60.48 1.74222222,62.2222222 3.88888889,62.2222222 L66.1111111,62.2222222 C68.2577778,62.2222222 70,60.48 70,58.3333333 L70,3.88888889 C70,1.74222222 68.2577778,-3.55271368e-15 66.1111111,-3.55271368e-15 L3.88888889,-3.55271368e-15 C1.74222222,-3.55271368e-15 0,1.74222222 0,3.88888889 L0,58.3333333 L0,58.3333333 Z" id="Shape" stroke="#000000" stroke-width="7"></path>
                    <path d="M70,11.6666667 L70,3.88888889 C70,1.74222222 68.2577778,-3.55271368e-15 66.1111111,-3.55271368e-15 L3.88888889,-3.55271368e-15 C1.74222222,-3.55271368e-15 0,1.74222222 0,3.88888889 L0,11.6666667 L70,11.6666667 L70,11.6666667 Z" id="XMLID_7746_" fill="#000000"></path>
                    <path d="M35,39 L58.3333333,39" id="XMLID_7738_" stroke="#000000" stroke-width="8"></path>
                    <polygon id="Shape" fill="#000000" points="21.4627778 19.4444444 11.6666667 19.4444444 21.6027778 31.1111111 11.6666667 42.7777778 21.4627778 42.7777778 31.395 31.1111111"></polygon>
                </g>
            </g>
            <g id="windows8" transform="translate(413.000000, 212.000000)" fill="#000000">
                <g id="Group">
                    <polygon id="Shape" points="75 0 37.5 5.2725 37.5 33.75 75 33.75"></polygon>
                    <polygon id="Shape" points="30 6.33 0 10.54875 0 33.75 30 33.75"></polygon>
                    <polygon id="Shape" points="0 41.25 0 64.455 30 68.67375 30 41.25"></polygon>
                    <polygon id="Shape" points="37.5 41.25 37.5 69.7275 75 75 75 41.25"></polygon>
                </g>
            </g>
            <g id="ethernet_off" transform="translate(13.000000, 311.000000)">
                <g id="Layer_1">
                    <polygon id="Shape" fill="#000000" points="60.9375 56.25 56.25 56.25 56.25 46.875 51.5625 46.875 51.5625 56.25 46.875 56.25 46.875 46.875 42.1875 46.875 42.1875 56.25 32.8125 56.25 32.8125 46.875 28.125 46.875 28.125 56.25 23.4375 56.25 23.4375 46.875 18.75 46.875 18.75 56.25 14.0625 56.25 14.0625 28.125 28.125 28.125 28.125 18.75 46.875 18.75 46.875 28.125 60.9375 28.125"></polygon>
                    <use id="Shape" stroke="#000000" mask="url(#mask-2)" stroke-width="14" xlink:href="#path-1"></use>
                </g>
            </g>
            <g id="user_folder" transform="translate(114.000000, 318.500000)" fill="#000000">
                <g id="Layer_1">
                    <path d="M67.5,7.5 L33.75,7.5 L26.25,0 L7.5,0 C3.375,0 0,3.375 0,7.5 L0,52.5 C0,56.625 3.375,60 7.5,60 L67.5,60 C71.625,60 75,56.625 75,52.5 L75,15 C75,10.875 71.625,7.5 67.5,7.5 L67.5,7.5 Z M37.5,18.75 C41.625,18.75 45,22.125 45,26.25 C45,30.375 41.625,33.75 37.5,33.75 C33.375,33.75 30,30.375 30,26.25 C30,22.125 33.375,18.75 37.5,18.75 L37.5,18.75 Z M52.5,48.75 L22.5,48.75 L22.5,45.75 C22.5,45.75 27.75,37.5 37.5,37.5 C47.25,37.5 52.5,45.75 52.5,45.75 L52.5,48.75 L52.5,48.75 Z" id="Shape"></path>
                </g>
            </g>
            <g id="dolphin" transform="translate(214.000000, 314.000000)" fill="#000000">
                <g id="Слой_1">
                    <path d="M39.4736842,7.89473684 C39.4736842,12.2368421 26.8421053,21.3157895 23.6842105,15.7894737 C18.5526316,7.10526316 11.8421053,4.34210526 11.8421053,3.94736842 C11.8421053,1.97368421 16.9736842,0 23.6842105,0 C30.3947368,0 39.4736842,3.94736842 39.4736842,7.89473684 L39.4736842,7.89473684 Z" id="Shape"></path>
                    <path d="M67.1052632,19.7368421 C65.9210526,13.0263158 56.0526316,3.94736842 43.4210526,3.94736842 C31.9736842,3.94736842 20.1315789,10.2631579 15.7894737,15.7894737 C5.52631579,28.4210526 7.89473684,46.9736842 7.89473684,51.3157895 C2.76315789,53.2894737 0,61.9736842 0,71.0526316 C0,71.0526316 11.8421053,62.3684211 15.7894737,63.1578947 C18.9473684,63.5526316 27.6315789,67.1052632 27.6315789,67.1052632 C26.4473684,55.6578947 17.3684211,50.5263158 15.7894737,51.3157895 C19.3421053,36.7105263 31.5789474,30.7894737 47.3684211,31.5789474 L63.1578947,31.5789474 C69.4736842,31.5789474 75,30 75,27.6315789 C75,25.6578947 72.6315789,21.7105263 67.1052632,19.7368421 L67.1052632,19.7368421 Z" id="Shape"></path>
                    <path d="M51.3157895,23.6842105 C51.3157895,21.3157895 39.4736842,25.2631579 39.4736842,27.6315789 C39.8684211,34.7368421 39.4736842,39.4736842 39.4736842,39.4736842 C51.3157895,39.4736842 51.3157895,26.0526316 51.3157895,23.6842105 L51.3157895,23.6842105 Z" id="Shape"></path>
                </g>
            </g>
            <g id="elephant" transform="translate(314.000000, 317.000000)" fill="#000000">
                <g id="Слой_1">
                    <path d="M60,3.75 C52.125,3.75 49.125,6.375 49.125,6.375 C48,3.375 46.125,0 39.375,0 C34.875,0.375 30,1.875 30,11.25 C30,20.625 38.625,33.75 45,33.75 C46.125,33.75 46.125,31.875 46.125,28.875 C46.125,34.875 45.75,36 42,36 C36,35.625 26.25,22.5 26.25,11.25 C26.25,7.875 26.625,6.75 27.375,3.75 L18.75,3.75 C7.5,3.75 0,13.125 0,24.375 C0,37.125 8.25,37.5 7.5,63.75 L22.5,63.75 L22.5,45 L30,45 L30,63.75 L45,63.75 C45,63.75 43.875,33.75 52.5,33.75 C57,33.75 60.375,40.125 60,48.75 C60,50.625 57.375,52.5 56.25,52.5 L56.25,56.25 C60.375,56.25 63,55.875 67.5,52.5 C67.5,52.5 67.125,52.875 67.5,52.5 C74.625,45.75 75,26.25 75,26.25 C75,8.625 66.75,3.75 60,3.75 L60,3.75 Z M65.625,26.25 C64.5,26.25 63.75,25.5 63.75,24.375 C63.75,23.25 64.5,22.5 65.625,22.5 C66.75,22.5 67.5,23.25 67.5,24.375 C67.5,25.5 66.75,26.25 65.625,26.25 L65.625,26.25 Z" id="Shape"></path>
                </g>
            </g>
            <g id="beer_can" transform="translate(428.000000, 312.000000)" fill="#000000">
                <path d="M39.49125,6.8475 C40.52625,6.18 41.25,5.07375 41.25,3.75 C41.25,1.68 39.57,0 37.5,0 L7.5,0 C5.43,0 3.75,1.68 3.75,3.75 C3.75,5.07375 4.47375,6.18 5.50875,6.8475 L0,17.865 L0,63.75 C0,66.7875 1.81125,69.40875 4.41375,70.58625 C5.59125,73.18875 8.2125,75 11.25,75 L33.75,75 C36.7875,75 39.40875,73.18875 40.58625,70.58625 C43.18875,69.40875 45,66.7875 45,63.75 L45,17.865 L39.49125,6.8475 L39.49125,6.8475 Z M33.75,63.75 L11.25,63.75 C9.18,63.75 7.5,62.07 7.5,60 L7.5,19.635 L13.5675,7.5 L31.4325,7.5 L37.0575,18.75 L13.5675,18.75 L11.25,23.385 L11.25,56.25 C11.25,58.32 12.93,60 15,60 L37.5,60 C37.5,62.07 35.82,63.75 33.75,63.75 L33.75,63.75 Z" id="Shape"></path>
            </g>
            <g id="magical_scroll" transform="translate(17.000000, 416.000000)" stroke-width="6" stroke="#000000">
                <g id="Layer_1">
                    <path d="M42.7777778,23.3333333 L54.4444444,23.3333333" id="Shape"></path>
                    <path d="M11.6666667,14.9333333 L23.3333333,14.9333333" id="Shape"></path>
                    <path d="M35,38.2666667 L54.4444444,38.2666667" id="Shape"></path>
                    <path d="M54.4444444,0 L62.2222222,0 C66.5194444,0 70,3.48055556 70,7.77777778 L70,15.5555556 L54.4444444,15.5555556" id="Shape"></path>
                    <path d="M42.7777778,70 L7.77777778,70 C3.48055556,70 0,66.5194444 0,62.2222222 L0,54.4444444 L38.8888889,54.4444444" id="Shape"></path>
                    <path d="M46.7716667,69.9455556 C42.4783333,70.0038889 38.9472222,66.57 38.8888889,62.2766667 L38.78,50.61" id="Shape"></path>
                    <path d="M62.2222222,0 L19.4444444,0 C15.1472222,0 11.6666667,3.48055556 11.6666667,7.77777778 L11.6666667,54.4444444" id="Shape"></path>
                    <path d="M42.7777778,70 L46.6666667,70 C50.9638889,70 54.4444444,66.5194444 54.4444444,62.2222222 L54.4444444,7.77777778 C54.4444444,3.48055556 57.925,0 62.2222222,0" id="Shape"></path>
                </g>
            </g>
            <g id="wikipedia" transform="translate(114.000000, 413.000000)" fill="#000000">
                <g id="Layer_1">
                    <path d="M66.6666667,0 L8.33333333,0 C3.75,0 0,3.75 0,8.33333333 L0,66.6666667 C0,71.25 3.75,75 8.33333333,75 L66.6666667,75 C71.25,75 75,71.25 75,66.6666667 L75,8.33333333 C75,3.75 71.25,0 66.6666667,0 L66.6666667,0 Z M70,23.3333333 C70,23.75 69.5833333,24.1666667 69.1666667,24.1666667 L65.4166667,24.1666667 L47.5,62.0833333 C47.5,62.5 47.0833333,62.5 46.6666667,62.5 L46.6666667,62.5 C46.25,62.5 46.25,62.5 45.8333333,62.0833333 L37.5,45.4166667 L28.3333333,62.0833333 C28.75,62.5 28.3333333,62.5 28.3333333,62.5 C27.9166667,62.5 27.9166667,62.5 27.5,62.0833333 L9.58333333,24.1666667 L5.41666667,24.1666667 C5,24.1666667 4.58333333,23.75 4.58333333,23.3333333 L4.58333333,21.6666667 C5,21.25 5,20.8333333 5.41666667,20.8333333 L20,20.8333333 C20.4166667,20.8333333 20.8333333,21.25 20.8333333,21.6666667 L20.8333333,23.75 C20.8333333,24.1666667 20.4166667,24.5833333 20,24.5833333 L17.0833333,24.5833333 L29.5833333,53.3333333 L36.25,41.25 L27.9166667,24.5833333 L25.8333333,24.5833333 C25.4166667,24.1666667 25,23.75 25,23.3333333 L25,21.6666667 C25,21.25 25.4166667,20.8333333 25.8333333,20.8333333 L36.6666667,20.8333333 C37.0833333,20.8333333 37.5,21.25 37.5,21.6666667 L37.5,23.75 C37.5,24.1666667 37.0833333,24.5833333 36.6666667,24.5833333 L34.5833333,24.5833333 L39.1666667,35 L44.5833333,24.5833333 L41.25,24.5833333 C40.8333333,24.5833333 40.4166667,24.1666667 40.4166667,23.75 L40.4166667,21.6666667 C40.4166667,21.25 40.8333333,20.8333333 41.25,20.8333333 L51.6666667,20.8333333 C52.0833333,20.8333333 52.5,21.25 52.5,21.6666667 L52.5,23.75 C52.5,24.1666667 52.0833333,24.5833333 51.6666667,24.5833333 L49.5833333,24.5833333 L41.25,39.5833333 L47.9166667,53.3333333 L60.8333333,24.5833333 L56.6666667,24.5833333 C56.25,24.5833333 55.8333333,24.1666667 55.8333333,23.75 L55.8333333,21.6666667 C55.8333333,21.25 56.25,20.8333333 56.6666667,20.8333333 L69.1666667,20.8333333 C69.5833333,20.8333333 70,21.25 70,21.6666667 L70,23.3333333 L70,23.3333333 Z" id="Shape"></path>
                </g>
            </g>
            <g id="bearish" transform="translate(219.000000, 416.000000)">
                <g id="Layer_1">
                    <path d="M0.985714286,72 L0.985714286,20.2191781" id="Shape" stroke="#000000" stroke-width="8"></path>
                    <path d="M15.7714286,72 L15.7714286,31.3150685" id="Shape" stroke="#000000" stroke-width="8"></path>
                    <path d="M30.5571429,72 L30.5571429,38.7123288" id="Shape" stroke="#000000" stroke-width="8"></path>
                    <path d="M45.3428571,72 L45.3428571,49.8082192" id="Shape" stroke="#000000" stroke-width="8"></path>
                    <path d="M60.1285714,72 L60.1285714,57.2054795" id="Shape" stroke="#000000" stroke-width="8"></path>
                    <polygon id="Shape" fill="#000000" points="65.3035714 26.1369863 68.2607143 45.739726 48.6696429 43.1506849"></polygon>
                    <polyline id="Shape" stroke="#000000" stroke-width="8" points="59.7589286 37.2328767 43.125 20.5890411 37.2107143 26.1369863 23.5339286 12.4520548 17.9892857 18 0.616071429 0.616438356"></polyline>
                </g>
            </g>
            <g id="slack" transform="translate(313.000000, 415.000000)" fill="#000000">
                <path d="M42.37125,0.015 C41.565,-0.04875 40.665,0.10125 39.85125,0.375 C36.59625,1.4625 34.89375,4.95 35.98125,8.20125 L38.59125,15.8475 L23.835,20.7975 L21.405,13.42125 C20.3175,10.16625 16.83,8.46375 13.57875,9.55125 C10.32375,10.63875 8.53125,14.12625 9.61875,17.3775 L12.04875,24.6675 L4.39875,27.2775 C1.14375,28.365 -0.55875,31.9425 0.52875,35.19375 C1.61625,38.445 5.10375,40.15125 8.355,39.06375 L16.00125,36.54375 L20.95125,51.21 L13.57125,53.64 C10.31625,54.7275 8.61375,58.215 9.70125,61.46625 C10.78875,64.72125 14.27625,66.51375 17.5275,65.42625 L24.825,63 L27.435,70.64625 C28.5225,73.90125 32.1,75.60375 35.35125,74.51625 C38.60625,73.42875 40.305,69.94125 39.22125,66.69 L36.70125,59.04375 L51.3675,54.09375 L53.7975,61.47375 C54.885,64.72875 58.3725,66.43125 61.62375,65.34375 C64.87875,64.25625 66.6675,60.76875 65.58375,57.5175 L63.15375,50.2275 L70.8,47.6175 C74.055,46.53 75.7575,42.9525 74.67,39.70125 C73.5825,36.44625 70.095,34.74375 66.84375,35.83125 L59.1975,38.35125 L54.2475,23.685 L61.6275,21.255 C64.8825,20.1675 66.585,16.68 65.4975,13.42875 C64.41,10.17375 60.9225,8.38125 57.67125,9.46875 L50.38125,11.89875 L47.77125,4.2525 C46.95375,1.80375 44.7825,0.2025 42.37125,0.015 L42.37125,0.015 Z M42.46125,27.6375 L47.41125,42.30375 L32.745,47.25375 L27.795,32.5875 L42.46125,27.6375 L42.46125,27.6375 Z" id="Shape"></path>
            </g>
            <g id="facebook" transform="translate(413.000000, 413.000000)" fill="#000000">
                <g id="Layer_1">
                    <path d="M67.5,0 L7.5,0 C3.375,0 0,3.375 0,7.5 L0,67.5 C0,71.625 3.375,75 7.5,75 L67.5,75 C71.625,75 75,71.625 75,67.5 L75,7.5 C75,3.375 71.625,0 67.5,0 L67.5,0 Z M61.5,20.25 L56.25,20.25 C52.875,20.25 52.5,21.375 52.5,24 L52.5,28.875 L60.375,28.875 L60,37.5 L52.875,37.5 L52.875,63.75 L40.875,63.75 L40.875,37.5 L36.375,37.5 L36.375,28.5 L40.875,28.5 L40.875,22.875 C40.875,15.375 43.875,11.25 52.5,11.25 L61.5,11.25 L61.5,20.25 L61.5,20.25 Z" id="Shape"></path>
                </g>
            </g>
            <g id="twitter" transform="translate(13.000000, 512.000000)" fill="#000000">
                <g id="Layer_1">
                    <path d="M67.5,0 L7.5,0 C3.375,0 0,3.375 0,7.5 L0,67.5 C0,71.625 3.375,75 7.5,75 L67.5,75 C71.625,75 75,71.625 75,67.5 L75,7.5 C75,3.375 71.625,0 67.5,0 L67.5,0 Z M58.5,25.5 L58.5,27 C58.5,41.25 47.625,57.75 27.75,57.75 C21.75,57.75 16.125,55.875 11.25,52.875 L13.875,52.875 C18.75,52.875 23.625,51 27.375,48.375 C22.5,48.375 18.75,45 17.25,40.875 C18,40.875 18.75,41.25 19.125,41.25 C20.25,41.25 21,41.25 22.125,40.875 C17.25,39.75 13.5,35.625 13.5,30.375 L13.5,30.375 C15,31.125 16.5,31.5 18.375,31.875 C15.375,29.25 13.5,26.25 13.5,22.5 C13.5,20.625 13.875,18.75 15,17.25 C20.25,23.625 28.125,28.125 37.125,28.5 C37.125,27.75 36.75,27 36.75,25.875 C36.75,19.875 41.625,15 47.625,15 C50.625,15 53.625,16.125 55.5,18.375 C58.125,18 60.375,16.875 62.25,15.75 C61.5,18.375 59.625,20.25 57.375,21.75 C59.625,21.375 61.5,21 63.75,19.875 C62.25,22.125 60.375,24 58.5,25.5 L58.5,25.5 Z" id="Shape"></path>
                </g>
            </g>
            <g id="linkedin" transform="translate(114.000000, 512.000000)" fill="#000000">
                <g id="Layer_1">
                    <path d="M67.5,0 L7.5,0 C3.375,0 0,3.375 0,7.5 L0,67.5 C0,71.625 3.375,75 7.5,75 L67.5,75 C71.625,75 75,71.625 75,67.5 L75,7.5 C75,3.375 71.625,0 67.5,0 L67.5,0 Z M22.875,60 L11.25,60 L11.25,27.75 L22.875,27.75 L22.875,60 L22.875,60 Z M16.875,24 L16.875,24 C13.5,24 11.25,21.75 11.25,18.75 C11.25,15.75 13.5,13.5 17.25,13.5 C20.625,13.5 22.875,15.75 22.875,18.75 C22.875,21.75 20.625,24 16.875,24 L16.875,24 Z M63.75,60 L52.125,60 L52.125,42.375 C52.125,37.5 49.125,36.375 48,36.375 C46.875,36.375 43.125,37.125 43.125,42.375 L43.125,60 L31.5,60 L31.5,27.75 L43.125,27.75 L43.125,32.25 C44.625,29.625 47.625,27.75 53.25,27.75 C58.875,27.75 63.375,32.25 63.375,42.375 L63.375,60 L63.75,60 Z" id="Shape"></path>
                </g>
            </g>
            <g id="github_copyrighted" transform="translate(212.000000, 512.000000)">
                <g id="Layer_1">
                    <path d="M37.5,7.5 C54.04125,7.5 67.5,20.95875 67.5,37.5 C67.5,54.04125 54.04125,67.5 37.5,67.5 C20.95875,67.5 7.5,54.04125 7.5,37.5 C7.5,20.95875 20.95875,7.5 37.5,7.5 L37.5,7.5 Z M37.5,0 C16.78875,0 0,16.78875 0,37.5 C0,58.21125 16.78875,75 37.5,75 C58.21125,75 75,58.2075 75,37.5 C75,16.7925 58.2075,0 37.5,0 L37.5,0 L37.5,0 Z" id="Shape" fill="#000000"></path>
                    <path d="M57.2025,43.30125 C57.2025,43.30125 60.96375,42.65625 63.21,42.68625 C65.45625,42.71625 68.01375,43.395 68.01375,43.395" id="Shape" stroke="#000000" stroke-width="0.25"></path>
                    <path d="M56.25,44.50875 C56.25,44.50875 60.5625,44.12625 62.35125,44.1675 C64.815,44.23125 67.45875,45 67.45875,45" id="Shape" stroke="#000000" stroke-width="0.25"></path>
                    <path d="M19.96125,42.3825 C19.96125,42.3825 14.6175,41.87625 12.9525,41.87625 C11.2875,41.87625 8.11125,42.3825 6.59625,42.8175" id="Shape" stroke="#000000" stroke-width="0.25"></path>
                    <path d="M21.19125,44.04 C21.19125,44.04 15.57,43.51875 13.0275,43.82625 C9.99375,44.18625 4.845,45.75 4.845,45.75" id="Shape" stroke="#000000" stroke-width="0.25"></path>
                    <path d="M18.75,38.37375 C18.75,30.09375 28.40625,22.5 39.795,22.5 C51.18375,22.5 60,30.09 60,38.37375 C60,46.6575 53.37375,52.5 39.375,52.5 C25.37625,52.5 18.75,46.6575 18.75,38.37375 L18.75,38.37375 Z" id="Shape" fill="#000000"></path>
                    <path d="M45.5775,23.32125 C45.5775,23.32125 48.8925,18.75 54.975,18.75 C57.4125,21.18375 55.74375,28.15125 54.95625,30.22875 L45.5775,23.32125 L45.5775,23.32125 Z" id="Shape" fill="#000000"></path>
                    <path d="M33.16875,23.0925 C33.16875,23.0925 29.85375,18.52125 23.77125,18.52125 C21.3375,20.95875 23.00625,27.92625 23.79,30 L33.16875,23.0925 L33.16875,23.0925 Z" id="Shape" fill="#000000"></path>
                    <path d="M31.4175,60 L25.905,60 C23.50125,60 21.36375,58.8675 20.32875,56.76375 C19.1775,54.42375 18.09,51.7875 15.24,49.5975 C14.74125,49.215 15.02625,48.6525 16.00125,48.765 C16.96875,48.88875 18.8025,49.12125 20.20875,51.13125 C21.6075,53.145 23.13,55.44375 25.74375,55.44375 C28.3575,55.44375 31.16625,55.51875 32.6025,53.47125 L31.4175,60 L31.4175,60 Z" id="Shape" fill="#000000"></path>
                    <path d="M42.3525,50.74125 L36.3975,50.74125 C30.79125,50.74125 26.25,56.8875 26.25,61.20375 L26.25,69.09375 C26.25,71.53125 27.73125,72.5175 30,72.93375 L30,65.625 C30,64.59375 30.84375,63.75 31.875,63.75 C32.90625,63.75 33.75,64.59375 33.75,65.625 L33.75,73.125 C33.75,73.1625 33.73125,73.1925 33.73125,73.22625 L33.75,73.22625 C34.60125,73.2375 35.475,73.24125 36.3975,73.24125 L37.5,73.24125 L37.5,61.875 C37.5,60.84375 38.34375,60 39.375,60 C40.40625,60 41.25,60.84375 41.25,61.875 L41.25,73.24125 L42.3525,73.24125 C43.275,73.24125 44.14875,73.2375 45,73.22625 L45.01875,73.22625 C45.01875,73.1925 45,73.1625 45,73.125 L45,65.625 C45,64.59375 45.84375,63.75 46.875,63.75 C47.90625,63.75 48.75,64.59375 48.75,65.625 L48.75,72.93375 C51.01875,72.51375 52.5,71.535 52.5,69.09375 L52.5,61.20375 C52.5,56.8875 47.95875,50.74125 42.3525,50.74125 L42.3525,50.74125 Z" id="Shape" fill="#000000"></path>
                </g>
            </g>
            <g id="inspection" transform="translate(320.000000, 512.000000)" fill="#000000">
                <g id="Layer_1">
                    <polygon id="Shape" points="27.2727273 55.9090909 15 43.6363636 18.75 39.8863636 27.2727273 48.4090909 46.0227273 29.6590909 49.7727273 33.4090909"></polygon>
                    <path d="M54.5454545,6.81818182 L40.2272727,6.81818182 C38.8636364,2.72727273 35.1136364,0 30.6818182,0 C26.25,0 22.5,2.72727273 21.1363636,6.81818182 L6.81818182,6.81818182 C3.06818182,6.81818182 0,9.88636364 0,13.6363636 L0,68.1818182 C0,71.9318182 3.06818182,75 6.81818182,75 L54.5454545,75 C58.2954545,75 61.3636364,71.9318182 61.3636364,68.1818182 L61.3636364,13.6363636 C61.3636364,9.88636364 58.2954545,6.81818182 54.5454545,6.81818182 L54.5454545,6.81818182 Z M30.6818182,6.81818182 C32.7272727,6.81818182 34.0909091,8.18181818 34.0909091,10.2272727 C34.0909091,12.2727273 32.7272727,13.6363636 30.6818182,13.6363636 C28.6363636,13.6363636 27.2727273,12.2727273 27.2727273,10.2272727 C27.2727273,8.18181818 28.6363636,6.81818182 30.6818182,6.81818182 L30.6818182,6.81818182 Z M54.5454545,68.1818182 L6.81818182,68.1818182 L6.81818182,13.6363636 L13.6363636,13.6363636 L13.6363636,20.4545455 L47.7272727,20.4545455 L47.7272727,13.6363636 L54.5454545,13.6363636 L54.5454545,68.1818182 L54.5454545,68.1818182 Z" id="Shape"></path>
                </g>
            </g>
            <g id="statistics" transform="translate(418.000000, 512.000000)">
                <g id="Layer_1">
                    <rect id="Rectangle-path" stroke="#000000" stroke-width="7" x="0" y="7.5" width="67.5" height="45"></rect>
                    <path d="M33,7.5 L33,0" id="Shape" stroke="#000000" stroke-width="7"></path>
                    <polyline id="Shape" stroke="#000000" stroke-width="7" points="15 37.5 22.5 30 30 37.5 45 22.5 52.5 30"></polyline>
                    <polygon id="Shape" fill="#000000" points="41.25 52.5 31.875 52.5 46.875 75 56.25 75"></polygon>
                    <polygon id="Shape" fill="#000000" points="26.25 52.5 35.625 52.5 20.625 75 11.25 75"></polygon>
                </g>
            </g>
            <g id="safety_shower" transform="translate(13.000000, 612.000000)">
                <g id="Group">
                    <g id="music" transform="translate(18.000000, 38.000000)">
                        <g id="Layer_1">
                            <path d="M8.203125,13.216129 L32.8125,9.92580645 L32.8125,3.83870968 C32.8125,1.86451613 31.0078125,0.383870968 29.0390625,0.548387097 L10.9921875,3.01612903 C9.3515625,3.18064516 8.203125,4.66129032 8.203125,6.30645161 L8.203125,13.216129 L8.203125,13.216129 Z" id="Shape" fill="#000000"></path>
                            <path d="M11.484375,26.8709677 C11.484375,29.6677419 8.859375,32.4645161 5.7421875,33.2870968 C2.625,34.1096774 0,32.4645161 0,29.6677419 C0,26.8709677 2.625,24.0741935 5.7421875,23.2516129 C8.859375,22.5935484 11.484375,24.0741935 11.484375,26.8709677 L11.484375,26.8709677 Z" id="Shape" fill="#000000"></path>
                            <path d="M9.84375,26.8709677 L9.84375,7.12903226" id="Shape" stroke="#000000" stroke-width="4"></path>
                            <path d="M32.8125,25.2258065 C32.8125,28.0225806 30.1875,30.8193548 27.0703125,31.6419355 C23.953125,32.4645161 21.328125,30.8193548 21.328125,28.0225806 C21.328125,25.2258065 23.953125,22.4290323 27.0703125,21.6064516 C30.1875,20.783871 32.8125,22.4290323 32.8125,25.2258065 L32.8125,25.2258065 Z" id="Shape" fill="#000000"></path>
                            <path d="M30.625,25.2258065 L30.625,3.83870968" id="Shape" stroke="#000000" stroke-width="4"></path>
                        </g>
                    </g>
                    <path d="M41.25,3.75 L41.25,0 L33.75,0 L33.75,3.75 L30,3.75 C25.85625,3.75 22.5,7.10625 22.5,11.25 L22.5,15 L52.5,15 L52.5,11.25 C52.5,7.10625 49.14375,3.75 45,3.75 L41.25,3.75 L41.25,3.75 Z" id="Shape" fill="#000000"></path>
                    <ellipse id="Oval" fill="#000000" cx="48.75" cy="22.5" rx="3.75" ry="3.75"></ellipse>
                    <ellipse id="Oval" fill="#000000" cx="26.25" cy="22.5" rx="3.75" ry="3.75"></ellipse>
                    <ellipse id="Oval" fill="#000000" cx="56.25" cy="33.75" rx="3.75" ry="3.75"></ellipse>
                    <ellipse id="Oval" fill="#000000" cx="63.75" cy="48.75" rx="3.75" ry="3.75"></ellipse>
                    <ellipse id="Oval" fill="#000000" cx="11.25" cy="48.75" rx="3.75" ry="3.75"></ellipse>
                    <ellipse id="Oval" fill="#000000" cx="71.25" cy="63.75" rx="3.75" ry="3.75"></ellipse>
                    <ellipse id="Oval" fill="#000000" cx="3.75" cy="63.75" rx="3.75" ry="3.75"></ellipse>
                    <ellipse id="Oval" fill="#000000" cx="18.75" cy="33.75" rx="3.75" ry="3.75"></ellipse>
                    <ellipse id="Oval" fill="#000000" cx="37.5" cy="22.5" rx="3.75" ry="3.75"></ellipse>
                </g>
            </g>
            <g id="bug" transform="translate(114.000000, 611.000000)" fill="#000000">
                <g id="Layer_1">
                    <path d="M23.3333333,16.25 C23.3333333,9.59166667 28.3888889,4.5 35,4.5 C41.6111111,4.5 46.6666667,9.59166667 46.6666667,16.25 L23.3333333,16.25 L23.3333333,16.25 Z" id="Shape"></path>
                    <rect id="Rectangle-path" x="0" y="43.6666667" width="21.7777778" height="7.83333333"></rect>
                    <rect id="Rectangle-path" x="48.2222222" y="43.6666667" width="21.7777778" height="7.83333333"></rect>
                    <rect id="Rectangle-path" transform="translate(43.978861, 7.962138) rotate(-36.505494) translate(-43.978861, -7.962138) " x="36.9788595" y="4.04546995" width="14.0000031" height="7.8333351"></rect>
                    <rect id="Rectangle-path" transform="translate(26.244361, 7.919054) rotate(216.505494) translate(-26.244361, -7.919054) " x="19.2443595" y="4.00238662" width="14.0000031" height="7.8333351"></rect>
                    <path d="M50.5555556,20.1666667 L19.4444444,20.1666667 C15.1666667,20.1666667 11.6666667,30.7416667 11.6666667,43.6666667 C11.6666667,64.425 21,69.9083333 31.1111111,73.4333333 L31.1111111,43.6666667 L38.8888889,43.6666667 L38.8888889,73.825 C51.7222222,69.9083333 58.3333333,64.8166667 58.3333333,43.6666667 C58.3333333,30.7416667 54.8333333,20.1666667 50.5555556,20.1666667 L50.5555556,20.1666667 Z" id="Shape"></path>
                    <rect id="Rectangle-path" transform="translate(56.131833, 31.203833) rotate(-30.000728) translate(-56.131833, -31.203833) " x="43.4932225" y="27.2872528" width="25.2772217" height="7.833161"></rect>
                    <rect id="Rectangle-path" transform="translate(55.602711, 64.487960) rotate(217.536804) translate(-55.602711, -64.487960) " x="45.685571" y="60.5711068" width="19.8342803" height="7.83370733"></rect>
                    <rect id="Rectangle-path" x="0" y="43.6666667" width="21.7777778" height="7.83333333"></rect>
                    <rect id="Rectangle-path" transform="translate(13.541889, 31.363242) rotate(210.000728) translate(-13.541889, -31.363242) " x="0.903278059" y="27.4466612" width="25.2772217" height="7.833161"></rect>
                    <rect id="Rectangle-path" transform="translate(14.563656, 64.363215) rotate(-37.536804) translate(-14.563656, -64.363215) " x="4.64651543" y="60.4463609" width="19.8342803" height="7.83370733"></rect>
                </g>
            </g>
        </g>
    </g>
</svg>