<?xml version="1.0" encoding="UTF-8" standalone="no"?>
<!-- Created with Inkscape (http://www.inkscape.org/) -->

<svg
   xmlns:dc="http://purl.org/dc/elements/1.1/"
   xmlns:cc="http://creativecommons.org/ns#"
   xmlns:rdf="http://www.w3.org/1999/02/22-rdf-syntax-ns#"
   xmlns:svg="http://www.w3.org/2000/svg"
   xmlns="http://www.w3.org/2000/svg"
   xmlns:xlink="http://www.w3.org/1999/xlink"
   version="1.1"
   width="720"
   height="1150.5601"
   viewBox="0 0 720 1150.56"
   id="Layer_1"
   xml:space="preserve"><metadata
     id="metadata3431"><rdf:RDF><cc:Work
         rdf:about=""><dc:format>image/svg+xml</dc:format><dc:type
           rdf:resource="http://purl.org/dc/dcmitype/StillImage" /><dc:title></dc:title></cc:Work></rdf:RDF></metadata><defs
     id="defs3429" /><path
     d="m 69.421,20.635 c -27.473,0 -49.824,22.352 -49.824,49.826 0,27.474 22.351,49.825 49.824,49.825 27.474,0 49.827,-22.352 49.827,-49.825 C 119.249,42.987 96.896,20.635 69.421,20.635 m 4.176,26 V 29.266 c 4,2.297 8.309,9.369 10.949,17.369 H 73.597 z m 12.984,7 c 0.859,5 1.416,9 1.627,13 h -14.61 v -13 H 86.581 z M 65.597,29.266 V 46.635 H 54.298 c 2.64,-8 6.299,-15.072 11.299,-17.369 m 0,24.369 v 13 H 50.638 c 0.21,-4 0.767,-8 1.626,-13 h 13.333 z m -22.678,13 H 27.487 c 0.413,-4 1.542,-9 3.276,-13 h 13.555 c -0.746,5 -1.223,9 -1.399,13 m 0,8 c 0.176,5 0.652,9 1.398,13 H 30.762 c -1.734,-4 -2.863,-8 -3.275,-13 h 15.432 z m 7.719,0 h 14.959 v 13 H 52.264 c -0.859,-4 -1.415,-9 -1.626,-13 m 14.959,21 v 16.02 c -5,-2.297 -8.659,-8.02 -11.3,-16.02 h 11.3 z m 8,16.02 v -16.02 h 10.949 c -2.64,8 -6.949,13.723 -10.949,16.02 m 0,-24.02 v -13 h 14.61 c -0.211,4 -0.768,9 -1.627,13 H 73.597 z m 22.328,-13 h 15.434 c -0.414,5 -1.541,9 -3.275,13 H 94.527 c 0.746,-4 1.223,-8 1.398,-13 m 0,-8 c -0.175,-4 -0.652,-8 -1.398,-13 h 13.555 c 1.734,4 2.863,9 3.277,13 H 95.925 z m 7.792,-20 H 92.704 c -1.592,-6 -3.703,-10.19 -6.223,-14.092 6.932,3.083 12.876,8.092 17.236,14.092 M 52.364,32.542 c -2.519,3.901 -4.63,8.092 -6.223,14.092 H 35.126 C 39.487,40.635 45.434,35.625 52.364,32.542 M 35.125,95.635 h 11.016 c 1.592,5 3.704,10.192 6.222,14.093 -6.93,-3.083 -12.877,-8.093 -17.238,-14.093 m 51.356,14.092 c 2.519,-3.902 4.63,-9.092 6.222,-14.092 h 11.015 c -4.359,6 -10.305,11.009 -17.237,14.092"
     id="path3229" /><path
     d="m 211.881,79.513 c 2.991,2.287 11.869,4.375 18.997,8.247 2.35,1.277 2.551,3.169 2.727,4.313 0.177,1.144 0.551,13.979 0.551,13.979 H 164.88 c 0,0 0.372,-12.836 0.549,-13.979 0.176,-1.145 0.191,-2.881 2.728,-4.313 7.063,-3.989 15.967,-5.828 18.959,-8.115 1.188,-0.908 0.879,-2.376 1.143,-3.785 0.266,-1.407 1.145,-0.439 1.145,-1.936 0,-1.504 0.281,-1.242 0.116,-3.241 -0.144,-1.741 -2.534,-1.928 -2.668,-5.188 -0.028,-0.687 -1.231,-1.145 -1.936,-2.199 -0.705,-1.057 -1.849,-2.904 -1.849,-5.017 0,-2.111 0.44,-1.584 0.44,-4.225 0,-2.64 -0.099,-4.17 1.408,-10.296 0.562,-2.285 2.474,-4.964 4.389,-6.176 2.582,-1.634 1.545,0.545 10.219,-1.392 5.624,-1.255 14.432,4.576 14.521,9.24 0.118,6.308 0.504,5.834 0.878,8.448 0.263,1.848 0.792,1.407 0.792,3.519 0,2.113 -1.145,4.753 -1.847,5.809 -0.704,1.056 -1.357,2.75 -1.446,3.432 -0.46,3.525 -2.813,2.71 -2.912,4.599 -0.09,1.724 -0.201,1.504 0.056,2.847 0.216,1.124 0.871,-0.072 1.135,1.336 0.262,1.408 0.079,3.479 1.181,4.093"
     id="path3231" /><path
     d="m 227.242,67.55 c 0.49,0.736 1.331,1.056 1.35,1.534 0.095,2.276 1.761,2.404 1.862,3.619 0.115,1.396 -0.083,1.211 -0.083,2.261 0,1.043 -0.611,0.368 -0.798,1.351 -0.185,0.98 0.032,2.006 -0.796,2.64 -0.937,0.717 -2.701,1.387 -4.806,2.153 3.029,1.125 6.371,2.45 9.511,4.097 3.387,1.773 3.455,3.962 3.718,5.66 0.093,0.601 0.212,3.428 0.317,6.51 h 24.067 c 0,0 -0.261,-8.952 -0.383,-9.751 -0.123,-0.798 -0.209,-2.082 -1.9,-3.009 -4.961,-2.712 -11.163,-4.157 -13.248,-5.752 -0.77,-0.43 -0.644,-1.873 -0.825,-2.855 -0.186,-0.98 -0.643,-0.148 -0.793,-0.932 -0.18,-0.938 -0.103,-0.784 -0.039,-1.985 0.069,-1.317 1.709,-0.75 2.032,-3.208 0.061,-0.476 0.518,-1.657 1.007,-2.394 0.493,-0.736 1.289,-2.578 1.289,-4.052 0,-1.473 -0.367,-1.166 -0.552,-2.454 -0.26,-1.824 -0.53,-1.493 -0.614,-5.894 -0.061,-3.253 -6.205,-7.321 -10.127,-6.445 -6.05,1.351 -5.328,-0.169 -7.128,0.971 -1.334,0.845 -2.67,2.714 -3.062,4.309 -1.052,4.272 -0.983,5.34 -0.983,7.182 0,1.841 -0.307,1.474 -0.307,2.946 0.001,1.473 0.799,2.762 1.291,3.498"
     id="path3233" /><path
     d="m 620.203,183.154 v -12.5 c 0,-3.455 2.795,-6.25 6.25,-6.25 3.455,0 6.25,2.795 6.25,6.25 v 12.5 c 0,3.455 -2.795,6.25 -6.25,6.25 -3.455,0 -6.25,-2.795 -6.25,-6.25"
     id="path3235" /><path
     d="m 676.453,176.904 v 6.396 c 0,6.909 -5.591,12.5 -12.5,12.5 -6.909,0 -12.5,-5.591 -12.5,-12.5 v -6.396 h -12.5 v 6.396 c 0,6.909 -5.591,12.5 -12.5,12.5 -6.909,0 -12.5,-5.591 -12.5,-12.5 v -6.396 h -18.75 v 87.5 h 100 v -87.5 h -18.75 z m -50,75 h -12.5 v -12.5 h 12.5 v 12.5 z m 0,-25 h -12.5 v -12.5 h 12.5 v 12.5 z m 25,25 h -12.5 v -12.5 h 12.5 v 12.5 z m 0,-24.976 h -12.5 v -12.5 h 12.5 v 12.5 z m 12.5,24.976 v -12.5 h 12.5 l -12.5,12.5 z m 12.5,-25 h -12.5 v -12.5 h 12.5 v 12.5 z"
     id="path3237" /><path
     d="m 657.703,183.154 v -12.5 c 0,-3.455 2.795,-6.25 6.25,-6.25 3.455,0 6.25,2.795 6.25,6.25 v 12.5 c 0,3.455 -2.795,6.25 -6.25,6.25 -3.455,0 -6.25,-2.795 -6.25,-6.25"
     id="path3239" /><polygon
     points="476.438,108.23 476.438,58.106 474.638,57.044 474.638,107.307 "
     id="polygon3241" /><polygon
     points="500.503,98.688 501.765,98.11 502.824,98.274 502.824,48.233 501.961,47.937 500.399,48.545 "
     id="polygon3243" /><polygon
     points="527.81,57.292 527.81,108.3 530.129,106.929 530.129,56.027 "
     id="polygon3245" /><polygon
     points="522.941,49.383 521.129,53.95 527.512,56.559 545.28,46.92 545.28,100.109 527.219,109.907 508.259,102.149 502.157,99.692 501.765,99.692 476.698,109.907 458.643,100.109 458.643,46.92 476.405,56.559 501.962,46.108 508.319,48.71 505.775,42.359 501.962,40.8 476.698,51.134 453.73,38.662 453.73,103.03 476.405,115.338 501.962,104.883 527.512,115.338 550.191,103.03 550.191,38.662 527.219,51.134 "
     id="polygon3247" /><path
     d="m 515.79,25.582 c -5.503,0 -9.972,4.464 -9.972,9.971 0,1.025 0.2,1.992 0.486,2.923 h -0.042 l 9.527,23.78 9.762,-24.604 h -0.019 c 0.145,-0.676 0.229,-1.376 0.229,-2.099 0.002,-5.507 -4.464,-9.971 -9.971,-9.971 m 0,14.714 c -2.354,0 -4.271,-1.914 -4.271,-4.27 0,-2.356 1.917,-4.272 4.271,-4.272 2.354,0 4.271,1.914 4.271,4.272 0,2.356 -1.913,4.27 -4.271,4.27"
     id="path3249" /><path
     d="m 687.635,25.222 v 9.529 h -10.74 v -9.529 h -6.8 V 39.203 H 618.698 V 25.222 h -6.779 v 9.529 h -10.706 v -9.529 h -6.79 v 91.57 h 6.79 v -9.623 h 10.707 v 9.623 h 6.778 v -13.894 h 51.397 v 13.895 h 6.8 v -9.623 h 10.74 v 9.623 h 6.787 v -91.57 l -6.787,-10e-4 0,0 z m -75.716,76.777 h -10.707 v -9.615 h 10.707 v 9.615 z m 0,-16.115 h -10.707 v -9.535 h 10.707 v 9.535 z m 0,-17.736 h -10.707 v -9.523 h 10.707 v 9.523 z m 0,-17.898 h -10.707 v -9.535 h 10.707 v 9.535 z m 6.778,0 h 51.396 V 92.384 H 618.697 V 50.25 z m 68.938,51.749 h -10.74 v -9.615 h 10.74 v 9.615 z m 0,-16.115 h -10.74 v -9.535 h 10.74 v 9.535 z m 0,-17.736 h -10.74 v -9.523 h 10.74 v 9.523 z m 0,-17.898 h -10.74 v -9.535 h 10.74 v 9.535 z"
     id="path3251" /><path
     d="m 105.623,160.126 h -74.4 c -1.467,0 -2.657,1.153 -2.657,2.578 v 103.571 c 0,1.422 1.19,2.578 2.657,2.578 h 74.4 c 1.466,0 2.657,-1.156 2.657,-2.578 V 162.704 c 0,-1.425 -1.191,-2.578 -2.657,-2.578 m -4.014,103.725 H 35.571 v -46.858 h 66.038 v 46.858 z m 0,-51.862 H 35.571 v -46.862 h 66.038 v 46.862 z"
     id="path3253" /><path
     d="m 78.224,222.033 h -2.715 v 6.108 c 0,0.481 -0.394,0.871 -0.877,0.871 H 62.374 c -0.483,0 -0.874,-0.39 -0.874,-0.871 v -6.108 h -2.543 c -0.482,0 -0.871,0.388 -0.871,0.866 v 8.736 c 0,0.479 0.389,0.865 0.871,0.865 h 19.267 c 0.482,0 0.873,-0.386 0.873,-0.865 v -8.736 c 0,-0.478 -0.391,-0.866 -0.873,-0.866"
     id="path3255" /><path
     d="m 78.224,170.17 h -2.715 v 6.105 c 0,0.485 -0.394,0.874 -0.877,0.874 H 62.374 c -0.483,0 -0.874,-0.389 -0.874,-0.874 v -6.105 h -2.543 c -0.482,0 -0.871,0.386 -0.871,0.865 v 8.738 c 0,0.477 0.389,0.862 0.871,0.862 h 19.267 c 0.482,0 0.873,-0.385 0.873,-0.862 v -8.738 c 0,-0.476 -0.391,-0.865 -0.873,-0.865"
     id="path3257" /><path
     d="m 253.124,176.302 v 58.913 h -46.581 -4.4 l -2.441,3.66 -6.861,10.291 -6.861,-10.291 -2.441,-3.66 h -4.4 -5.48 v -58.913 h 79.465 z m 8.221,-8.221 h -95.903 v 75.354 h 13.699 l 13.703,20.55 13.699,-20.55 h 54.802 v -75.354 z"
     id="path3259" /><path
     d="m 208.227,192.035 c -3.32,0.625 -5.657,3.035 -7.005,7.225 -0.675,2.07 -1.012,4.115 -1.012,6.138 0,0.24 0.011,0.448 0.036,0.615 0.024,0.168 0.06,0.541 0.108,1.119 h 7.873 v 15.75 h -15.386 v -14.521 c 0,-7.126 1.421,-12.617 4.264,-16.47 2.842,-3.853 6.547,-6.069 11.124,-6.646 v 6.79 h -0.002 z"
     id="path3261" /><path
     d="m 232.579,192.035 c -2.654,0.434 -4.662,1.926 -6.037,4.479 -1.37,2.552 -2.061,5.492 -2.061,8.813 0,0.292 0.016,0.58 0.038,0.869 0.026,0.285 0.085,0.599 0.182,0.936 h 7.878 v 15.75 h -15.461 v -14.521 c 0,-5.729 1.204,-10.847 3.607,-15.352 2.415,-4.501 6.357,-7.091 11.855,-7.764 l -0.001,6.79 0,0 z"
     id="path3263" /><path
     d="m 357.954,200.627 c 11.671,0 21.132,9.461 21.132,21.132 0,11.67 -9.461,21.132 -21.132,21.132 -11.671,0 -21.132,-9.462 -21.132,-21.132 0,-11.671 9.461,-21.132 21.132,-21.132"
     id="path3265" /><path
     d="m 357.954,248.043 c -14.493,0 -26.284,-11.791 -26.284,-26.283 0,-5.23 1.542,-10.104 4.187,-14.202 h -27.904 v 46.491 h 100 v -46.494 h -27.902 c 2.646,4.1 4.188,8.973 4.188,14.205 -0.002,14.492 -11.793,26.283 -26.285,26.283"
     id="path3267" /><path
     d="m 407.953,189.469 h -32.611 l -6.164,-14.299 h -2.076 -18.296 -2.075 l -6.164,14.299 h -32.613 v 12.935 h 32.24 c 4.682,-4.299 10.919,-6.928 17.761,-6.928 6.841,0 13.078,2.629 17.759,6.928 h 32.24 v -12.935 z m -44.032,-2.954 h -11.935 v -6.193 h 11.935 v 6.193 z"
     id="path3269" /><rect
     width="11.83"
     height="1.992"
     x="312.77499"
     y="185.95599"
     id="rect3271" /><rect
     width="9.1079998"
     height="4.4549999"
     x="314.13699"
     y="182.49699"
     id="rect3273" /><path
     d="m 549.227,184.208 v 57.041 c 0,0 -16.229,-4.562 -28.285,-2.243 -10.799,2.076 -18.747,7.934 -20.087,8.97 v 0.172 c 0,0 -0.04,-0.032 -0.112,-0.087 -0.071,0.055 -0.111,0.087 -0.111,0.087 v -0.172 c -1.341,-1.036 -9.287,-6.893 -20.083,-8.97 -12.06,-2.319 -29.876,2.243 -29.876,2.243 V 184.04 c -1.043,0.156 -2.146,0.323 -3.335,0.5 v 61.45 c 0,0 19.416,-4.997 32.624,-2.454 12.988,2.497 20.836,10.011 20.836,10.011 0,0 7.847,-7.514 20.834,-10.011 13.211,-2.544 31.83,2.454 31.83,2.454 v -61.185 c 10e-4,0.001 -1.621,-0.273 -4.235,-0.597 m -69.659,49.024 c 10.561,2.03 18.722,8.143 18.722,8.143 v -56.12 c 0,0 -8.204,-6.119 -18.791,-8.154 -10.714,-2.061 -24.712,2.01 -24.712,2.01 v 56.119 c 0,0 14.042,-4.063 24.781,-1.998 m 65.535,2.205 v -56.12 c 0,0 -12.831,-4.072 -23.541,-2.01 -10.586,2.033 -19.062,8.152 -19.062,8.152 v 56.121 c 0,0 8.43,-6.111 18.993,-8.144 10.736,-2.061 23.61,2.001 23.61,2.001"
     id="path3275" /><rect
     width="12.5"
     height="12.5"
     x="325.703"
     y="58.534"
     id="rect3277" /><rect
     width="12.5"
     height="12.5"
     x="350.703"
     y="83.533997"
     id="rect3279" /><rect
     width="12.5"
     height="12.5"
     x="375.703"
     y="58.534"
     id="rect3281" /><path
     d="m 331.953,39.784 v -12.5 c 0,-3.455 2.795,-6.25 6.25,-6.25 3.455,0 6.25,2.795 6.25,6.25 v 12.5 c 0,3.455 -2.795,6.25 -6.25,6.25 -3.455,0 -6.25,-2.795 -6.25,-6.25"
     id="path3283" /><polygon
     points="306.953,121.034 306.953,33.534 319.453,33.534 319.453,108.534 394.453,108.534 394.453,33.534 406.953,33.534 406.953,121.034 "
     id="polygon3285" /><rect
     width="12.5"
     height="12.5"
     x="350.703"
     y="58.557999"
     id="rect3287" /><rect
     width="12.5"
     height="12.5"
     x="325.703"
     y="83.533997"
     id="rect3289" /><polygon
     points="375.703,83.534 388.203,83.534 375.703,96.034 "
     id="polygon3291" /><path
     d="m 369.453,39.784 v -12.5 c 0,-3.455 2.795,-6.25 6.25,-6.25 3.455,0 6.25,2.795 6.25,6.25 v 12.5 c 0,3.455 -2.795,6.25 -6.25,6.25 -3.455,0 -6.25,-2.795 -6.25,-6.25"
     id="path3293" /><path
     d="m 117.315,319.814 v 64.361 c 0,5.99 -5.225,11.343 -10.705,11.343 H 33.455 c -9.049,0 -13.889,-4.717 -13.889,-16.186 v -47.026 h 13.509 v -12.492 h 84.24 z m -84.24,19.372 h -6.629 v 40.146 c 0,5.862 1.4,8.667 3.184,8.667 2.169,0 3.445,-2.805 3.445,-8.667 v -40.146 z m 77.359,-12.489 H 39.956 v 52.635 c 0,4.078 -0.764,7.009 -1.913,9.303 h 68.567 c 2.291,0 3.824,-2.677 3.824,-4.46 V 326.697 z M 67.102,350.911 H 50.916 v -2.294 h 16.186 v 2.294 z m 0,7.519 H 50.916 v -2.294 h 16.186 v 2.294 z m 0,7.264 H 50.916 V 363.4 h 16.186 v 2.294 z m 0,7.009 H 50.916 v -2.292 h 16.186 v 2.292 z m 0,7.265 H 50.916 v -2.292 h 16.186 v 2.292 z M 53.336,336.767 h 42.44 v 4.46 h -42.44 v -4.46 z m 20.139,11.85 h 27.142 v 25.872 H 73.475 v -25.872 z"
     id="path3295" /><path
     d="m 259.623,326.343 h -92.46 c -1.828,0 -3.309,1.483 -3.309,3.309 v 58.028 c 0,1.83 1.481,3.309 3.309,3.309 h 92.46 c 1.828,0 3.31,-1.479 3.31,-3.309 v -58.028 c 0,-1.826 -1.482,-3.309 -3.31,-3.309 m -89.151,9.373 29.582,21.954 -29.582,24.112 v -46.066 z m 42.92,24.641 -36.91,-27.395 h 73.825 l -36.915,27.395 z m -9.226,0.362 7.502,5.57 c 0.512,0.379 1.119,0.568 1.724,0.568 0.605,0 1.215,-0.189 1.726,-0.568 l 7.743,-5.751 c 0.019,0.013 0.027,0.03 0.043,0.043 l 28.811,23.79 h -76.564 l 29.015,-23.652 z m 22.799,-3.225 29.349,-21.778 v 46.014 l -29.349,-24.236 z"
     id="path3297" /><path
     d="m 339.062,353.744 c -5.342,-4.993 -9.423,-14.71 -9.423,-22.562 0,-11.1 8.777,-17.421 17.085,-17.421 8.307,0 16.643,6.914 16.643,18.025 0,7.853 -4.512,17.259 -10.081,22.079 1.143,4.536 7.41,6.013 20.36,9.689 4.776,1.355 5.664,3.409 8.309,5.812 h -27.781 c -0.577,0 -1.115,0.134 -1.586,0.402 0,0 -1.623,0.698 -1.744,2.94 v 16.159 H 308.89 c -0.039,-6.789 -1.932,-21.232 12.456,-25.311 12.589,-3.586 16.173,-5.074 17.569,-9.316"
     id="path3299" /><path
     d="m 357.115,403 c -0.262,0 -0.521,-0.026 -0.767,-0.092 l 11.251,-14.89 0.856,-1.13 1.508,1.13 9.641,7.238 h 0.299 l 9.642,-7.238 1.507,-1.13 0.859,1.13 11.249,14.89 c -0.258,0.066 -0.518,0.092 -0.766,0.092 H 379.8 379.708 357.115 z"
     id="path3301" /><path
     d="m 355.581,373.429 c 0.454,-0.261 0.974,-0.392 1.534,-0.392 h 29.494 15.475 c 0.648,0 1.246,0.197 1.765,0.521 l -11.51,8.471 -8.159,5.99 -4.573,3.364 -4.51,-3.364 -19.516,-14.59 z"
     id="path3303" /><path
     d="m 405.618,376.273 v 23.491 c 0,0.403 -0.065,0.78 -0.209,1.131 l -11.966,-15.811 12.158,-9.137 c 0.017,0.093 0.017,0.21 0.017,0.326"
     id="path3305" /><path
     d="m 366.065,385.084 -2.224,2.935 -9.743,12.877 c -0.141,-0.352 -0.206,-0.729 -0.206,-1.131 v -11.746 -11.746 c 0,-0.117 0,-0.234 0.012,-0.326 l 12.161,9.137 z"
     id="path3307" /><path
     d="m 500.869,307.395 c -20.93,0 -37.322,10.525 -37.322,23.962 0,0.343 0.021,0.682 0.044,1.023 h -0.044 c 0,0 -0.011,7.551 -0.047,17.119 -0.02,12.965 -0.053,29.638 -0.053,36.297 0,13.423 16.337,23.949 37.209,23.949 20.805,0 37.098,-10.526 37.098,-23.949 0,-3.657 0.045,-10.514 0.1,-18.141 0.135,-16.203 0.325,-35.971 0.337,-36.26 v -0.04 c -10e-4,-13.435 -16.394,-23.96 -37.322,-23.96 m 31.967,43.126 c -0.013,1.323 -0.023,2.673 -0.033,4.05 v 0.59 c -0.237,0.432 -0.491,0.853 -0.783,1.271 -1.066,1.56 -2.466,3.029 -4.157,4.366 -6.146,4.889 -16.058,8.128 -26.996,8.128 -8.531,0 -16.427,-1.974 -22.409,-5.159 v 3.421 c 6.111,2.993 13.868,4.765 22.411,4.765 11.589,0 21.745,-3.251 28.285,-8.402 1.364,-1.061 2.575,-2.229 3.604,-3.448 -0.044,4.247 -0.076,8.497 -0.112,12.35 v 1.139 c -4.443,7.733 -17.197,13.473 -31.776,13.473 -8.533,0 -16.429,-1.975 -22.411,-5.158 v 3.418 c 6.111,2.992 13.863,4.77 22.413,4.77 13.896,0 25.72,-4.667 31.743,-11.678 -0.01,3.041 -0.021,5.582 -0.021,7.379 0,9.701 -14.624,17.905 -31.935,17.905 -17.139,0 -31.646,-7.987 -32.032,-17.517 h -0.019 v -0.388 -0.762 -31.535 h 0.047 c 0.003,-0.783 0.007,-1.571 0.007,-2.336 0.013,-2.412 0.013,-4.706 0.023,-6.829 0.069,-0.145 0.135,-0.302 0.226,-0.444 0.593,0.642 1.242,1.257 1.926,1.847 0.359,0.313 0.729,0.615 1.11,0.917 0.356,0.276 0.716,0.55 1.097,0.826 1.869,1.336 3.974,2.532 6.291,3.565 6.047,2.701 13.45,4.274 21.534,4.274 8.084,0 15.485,-1.573 21.532,-4.274 2.305,-1.033 4.412,-2.229 6.293,-3.565 0.368,-0.276 0.738,-0.537 1.098,-0.826 0.391,-0.302 0.762,-0.604 1.12,-0.917 0.681,-0.591 1.33,-1.205 1.925,-1.836 0.022,0.04 0.046,0.093 0.064,0.131 -0.019,2.032 -0.043,4.207 -0.065,6.489 m 0.181,-19.15 c 0,2.031 -0.65,3.998 -1.837,5.832 -0.246,0.406 -0.538,0.8 -0.863,1.193 -0.29,0.381 -0.603,0.748 -0.949,1.101 -0.304,0.329 -0.618,0.643 -0.94,0.932 -0.347,0.326 -0.708,0.642 -1.087,0.943 -0.348,0.275 -0.705,0.552 -1.086,0.826 -2.084,1.506 -4.593,2.817 -7.402,3.892 -5.161,1.994 -11.376,3.174 -17.982,3.174 -6.606,0 -12.824,-1.18 -17.983,-3.174 -2.811,-1.075 -5.318,-2.398 -7.401,-3.892 -0.383,-0.274 -0.739,-0.552 -1.087,-0.826 -0.381,-0.301 -0.74,-0.617 -1.085,-0.943 -0.326,-0.302 -0.638,-0.603 -0.941,-0.932 -0.348,-0.353 -0.661,-0.721 -0.952,-1.101 -0.324,-0.392 -0.603,-0.786 -0.852,-1.193 -1.198,-1.834 -1.847,-3.813 -1.847,-5.846 0,-9.714 14.724,-17.906 32.148,-17.906 h 0.021 c 17.41,0.014 32.126,8.193 32.126,17.906 v 0.014 z"
     id="path3309" /><path
     d="m 678.527,309.312 h -48.832 -7.053 -5.449 c -1.939,0 -4.717,1.05 -6.172,2.331 l -0.781,0.689 c -1.456,1.283 -2.646,3.92 -2.646,5.859 v 2.692 0.585 83.026 c 0,1.939 1.588,3.526 3.526,3.526 h 61.33 c 1.941,0 3.526,-1.587 3.526,-3.526 v -83.611 c 0,-1.94 -1.585,-3.527 -3.526,-3.527 h -40.997 c 0,-1.284 -1.04,-2.324 -2.322,-2.324 -1.28,0 -2.319,1.04 -2.319,2.324 v 0.912 23.289 l -5.84,-5.702 -5.055,5.702 v -24.202 h -4.797 c -0.026,0 -0.048,0.006 -0.073,0.008 l 3.792,-4.345 h 11.327 52.305 v 88.132 h 0.056 c 1.938,0 3.526,-1.588 3.526,-3.526 v -84.786 c 0,-1.94 -1.588,-3.526 -3.526,-3.526"
     id="path3311" /><path
     d="m 18.591,460.358 h 100 v 84.615 h -100 v -84.615 z m 7.693,76.924 h 84.615 V 475.743 H 26.284 v 61.539 z m 7.692,-50 h 11.538 l 11.539,15.385 -11.539,15.385 H 33.976 L 45.514,502.667 33.976,487.282 z"
     id="path3313" /><path
     d="m 224.585,548.392 c -4.581,1.793 -9.726,2.785 -15.442,2.785 -5.955,0 -11.606,-1.356 -16.742,-3.715 -2.323,-1.119 -3.88,-2.586 -3.88,-4.494 v -5.627 c -11.354,-6.725 -19.65,-19.047 -22.048,-34.592 -1.602,-1.088 -2.535,-2.363 -2.535,-3.865 0,-1.504 0.867,-2.617 1.695,-3.336 1.609,-1.399 4.432,-2.506 7.906,-3.383 2.303,-3.518 6.276,-5.848 10.783,-5.848 1.725,0 3.373,0.342 4.88,0.957 1.921,-3.349 5.511,-5.429 9.36,-5.429 0.644,0 1.275,0.058 1.89,0.168 1.011,-4.971 5.436,-8.629 10.571,-8.629 5.736,0 10.426,4.478 10.765,10.131 2.332,0.214 4.557,1.203 6.286,2.783 l 14.214,-27.875 c 1.891,-3.492 7.13,-0.656 5.239,2.832 l -13.433,23.803 c 0.788,0.025 1.556,0.134 2.302,0.32 l 20.002,-30.779 c 2.244,-3.276 7.16,0.091 4.918,3.367 l -20.92,29.377 c 1.493,1.162 2.678,2.709 3.396,4.506 6.283,1.486 10.862,3.707 10.862,7.035 0,1.648 -1.123,3.025 -3.025,4.177 -2.545,14.25 -9.55,27.135 -21.145,34.211 v 5.696 c 0,2.441 -2.524,4.228 -5.899,5.424 m -15.442,-0.791 c 5.3,0 10.056,-0.938 14.194,-2.557 1.477,-0.524 2.552,-1.108 3.139,-1.611 0.278,-0.239 0.394,-0.395 0.433,-0.465 l 0.041,-3.787 c -5.149,2.427 -11.082,3.802 -17.807,3.802 -6.037,0 -11.78,-1.31 -16.999,-3.73 l 0.087,3.853 c 0.258,0.284 0.778,0.686 1.693,1.127 4.693,2.146 9.826,3.368 15.219,3.368 m 38.686,-42.831 c -11.354,3.918 -33.388,4.127 -38.531,4.127 -5.192,0 -27.604,-0.211 -38.857,-4.244 4.238,21.096 20.165,34.758 38.702,34.758 19.236,-0.002 34.525,-13.6 38.686,-34.641 m -15.532,-16.538 -4.401,7.803 c 0.428,0.127 0.847,0.291 1.254,0.49 l 5.489,-8.447 c -0.289,-0.031 -0.577,-0.047 -0.872,-0.047 -0.513,-0.001 -1,0.076 -1.47,0.201 m 12.249,7.87 c 2.036,0.713 3.722,2.26 4.621,4.274 1.981,-0.977 2.27,-1.736 2.27,-1.912 0,-0.147 -0.207,-0.715 -1.457,-1.473 -0.703,-0.426 -1.739,-0.914 -3.255,-1.422 -0.689,-0.23 -1.429,-0.451 -2.211,-0.654 0.027,0.303 0.04,0.609 0.04,0.922 -0.002,0.09 -0.004,0.18 -0.008,0.265 m -4.534,-0.187 c 0.524,-0.133 1.047,-0.211 1.562,-0.236 -0.047,-2.412 -1.185,-4.52 -2.903,-5.909 l -6.566,9.229 c 0.149,0.207 0.291,0.424 0.426,0.646 1.007,1.709 -1.562,3.223 -2.564,1.51 -1.806,-3.06 -6.345,-3.472 -8.427,-0.222 -1.072,1.671 -3.58,0.062 -2.507,-1.608 1.044,-1.627 2.474,-2.681 4.041,-3.211 l 3.578,-7.021 c -1.477,-1.666 -3.625,-2.643 -5.855,-2.643 -1.895,0 -1.964,-0.676 -1.964,-2.281 0,-4.311 -3.496,-7.805 -7.808,-7.805 -4.236,0 -7.681,3.401 -7.802,7.571 -0.004,0.119 -0.017,0.228 -0.032,0.326 3.197,-0.188 6.505,1.377 8.203,4.615 0.924,1.76 -1.715,3.143 -2.637,1.383 -2.156,-4.108 -8.246,-4.123 -10.117,0.377 -0.763,1.83 -3.513,0.687 -2.752,-1.147 0.882,-2.117 2.384,-3.588 4.132,-4.422 -0.551,-0.119 -1.07,-0.238 -1.455,-0.238 -4.94,0 -6.19,3.467 -7.415,5.111 1.199,0.205 2.369,0.668 3.42,1.405 1.627,1.14 -0.083,3.576 -1.709,2.439 -2.811,-1.971 -6.935,-0.916 -8.325,2.428 -0.764,1.834 -3.513,0.687 -2.75,-1.143 1.162,-2.795 3.555,-4.545 6.191,-5.08 -1.129,-0.447 -2.362,-0.693 -3.652,-0.693 -5.462,0 -9.903,4.449 -9.903,9.902 0,1.987 -2.979,1.987 -2.979,0 0,-1.299 0.193,-2.554 0.554,-3.732 -1.406,0.451 -2.595,0.961 -3.487,1.525 -0.286,0.18 -0.542,0.369 -0.765,0.563 -0.485,0.42 -0.586,0.726 -0.586,0.908 0,0.23 0.507,1.48 4.716,2.894 3.652,1.223 8.694,2.09 14.021,2.682 1.945,0.217 3.903,0.397 5.815,0.539 1.296,-3.791 5.575,-6.267 10.2,-6.267 3.023,0 5.804,1.025 7.767,2.744 1.494,1.306 -0.469,3.549 -1.961,2.242 -1.372,-1.201 -3.437,-2.01 -5.806,-2.01 -3.355,0 -5.939,1.566 -7.036,3.508 7.196,0.445 13.19,0.463 14.426,0.463 1.73,0 12.782,-0.037 23.403,-1.219 5.164,-0.578 10.067,-1.408 13.689,-2.576 -0.975,-2.041 -3.245,-3.27 -5.65,-2.662 -1.925,0.49 -2.66,-2.4 -0.731,-2.885"
     id="path3315" /><path
     d="m 404.524,463.208 c -0.307,-0.31 -0.732,-0.488 -1.168,-0.488 -1.072,0 -2.142,0.047 -3.212,0.117 l 0.036,-2.758 c 0.009,-0.584 -0.218,-1.148 -0.63,-1.564 -0.411,-0.416 -0.972,-0.69 -1.557,-0.69 -0.666,0 -1.334,0.012 -2.001,0.012 h 0.009 l 0.027,-2.223 c 0.007,-0.583 -0.22,-1.128 -0.632,-1.542 -0.409,-0.416 -0.972,-0.641 -1.556,-0.641 -18.775,0 -37.042,16.527 -42.409,21.812 -13.238,-12.24 -30.93,-20.191 -31.706,-20.537 -0.685,-0.304 -1.479,-0.236 -2.103,0.182 -0.624,0.418 -0.992,1.125 -0.972,1.873 l 0.073,2.883 c 0.033,0.013 0.077,0.035 0.11,0.049 -0.734,-0.319 -1.198,-0.512 -1.313,-0.559 -0.684,-0.281 -1.464,-0.199 -2.073,0.225 -0.609,0.42 -0.964,1.119 -0.943,1.857 l 0.09,3.248 c -1.009,-0.381 -1.591,-0.588 -1.626,-0.598 -0.504,-0.177 -1.077,-0.093 -1.514,0.225 -0.435,0.322 -0.686,0.834 -0.668,1.375 l 2.186,67.441 c 0.025,0.776 0.6,1.436 1.365,1.563 17.982,3.061 39.453,16.496 39.67,16.633 0.263,0.164 0.566,0.252 0.875,0.252 0.196,0 0.388,-0.035 0.569,-0.104 19.521,-7.25 48.912,-14.627 49.207,-14.699 0.722,-0.18 1.232,-0.822 1.244,-1.564 l 1.093,-70.604 c 0.008,-0.438 -0.163,-0.863 -0.471,-1.176 m -92.38,4.591 c 6.411,2.447 24.662,9.906 37.733,19.986 0.163,0.125 0.349,0.205 0.545,0.258 -0.705,0.221 -1.211,0.93 -1.182,1.695 l 2.111,57.127 c -0.169,-0.099 -0.34,-0.201 -0.524,-0.308 l -3.229,-58.108 c -4.993,-5.992 -30.954,-17.451 -35.414,-19.39 l -0.04,-1.26 z m 41.175,43.473 5.166,3.677 -4.923,2.916 -0.243,-6.593 z m 0.296,8.006 5.059,1.441 -4.819,5.09 -0.24,-6.531 z m 1.034,28.046 -0.779,-21.117 6.831,-0.269 -3.392,6.615 7.059,-2.463 -1.239,7.074 6.194,-4.39 1.023,6.84 4.72,-5.893 3.196,5.939 2.78,-6.818 5.056,4.459 0.572,-7.078 6.419,2.537 -1.693,-6.639 7.153,0.368 -3.786,-5.559 6.101,-1.557 -0.222,14.307 c -5.581,1.428 -28.744,7.461 -45.993,13.644 m 21.014,-20.238 c 0,-1.51 1.605,-2.734 3.588,-2.734 1.981,0 3.587,1.224 3.587,2.734 0,1.51 -1.605,2.733 -3.587,2.733 -1.982,0 -3.588,-1.223 -3.588,-2.733 m 20.765,-11.918 4.543,-2.687 -0.092,5.855 -4.451,-3.168 z m -0.191,-5.769 4.859,-5.133 -0.1,6.492 -4.759,-1.359 z m 4.867,-5.489 -6.889,0.272 3.389,-6.613 -7.057,2.461 1.239,-7.073 -2.982,2.114 -4.771,29.281 c -2.391,-2.186 -8.37,0 -8.37,0 l -6.056,-30.832 -0.79,-0.698 -0.573,7.077 -5.82,-2.301 c 0.4,-0.195 0.765,-0.367 1.058,-0.496 0.812,-0.362 1.65,-0.733 -0.351,-13.414 -0.052,-0.338 -0.258,-0.629 -0.557,-0.791 -0.3,-0.162 -0.656,-0.18 -0.966,-0.041 -0.163,0.074 -4.039,1.797 -7.019,3.558 -0.361,0.213 -0.569,0.612 -0.534,1.028 l 0.986,12.246 c 0.029,0.367 0.242,0.693 0.565,0.871 0.163,0.09 0.343,0.135 0.524,0.135 0.177,0 0.354,-0.043 0.515,-0.129 0.038,-0.022 3.079,-1.637 5.303,-2.737 l 1.57,6.172 -7.151,-0.367 3.784,5.559 -6.844,1.746 -0.791,-21.424 c -0.027,-0.729 -0.527,-1.295 -1.191,-1.477 0.22,-0.06 0.432,-0.15 0.609,-0.297 0.249,-0.21 24.947,-20.806 49.755,-21.712 l -0.585,37.882 z m -44.016,-6.05 -0.798,-9.905 c 1.712,-0.97 3.65,-1.914 4.9,-2.5 0.61,4.123 1.095,8.514 0.981,9.838 -1.389,0.649 -3.616,1.799 -5.083,2.567 m 9.386,-23.868 c -0.744,0.418 -1.464,0.836 -2.168,1.252 8.251,-5.791 19.83,-12.193 31.475,-12.937 l -0.013,0.986 c -11.218,1.637 -21.818,6.494 -29.294,10.699 m 25.155,-16.156 c -9.554,2.188 -18.69,6.26 -26.006,10.934 7.157,-5.17 16.561,-10.543 26.006,-11.276 l -0.004,0.342 h 0.004 z m 2.199,0.25 c -0.034,0.004 -0.068,0.01 -0.105,0.014 0.037,-0.004 0.071,-0.01 0.105,-0.014 m -42.384,21.745 c -0.193,0.174 -0.375,0.336 -0.542,0.491 0.166,-0.155 0.349,-0.32 0.542,-0.491 m 13.88,-10.596 c -0.36,0.232 -0.718,0.464 -1.07,0.697 0.352,-0.233 0.71,-0.465 1.07,-0.697 m -1.61,1.06 c -0.267,0.178 -0.534,0.358 -0.797,0.537 0.263,-0.179 0.53,-0.359 0.797,-0.537 m -1.356,0.922 c -0.246,0.17 -0.491,0.342 -0.73,0.51 0.24,-0.168 0.482,-0.34 0.73,-0.51 m -1.277,0.898 c -0.236,0.168 -0.47,0.338 -0.7,0.504 0.23,-0.166 0.464,-0.336 0.7,-0.504 m -1.211,0.875 c -0.238,0.176 -0.472,0.352 -0.703,0.524 0.231,-0.172 0.465,-0.347 0.703,-0.524 m -1.154,0.86 c -0.253,0.189 -0.497,0.379 -0.741,0.566 0.244,-0.189 0.488,-0.376 0.741,-0.566 m -1.097,0.84 c -0.715,0.55 -1.39,1.088 -2.024,1.599 0.634,-0.511 1.309,-1.049 2.024,-1.599 m -2.308,1.832 c -0.217,0.177 -0.433,0.355 -0.64,0.525 0.207,-0.17 0.42,-0.348 0.64,-0.525 m -0.95,0.785 c -0.186,0.156 -0.371,0.308 -0.549,0.459 0.178,-0.151 0.361,-0.305 0.549,-0.459 m -0.849,0.714 c -0.169,0.144 -0.336,0.287 -0.496,0.426 0.162,-0.14 0.326,-0.282 0.496,-0.426 m -0.765,0.657 c -0.162,0.141 -0.318,0.277 -0.471,0.41 0.153,-0.132 0.308,-0.269 0.471,-0.41 m -0.686,0.6 c -0.163,0.144 -0.317,0.283 -0.467,0.416 0.15,-0.133 0.303,-0.27 0.467,-0.416 m -5.02,-2.088 c -9.272,-7.131 -19.651,-12.559 -25.889,-15.528 l -0.037,-1.435 c 5.396,2.705 16.677,8.84 25.926,16.963 m -27.093,-16.094 c -0.116,-0.055 -0.23,-0.108 -0.343,-0.16 0.114,0.054 0.226,0.106 0.343,0.16 m -1.245,-0.572 c -0.047,-0.022 -0.101,-0.045 -0.147,-0.067 0.047,0.02 0.099,0.045 0.147,0.067 m -1.033,-0.465 c -0.085,-0.037 -0.165,-0.074 -0.245,-0.108 0.081,0.034 0.158,0.07 0.245,0.108 m -0.697,4.492 c 4.465,2.045 13.096,6.275 21.63,11.982 -8.151,-4.597 -16.276,-8.171 -21.585,-10.334 l -0.045,-1.648 z"
     id="path3317" /><path
     d="m 368.371,480.796 7.652,42.638 c 0,0 2.431,-0.97 4.697,-0.97 1.134,0 2.228,0.242 2.956,0.97 l 7.653,-51.384 c 10e-4,0 -19.679,3.281 -22.958,8.746 m 17.715,-3.219 -6.037,40.531 c -0.177,0.01 -0.354,0.022 -0.531,0.039 l -6.451,-35.945 c 2.169,-1.455 7.281,-3.258 13.019,-4.625"
     id="path3319" /><rect
     width="45"
     height="45"
     x="452.81799"
     y="455.16299"
     id="rect3321" /><rect
     width="45"
     height="45"
     x="503.819"
     y="455.16299"
     id="rect3323" /><rect
     width="45"
     height="45"
     x="452.81799"
     y="505.354"
     id="rect3325" /><rect
     width="45"
     height="45"
     x="503.819"
     y="505.354"
     id="rect3327" /><path
     d="m 675.748,549.906 -30.899,-22.453 -30.901,22.453 11.803,-36.328 -30.901,-22.451 h 38.195 l 11.805,-36.326 11.805,36.326 h 38.195 l -30.9,22.451 11.798,36.328 z m -30.899,-27.4 23.286,16.918 -8.894,-27.373 23.285,-16.92 h -28.783 l -8.895,-27.375 -8.896,27.375 H 607.17 l 23.287,16.92 -8.896,27.373 23.288,-16.918 z"
     id="path3329" /><path
     d="M 94.284,698.667 H 32.622 v -66.594 l 22.391,-20.762 h 16.88 l 22.391,20.764 v 66.592 z M 42.899,688.389 H 84.006 V 636.561 L 67.861,621.588 h -8.816 l -16.146,14.973 v 51.828 z m 15.416,-33.4 h -5.141 v 26.977 h 5.141 v -26.977 z m 15.414,0 h -5.138 v 26.977 h 5.138 v -26.977 z m -10.278,-8.465 c -6.02,0 -10.917,-4.9 -10.917,-10.92 0,-6.021 4.897,-10.918 10.917,-10.918 6.022,0 10.921,4.896 10.921,10.918 0,6.02 -4.899,10.92 -10.921,10.92 m 0,-15.418 c -2.477,0 -4.495,2.018 -4.495,4.498 0,2.477 2.018,4.496 4.495,4.496 2.48,0 4.498,-2.016 4.498,-4.496 0,-2.479 -2.018,-4.498 -4.498,-4.498 m 0.187,5.898 c -1.239,0 -2.331,-0.9 -2.533,-2.166 -2.368,-14.844 14.563,-24.93 26.716,-30.17 1.073,-2.193 2.077,-4.308 2.949,-6.217 2.031,-4.438 5.602,-5.496 8.269,-5.012 3.004,0.549 5.321,2.971 5.51,5.758 0.099,1.456 -0.297,5.045 -6.07,6.926 -2.302,0.752 -4.612,1.59 -6.881,2.508 -2.989,6.018 -6.432,12.457 -9.215,16.826 -0.764,1.194 -2.351,1.547 -3.549,0.785 -1.196,-0.764 -1.548,-2.352 -0.784,-3.547 1.766,-2.773 3.894,-6.576 6.012,-10.613 -10.958,5.682 -19.259,13.326 -17.883,21.947 0.221,1.402 -0.733,2.719 -2.133,2.943 -0.135,0.023 -0.273,0.032 -0.408,0.032 m 34.164,-38.539 c -1.199,0 -1.984,1.301 -2.359,2.121 -0.2,0.44 -0.408,0.887 -0.622,1.35 0.765,-0.27 1.459,-0.5 2.063,-0.699 1.96,-0.637 2.555,-1.419 2.536,-1.695 -0.022,-0.334 -0.543,-0.91 -1.306,-1.049 -0.106,-0.018 -0.21,-0.028 -0.312,-0.028"
     id="path3331" /><path
     d="m 258.105,663.114 c -3.745,-1.666 -7.761,-1.916 -11.446,-0.975 -3.379,-16.225 -13.73,-30.344 -28.325,-38.4 1.592,-4.307 5.093,-7.539 9.322,-8.885 -1.823,-1.443 -4.015,-2.475 -6.462,-2.924 -6.146,-1.125 -12.099,1.758 -15.17,6.789 -1.647,-0.455 -3.323,-0.84 -5.035,-1.154 -14.811,-2.709 -37.289,-2.395 -35.168,12.717 -11.228,7.797 -6.726,9.393 -0.181,7.385 9.502,-2.811 19.471,-2.387 29.854,-0.998 -0.543,0.793 -0.669,0.285 -1.115,2.719 -0.445,2.434 1.851,7.562 5.711,8.268 l 0.017,0.002 c -1.039,-1.498 -1.5,-3.404 -1.149,-5.324 0.351,-1.92 1.426,-3.494 2.894,-4.527 15.441,3.461 32.501,13.047 41.917,25.344 -3.792,1.707 -6.996,4.762 -8.82,8.86 -1.301,2.921 -1.735,6.005 -1.42,8.97 2.854,-5.367 15.445,-7.527 14.099,-12.275 3.976,3.428 11.388,-1.264 17.861,0.588 -1.774,-2.626 -4.279,-4.797 -7.384,-6.18"
     id="path3333" /><path
     d="m 547.239,654.29 h -16.2 v -5.164 h 6.503 v -5.484 h -35.599 v -5.266 h 16.201 c 3.701,0 4.1,-2.648 4.1,-3.785 v -19.058 c 0,-2.847 -1.378,-4.288 -4.1,-4.288 h -34.751 c -1.87,0 -4.101,0.744 -4.101,4.288 v 19.058 c 0,1.414 0.534,3.785 4.101,3.785 h 16.201 v 5.266 h -35.569 v 5.484 h 6.574 v 5.092 h -16.2 c -1.872,0 -4.102,0.742 -4.102,4.287 v 19.057 c 0,1.414 0.533,3.785 4.102,3.785 h 34.752 c 3.699,0 4.099,-2.647 4.099,-3.785 v -19.057 c 0,-2.847 -1.379,-4.287 -4.099,-4.287 h -16.204 v -5.092 h 55.743 v 5.166 h -16.203 c -1.87,0 -4.099,0.741 -4.099,4.287 v 19.059 c 0,1.414 0.531,3.785 4.099,3.785 h 34.752 c 3.699,0 4.1,-2.646 4.1,-3.785 v -19.059 c 0,-2.846 -1.379,-4.289 -4.1,-4.289 m -64.415,-19.498 c -0.006,-0.051 -0.009,-0.117 -0.009,-0.201 v -19.058 c 0,-0.39 0.037,-0.603 0.064,-0.709 0.085,-0.017 0.245,-0.041 0.514,-0.041 h 34.751 c 0.266,0 0.426,0.021 0.518,0.038 0.025,0.111 0.06,0.326 0.06,0.712 v 19.058 c 0,0.084 -0.003,0.15 -0.009,0.199 -0.104,0.023 -0.282,0.047 -0.568,0.047 h -34.751 c -0.281,-10e-4 -0.46,-0.022 -0.57,-0.045 m 6.841,23.001 c 0.028,0.111 0.062,0.328 0.062,0.711 v 19.057 c 0,0.086 -0.004,0.15 -0.011,0.199 -0.103,0.021 -0.283,0.045 -0.567,0.045 h -34.75 c -0.28,0 -0.463,-0.022 -0.571,-0.043 -0.004,-0.051 -0.009,-0.115 -0.009,-0.201 v -19.057 c 0,-0.389 0.036,-0.602 0.062,-0.707 0.088,-0.02 0.247,-0.041 0.518,-0.041 h 34.752 c 0.263,0 0.425,0.02 0.514,0.037 m 58.154,19.844 c 0,0.082 -0.005,0.147 -0.012,0.199 -0.105,0.02 -0.283,0.045 -0.568,0.045 h -34.752 c -0.278,0 -0.46,-0.021 -0.568,-0.043 -0.005,-0.051 -0.009,-0.119 -0.009,-0.201 v -19.059 c 0,-0.391 0.037,-0.602 0.063,-0.707 0.087,-0.02 0.245,-0.039 0.514,-0.039 h 34.752 c 0.265,0 0.426,0.018 0.517,0.034 0.027,0.112 0.063,0.329 0.063,0.712 v 19.059 z"
     id="path3335" /><path
     d="m 695.287,682.498 h -100 v -73 h 100 v 73 z m -92,-8 h 84 v -57 h -84 v 57 z"
     id="path3337" /><polygon
     points="609.286,668.497 681.286,668.497 663.286,644.497 652.286,653.497 630.286,623.497 "
     id="polygon3339" /><path
     d="m 672.286,624.497 c 3.866,0 7,3.133 7,7 0,3.865 -3.134,7 -7,7 -3.866,0 -7,-3.135 -7,-7 0,-3.868 3.134,-7 7,-7"
     id="path3341" /><path
     d="M 71.096,838.667 H 69.75 52.264 c 2.464,0 2.69,2 2.69,2 h 14.796 1.346 14.796 c 0,0 0.226,-2 2.69,-2 H 71.096 z"
     id="path3343" /><path
     d="m 69.75,745.667 h 1.346 17.486 c -2.466,0 -2.69,-5 -2.69,-5 H 71.096 69.75 54.954 c 0,0 -0.228,5 -2.69,5 H 69.75 z"
     id="path3345" /><path
     d="m 52.422,837.667 h 36 v -91 h -36 v 91 z m 24.643,-41.379 -17.777,14.926 10.768,-14.072 -10.768,-10.375 8.203,-15.1 h 14.357 l -12.305,15.301 7.522,9.32 z"
     id="path3347" /><path
     d="m 264.713,808.957 -0.131,-1.354 -15.589,2.984 c 0.056,-3.807 0.2,-14.389 0.181,-25.857 -0.002,-1.771 0,-3.568 0,-5.365 0.004,-10.703 0.01,-21.77 -0.777,-28.084 -0.465,-3.73 -2.829,-9.613 -7.192,-9.613 h -0.07 c -15.162,0.213 -62.319,6.16 -70.12,7.156 -1.819,-0.023 -3.355,0.605 -4.561,1.891 -4.011,4.275 -2.705,14.57 -2.648,15.008 l 0.163,1.235 15.216,-2.087 c 1.211,8.656 0.974,20.242 0.753,31.07 -0.053,2.613 -0.109,5.311 -0.143,7.922 -0.022,1.561 -0.055,3.104 -0.09,4.617 -0.328,14.781 -0.611,27.547 12.465,30.543 1.067,0.242 2.073,0.365 3.019,0.365 0.963,0 1.863,-0.127 2.699,-0.381 l 0.026,0.116 60.229,-13.351 0.08,-0.02 c 0.198,-0.059 4.886,-1.488 6.157,-6.92 0.908,-3.871 0.357,-9.634 0.333,-9.875 m -98.577,-44.8 c -0.256,-3.254 -0.203,-9.268 2.124,-11.746 0.548,-0.582 1.197,-0.93 1.967,-1.057 l 0.01,0.068 c 0.039,-0.004 0.369,-0.047 0.937,-0.119 0.032,0 0.063,0 0.096,0.002 4.051,0.276 6.302,4.627 7.518,11.119 l -12.652,1.733 z m 33.118,71.283 c -1.56,1.435 -3.696,1.812 -6.529,1.166 -11.107,-2.543 -10.859,-13.807 -10.541,-28.07 0.033,-1.52 0.068,-3.07 0.089,-4.641 0.035,-2.6 0.089,-5.248 0.143,-7.9 0.227,-11.088 0.46,-22.557 -0.722,-31.244 -0.957,-7.031 -2.818,-11.688 -5.637,-14.064 14.496,-1.811 51.992,-6.354 65.113,-6.539 h 0.032 c 2.689,0 4.41,4.838 4.735,7.441 0.768,6.161 0.761,17.148 0.758,27.775 -0.002,1.799 -0.002,3.596 0,5.371 0.02,12.015 -0.14,23.057 -0.19,26.328 l -44.546,8.535 0.166,1.168 c 0.423,2.959 0.728,11.365 -2.871,14.674 m 62.712,-17.17 c -0.897,3.84 -4.056,4.979 -4.41,5.096 l -55.226,12.242 c 2.886,-4.357 2.622,-11.262 2.379,-14.014 l 57.633,-11.039 c 0.108,1.873 0.192,5.293 -0.376,7.715"
     id="path3349" /><path
     d="m 307.209,751.932 v 4.143 70.182 4.143 h 4.034 92.677 4.033 v -4.143 -70.182 -4.143 h -4.033 -92.677 -4.034 z m 8.068,8.287 h 84.608 v 61.895 h -84.608 v -61.895 z"
     id="path3351" /><path
     d="m 320.77,765.184 v 0.658 50.614 0.657 h 0.614 72.624 0.659 v -0.657 -50.614 -0.658 h -0.659 -72.624 -0.614 z m 1.273,1.316 h 71.306 v 49.295 H 322.043 V 766.5 z"
     id="path3353" /><path
     d="m 383.684,791.057 c 0.29,-0.514 0.596,-1.02 0.905,-1.521 0.302,0.514 0.595,1.037 0.923,1.539 0.425,-0.42 0.889,-0.795 1.331,-1.194 0.118,0.587 0.255,1.169 0.391,1.755 0.539,-0.234 1.083,-0.467 1.628,-0.693 -0.026,0.592 -0.104,1.182 -0.145,1.773 0.586,-0.064 1.173,-0.115 1.759,-0.162 -0.225,0.553 -0.468,1.098 -0.697,1.645 0.579,0.119 1.151,0.252 1.726,0.379 -0.364,0.467 -0.781,0.89 -1.138,1.363 0.496,0.303 1.002,0.596 1.508,0.895 -0.502,0.322 -1.021,0.619 -1.53,0.926 0.396,0.438 0.778,0.883 1.165,1.33 -0.569,0.152 -1.151,0.271 -1.726,0.404 0.225,0.554 0.48,1.092 0.692,1.648 -0.586,-0.059 -1.173,-0.105 -1.755,-0.17 0.033,0.596 0.094,1.186 0.141,1.782 -0.545,-0.235 -1.085,-0.478 -1.632,-0.688 -0.06,0.272 -0.167,0.559 -0.052,0.832 0.947,2.848 1.903,5.691 2.869,8.535 -0.773,-0.447 -1.518,-0.936 -2.287,-1.383 -0.398,0.762 -0.773,1.535 -1.194,2.283 -0.055,-0.17 -0.098,-0.344 -0.141,-0.52 -0.586,-2.57 -1.207,-5.139 -1.789,-7.709 h -0.11 c -0.464,2.02 -0.942,4.033 -1.411,6.049 -0.174,0.713 -0.311,1.436 -0.517,2.137 -0.423,-0.748 -0.788,-1.521 -1.192,-2.277 -0.769,0.451 -1.513,0.936 -2.282,1.381 0.978,-2.826 1.887,-5.674 2.855,-8.5 0.091,-0.273 0.022,-0.562 -0.046,-0.828 -0.552,0.211 -1.092,0.459 -1.637,0.688 0.039,-0.597 0.11,-1.187 0.146,-1.786 -0.587,0.059 -1.169,0.111 -1.755,0.174 0.224,-0.552 0.471,-1.095 0.691,-1.648 -0.568,-0.133 -1.146,-0.252 -1.717,-0.396 0.375,-0.459 0.778,-0.896 1.16,-1.346 -0.519,-0.293 -1.028,-0.596 -1.534,-0.918 0.514,-0.299 1.012,-0.609 1.531,-0.895 -0.379,-0.461 -0.8,-0.889 -1.161,-1.363 0.574,-0.123 1.147,-0.26 1.721,-0.379 -0.225,-0.547 -0.463,-1.096 -0.691,-1.645 0.591,0.029 1.177,0.098 1.759,0.162 -0.03,-0.592 -0.098,-1.182 -0.141,-1.773 0.544,0.223 1.079,0.477 1.633,0.676 0.127,-0.576 0.272,-1.15 0.382,-1.732 0.454,0.389 0.884,0.809 1.364,1.17 m 0.684,0.971 c -1.411,0.045 -2.78,0.781 -3.588,1.938 -0.904,1.232 -1.104,2.928 -0.582,4.359 0.356,1.029 1.122,1.9 2.062,2.445 1.323,0.76 3.022,0.795 4.395,0.131 0.753,-0.357 1.381,-0.947 1.849,-1.635 1.037,-1.574 0.995,-3.783 -0.118,-5.307 -0.886,-1.279 -2.47,-2.027 -4.018,-1.931"
     id="path3355" /><path
     d="m 384.283,792.366 c 1.674,-0.143 3.379,0.822 4.136,2.322 0.382,0.695 0.514,1.504 0.476,2.291 -0.077,1.928 -1.628,3.676 -3.532,3.986 -1.679,0.326 -3.515,-0.447 -4.42,-1.904 -0.995,-1.475 -0.914,-3.566 0.175,-4.973 0.73,-1.004 1.924,-1.64 3.165,-1.722"
     id="path3357" /><path
     d="m 358.579,775.965 -0.035,2.283 c 9.143,0.094 15.724,1.385 20.034,2.707 4.474,1.373 6.468,2.673 6.468,2.673 l 1.229,-1.829 c 0,0 -2.342,-1.514 -7.029,-2.953 -4.516,-1.384 -11.324,-2.781 -20.667,-2.881 m -4.639,0.036 c -4.31,0.159 -7.996,0.589 -11.142,1.159 l 0.457,2.213 c 3.064,-0.527 6.682,-0.945 10.896,-1.09 l 0.035,-2.282 c -0.08,0.002 -0.166,-0.002 -0.246,0 m -15.43,2.107 c -0.968,0.246 -1.889,0.488 -2.707,0.738 -4.688,1.439 -6.994,2.953 -6.994,2.953 l 1.23,1.829 c 0,0 1.925,-1.3 6.397,-2.673 0.763,-0.234 1.622,-0.477 2.531,-0.702 l -0.457,-2.145 z"
     id="path3359" /><rect
     width="16.871"
     height="1.125"
     x="326.52499"
     y="804.64502"
     id="rect3361" /><rect
     width="16.871"
     height="1.125"
     x="326.52499"
     y="810.26801"
     id="rect3363" /><path
     d="m 457.73,767.616 c -2.419,-4.07 -6.604,-8.094 -9.623,-9.254 l -0.487,-0.188 v -1.959 -1.959 l 0.312,-0.043 27.423,-0.043 c 0.017,0.746 0.031,2.301 0.011,3.762 -3.626,0.449 -7.999,2.223 -6.787,6.288 6.914,15.276 13.205,30.825 20.031,46.14 l 11.717,-21.906 c -4.535,-9.287 -7.837,-18.68 -12.801,-27.791 -1.617,-2.623 -5.993,-2.694 -9.093,-2.799 l 0.011,-3.625 25.922,0.088 0.074,3.504 c -2.337,0.322 -5.091,0.877 -4.778,3.709 l 7.356,16.271 c 2.421,-5.166 5.112,-10.221 7.248,-15.514 0.969,-4.191 -3.746,-4.402 -6.753,-4.518 l -0.054,-3.453 23.163,-0.088 v 3.531 c -3.386,0.241 -6.588,1.217 -8.456,3.719 -4.539,7.018 -7.905,14.982 -11.441,22.604 3.492,8.259 7.134,16.509 10.704,24.084 l 19.743,-45.538 c -1.332,-3.002 -4.35,-4.062 -7.31,-4.748 l -0.15,-3.673 21.893,0.175 -10e-4,3.572 c -0.976,0.152 -1.909,0.453 -2.811,0.846 -1.714,0.795 -3.33,2.371 -4.415,4.303 l -27.212,62.611 -4.561,0.033 -12.945,-30.487 -15.715,30.486 -4.718,0.002 c -9.18,-19.125 -15.822,-39.25 -25.497,-58.142"
     id="path3365" /><polygon
     points="632.148,755.065 658.828,794.264 658.828,755.065 679.466,755.065 679.466,825.919 658.828,825.919 632.294,787.014 632.294,825.919 611.704,825.919 611.704,755.065 "
     id="polygon3367" /><path
     d="m 76.361,927.116 c -0.353,-0.074 -0.622,-0.15 -0.959,-0.226 v -12.123 c 5.604,0.903 11.528,3.358 17.053,7.246 l 10.771,-15.209 C 95.695,900.761 86.648,897.302 75.402,896.619 V 885.978 H 69.98 v 10.545 C 52.099,897 41.169,907.252 41.169,921.342 v 0.226 c 0,15.819 12.516,20.545 28.811,24.307 v 12.769 c -7.261,-0.928 -14.177,-3.966 -20.482,-8.986 l -11.989,14.315 c 8.629,7.726 20.17,11.969 32.471,12.715 v 9.186 h 5.422 v -9.075 c 18.031,-0.482 29.934,-9.811 29.934,-25.254 v -0.229 c 0,-14.539 -11.101,-20.314 -28.975,-24.2 M 62.93,919.573 v -0.229 c 0,-2.634 2.339,-4.751 7.05,-4.949 v 11.088 c -5.48,-1.666 -7.05,-3.209 -7.05,-5.91 m 20.649,34.072 c 0,3.189 -2.875,5.132 -8.177,5.299 v -11.676 c 6.389,1.856 8.177,3.529 8.177,6.154 v 0.223 z"
     id="path3369" /><path
     d="m 239.779,948.943 c -7.509,4.875 -16.664,6.994 -25.551,5.9 -9.036,1.109 -18.349,-1.1 -25.928,-6.146 3.371,4.996 -1.153,10.008 -3.441,14.457 -5.19,-2.67 -10.379,-5.34 -15.569,-8.012 3.601,-0.932 7.204,-1.861 10.805,-2.793 1.46,-0.34 2.073,-1.322 1.743,-2.785 -2.368,-6.193 -13.85,-33.293 -0.912,-29.719 5.421,1.497 9.487,7.945 10.369,12.941 -0.499,-3.336 0.227,-6.742 1.953,-9.633 -6.362,-0.055 -9.737,-7.986 -5.053,-12.478 4.677,-4.483 12.488,-0.789 12.251,5.578 4.168,-2.386 8.989,-3.557 13.782,-3.547 4.793,-10e-4 9.606,1.154 13.775,3.547 -0.195,-6.354 7.565,-10.079 12.258,-5.578 4.684,4.492 1.307,12.419 -5.05,12.478 1.717,2.889 2.447,6.301 1.951,9.633 1.148,-6.584 6.15,-11.998 12.61,-13.695 2.452,-0.083 3.904,1.349 3.853,3.801 -1.385,9.119 -3.709,18.059 -7.006,26.674 -0.084,4.146 9.365,4.754 12.549,5.578 -5.19,2.67 -10.38,5.34 -15.57,8.012 -1.585,-3.084 -3.169,-6.164 -4.755,-9.248 -0.181,-1.842 0.276,-3.672 1.313,-5.209 l -0.377,0.244 z"
     id="path3371" /><path
     d="m 188.3,948.443 c -0.01,0 -0.02,-0.004 -0.027,-0.012 -6.244,-6.863 -8.084,-16.219 -8.625,-21.186 -0.002,-0.02 0.012,-0.038 0.032,-0.039 0.019,-0.002 0.037,0.012 0.039,0.031 0.541,4.958 2.379,14.297 8.608,21.145 0.014,0.016 0.013,0.039 -0.002,0.051 -0.008,0.008 -0.016,0.01 -0.025,0.01"
     id="path3373" /><path
     d="m 240.156,948.443 c -0.009,0 -0.018,-0.002 -0.023,-0.01 -0.016,-0.014 -0.018,-0.035 -0.002,-0.053 4.549,-4.975 7.686,-12.682 8.605,-21.143 0.004,-0.02 0.02,-0.035 0.041,-0.033 0.02,0.002 0.034,0.021 0.032,0.04 -0.921,8.476 -4.065,16.198 -8.626,21.187 -0.006,0.008 -0.016,0.012 -0.027,0.012"
     id="path3375" /><path
     d="m 402.488,888.167 h -84.977 c -2.913,0 -5.27,2.358 -5.27,5.271 v 84.977 c 0,2.912 2.357,5.271 5.27,5.271 h 18.191 27.559 V 946.7 h -12.446 v -14.414 h 12.446 v -10.629 c 0,-12.337 7.532,-19.057 18.539,-19.057 5.272,0 9.801,0.389 11.122,0.563 v 12.893 l -7.632,0.009 c -5.986,0 -7.141,2.841 -7.141,7.015 v 9.206 h 14.271 l -1.861,14.414 h -12.41 v 36.986 h 22.342 1.996 c 2.911,0 5.271,-2.358 5.271,-5.271 v -84.977 c 0.001,-2.913 -2.359,-5.271 -5.27,-5.271 z"
     id="path3377" /><path
     d="m 515.629,894.791 c -9.297,3.347 -15.172,11.974 -14.503,21.42 l 0.224,3.644 -3.719,-0.445 c -13.536,-1.711 -25.362,-7.513 -35.402,-17.256 l -4.909,-4.834 -1.264,3.57 c -2.678,7.958 -0.968,16.362 4.61,22.015 2.976,3.124 2.306,3.57 -2.826,1.711 -1.784,-0.595 -3.347,-1.042 -3.495,-0.818 -0.521,0.521 1.265,7.289 2.678,9.966 1.934,3.719 5.875,7.363 10.188,9.521 l 3.645,1.71 -4.313,0.075 c -4.165,0 -4.313,0.074 -3.867,1.636 1.487,4.835 7.363,9.967 13.908,12.197 l 4.61,1.562 -4.016,2.38 c -5.95,3.421 -12.941,5.354 -19.933,5.504 -3.347,0.074 -6.099,0.371 -6.099,0.595 0,0.745 9.073,4.908 14.354,6.545 15.842,4.834 34.658,2.752 48.79,-5.504 10.04,-5.875 20.081,-17.553 24.767,-28.857 2.528,-6.024 5.058,-17.031 5.058,-22.312 0,-3.421 0.223,-3.867 4.388,-7.958 2.454,-2.38 4.76,-4.983 5.206,-5.727 0.744,-1.413 0.67,-1.413 -3.123,-0.148 -6.322,2.23 -7.215,1.934 -4.091,-1.413 2.306,-2.38 5.058,-6.694 5.058,-7.959 0,-0.223 -1.116,0.149 -2.381,0.818 -1.338,0.744 -4.314,1.859 -6.545,2.529 l -4.016,1.264 -3.645,-2.454 c -2.008,-1.339 -4.834,-2.826 -6.322,-3.272 -3.792,-1.044 -9.593,-0.895 -13.015,0.295"
     id="path3379" /><path
     d="m 679.46,888.244 h -69.221 c -8.271,0 -14.976,6.704 -14.976,14.975 v 69.214 c 0,8.27 6.705,14.974 14.976,14.974 h 69.22 c 8.271,0 14.975,-6.704 14.975,-14.974 V 903.22 c 10e-4,-8.271 -6.704,-14.976 -14.974,-14.976 z m -54.189,83.239 h -14.903 v -44.845 h 14.903 v 44.845 z m -7.45,-50.968 h -0.099 c -5.004,0 -8.237,-3.443 -8.237,-7.748 0,-4.398 3.333,-7.747 8.433,-7.747 5.098,0 8.239,3.349 8.335,7.747 0,4.305 -3.237,7.748 -8.432,7.748 z m 61.198,50.968 h -14.905 v -23.992 c 0,-6.026 -2.156,-10.141 -7.55,-10.141 -4.115,0 -6.57,2.772 -7.646,5.452 -0.393,0.957 -0.49,2.297 -0.49,3.638 v 25.043 H 633.52 c 0,0 0.197,-40.637 0,-44.845 h 14.907 v 6.347 c 1.981,-3.057 5.523,-7.398 13.432,-7.398 9.807,0 17.16,6.407 17.16,20.182 v 25.714 z"
     id="path3381" /><path
     d="m 17.27,1082.333 c 5.002,-1.249 11.805,-2.95 23.722,-3.267 -0.329,-0.659 -0.626,-1.341 -0.889,-2.044 -4.638,-0.041 -18.92,0.618 -23.812,1.827 -0.028,0.01 -0.058,0.011 -0.087,0.011 -0.164,0 -0.315,-0.113 -0.355,-0.278 -0.047,-0.193 0.072,-0.393 0.267,-0.441 4.848,-1.198 18.786,-1.863 23.723,-1.851 -1.111,-3.268 -1.602,-7.011 -1.602,-11.189 0,-7.423 2.312,-10.223 5.417,-14.178 -2.375,-8.46 0.852,-14.241 0.852,-14.241 0,0 4.991,-1.036 14.424,5.721 5.114,-2.19 18.747,-2.373 25.196,-0.486 3.96,-2.617 11.2,-6.331 14.123,-5.292 0.79,1.274 2.494,4.985 1.033,13.144 0.993,1.789 6.148,5.6 6.169,16.372 -0.085,3.973 -0.498,7.327 -1.263,10.165 12.301,-0.104 19.536,0.911 24.52,1.829 0.195,0.04 0.327,0.229 0.293,0.427 -0.034,0.174 -0.187,0.3 -0.356,0.3 -0.026,0 -0.047,-0 -0.073,-0.01 -4.975,-0.92 -12.223,-1.932 -24.596,-1.819 -0.217,0.72 -0.459,1.404 -0.722,2.057 4.21,0.141 15.775,0.591 25.207,3.476 0.196,0.06 0.302,0.263 0.243,0.459 -0.047,0.155 -0.191,0.257 -0.349,0.257 -0.034,0 -0.072,-0 -0.106,-0.017 -9.563,-2.924 -21.379,-3.325 -25.309,-3.455 -3.42,7.515 -10.436,10.318 -21.775,11.484 3.675,2.313 4.729,5.215 4.729,13.067 0,7.852 -0.106,8.905 -0.081,10.71 0.039,2.964 4.381,4.383 4.219,5.337 -0.161,0.952 -3.632,0.799 -5.255,0.231 -4.597,-1.602 -4.139,-5.426 -4.139,-5.426 l -0.152,-10.498 c 0,0 0.314,-5.651 -1.772,-5.651 v 17.185 c 0,3.734 2.613,4.868 2.613,6.25 0,2.373 -4.775,-0.226 -6.246,-1.707 -2.244,-2.251 -1.989,-7.026 -1.934,-10.804 0.051,-3.647 -0.034,-11.624 -0.034,-11.624 l -1.523,0.032 c 0,0 0.625,17.426 -0.803,20.602 -1.846,4.076 -7.414,5.479 -7.414,3.621 0,-1.249 1.373,-0.852 2.131,-3.65 0.648,-2.382 0.427,-20.148 0.427,-20.148 0,0 -1.784,1.057 -1.784,4.383 0,1.523 -0.043,10.223 -0.043,12.812 0,3.256 -4.625,5.11 -6.847,5.11 -1.126,0 -2.526,-0.055 -2.526,-0.651 0,-1.506 4.23,-2.391 4.23,-5.523 0,-2.717 -0.059,-9.706 -0.059,-9.706 0,0 -2.133,0.365 -5.175,0.365 -7.669,0 -10.095,-4.895 -11.249,-7.634 -1.502,-3.565 -3.45,-5.242 -5.519,-6.58 -1.271,-0.822 -1.564,-1.794 -0.093,-2.069 6.789,-1.279 8.525,7.698 13.058,9.128 3.235,1.021 7.395,0.58 9.464,-0.758 0.274,-2.743 2.25,-5.114 3.896,-6.362 -11.531,-1.108 -18.367,-5.111 -21.91,-11.549 -12.062,0.29 -18.907,2.001 -23.925,3.255 -0.366,0.091 -0.722,0.18 -1.066,0.268 -0.03,0.01 -0.06,0.01 -0.09,0.01 -0.163,0 -0.312,-0.109 -0.355,-0.275 -0.048,-0.195 0.073,-0.396 0.269,-0.444 0.345,-0.089 0.699,-0.176 1.063,-0.27"
     id="path3383" /><path
     d="m 229.18,1079.952 c 0,-7.155 -5.8,-12.955 -12.955,-12.955 -7.155,0 -12.955,5.8 -12.955,12.955 0,7.154 5.8,12.954 12.955,12.954 7.155,0 12.955,-5.8 12.955,-12.954"
     id="path3385" /><path
     d="m 229.18,1044.452 c 0,-7.155 -5.8,-12.955 -12.955,-12.955 -7.155,0 -12.955,5.8 -12.955,12.955 0,7.154 5.8,12.954 12.955,12.954 7.155,0 12.955,-5.8 12.955,-12.954"
     id="path3387" /><path
     d="m 193.68,1044.452 c 0,-7.155 -5.8,-12.955 -12.955,-12.955 -7.155,0 -12.955,5.8 -12.955,12.955 0,7.154 5.8,12.954 12.955,12.954 7.155,0 12.955,-5.8 12.955,-12.954"
     id="path3389" /><path
     d="m 264.16,1044.452 c 0,-7.155 -5.8,-12.955 -12.955,-12.955 -7.155,0 -12.955,5.8 -12.955,12.955 0,7.154 5.8,12.954 12.955,12.954 7.155,0 12.955,-5.8 12.955,-12.954"
     id="path3391" /><path
     d="m 264.16,1079.952 c 0,-7.155 -5.8,-12.955 -12.955,-12.955 -7.155,0 -12.955,5.8 -12.955,12.955 0,7.154 5.8,12.954 12.955,12.954 7.155,0 12.955,-5.8 12.955,-12.954"
     id="path3393" /><path
     d="m 264.16,1115.452 c 0,-7.155 -5.8,-12.955 -12.955,-12.955 -7.155,0 -12.955,5.8 -12.955,12.955 0,7.154 5.8,12.954 12.955,12.954 7.155,0 12.955,-5.8 12.955,-12.954"
     id="path3395" /><path
     d="m 360.954,1030.548 c -27.284,0 -49.403,22.118 -49.403,49.403 0,27.284 22.119,49.403 49.403,49.403 27.285,0 49.403,-22.119 49.403,-49.403 0,-27.284 -22.118,-49.403 -49.403,-49.403 m 0,65.871 c -9.095,0 -16.469,-7.373 -16.469,-16.468 0,-9.095 7.374,-16.467 16.469,-16.467 9.095,0 16.469,7.373 16.469,16.467 0,9.095 -7.374,16.468 -16.469,16.468"
     id="path3397" /><path
     d="m 360.954,1078.716 c 0.683,0 1.235,0.553 1.235,1.235 0,0.682 -0.553,1.235 -1.235,1.235 -0.682,0 -1.235,-0.553 -1.235,-1.235 0,-0.682 0.553,-1.235 1.235,-1.235"
     id="path3399" /><g
     id="g3401"><g
       id="g3403"><path
         d="m 546.73,1116.706 -0.428,-0.252 c -0.066,-0.037 -0.08,-0.046 -0.145,-0.082 l -0.629,-0.279 c -2.42,-0.87 -5.402,-0.48 -6.73,-2.356 -0.254,-0.36 -0.422,-0.776 -0.635,-1.181 l -2.154,-4.204 c -0.484,-1.009 -1.037,-1.999 -1.541,-3.002 -0.201,-0.405 -0.393,-0.812 -0.617,-1.2 -0.207,-0.354 -0.404,-0.803 -0.594,-1.177 l -0.621,-1.198 c -0.203,-0.406 -0.434,-0.809 -0.609,-1.204 l -0.311,-0.598 c -0.434,-0.777 -1.129,-2.206 -1.533,-3.011 -0.383,-0.768 -1,-2.041 -1.385,-2.7 l -1.08,-2.103 c -0.213,-0.39 -0.398,-0.797 -0.605,-1.209 l -3.072,-6.011 c -0.049,-0.094 -0.09,-0.181 -0.141,-0.271 -0.379,-0.683 -0.695,-1.42 -1.074,-2.105 -0.223,-0.408 -0.406,-0.773 -0.619,-1.197 -0.453,-0.912 -0.885,-1.81 -1.379,-2.71 l -0.152,-0.299 c -0.113,-0.213 -0.234,-0.337 -0.268,-0.644 l -0.229,-3.404 c 0,-0.221 -0.029,-0.237 -0.043,-0.41 l -0.086,-1.275 c -0.061,-0.551 -0.082,-1.142 -0.098,-1.722 l -0.139,-1.679 c -0.004,-0.51 -0.062,-1.237 -0.123,-1.694 l -0.557,-7.62 c -0.018,-0.33 -0.037,-0.514 -0.045,-0.863 -0.006,-0.219 -0.035,-0.205 -0.049,-0.406 l -0.082,-1.278 c -0.062,-0.584 -0.053,-1.125 -0.102,-1.717 -0.045,-0.556 -0.104,-1.091 -0.133,-1.685 -0.025,-0.525 -0.172,-1.045 -0.232,-1.586 -0.025,-0.246 -0.084,-0.558 -0.117,-0.789 -0.131,-0.902 -0.232,-1.799 -0.531,-2.649 -0.043,-0.127 -0.074,-0.236 -0.111,-0.341 -0.074,-0.205 -0.154,-0.465 -0.248,-0.661 -0.17,-0.364 -0.348,-0.496 -0.68,-0.683 l -7.104,-4.252 c -0.387,-0.229 -1.074,-0.776 -1.574,-0.5 -0.105,0.06 -0.152,0.138 -0.234,0.219 -1.439,1.443 -1.102,0.937 -2.094,2.357 -0.549,0.789 -1.052,1.609 -1.586,2.41 -0.074,0.109 -0.102,0.169 -0.176,0.279 l -0.87,1.354 c -0.072,0.109 -0.114,0.162 -0.183,0.273 -0.859,1.41 -1.875,2.968 -2.789,4.342 -0.629,0.943 -2.4,3.577 -2.787,4.346 -0.436,0.864 -0.678,0.879 -1.527,0.879 -0.18,0 -1.327,-0.477 -1.587,-0.639 -0.087,-0.052 -0.099,-0.078 -0.185,-0.134 0.106,-0.453 2.246,-4.337 2.67,-5.05 0.201,-0.336 0.383,-0.62 0.586,-0.961 0.384,-0.646 0.781,-1.312 1.195,-1.938 0.934,-1.41 2.025,-3.32 2.916,-4.806 0.481,-0.804 0.937,-1.63 1.434,-2.425 0.092,-0.146 0.283,-0.352 0.283,-0.537 0,-0.824 0.117,-1.827 -0.213,-2.603 -0.385,-0.909 -1.216,-1.508 -2.24,-1.53 -0.252,-0.01 -0.299,-0.047 -0.543,-0.047 -0.25,0 -0.316,0.045 -0.592,0.047 -1.152,0.014 -1.592,0.828 -2.152,1.664 -0.344,0.515 -0.627,1.013 -0.954,1.545 -0.331,0.539 -0.647,1.03 -0.97,1.57 -1.185,1.969 -2.426,3.874 -3.602,5.85 -1.013,1.703 -2.104,3.351 -3.115,5.059 -0.17,0.283 -0.314,0.503 -0.484,0.789 -0.465,0.784 -0.998,1.531 -1.44,2.33 -0.116,0.21 -0.122,0.164 -0.164,0.472 -0.089,0.628 -0.11,1.167 -0.11,1.798 0,0.961 -0.123,1.328 0.682,1.907 0.339,0.247 0.738,0.47 1.115,0.701 l 0.556,0.354 c 0.194,0.123 0.37,0.231 0.554,0.354 0.176,0.118 0.365,0.234 0.559,0.35 0.209,0.123 0.359,0.227 0.562,0.348 1.123,0.662 2.203,1.41 3.321,2.082 l 4.435,2.787 c 0.555,0.373 1.125,0.683 1.678,1.047 1.459,0.957 2.97,1.841 4.436,2.787 1.662,1.071 3.371,2.071 5.031,3.146 0.186,0.12 0.375,0.243 0.555,0.352 0.201,0.119 0.352,0.227 0.557,0.351 1.5,0.887 2.973,1.845 4.447,2.776 0.361,0.229 0.762,0.449 1.109,0.709 0.23,0.174 1.379,2.521 1.59,2.949 0.797,1.606 1.688,3.135 2.482,4.738 0.107,0.216 0.197,0.405 0.305,0.605 0.199,0.388 0.396,0.811 0.629,1.188 0.32,0.533 2.98,5.712 3.111,5.974 0.055,0.106 0.076,0.162 0.141,0.268 0.076,0.127 0.094,0.178 0.156,0.3 0.514,0.987 1.018,2.001 1.566,2.978 l 3.945,7.591 c 0.023,0.049 0.057,0.099 0.08,0.144 l 0.463,0.901 c 0.061,0.106 0.098,0.177 0.156,0.295 l 3.73,7.127 c 0.334,0.553 0.686,1.136 1.111,1.612 0.09,0.104 0.121,0.156 0.203,0.252 l 0.336,0.347 c 0.402,0.425 0.865,0.821 1.369,1.128 1.342,0.814 3.648,1.466 5.801,1.466 h 4.314 c 0.006,-1.154 -0.301,-2.117 -0.967,-2.62 z m -32.726,-46.803 c -0.109,-0.052 -0.391,-0.062 -0.543,-0.094 -0.186,-0.039 -0.352,-0.085 -0.518,-0.166 -0.354,-0.174 -1.814,-1.112 -2.084,-1.322 -0.135,-0.109 -0.205,-0.227 -0.354,-0.326 l 0.908,-2.406 c 0.219,-0.848 0.574,-1.654 0.896,-2.467 0.107,-0.272 0.199,-0.502 0.316,-0.771 0.107,-0.253 0.27,-0.543 0.33,-0.805 h 0.09 c 0.037,0.151 0.41,0.662 0.646,1.672 0.275,1.188 0.182,2.068 0.305,3.15 0.029,0.256 0.008,3.132 0.008,3.535 z"
         id="path3405" /><path
         d="m 489.148,1089.471 c 0.099,-0.168 0.193,-0.403 0.281,-0.582 l 0.545,-1.18 c -1.176,-0.099 -0.613,-0.219 -1.92,-0.059 -0.328,0.041 -0.427,0.012 -0.701,0.114 -0.474,0.18 -2.646,0.723 -3.25,0.839 l -3.355,0.779 c -0.616,0.175 -2.051,0.58 -2.617,0.697 -0.611,0.125 -0.512,0.125 -0.91,0.724 -0.973,1.463 -2.257,3.276 -3.128,4.686 l -3.459,5.22 c -0.372,0.559 -1.002,1.444 -1.312,2.002 -0.107,0.192 -0.187,0.342 -0.285,0.531 -0.527,1.016 -6.551,10.631 -7.51,12.192 l 10.275,0.123 c 0.329,-0.376 7.502,-11.317 7.609,-11.478 l 8.064,-12.102 c 0.356,-0.53 1.394,-2.023 1.673,-2.506 z"
         id="path3407" /><path
         d="m 501.934,1085.697 c -0.287,-0.3 -0.777,-0.364 -1.207,-0.426 -0.955,-0.14 -2.908,-0.165 -3.699,0.133 -0.58,0.218 -0.897,0.691 -1.258,1.151 -0.195,0.249 -0.318,0.41 -0.498,0.682 -0.473,0.707 -0.976,1.342 -1.502,2.131 l -1.185,1.812 c -0.091,0.146 -0.134,0.222 -0.229,0.361 -1.063,1.588 -2.496,3.844 -3.553,5.532 l -3.939,6.279 c -5.549,9.021 2.572,12.462 9.063,1.753 0.267,-0.494 0.599,-0.989 0.89,-1.473 l 3.547,-5.854 c 0.535,-0.901 1.703,-2.873 2.211,-3.647 0.338,-0.512 1.602,-2.654 1.716,-3.01 0.187,-0.574 0.131,-2.016 0.131,-2.686 0,-0.888 -0.061,-2.292 -0.488,-2.738 z"
         id="path3409" /><path
         d="m 503.999,1077.094 c -0.333,-0.159 -3.013,-1.85 -3.54,-2.186 -1.202,-0.758 -2.669,-1.557 -3.77,-2.27 l -0.834,-0.483 c -0.304,-0.177 -0.552,-0.331 -0.852,-0.512 -0.446,-0.267 -1.258,-0.784 -1.607,-1.074 -0.203,-0.169 -1.615,-0.894 -1.785,-0.894 -0.854,0 -0.596,-0.078 -1.127,0.281 -0.512,0.347 -0.605,0.61 -0.99,1.236 l -0.864,1.363 c -0.114,0.171 -0.187,0.305 -0.298,0.473 -0.75,1.117 -1.438,2.283 -2.169,3.417 -0.41,0.638 -0.876,1.451 -1.292,2.07 -0.213,0.315 -0.373,0.614 -0.575,0.925 l -0.589,0.91 c -0.428,0.641 -0.688,1.135 -1.193,1.804 -0.138,0.183 -0.438,0.716 -0.545,0.955 -0.292,0.646 -0.211,0.2 -0.211,1.281 0.303,-0.024 3.033,-0.847 3.598,-0.988 1.004,-0.255 2.553,-0.717 3.572,-1.016 l 0.717,-0.194 c 0.279,-0.066 0.475,-0.138 0.743,-0.208 0.244,-0.062 0.431,-0.132 0.71,-0.198 0.268,-0.065 0.467,-0.141 0.707,-0.201 l 2.154,-0.615 c 1.572,-0.473 3.441,-0.954 5.041,-1.411 0.74,-0.21 5.486,-1.589 5.787,-1.616 -0.043,-0.453 -0.48,-0.704 -0.788,-0.849 z"
         id="path3411" /><path
         d="m 538.348,1122.14 c -0.453,0 -0.834,0.096 -1.154,0.257 -0.986,0.496 -1.391,1.861 -1.391,2.923 0,1.22 0.27,2.136 1.34,2.563 0.92,0.367 2.602,0.328 3.418,-0.483 0.17,-0.166 0.391,-0.549 0.473,-0.801 0.234,-0.703 0.217,-1.7 -0.018,-2.402 -0.467,-1.402 -1.112,-2.057 -2.668,-2.057 z"
         id="path3413" /><path
         d="m 517.174,1043.629 c 4.277,0 7.762,-3.481 7.762,-7.762 0,-4.279 -3.482,-7.762 -7.762,-7.762 -4.281,0 -7.764,3.482 -7.764,7.762 0,4.281 3.485,7.762 7.764,7.762 z"
         id="path3415" /></g></g><path
     d="m 343.683,610.716 1.58,-0.42 2.01,-0.42 1.99,-0.221 2,0.11 2,0.21 2,0.52 1.06,0.421 1.89,0.53 1.9,0.209 0.84,0.11 h 3.26 l 3.16,-0.21 3.16,-0.32 h 0.32 l 1.68,-0.21 2.95,-0.109 3.05,-0.101 3.16,0.101 h 0.74 l 1.789,0.109 1.681,0.421 1.79,0.64 1.89,0.84 1.79,0.95 1.79,1.26 1.69,1.26 1.369,1.58 1.36,1.8 1.16,1.58 1.37,2.1 1.05,2.211 0.84,2.319 0.641,1.271 0.52,2.1 0.53,2.21 0.21,2.22 v 4.74 l 0.31,2.95 0.32,3.05 0.53,2.95 0.84,2.95 0.1,0.529 0.851,2 0.1,0.421 v 0.42 l -0.21,0.31 -0.64,0.64 -0.73,0.311 -0.63,0.21 h -0.53 l -0.42,-0.21 -0.42,-0.42 -0.74,-2 -0.729,-2.53 -0.53,-2.52 -0.32,-2.641 v -0.42 l -0.63,-4.42 -0.52,-4.32 -0.21,1.579 -0.11,3.052 -0.52,3.06 -0.11,0.729 -0.74,3.271 -0.63,6.53 v 3.16 l 0.101,3.369 0.22,3.16 0.52,3.37 0.641,3.16 0.63,2.42 0.21,0.85 0.1,1.58 v 1.789 l -0.1,0.312 -0.431,0.84 -0.42,0.21 -0.42,0.11 h -6.109 l -0.521,-0.11 -0.53,-0.21 -0.31,-0.42 -0.32,-0.521 v -2.211 l 0.221,-0.528 0.31,-0.42 0.311,-0.53 0.109,-0.53 v -0.62 l -0.109,-0.43 -0.311,-0.63 -1.47,-3.05 -1.271,-3.171 -1.16,-3.05 -0.84,-3.37 -0.84,-3.27 -0.63,2.43 -1.16,4.21 -0.95,4.221 -0.84,4.21 -1.16,6.84 -0.199,0.43 -0.32,0.42 -0.32,0.21 -0.529,0.101 h -6.311 l -0.52,-0.101 -0.431,-0.21 -0.42,-0.42 -0.2,-0.53 -0.109,-0.42 v -1.689 l 0.109,-0.521 0.41,-0.529 0.32,-0.421 0.42,-0.21 0.42,-0.43 0.21,-0.62 0.11,-0.54 v -3.26 l 0.63,-8.43 0.42,-4.32 0.74,-4.21 -2.42,-0.21 -2.74,-0.53 -2.63,-0.63 -2.63,-0.939 -2.53,-0.95 0.32,0.729 0.31,1.271 0.21,1.26 -0.1,1.37 -0.32,1.26 -0.32,2.11 -0.21,3.8 -0.21,3.68 v 3.69 l 0.32,3.79 0.63,5.58 v 0.43 l -0.11,0.42 -0.31,0.42 -0.42,0.21 -0.53,0.101 h -6.53 l -0.52,-0.101 -0.42,-0.21 -0.42,-0.42 -0.32,-0.53 v -2.1 l 0.11,-0.53 0.42,-0.529 0.42,-0.421 0.11,-0.1 0.2,-0.32 0.11,-0.319 v -0.42 l -1.79,-7.69 -0.63,-2.74 -1.27,-4.95 -1.89,-10.109 v 0.1 l -0.53,3.79 v 0.11 l -0.42,2.109 -0.63,2.11 -0.84,1.89 -1.89,4.11 -2.32,6.53 -3.05,9.689 -0.1,0.32 -0.32,0.42 -0.42,0.21 -0.53,0.101 h -6.95 l -0.52,-0.21 -0.32,-0.311 -0.21,-0.42 v -2.64 l 0.21,-0.63 0.42,-0.421 0.53,-0.31 0.52,-0.22 h 0.11 l 0.31,-0.21 0.22,-0.21 0.21,-0.42 3.68,-14.851 0.11,-0.319 0.52,-3.052 0.42,-3.059 0.21,-3.05 v -3.061 l -0.32,-3.05 -0.31,-2.96 -0.11,-0.2 -0.2,-0.53 -0.43,-0.31 -0.53,-0.11 h -0.52 l -0.53,0.21 -1.05,0.74 -1.47,1.16 -0.52,0.521 -0.85,0.63 -0.95,0.43 -0.94,0.1 -0.42,0.11 -1.06,0.42 -1.26,0.63 -1.16,0.95 -0.84,1.05 -0.74,1.271 -0.42,1.26 -0.31,1.37 v 0.319 l -0.11,2.211 0.11,2.21 0.42,2.21 0.31,1.06 0.43,2.1 0.31,2.32 0.1,2.21 -0.21,0.42 -0.31,1.16 -0.63,1.16 -0.84,1.05 -0.85,0.74 -0.73,0.42 -1.37,0.95 -1.58,0.529 -1.48,0.421 -1.68,0.1 h -0.84 l -1.27,-0.31 -1.15,-0.421 -1.16,-0.64 -1.05,-0.95 -0.53,-0.52 -0.84,-1.48 v 0.11 l -0.11,-0.11 -0.63,-1.47 -0.1,-0.11 -0.11,-0.63 v -0.74 l 0.21,-0.52 0.74,-0.74 0.94,-0.74 0.32,-0.199 0.53,-0.11 h 0.53 l 0.63,0.11 0.52,0.31 0.53,0.42 0.32,0.53 1.05,1.16 0.21,0.21 0.63,0.52 0.74,0.209 0.73,0.111 0.85,-0.32 0.52,-0.42 0.64,-0.53 0.1,-0.31 0.21,-1.05 v -0.95 l -0.32,-1.05 -0.52,-0.851 v -0.1 l -0.63,-2.11 -0.74,-2.85 -0.64,-2.95 -0.63,-3.05 -0.21,-3.05 -0.21,-3.16 v -3.06 l 0.21,-3.052 0.53,-3.059 0.53,-2.95 0.52,-2 0.84,-2.63 1.06,-2.529 1.26,-2.431 1.37,-2.42 1.58,-2.21 0.21,-0.21 0.73,-0.84 0.84,-0.74 1.16,-0.42 1.06,-0.32 h 2.2 l 2.64,-0.42 2.52,-0.42 2.63,-0.74 1.06,-0.42 6.727,-1.89 z m 0.85,22.12 -0.1,-0.53 -0.32,-2.21 -0.74,-2.21 -0.84,-2.22 -0.95,-2 -1.26,-2 -1.27,-1.79 -1.47,-1.051 -0.94,-0.319 -0.95,-0.101 -0.95,0.101 -0.42,0.21 -1.68,0.63 -0.84,0.851 v 0.729 l 0.1,0.21 0.21,0.319 0.31,0.101 0.43,0.11 0.42,-0.11 0.21,-0.101 1.37,-0.739 h 0.2 l 0.53,-0.102 h 0.63 l 0.64,0.211 0.41,0.311 0.11,0.109 1.37,1.79 1.15,2 0.96,2 0.73,2.11 0.53,2.21 0.31,1.259 -0.1,0.531 -0.42,0.84 -0.43,0.32 -0.42,0.11 h -0.63 l -0.31,-0.11 -2.32,-1.061 -0.94,-0.52 -0.42,-0.1 h -0.43 l -0.21,0.1 -0.31,0.32 -0.21,0.1 -0.11,0.42 v 0.32 l 0.42,0.63 0.21,0.11 2.53,1.149 1.05,0.53 0.84,0.21 h 0.95 l 0.85,-0.21 0.84,-0.32 0.63,-0.63 0.63,-0.729 0.21,-0.851 0.21,-0.937 z m -19.89,-2.95 v -0.32 l -0.11,-0.21 -0.11,-0.1 -0.41,-0.21 h -0.74 l -0.84,0.31 -0.64,0.21 -0.52,0.42 -0.22,0.431 v 0.1 l -0.1,0.21 0.1,0.11 0.22,0.199 0.42,0.221 h 0.73 l 0.74,-0.221 0.74,-0.31 0.52,-0.42 0.22,-0.42 z"
     id="path3417" /><g
     id="g3419"><defs
       id="defs3421"><rect
         width="100"
         height="70.681"
         x="306.953"
         y="609.65601"
         id="SVGID_1_" /></defs><clipPath
       id="SVGID_2_"><use
         id="use3425"
         style="overflow:visible"
         x="0"
         y="0"
         width="720"
         height="1150.5601"
         xlink:href="#SVGID_1_" /></clipPath></g><g
     transform="translate(598.11475,1028.3266)"
     id="g3517"><path
       d="m 78.323,94.936 c 0,2.802 2.276,5.062 5.068,5.062 h 6.339 c 2.798,0 5.068,-2.262 5.068,-5.062 v -50.73 c 0,-2.799 -2.271,-5.062 -5.068,-5.062 h -6.339 c -2.792,0 -5.068,2.263 -5.068,5.062 v 50.73 z"
       id="path3503"
       style="fill:#010101" /><path
       d="m 53.805,74.271 v 20.665 c 0,2.801 2.275,5.062 5.084,5.062 h 6.324 c 2.791,0 5.066,-2.263 5.066,-5.062 V 74.271 c 0,-2.801 -2.275,-5.076 -5.066,-5.076 h -6.324 c -2.806,-10e-4 -5.084,2.277 -5.084,5.076 z"
       id="path3505"
       style="fill:#010101" /><path
       d="m 29.295,81.883 v 13.055 c 0,2.801 2.263,5.062 5.069,5.062 h 6.33 c 2.792,0 5.069,-2.262 5.069,-5.062 V 81.883 c 0,-2.799 -2.277,-5.09 -5.069,-5.09 h -6.33 c -2.805,0 -5.069,2.291 -5.069,5.09 z"
       id="path3507"
       style="fill:#010101" /><path
       d="M 34.131,0 C 15.271,0 0,15.287 0,34.141 0,53.009 15.271,68.294 34.131,68.294 53,68.294 68.285,53.009 68.285,34.141 68.288,15.287 53,0 34.131,0 z m 0.003,59.669 C 20.037,59.669 8.624,48.245 8.624,34.143 8.624,20.051 20.038,8.625 34.134,8.625 V 34.201 L 54.898,48.998 C 50.267,55.46 42.694,59.669 34.134,59.669 z"
       id="path3509"
       style="fill:#010101" /></g></svg>