<?xml version="1.0" encoding="utf-8"?>
<!-- Generator: Adobe Illustrator 16.0.0, SVG Export Plug-In . SVG Version: 6.00 Build 0)  -->
<!DOCTYPE svg PUBLIC "-//W3C//DTD SVG 1.1//EN" "http://www.w3.org/Graphics/SVG/1.1/DTD/svg11.dtd">
<svg version="1.1" id="Layer_1" xmlns:sketch="http://www.bohemiancoding.com/sketch/ns"
	 xmlns="http://www.w3.org/2000/svg" xmlns:xlink="http://www.w3.org/1999/xlink" x="0px" y="0px" width="720px" height="1295px"
	 viewBox="0 0 720 1295" enable-background="new 0 0 720 1295" xml:space="preserve">
<title>Untitled</title>
<desc>Created with Sketch.</desc>
<g id="Page-1_1_" sketch:type="MSPage">
	<g id="members_icons" transform="translate(20.000000, 21.000000)" sketch:type="MSLayerGroup">
		<g id="Page-1" sketch:type="MSShapeGroup">
			<path id="path3229" d="M54.421,0.635c-27.473,0-49.824,22.352-49.824,49.826s22.351,49.825,49.824,49.825
				c27.474,0,49.827-22.352,49.827-49.825C104.249,22.987,81.896,0.635,54.421,0.635L54.421,0.635L54.421,0.635z M58.597,26.635
				V9.266c4,2.297,8.309,9.369,10.949,17.369H58.597L58.597,26.635z M71.581,33.635c0.859,5,1.416,9,1.627,13h-14.61v-13H71.581
				L71.581,33.635z M50.597,9.266v17.369H39.298C41.938,18.635,45.597,11.563,50.597,9.266L50.597,9.266L50.597,9.266z
				 M50.597,33.635v13H35.638c0.21-4,0.767-8,1.626-13H50.597L50.597,33.635z M27.919,46.635H12.487c0.413-4,1.542-9,3.276-13
				h13.555C28.572,38.635,28.095,42.635,27.919,46.635L27.919,46.635L27.919,46.635z M27.919,54.635c0.176,5,0.652,9,1.398,13
				H15.762c-1.734-4-2.863-8-3.275-13H27.919L27.919,54.635z M35.638,54.635h14.959v13H37.264
				C36.405,63.635,35.849,58.635,35.638,54.635L35.638,54.635L35.638,54.635z M50.597,75.635v16.021
				c-5-2.297-8.659-8.021-11.3-16.021H50.597L50.597,75.635z M58.597,91.655V75.635h10.949
				C66.906,83.635,62.597,89.358,58.597,91.655L58.597,91.655L58.597,91.655z M58.597,67.635v-13h14.61c-0.211,4-0.768,9-1.627,13
				H58.597L58.597,67.635z M80.925,54.635h15.434c-0.414,5-1.541,9-3.275,13H79.527C80.273,63.635,80.75,59.635,80.925,54.635
				L80.925,54.635L80.925,54.635z M80.925,46.635c-0.175-4-0.652-8-1.398-13h13.555c1.734,4,2.863,9,3.277,13H80.925L80.925,46.635z
				 M88.717,26.635H77.704c-1.592-6-3.703-10.19-6.223-14.092C78.413,15.626,84.357,20.635,88.717,26.635L88.717,26.635
				L88.717,26.635z M37.364,12.542c-2.519,3.901-4.63,8.092-6.223,14.092H20.126C24.487,20.635,30.434,15.625,37.364,12.542
				L37.364,12.542L37.364,12.542z M20.125,75.635h11.016c1.592,5,3.704,10.192,6.222,14.093
				C30.433,86.645,24.486,81.635,20.125,75.635L20.125,75.635L20.125,75.635z M71.481,89.727c2.519-3.902,4.63-9.092,6.222-14.092
				h11.015C84.359,81.635,78.413,86.644,71.481,89.727L71.481,89.727L71.481,89.727z"/>
			<path id="path3231" d="M196.881,59.513c2.991,2.287,11.869,4.375,18.997,8.247c2.35,1.277,2.551,3.169,2.727,4.313
				c0.177,1.144,0.551,13.979,0.551,13.979H149.88c0,0,0.372-12.836,0.549-13.979c0.176-1.146,0.191-2.881,2.728-4.313
				c7.063-3.989,15.967-5.828,18.959-8.115c1.188-0.908,0.879-2.376,1.143-3.785c0.266-1.407,1.145-0.439,1.145-1.936
				c0-1.504,0.281-1.242,0.116-3.241c-0.144-1.741-2.534-1.928-2.668-5.188c-0.028-0.687-1.231-1.145-1.936-2.199
				c-0.705-1.057-1.849-2.904-1.849-5.017c0-2.111,0.44-1.584,0.44-4.225c0-2.64-0.099-4.17,1.408-10.296
				c0.562-2.285,2.474-4.964,4.389-6.176c2.582-1.634,1.545,0.545,10.219-1.392c5.624-1.255,14.432,4.576,14.521,9.24
				c0.118,6.308,0.504,5.834,0.878,8.448c0.263,1.848,0.792,1.407,0.792,3.519c0,2.113-1.145,4.753-1.847,5.809
				c-0.704,1.056-1.357,2.75-1.446,3.432c-0.46,3.525-2.813,2.71-2.912,4.599c-0.09,1.724-0.201,1.504,0.056,2.847
				c0.216,1.124,0.871-0.072,1.135,1.336C195.962,56.828,195.779,58.899,196.881,59.513"/>
			<path id="path3233" d="M212.242,47.55c0.49,0.736,1.331,1.056,1.35,1.534c0.095,2.276,1.761,2.404,1.862,3.619
				c0.115,1.396-0.083,1.211-0.083,2.261c0,1.043-0.611,0.368-0.798,1.351c-0.185,0.98,0.032,2.006-0.796,2.64
				c-0.937,0.717-2.701,1.387-4.806,2.153c3.029,1.125,6.371,2.45,9.511,4.097c3.387,1.773,3.455,3.962,3.718,5.66
				c0.093,0.601,0.212,3.428,0.317,6.51h24.067c0,0-0.261-8.952-0.383-9.751c-0.123-0.798-0.209-2.082-1.9-3.009
				c-4.961-2.712-11.163-4.157-13.248-5.752c-0.77-0.43-0.644-1.873-0.825-2.855c-0.186-0.98-0.643-0.148-0.793-0.932
				c-0.18-0.938-0.103-0.784-0.039-1.985c0.069-1.317,1.709-0.75,2.032-3.208c0.061-0.476,0.518-1.657,1.007-2.394
				c0.493-0.736,1.289-2.578,1.289-4.052c0-1.473-0.367-1.166-0.552-2.454c-0.26-1.824-0.53-1.493-0.614-5.894
				c-0.061-3.253-6.205-7.321-10.127-6.445c-6.05,1.351-5.328-0.169-7.128,0.971c-1.334,0.845-2.67,2.714-3.062,4.309
				c-1.052,4.272-0.983,5.34-0.983,7.182c0,1.841-0.307,1.474-0.307,2.946C210.952,45.525,211.75,46.814,212.242,47.55"/>
			<path id="path3235" d="M605.203,163.154v-12.5c0-3.455,2.795-6.25,6.25-6.25s6.25,2.795,6.25,6.25v12.5
				c0,3.455-2.795,6.25-6.25,6.25S605.203,166.609,605.203,163.154"/>
			<path id="path3237" d="M661.453,156.904v6.396c0,6.909-5.591,12.5-12.5,12.5s-12.5-5.591-12.5-12.5v-6.396h-12.5v6.396
				c0,6.909-5.591,12.5-12.5,12.5s-12.5-5.591-12.5-12.5v-6.396h-18.75v87.5h100v-87.5H661.453L661.453,156.904z M611.453,231.904
				h-12.5v-12.5h12.5V231.904L611.453,231.904z M611.453,206.904h-12.5v-12.5h12.5V206.904L611.453,206.904z M636.453,231.904h-12.5
				v-12.5h12.5V231.904L636.453,231.904z M636.453,206.928h-12.5v-12.5h12.5V206.928L636.453,206.928z M648.953,231.904v-12.5h12.5
				L648.953,231.904L648.953,231.904z M661.453,206.904h-12.5v-12.5h12.5V206.904L661.453,206.904z"/>
			<path id="path3239" d="M642.703,163.154v-12.5c0-3.455,2.795-6.25,6.25-6.25s6.25,2.795,6.25,6.25v12.5
				c0,3.455-2.795,6.25-6.25,6.25S642.703,166.609,642.703,163.154"/>
			<path id="polygon3241" d="M461.438,88.23V38.106l-1.8-1.062v50.263L461.438,88.23L461.438,88.23z"/>
			<path id="polygon3243" d="M485.503,78.688l1.262-0.578l1.06,0.164V28.233l-0.863-0.296l-1.562,0.608L485.503,78.688
				L485.503,78.688z"/>
			<path id="polygon3245" d="M512.81,37.292V88.3l2.319-1.371V36.027L512.81,37.292L512.81,37.292z"/>
			<path id="polygon3247" d="M507.941,29.383l-1.812,4.567l6.383,2.609l17.769-9.639v53.189l-18.062,9.798l-18.96-7.758
				l-6.102-2.457h-0.393l-25.066,10.215l-18.056-9.798V26.92l17.763,9.639l25.557-10.451l6.357,2.602l-2.544-6.351l-3.813-1.559
				l-25.264,10.334L438.73,18.662V83.03l22.675,12.308l25.557-10.455l25.55,10.455l22.68-12.308V18.662l-22.973,12.472
				L507.941,29.383L507.941,29.383z"/>
			<path id="path3249" d="M500.79,5.582c-5.503,0-9.972,4.464-9.972,9.971c0,1.025,0.199,1.992,0.485,2.923h-0.042l9.527,23.78
				l9.762-24.604h-0.019c0.145-0.676,0.229-1.376,0.229-2.099C510.763,10.046,506.297,5.582,500.79,5.582 M500.79,20.296
				c-2.354,0-4.271-1.914-4.271-4.27s1.917-4.272,4.271-4.272c2.354,0,4.271,1.914,4.271,4.272
				C505.061,18.382,503.148,20.296,500.79,20.296"/>
			<path id="path3251" d="M672.635,5.222v9.529h-10.74V5.222h-6.8v13.981h-51.396V5.222h-6.779v9.529h-10.706V5.222h-6.79v91.57
				h6.79v-9.623h10.707v9.623h6.778V82.898h51.396v13.895h6.8V87.17h10.74v9.623h6.787V5.223L672.635,5.222L672.635,5.222z
				 M596.919,81.999h-10.707v-9.615h10.707V81.999L596.919,81.999z M596.919,65.884h-10.707v-9.535h10.707V65.884L596.919,65.884z
				 M596.919,48.148h-10.707v-9.523h10.707V48.148L596.919,48.148z M596.919,30.25h-10.707v-9.535h10.707V30.25L596.919,30.25z
				 M603.697,30.25h51.396v42.134h-51.396V30.25L603.697,30.25z M672.635,81.999h-10.74v-9.615h10.74V81.999L672.635,81.999z
				 M672.635,65.884h-10.74v-9.535h10.74V65.884L672.635,65.884z M672.635,48.148h-10.74v-9.523h10.74V48.148L672.635,48.148z
				 M672.635,30.25h-10.74v-9.535h10.74V30.25L672.635,30.25z"/>
			<path id="path3253" d="M90.623,140.126h-74.4c-1.467,0-2.657,1.153-2.657,2.578v103.571c0,1.422,1.19,2.578,2.657,2.578h74.4
				c1.466,0,2.657-1.156,2.657-2.578V142.704C93.28,141.279,92.089,140.126,90.623,140.126L90.623,140.126L90.623,140.126z
				 M86.609,243.851H20.571v-46.858h66.038V243.851L86.609,243.851z M86.609,191.989H20.571v-46.862h66.038V191.989L86.609,191.989z
				"/>
			<path id="path3255" d="M63.224,202.033h-2.715v6.108c0,0.481-0.394,0.871-0.877,0.871H47.374c-0.483,0-0.874-0.39-0.874-0.871
				v-6.108h-2.543c-0.482,0-0.871,0.388-0.871,0.866v8.736c0,0.479,0.389,0.865,0.871,0.865h19.267c0.482,0,0.873-0.386,0.873-0.865
				v-8.736C64.097,202.421,63.706,202.033,63.224,202.033"/>
			<path id="path3257" d="M63.224,150.17h-2.715v6.105c0,0.485-0.394,0.874-0.877,0.874H47.374c-0.483,0-0.874-0.389-0.874-0.874
				v-6.105h-2.543c-0.482,0-0.871,0.386-0.871,0.865v8.738c0,0.477,0.389,0.862,0.871,0.862h19.267c0.482,0,0.873-0.385,0.873-0.862
				v-8.738C64.097,150.559,63.706,150.17,63.224,150.17"/>
			<path id="path3259" d="M238.124,156.302v58.913h-46.581h-4.4l-2.441,3.66l-6.861,10.291l-6.861-10.291l-2.441-3.66h-4.4h-5.48
				v-58.913H238.124L238.124,156.302z M246.345,148.081h-95.903v75.354h13.699l13.703,20.55l13.699-20.55h54.802V148.081
				L246.345,148.081z"/>
			<path id="path3261" d="M193.227,172.035c-3.32,0.625-5.657,3.035-7.005,7.225c-0.675,2.07-1.012,4.115-1.012,6.138
				c0,0.24,0.011,0.448,0.036,0.615c0.024,0.168,0.06,0.541,0.108,1.119h7.873v15.75h-15.386v-14.521
				c0-7.126,1.421-12.617,4.264-16.47c2.842-3.853,6.547-6.069,11.124-6.646v6.79H193.227L193.227,172.035z"/>
			<path id="path3263" d="M217.579,172.035c-2.654,0.434-4.662,1.926-6.037,4.479c-1.37,2.552-2.061,5.492-2.061,8.813
				c0,0.292,0.016,0.58,0.038,0.869c0.026,0.285,0.085,0.599,0.182,0.936h7.878v15.75h-15.461v-14.521
				c0-5.729,1.204-10.847,3.607-15.352c2.415-4.501,6.357-7.091,11.855-7.764L217.579,172.035L217.579,172.035z"/>
			<path id="path3265" d="M342.954,180.627c11.671,0,21.132,9.461,21.132,21.132c0,11.67-9.461,21.132-21.132,21.132
				s-21.132-9.462-21.132-21.132C321.822,190.088,331.283,180.627,342.954,180.627"/>
			<path id="path3267" d="M342.954,228.043c-14.493,0-26.284-11.791-26.284-26.283c0-5.23,1.542-10.104,4.188-14.202h-27.904v46.491
				h100v-46.494h-27.902c2.646,4.1,4.188,8.973,4.188,14.205C369.237,216.252,357.446,228.043,342.954,228.043"/>
			<path id="path3269" d="M392.953,169.469h-32.611l-6.164-14.299h-2.076h-18.296h-2.074l-6.164,14.299h-32.613v12.935h32.24
				c4.682-4.299,10.919-6.928,17.761-6.928c6.841,0,13.078,2.629,17.759,6.928h32.24L392.953,169.469L392.953,169.469
				L392.953,169.469z M348.921,166.515h-11.935v-6.193h11.935V166.515L348.921,166.515z"/>
			<rect id="rect3271" x="297.775" y="165.956" width="11.83" height="1.992"/>
			<rect id="rect3273" x="299.137" y="162.497" width="9.108" height="4.455"/>
			<path id="path3275" d="M534.227,164.208v57.041c0,0-16.229-4.562-28.284-2.243c-10.8,2.076-18.747,7.934-20.087,8.97v0.172
				c0,0-0.04-0.032-0.112-0.087c-0.071,0.055-0.111,0.087-0.111,0.087v-0.172c-1.341-1.036-9.287-6.893-20.083-8.97
				c-12.06-2.319-29.876,2.243-29.876,2.243V164.04c-1.043,0.156-2.146,0.323-3.335,0.5v61.45c0,0,19.416-4.997,32.624-2.454
				c12.988,2.497,20.836,10.011,20.836,10.011s7.847-7.514,20.834-10.011c13.211-2.544,31.83,2.454,31.83,2.454v-61.185
				C538.463,164.806,536.841,164.532,534.227,164.208 M464.568,213.232c10.561,2.03,18.722,8.143,18.722,8.143v-56.12
				c0,0-8.204-6.119-18.791-8.154c-10.714-2.061-24.712,2.01-24.712,2.01v56.119C439.787,215.23,453.829,211.167,464.568,213.232
				 M530.104,215.437v-56.12c0,0-12.832-4.072-23.541-2.01c-10.587,2.033-19.062,8.152-19.062,8.152v56.121
				c0,0,8.43-6.111,18.993-8.144C517.229,211.375,530.104,215.437,530.104,215.437"/>
			<rect id="rect3277" x="310.703" y="38.534" width="12.5" height="12.5"/>
			<rect id="rect3279" x="335.703" y="63.534" width="12.5" height="12.5"/>
			<rect id="rect3281" x="360.703" y="38.534" width="12.5" height="12.5"/>
			<path id="path3283" d="M316.953,19.784v-12.5c0-3.455,2.795-6.25,6.25-6.25s6.25,2.795,6.25,6.25v12.5
				c0,3.455-2.795,6.25-6.25,6.25S316.953,23.239,316.953,19.784"/>
			<path id="polygon3285" d="M291.953,101.034v-87.5h12.5v75h75v-75h12.5v87.5H291.953L291.953,101.034z"/>
			<rect id="rect3287" x="335.703" y="38.558" width="12.5" height="12.5"/>
			<rect id="rect3289" x="310.703" y="63.534" width="12.5" height="12.5"/>
			<path id="polygon3291" d="M360.703,63.534h12.5l-12.5,12.5V63.534L360.703,63.534z"/>
			<path id="path3293" d="M354.453,19.784v-12.5c0-3.455,2.795-6.25,6.25-6.25s6.25,2.795,6.25,6.25v12.5
				c0,3.455-2.795,6.25-6.25,6.25S354.453,23.239,354.453,19.784"/>
			<path id="path3295" d="M102.315,299.814v64.361c0,5.99-5.225,11.343-10.705,11.343H18.455c-9.049,0-13.889-4.717-13.889-16.186
				v-47.026h13.509v-12.492H102.315L102.315,299.814z M18.075,319.186h-6.629v40.146c0,5.862,1.4,8.667,3.184,8.667
				c2.169,0,3.445-2.805,3.445-8.667V319.186L18.075,319.186z M95.434,306.697H24.956v52.635c0,4.078-0.764,7.009-1.913,9.303H91.61
				c2.291,0,3.824-2.677,3.824-4.46V306.697L95.434,306.697z M52.102,330.911H35.916v-2.294h16.186V330.911L52.102,330.911z
				 M52.102,338.43H35.916v-2.294h16.186V338.43L52.102,338.43z M52.102,345.694H35.916V343.4h16.186V345.694L52.102,345.694z
				 M52.102,352.703H35.916v-2.292h16.186V352.703L52.102,352.703z M52.102,359.968H35.916v-2.292h16.186V359.968L52.102,359.968z
				 M38.336,316.767h42.44v4.46h-42.44V316.767L38.336,316.767z M58.475,328.617h27.142v25.872H58.475V328.617L58.475,328.617z"/>
			<path id="path3297" d="M244.623,306.343h-92.46c-1.828,0-3.309,1.483-3.309,3.309v58.028c0,1.83,1.481,3.309,3.309,3.309h92.46
				c1.828,0,3.31-1.479,3.31-3.309v-58.028C247.933,307.826,246.451,306.343,244.623,306.343L244.623,306.343L244.623,306.343z
				 M155.472,315.716l29.582,21.954l-29.582,24.112V315.716L155.472,315.716z M198.392,340.357l-36.91-27.395h73.825
				L198.392,340.357L198.392,340.357z M189.166,340.719l7.502,5.57c0.512,0.379,1.119,0.568,1.724,0.568s1.215-0.189,1.726-0.568
				l7.743-5.751c0.019,0.013,0.027,0.03,0.043,0.043l28.811,23.79h-76.564L189.166,340.719L189.166,340.719z M211.965,337.494
				l29.349-21.778v46.014L211.965,337.494L211.965,337.494z"/>
			<path id="path3299" d="M324.062,333.744c-5.343-4.993-9.424-14.71-9.424-22.562c0-11.1,8.777-17.421,17.085-17.421
				s16.644,6.914,16.644,18.025c0,7.853-4.512,17.259-10.081,22.079c1.143,4.536,7.41,6.013,20.36,9.689
				c4.775,1.355,5.663,3.409,8.309,5.812h-27.781c-0.577,0-1.115,0.134-1.586,0.402c0,0-1.623,0.698-1.744,2.94v16.159H293.89
				c-0.039-6.789-1.932-21.232,12.456-25.311c12.589-3.586,16.173-5.074,17.569-9.316"/>
			<path id="path3301" d="M342.115,383c-0.263,0-0.521-0.026-0.768-0.092l11.251-14.89l0.856-1.13l1.508,1.13l9.641,7.238h0.3
				l9.642-7.238l1.507-1.13l0.859,1.13l11.249,14.89c-0.258,0.065-0.519,0.092-0.767,0.092H364.8h-0.092H342.115L342.115,383z"/>
			<path id="path3303" d="M340.581,353.429c0.454-0.261,0.974-0.392,1.534-0.392h29.494h15.475c0.648,0,1.246,0.197,1.765,0.521
				l-11.51,8.471l-8.159,5.99l-4.572,3.364l-4.511-3.364L340.581,353.429L340.581,353.429z"/>
			<path id="path3305" d="M390.618,356.273v23.491c0,0.403-0.065,0.78-0.209,1.131l-11.966-15.811l12.157-9.137
				C390.618,356.04,390.618,356.157,390.618,356.273"/>
			<path id="path3307" d="M351.065,365.084l-2.225,2.935l-9.743,12.877c-0.141-0.353-0.206-0.729-0.206-1.132v-11.746v-11.746
				c0-0.117,0-0.234,0.013-0.326L351.065,365.084L351.065,365.084z"/>
			<path id="path3309" d="M485.869,287.395c-20.93,0-37.322,10.525-37.322,23.962c0,0.343,0.021,0.682,0.044,1.023h-0.044
				c0,0-0.011,7.551-0.047,17.119c-0.02,12.965-0.053,29.638-0.053,36.297c0,13.423,16.337,23.949,37.209,23.949
				c20.805,0,37.098-10.526,37.098-23.949c0-3.657,0.045-10.514,0.1-18.141c0.136-16.203,0.325-35.971,0.338-36.26v-0.04
				C523.19,297.92,506.797,287.395,485.869,287.395L485.869,287.395L485.869,287.395z M517.836,330.521
				c-0.013,1.323-0.023,2.673-0.033,4.05v0.59c-0.236,0.432-0.49,0.853-0.783,1.271c-1.065,1.56-2.466,3.029-4.156,4.366
				c-6.146,4.889-16.059,8.128-26.996,8.128c-8.531,0-16.427-1.974-22.409-5.159v3.421c6.111,2.993,13.868,4.765,22.411,4.765
				c11.589,0,21.745-3.251,28.285-8.402c1.363-1.061,2.574-2.229,3.604-3.448c-0.044,4.247-0.076,8.497-0.111,12.35v1.139
				c-4.443,7.733-17.197,13.473-31.776,13.473c-8.533,0-16.429-1.975-22.411-5.158v3.418c6.111,2.992,13.863,4.77,22.413,4.77
				c13.896,0,25.72-4.667,31.743-11.678c-0.01,3.041-0.021,5.582-0.021,7.379c0,9.701-14.624,17.905-31.935,17.905
				c-17.14,0-31.646-7.987-32.032-17.517h-0.019v-0.388v-0.762v-31.535h0.047c0.003-0.783,0.007-1.571,0.007-2.336
				c0.013-2.412,0.013-4.706,0.022-6.829c0.069-0.145,0.136-0.302,0.227-0.444c0.593,0.642,1.242,1.257,1.926,1.847
				c0.359,0.313,0.729,0.615,1.11,0.917c0.355,0.276,0.716,0.55,1.097,0.826c1.869,1.336,3.974,2.532,6.291,3.565
				c6.047,2.701,13.45,4.274,21.534,4.274s15.484-1.573,21.532-4.274c2.305-1.033,4.411-2.229,6.293-3.565
				c0.368-0.276,0.737-0.537,1.098-0.826c0.391-0.302,0.762-0.604,1.12-0.917c0.681-0.591,1.33-1.205,1.925-1.836
				c0.022,0.04,0.046,0.093,0.064,0.131C517.882,326.064,517.858,328.239,517.836,330.521L517.836,330.521L517.836,330.521z
				 M518.017,311.371c0,2.031-0.649,3.998-1.837,5.832c-0.246,0.406-0.538,0.8-0.862,1.193c-0.29,0.381-0.604,0.748-0.949,1.101
				c-0.304,0.329-0.618,0.643-0.94,0.932c-0.347,0.326-0.708,0.642-1.087,0.943c-0.348,0.275-0.705,0.552-1.086,0.826
				c-2.084,1.506-4.593,2.817-7.402,3.892c-5.16,1.994-11.376,3.174-17.981,3.174c-6.606,0-12.824-1.18-17.983-3.174
				c-2.811-1.075-5.317-2.398-7.4-3.892c-0.384-0.274-0.739-0.552-1.087-0.826c-0.382-0.301-0.74-0.617-1.085-0.943
				c-0.326-0.302-0.639-0.603-0.941-0.932c-0.348-0.353-0.661-0.721-0.952-1.101c-0.324-0.392-0.603-0.786-0.852-1.193
				c-1.198-1.834-1.848-3.813-1.848-5.846c0-9.714,14.725-17.906,32.148-17.906h0.021c17.41,0.014,32.126,8.193,32.126,17.906
				L518.017,311.371L518.017,311.371L518.017,311.371z"/>
			<path id="path3311" d="M663.527,289.312h-48.832h-7.054h-5.448c-1.939,0-4.718,1.05-6.172,2.331l-0.781,0.689
				c-1.456,1.283-2.646,3.92-2.646,5.859v2.692v0.585v83.026c0,1.938,1.588,3.525,3.526,3.525h61.33c1.94,0,3.525-1.587,3.525-3.525
				v-83.611c0-1.94-1.585-3.527-3.525-3.527h-40.997c0-1.284-1.04-2.324-2.322-2.324c-1.28,0-2.318,1.04-2.318,2.324v0.912v23.289
				l-5.841-5.702l-5.055,5.702v-24.202h-4.797c-0.026,0-0.048,0.006-0.073,0.008l3.792-4.345h11.327h52.305v88.132h0.057
				c1.938,0,3.525-1.588,3.525-3.526v-84.786C667.053,290.898,665.465,289.312,663.527,289.312"/>
			<path id="path3313" d="M3.591,440.358h100v84.614h-100V440.358L3.591,440.358z M11.284,517.282h84.615v-61.539H11.284V517.282
				L11.284,517.282z M18.976,467.282h11.538l11.539,15.385l-11.539,15.385H18.976l11.538-15.385L18.976,467.282L18.976,467.282z"/>
			<path id="path3315" d="M209.585,528.392c-4.581,1.793-9.726,2.785-15.442,2.785c-5.955,0-11.606-1.355-16.742-3.715
				c-2.323-1.119-3.88-2.586-3.88-4.494v-5.627c-11.354-6.725-19.65-19.047-22.048-34.592c-1.602-1.088-2.535-2.363-2.535-3.865
				c0-1.504,0.867-2.617,1.695-3.336c1.609-1.398,4.432-2.506,7.906-3.383c2.303-3.518,6.276-5.848,10.783-5.848
				c1.725,0,3.373,0.342,4.88,0.957c1.921-3.35,5.511-5.43,9.36-5.43c0.644,0,1.275,0.059,1.89,0.168
				c1.011-4.971,5.436-8.629,10.571-8.629c5.736,0,10.426,4.479,10.765,10.131c2.332,0.214,4.557,1.203,6.286,2.783l14.214-27.875
				c1.891-3.492,7.13-0.656,5.239,2.832l-13.433,23.803c0.788,0.025,1.556,0.135,2.302,0.32l20.002-30.779
				c2.244-3.275,7.16,0.092,4.918,3.367l-20.92,29.377c1.493,1.162,2.678,2.709,3.396,4.506c6.283,1.486,10.862,3.707,10.862,7.035
				c0,1.648-1.123,3.025-3.025,4.177c-2.545,14.25-9.55,27.136-21.145,34.211v5.696C215.484,525.409,212.96,527.196,209.585,528.392
				 M194.143,527.601c5.3,0,10.056-0.938,14.194-2.557c1.477-0.524,2.552-1.108,3.139-1.611c0.278-0.238,0.394-0.395,0.433-0.465
				l0.041-3.787c-5.149,2.428-11.082,3.803-17.807,3.803c-6.037,0-11.78-1.311-16.999-3.73l0.087,3.854
				c0.258,0.283,0.778,0.686,1.693,1.127C183.617,526.379,188.75,527.601,194.143,527.601 M232.829,484.77
				c-11.354,3.918-33.388,4.128-38.531,4.128c-5.192,0-27.604-0.212-38.857-4.244c4.238,21.096,20.165,34.758,38.702,34.758
				C213.379,519.409,228.668,505.811,232.829,484.77 M217.297,468.232l-4.401,7.803c0.428,0.127,0.847,0.291,1.254,0.49l5.489-8.447
				c-0.289-0.031-0.577-0.047-0.872-0.047C218.254,468.03,217.767,468.107,217.297,468.232 M229.546,476.102
				c2.036,0.714,3.722,2.261,4.621,4.274c1.981-0.977,2.27-1.736,2.27-1.912c0-0.146-0.207-0.715-1.457-1.473
				c-0.703-0.426-1.739-0.914-3.255-1.422c-0.689-0.23-1.429-0.451-2.211-0.654c0.027,0.303,0.04,0.609,0.04,0.922
				C229.552,475.927,229.55,476.017,229.546,476.102 M225.012,475.915c0.524-0.133,1.047-0.211,1.562-0.236
				c-0.047-2.412-1.185-4.52-2.903-5.909l-6.566,9.229c0.149,0.207,0.291,0.424,0.426,0.646c1.007,1.709-1.562,3.224-2.564,1.511
				c-1.806-3.061-6.345-3.473-8.427-0.223c-1.072,1.671-3.58,0.062-2.507-1.607c1.044-1.627,2.474-2.682,4.041-3.211l3.578-7.021
				c-1.477-1.666-3.625-2.643-5.855-2.643c-1.895,0-1.964-0.676-1.964-2.281c0-4.311-3.496-7.805-7.808-7.805
				c-4.236,0-7.681,3.4-7.802,7.57c-0.004,0.119-0.017,0.229-0.032,0.326c3.197-0.188,6.505,1.377,8.203,4.615
				c0.924,1.76-1.715,3.143-2.637,1.383c-2.156-4.107-8.246-4.123-10.117,0.377c-0.763,1.83-3.513,0.688-2.752-1.146
				c0.882-2.117,2.384-3.588,4.132-4.422c-0.551-0.119-1.07-0.238-1.455-0.238c-4.94,0-6.19,3.467-7.415,5.111
				c1.199,0.204,2.369,0.668,3.42,1.404c1.627,1.141-0.083,3.576-1.709,2.439c-2.811-1.972-6.935-0.916-8.325,2.428
				c-0.764,1.834-3.513,0.688-2.75-1.143c1.162-2.795,3.555-4.545,6.191-5.08c-1.129-0.447-2.362-0.693-3.652-0.693
				c-5.462,0-9.903,4.449-9.903,9.902c0,1.986-2.979,1.986-2.979,0c0-1.299,0.193-2.555,0.554-3.732
				c-1.406,0.451-2.595,0.961-3.487,1.525c-0.286,0.18-0.542,0.369-0.765,0.562c-0.485,0.42-0.586,0.727-0.586,0.908
				c0,0.23,0.507,1.48,4.716,2.895c3.652,1.223,8.694,2.09,14.021,2.682c1.945,0.217,3.903,0.396,5.815,0.539
				c1.296-3.791,5.575-6.268,10.2-6.268c3.023,0,5.804,1.025,7.767,2.744c1.494,1.307-0.469,3.549-1.961,2.242
				c-1.372-1.201-3.437-2.01-5.806-2.01c-3.355,0-5.939,1.565-7.036,3.508c7.196,0.445,13.19,0.463,14.426,0.463
				c1.73,0,12.782-0.037,23.403-1.219c5.164-0.578,10.067-1.408,13.689-2.576c-0.975-2.041-3.245-3.27-5.65-2.662
				C223.818,479.29,223.083,476.4,225.012,475.915"/>
			<path id="path3317" d="M389.524,443.208c-0.308-0.31-0.732-0.488-1.168-0.488c-1.072,0-2.143,0.047-3.213,0.117l0.036-2.758
				c0.01-0.584-0.218-1.148-0.63-1.564c-0.411-0.416-0.972-0.689-1.557-0.689c-0.666,0-1.334,0.012-2.001,0.012h0.009l0.027-2.223
				c0.007-0.583-0.221-1.128-0.632-1.542c-0.409-0.416-0.973-0.642-1.557-0.642c-18.774,0-37.042,16.527-42.409,21.812
				c-13.237-12.24-30.93-20.191-31.706-20.537c-0.685-0.304-1.479-0.236-2.103,0.182s-0.992,1.125-0.972,1.873l0.072,2.883
				c0.033,0.014,0.077,0.035,0.11,0.05c-0.734-0.319-1.198-0.513-1.313-0.56c-0.684-0.281-1.464-0.199-2.072,0.226
				c-0.609,0.42-0.964,1.118-0.943,1.856l0.09,3.248c-1.009-0.381-1.591-0.588-1.626-0.598c-0.504-0.177-1.077-0.093-1.514,0.225
				c-0.436,0.322-0.687,0.834-0.668,1.375l2.186,67.441c0.025,0.775,0.601,1.436,1.365,1.562
				c17.982,3.062,39.453,16.496,39.67,16.634c0.263,0.163,0.566,0.252,0.875,0.252c0.196,0,0.388-0.035,0.569-0.104
				c19.521-7.25,48.912-14.627,49.207-14.699c0.722-0.18,1.231-0.821,1.244-1.563l1.093-70.604
				C390.003,443.946,389.832,443.521,389.524,443.208L389.524,443.208L389.524,443.208z M297.144,447.799
				c6.411,2.447,24.662,9.906,37.733,19.986c0.163,0.125,0.349,0.205,0.545,0.258c-0.705,0.221-1.211,0.93-1.182,1.695l2.11,57.127
				c-0.169-0.1-0.34-0.201-0.523-0.309l-3.229-58.107c-4.992-5.992-30.954-17.451-35.414-19.391L297.144,447.799L297.144,447.799z
				 M338.319,491.272l5.166,3.677l-4.923,2.916L338.319,491.272L338.319,491.272z M338.615,499.278l5.059,1.44l-4.818,5.09
				L338.615,499.278L338.615,499.278z M339.649,527.324l-0.779-21.117l6.831-0.27l-3.393,6.615l7.06-2.463l-1.239,7.074l6.194-4.39
				l1.022,6.84l4.721-5.894l3.195,5.939l2.78-6.818l5.056,4.459l0.572-7.078l6.419,2.537l-1.692-6.639l7.152,0.368l-3.786-5.56
				l6.102-1.557l-0.223,14.307C380.061,515.108,356.898,521.141,339.649,527.324L339.649,527.324L339.649,527.324z M360.663,507.086
				c0-1.51,1.604-2.734,3.588-2.734c1.981,0,3.587,1.225,3.587,2.734s-1.604,2.733-3.587,2.733S360.663,508.596,360.663,507.086
				L360.663,507.086L360.663,507.086z M381.428,495.168l4.543-2.687l-0.092,5.854L381.428,495.168L381.428,495.168z
				 M381.237,489.399l4.858-5.134l-0.1,6.492L381.237,489.399L381.237,489.399z M386.104,483.91l-6.889,0.271l3.389-6.612
				l-7.057,2.461l1.239-7.073l-2.982,2.114l-4.771,29.28c-2.392-2.186-8.37,0-8.37,0l-6.056-30.832l-0.79-0.697l-0.573,7.077
				l-5.82-2.302c0.4-0.194,0.766-0.366,1.059-0.496c0.812-0.361,1.649-0.732-0.352-13.414c-0.052-0.338-0.258-0.629-0.557-0.79
				c-0.3-0.162-0.656-0.181-0.966-0.041c-0.163,0.073-4.039,1.797-7.02,3.558c-0.361,0.213-0.569,0.612-0.534,1.028l0.986,12.245
				c0.029,0.367,0.242,0.693,0.565,0.871c0.162,0.091,0.343,0.136,0.523,0.136c0.177,0,0.354-0.043,0.515-0.129
				c0.038-0.022,3.079-1.638,5.304-2.737l1.569,6.172l-7.15-0.367l3.784,5.56l-6.845,1.745l-0.791-21.424
				c-0.026-0.729-0.526-1.295-1.19-1.477c0.22-0.061,0.432-0.15,0.608-0.297c0.249-0.21,24.947-20.807,49.756-21.712L386.104,483.91
				L386.104,483.91z M342.088,477.86l-0.798-9.905c1.712-0.97,3.65-1.914,4.9-2.5c0.609,4.123,1.095,8.514,0.98,9.838
				C345.782,475.942,343.555,477.092,342.088,477.86L342.088,477.86L342.088,477.86z M351.474,453.992
				c-0.743,0.418-1.464,0.836-2.168,1.252c8.251-5.791,19.83-12.193,31.476-12.938l-0.014,0.986
				C369.55,444.93,358.95,449.787,351.474,453.992L351.474,453.992L351.474,453.992z M376.629,437.836
				c-9.554,2.188-18.689,6.26-26.006,10.934c7.157-5.17,16.561-10.543,26.006-11.275l-0.004,0.342H376.629L376.629,437.836z
				 M378.828,438.086c-0.034,0.004-0.068,0.01-0.105,0.014C378.76,438.096,378.794,438.09,378.828,438.086L378.828,438.086
				L378.828,438.086z M336.444,459.831c-0.193,0.174-0.375,0.336-0.542,0.491C336.068,460.167,336.251,460.002,336.444,459.831
				L336.444,459.831L336.444,459.831z M350.324,449.235c-0.36,0.231-0.718,0.464-1.07,0.696
				C349.606,449.699,349.964,449.467,350.324,449.235L350.324,449.235L350.324,449.235z M348.714,450.295
				c-0.267,0.178-0.534,0.358-0.797,0.537C348.18,450.653,348.447,450.473,348.714,450.295L348.714,450.295L348.714,450.295z
				 M347.358,451.217c-0.246,0.17-0.491,0.342-0.73,0.51C346.868,451.559,347.11,451.387,347.358,451.217L347.358,451.217
				L347.358,451.217z M346.081,452.115c-0.236,0.168-0.47,0.338-0.7,0.504C345.611,452.453,345.845,452.283,346.081,452.115
				L346.081,452.115L346.081,452.115z M344.87,452.99c-0.238,0.176-0.472,0.352-0.703,0.523
				C344.398,453.342,344.632,453.167,344.87,452.99L344.87,452.99L344.87,452.99z M343.716,453.85
				c-0.253,0.189-0.497,0.379-0.741,0.566C343.219,454.227,343.463,454.04,343.716,453.85L343.716,453.85L343.716,453.85z
				 M342.619,454.69c-0.715,0.55-1.391,1.088-2.024,1.599C341.229,455.778,341.904,455.24,342.619,454.69L342.619,454.69
				L342.619,454.69z M340.311,456.522c-0.217,0.177-0.433,0.354-0.64,0.524C339.878,456.877,340.091,456.699,340.311,456.522
				L340.311,456.522L340.311,456.522z M339.361,457.307c-0.187,0.156-0.371,0.309-0.549,0.459
				C338.99,457.615,339.173,457.461,339.361,457.307L339.361,457.307L339.361,457.307z M338.512,458.021
				c-0.169,0.144-0.336,0.286-0.496,0.426C338.178,458.307,338.342,458.165,338.512,458.021L338.512,458.021L338.512,458.021z
				 M337.747,458.678c-0.162,0.142-0.318,0.277-0.471,0.41C337.429,458.956,337.584,458.819,337.747,458.678L337.747,458.678
				L337.747,458.678z M337.061,459.278c-0.162,0.144-0.316,0.282-0.467,0.416C336.744,459.561,336.897,459.424,337.061,459.278
				L337.061,459.278L337.061,459.278z M332.041,457.19c-9.272-7.132-19.651-12.56-25.889-15.528l-0.037-1.436
				C311.511,442.932,322.792,449.067,332.041,457.19L332.041,457.19L332.041,457.19z M304.948,441.096
				c-0.116-0.055-0.23-0.107-0.343-0.16C304.719,440.99,304.831,441.042,304.948,441.096L304.948,441.096L304.948,441.096z
				 M303.703,440.524c-0.047-0.022-0.102-0.046-0.147-0.067C303.603,440.477,303.655,440.502,303.703,440.524L303.703,440.524
				L303.703,440.524z M302.67,440.059c-0.085-0.036-0.165-0.073-0.245-0.107C302.506,439.985,302.583,440.021,302.67,440.059
				L302.67,440.059L302.67,440.059z M301.973,444.551c4.465,2.045,13.097,6.275,21.63,11.982
				c-8.15-4.598-16.275-8.171-21.585-10.334L301.973,444.551L301.973,444.551z"/>
			<path id="path3319" d="M353.371,460.796l7.652,42.638c0,0,2.431-0.97,4.696-0.97c1.134,0,2.229,0.242,2.956,0.97l7.653-51.384
				C376.33,452.05,356.65,455.331,353.371,460.796 M371.086,457.577l-6.037,40.531c-0.177,0.01-0.354,0.021-0.531,0.039
				l-6.45-35.945C360.236,460.747,365.348,458.944,371.086,457.577"/>
			<rect id="rect3321" x="437.818" y="435.163" width="45" height="45"/>
			<rect id="rect3323" x="488.819" y="435.163" width="45" height="45"/>
			<rect id="rect3325" x="437.818" y="485.354" width="45" height="45"/>
			<rect id="rect3327" x="488.819" y="485.354" width="45" height="45"/>
			<path id="path3329" d="M660.748,529.906l-30.899-22.453l-30.9,22.453l11.803-36.328l-30.901-22.451h38.195l11.805-36.326
				l11.806,36.326h38.194l-30.899,22.451L660.748,529.906L660.748,529.906z M629.849,502.506l23.286,16.918l-8.894-27.373
				l23.285-16.92h-28.783l-8.896-27.375l-8.896,27.375H592.17l23.287,16.92l-8.896,27.373L629.849,502.506L629.849,502.506z"/>
			<path id="path3331" d="M79.284,678.667H17.622v-66.594l22.391-20.763h16.88l22.391,20.765V678.667L79.284,678.667z
				 M27.899,668.389h41.107v-51.828l-16.145-14.973h-8.816l-16.146,14.973V668.389L27.899,668.389z M43.315,634.989h-5.141v26.977
				h5.141V634.989L43.315,634.989z M58.729,634.989h-5.138v26.977h5.138V634.989L58.729,634.989z M48.451,626.524
				c-6.02,0-10.917-4.9-10.917-10.921s4.897-10.918,10.917-10.918c6.022,0,10.921,4.896,10.921,10.918
				C59.372,621.624,54.473,626.524,48.451,626.524L48.451,626.524L48.451,626.524z M48.451,611.106
				c-2.477,0-4.495,2.018-4.495,4.497c0,2.478,2.018,4.496,4.495,4.496c2.48,0,4.498-2.016,4.498-4.496
				C52.949,613.125,50.931,611.106,48.451,611.106L48.451,611.106L48.451,611.106z M48.638,617.004c-1.239,0-2.331-0.9-2.533-2.166
				c-2.368-14.844,14.563-24.93,26.716-30.17c1.073-2.193,2.077-4.308,2.949-6.217c2.031-4.438,5.602-5.496,8.269-5.012
				c3.004,0.549,5.321,2.971,5.51,5.758c0.099,1.456-0.297,5.045-6.07,6.926c-2.302,0.752-4.612,1.59-6.881,2.508
				c-2.989,6.019-6.432,12.457-9.215,16.826c-0.764,1.194-2.351,1.547-3.549,0.785c-1.196-0.764-1.548-2.353-0.784-3.547
				c1.766-2.773,3.894-6.576,6.012-10.613c-10.958,5.682-19.259,13.326-17.883,21.947c0.221,1.401-0.733,2.719-2.133,2.942
				C48.911,616.995,48.773,617.004,48.638,617.004L48.638,617.004L48.638,617.004z M82.802,578.465
				c-1.199,0-1.984,1.301-2.359,2.121c-0.2,0.44-0.408,0.887-0.622,1.35c0.765-0.27,1.459-0.5,2.063-0.698
				c1.96-0.638,2.555-1.419,2.536-1.695c-0.022-0.334-0.543-0.91-1.306-1.049C83.008,578.475,82.904,578.465,82.802,578.465
				L82.802,578.465L82.802,578.465z"/>
			<path id="path3333" d="M243.105,643.114c-3.745-1.666-7.761-1.916-11.446-0.976c-3.379-16.225-13.73-30.344-28.325-38.399
				c1.592-4.308,5.093-7.539,9.322-8.886c-1.823-1.442-4.015-2.475-6.462-2.924c-6.146-1.125-12.099,1.758-15.17,6.789
				c-1.647-0.455-3.323-0.84-5.035-1.153c-14.811-2.709-37.289-2.396-35.168,12.717c-11.228,7.797-6.726,9.393-0.181,7.385
				c9.502-2.811,19.471-2.387,29.854-0.998c-0.543,0.793-0.669,0.285-1.115,2.719c-0.445,2.435,1.851,7.562,5.711,8.269l0.017,0.002
				c-1.039-1.498-1.5-3.404-1.149-5.324s1.426-3.494,2.894-4.527c15.441,3.461,32.501,13.047,41.917,25.345
				c-3.792,1.707-6.996,4.762-8.82,8.859c-1.301,2.921-1.735,6.005-1.42,8.971c2.854-5.367,15.445-7.527,14.099-12.275
				c3.976,3.428,11.388-1.264,17.861,0.588C248.715,646.668,246.21,644.497,243.105,643.114"/>
			<path id="path3335" d="M532.239,634.29h-16.2v-5.164h6.503v-5.484h-35.599v-5.266h16.2c3.701,0,4.101-2.647,4.101-3.785v-19.058
				c0-2.848-1.378-4.288-4.101-4.288h-34.751c-1.869,0-4.101,0.744-4.101,4.288v19.058c0,1.414,0.534,3.785,4.101,3.785h16.201
				v5.266h-35.568v5.484h6.573v5.092h-16.199c-1.872,0-4.103,0.742-4.103,4.287v19.058c0,1.413,0.533,3.784,4.103,3.784h34.752
				c3.698,0,4.099-2.646,4.099-3.784v-19.058c0-2.847-1.379-4.287-4.099-4.287h-16.204v-5.092h55.743v5.166h-16.203
				c-1.87,0-4.1,0.741-4.1,4.287v19.059c0,1.414,0.531,3.785,4.1,3.785h34.752c3.698,0,4.1-2.646,4.1-3.785v-19.059
				C536.339,635.733,534.96,634.29,532.239,634.29L532.239,634.29L532.239,634.29z M467.824,614.792
				c-0.006-0.051-0.009-0.117-0.009-0.201v-19.058c0-0.391,0.036-0.604,0.063-0.709c0.085-0.018,0.245-0.041,0.514-0.041h34.751
				c0.267,0,0.427,0.021,0.519,0.038c0.025,0.11,0.06,0.325,0.06,0.712v19.058c0,0.084-0.003,0.15-0.009,0.199
				c-0.104,0.022-0.282,0.047-0.568,0.047h-34.751C468.113,614.836,467.934,614.815,467.824,614.792L467.824,614.792
				L467.824,614.792z M474.665,637.793c0.028,0.111,0.062,0.328,0.062,0.711v19.057c0,0.086-0.004,0.15-0.011,0.199
				c-0.103,0.021-0.283,0.045-0.566,0.045h-34.75c-0.28,0-0.464-0.021-0.571-0.043c-0.004-0.051-0.009-0.115-0.009-0.201v-19.057
				c0-0.389,0.036-0.602,0.062-0.707c0.088-0.02,0.247-0.041,0.519-0.041h34.752C474.414,637.756,474.576,637.776,474.665,637.793
				L474.665,637.793L474.665,637.793z M532.819,657.637c0,0.082-0.005,0.147-0.013,0.199c-0.104,0.021-0.282,0.045-0.567,0.045
				h-34.752c-0.278,0-0.46-0.021-0.568-0.043c-0.005-0.051-0.009-0.119-0.009-0.201v-19.059c0-0.391,0.037-0.603,0.062-0.707
				c0.087-0.021,0.245-0.039,0.515-0.039h34.752c0.265,0,0.426,0.018,0.517,0.034c0.027,0.112,0.063,0.329,0.063,0.712V657.637
				L532.819,657.637z"/>
			<path id="path3337" d="M680.287,662.498h-100v-73h100V662.498L680.287,662.498z M588.287,654.498h84v-57h-84V654.498
				L588.287,654.498z"/>
			<path id="polygon3339" d="M594.286,648.497h72l-18-24l-11,9l-22-30L594.286,648.497L594.286,648.497z"/>
			<path id="path3341" d="M657.286,604.497c3.866,0,7,3.133,7,7c0,3.865-3.134,7-7,7s-7-3.135-7-7
				C650.286,607.629,653.42,604.497,657.286,604.497"/>
			<path id="path3343" d="M56.096,818.667H54.75H37.264c2.464,0,2.69,2,2.69,2H54.75h1.346h14.796c0,0,0.226-2,2.69-2H56.096
				L56.096,818.667z"/>
			<path id="path3345" d="M54.75,725.667h1.346h17.486c-2.466,0-2.69-5-2.69-5H56.096H54.75H39.954c0,0-0.228,5-2.69,5H54.75
				L54.75,725.667z"/>
			<path id="path3347" d="M37.422,817.667h36v-91h-36V817.667L37.422,817.667z M62.065,776.288l-17.777,14.926l10.768-14.072
				l-10.768-10.375l8.203-15.1h14.357l-12.305,15.301L62.065,776.288L62.065,776.288z"/>
			<path id="path3349" d="M249.713,788.957l-0.131-1.354l-15.589,2.983c0.056-3.807,0.2-14.389,0.181-25.856
				c-0.002-1.771,0-3.568,0-5.365c0.004-10.703,0.01-21.771-0.777-28.084c-0.465-3.73-2.829-9.613-7.192-9.613h-0.07
				c-15.162,0.213-62.319,6.16-70.12,7.156c-1.819-0.023-3.355,0.604-4.561,1.891c-4.011,4.275-2.705,14.57-2.648,15.008
				l0.163,1.235l15.216-2.087c1.211,8.656,0.974,20.242,0.753,31.07c-0.053,2.612-0.109,5.311-0.143,7.922
				c-0.022,1.561-0.055,3.104-0.09,4.617c-0.328,14.78-0.611,27.547,12.465,30.543c1.067,0.241,2.073,0.364,3.019,0.364
				c0.963,0,1.863-0.127,2.699-0.381l0.026,0.116l60.229-13.352l0.08-0.02c0.198-0.059,4.886-1.488,6.157-6.92
				C250.288,794.961,249.737,789.198,249.713,788.957L249.713,788.957L249.713,788.957z M151.136,744.157
				c-0.256-3.254-0.203-9.269,2.124-11.746c0.548-0.582,1.197-0.93,1.967-1.058l0.01,0.068c0.039-0.004,0.369-0.047,0.937-0.119
				c0.032,0,0.063,0,0.096,0.002c4.051,0.276,6.302,4.627,7.518,11.119L151.136,744.157L151.136,744.157z M184.254,815.44
				c-1.56,1.435-3.696,1.812-6.529,1.166c-11.107-2.544-10.859-13.808-10.541-28.07c0.033-1.521,0.068-3.07,0.089-4.642
				c0.035-2.6,0.089-5.248,0.143-7.899c0.227-11.088,0.46-22.558-0.722-31.244c-0.957-7.031-2.818-11.688-5.637-14.063
				c14.496-1.812,51.992-6.354,65.113-6.539h0.032c2.689,0,4.41,4.838,4.735,7.44c0.768,6.161,0.761,17.148,0.758,27.775
				c-0.002,1.799-0.002,3.596,0,5.371c0.02,12.015-0.14,23.057-0.19,26.327l-44.546,8.535l0.166,1.168
				C187.548,803.725,187.853,812.131,184.254,815.44L184.254,815.44L184.254,815.44z M246.966,798.27
				c-0.897,3.841-4.056,4.979-4.41,5.097l-55.226,12.242c2.886-4.357,2.622-11.263,2.379-14.015l57.633-11.039
				C247.45,792.428,247.534,795.848,246.966,798.27L246.966,798.27L246.966,798.27z"/>
			<path id="path3351" d="M292.209,731.932v4.144v70.182v4.144h4.034h92.677h4.033v-4.144v-70.182v-4.144h-4.033h-92.677H292.209
				L292.209,731.932z M300.277,740.219h84.607v61.896h-84.607V740.219L300.277,740.219z"/>
			<path id="path3353" d="M305.77,745.184v0.658v50.614v0.657h0.614h72.624h0.659v-0.657v-50.614v-0.658h-0.659h-72.624H305.77
				L305.77,745.184z M307.043,746.5h71.306v49.295h-71.306V746.5L307.043,746.5z"/>
			<path id="path3355" d="M368.684,771.057c0.29-0.514,0.597-1.02,0.905-1.521c0.302,0.514,0.595,1.037,0.923,1.539
				c0.426-0.42,0.89-0.795,1.331-1.194c0.118,0.587,0.255,1.169,0.392,1.755c0.539-0.233,1.083-0.467,1.628-0.692
				c-0.026,0.592-0.104,1.182-0.146,1.772c0.586-0.063,1.173-0.115,1.759-0.162c-0.225,0.554-0.468,1.099-0.696,1.646
				c0.579,0.119,1.15,0.252,1.726,0.379c-0.364,0.467-0.781,0.89-1.138,1.363c0.496,0.303,1.002,0.596,1.508,0.895
				c-0.502,0.322-1.021,0.619-1.53,0.926c0.396,0.438,0.778,0.883,1.165,1.33c-0.568,0.152-1.15,0.271-1.726,0.404
				c0.225,0.554,0.479,1.092,0.691,1.647c-0.586-0.059-1.173-0.104-1.755-0.17c0.033,0.597,0.095,1.187,0.142,1.782
				c-0.545-0.234-1.085-0.478-1.632-0.688c-0.061,0.271-0.168,0.559-0.053,0.832c0.947,2.848,1.903,5.69,2.869,8.534
				c-0.772-0.446-1.518-0.936-2.287-1.383c-0.397,0.763-0.772,1.535-1.193,2.283c-0.056-0.17-0.099-0.344-0.142-0.52
				c-0.586-2.57-1.207-5.14-1.789-7.709h-0.109c-0.464,2.02-0.942,4.032-1.411,6.049c-0.174,0.713-0.312,1.436-0.518,2.137
				c-0.423-0.748-0.788-1.521-1.191-2.277c-0.77,0.451-1.514,0.937-2.282,1.382c0.978-2.826,1.887-5.675,2.854-8.5
				c0.092-0.273,0.022-0.562-0.046-0.828c-0.552,0.211-1.092,0.459-1.637,0.688c0.039-0.597,0.11-1.187,0.146-1.786
				c-0.587,0.06-1.169,0.111-1.755,0.174c0.224-0.552,0.471-1.095,0.69-1.647c-0.568-0.133-1.146-0.252-1.717-0.396
				c0.375-0.459,0.778-0.896,1.16-1.346c-0.52-0.293-1.028-0.596-1.534-0.918c0.514-0.299,1.012-0.609,1.531-0.895
				c-0.379-0.461-0.801-0.89-1.161-1.363c0.574-0.123,1.146-0.26,1.721-0.379c-0.225-0.547-0.463-1.096-0.69-1.646
				c0.591,0.029,1.177,0.099,1.759,0.162c-0.03-0.592-0.099-1.182-0.142-1.772c0.544,0.223,1.079,0.477,1.633,0.676
				c0.128-0.576,0.272-1.15,0.383-1.732C367.774,770.276,368.204,770.696,368.684,771.057 M369.368,772.028
				c-1.411,0.045-2.78,0.78-3.588,1.938c-0.904,1.232-1.104,2.928-0.582,4.359c0.355,1.028,1.122,1.899,2.062,2.444
				c1.323,0.761,3.022,0.796,4.396,0.132c0.753-0.357,1.381-0.947,1.849-1.636c1.037-1.573,0.995-3.782-0.118-5.307
				C372.5,772.68,370.916,771.932,369.368,772.028"/>
			<path id="path3357" d="M369.283,772.366c1.674-0.144,3.379,0.821,4.136,2.321c0.382,0.695,0.514,1.505,0.476,2.291
				c-0.076,1.929-1.628,3.677-3.531,3.986c-1.68,0.326-3.516-0.447-4.42-1.904c-0.995-1.475-0.914-3.565,0.175-4.973
				C366.848,773.084,368.042,772.448,369.283,772.366"/>
			<path id="path3359" d="M343.579,755.965l-0.035,2.283c9.144,0.094,15.724,1.385,20.034,2.707
				c4.474,1.373,6.468,2.673,6.468,2.673l1.229-1.829c0,0-2.343-1.514-7.029-2.953C359.73,757.462,352.922,756.065,343.579,755.965
				L343.579,755.965L343.579,755.965z M338.94,756.001c-4.311,0.159-7.996,0.589-11.143,1.159l0.457,2.213
				c3.064-0.527,6.683-0.945,10.896-1.09l0.034-2.282C339.106,756.003,339.02,755.999,338.94,756.001L338.94,756.001L338.94,756.001
				z M323.51,758.108c-0.968,0.245-1.889,0.487-2.707,0.737c-4.688,1.439-6.994,2.953-6.994,2.953l1.23,1.829
				c0,0,1.925-1.3,6.396-2.673c0.764-0.234,1.622-0.477,2.531-0.702L323.51,758.108L323.51,758.108z"/>
			<rect id="rect3361" x="311.525" y="784.645" width="16.871" height="1.125"/>
			<rect id="rect3363" x="311.525" y="790.268" width="16.871" height="1.125"/>
			<path id="path3365" d="M442.73,747.616c-2.42-4.07-6.604-8.095-9.623-9.254l-0.487-0.188v-1.959v-1.959l0.312-0.043l27.424-0.043
				c0.017,0.746,0.03,2.301,0.011,3.762c-3.626,0.449-7.999,2.224-6.787,6.288c6.914,15.276,13.205,30.825,20.031,46.141
				l11.717-21.906c-4.535-9.287-7.837-18.68-12.801-27.791c-1.617-2.623-5.993-2.694-9.094-2.799l0.012-3.625l25.922,0.088
				l0.074,3.504c-2.338,0.322-5.092,0.877-4.778,3.709l7.355,16.271c2.422-5.166,5.112-10.221,7.248-15.514
				c0.97-4.19-3.746-4.402-6.753-4.518l-0.054-3.453l23.163-0.088v3.53c-3.386,0.241-6.588,1.218-8.456,3.72
				c-4.539,7.018-7.905,14.981-11.441,22.604c3.492,8.259,7.135,16.509,10.704,24.084l19.743-45.538
				c-1.332-3.002-4.35-4.062-7.31-4.748l-0.15-3.673l21.894,0.175l-0.002,3.572c-0.976,0.152-1.908,0.453-2.811,0.846
				c-1.714,0.796-3.33,2.371-4.415,4.304l-27.212,62.61l-4.561,0.033L488.66,775.27l-15.715,30.486l-4.719,0.002
				C459.047,786.633,452.405,766.508,442.73,747.616"/>
			<path id="polygon3367" d="M617.148,735.065l26.68,39.198v-39.198h20.638v70.854h-20.638l-26.534-38.905v38.905h-20.59v-70.854
				H617.148L617.148,735.065z"/>
			<path id="path3369" d="M61.361,907.116c-0.353-0.074-0.622-0.15-0.959-0.227v-12.123c5.604,0.903,11.528,3.358,17.053,7.246
				l10.771-15.209c-7.531-6.043-16.578-9.502-27.824-10.185v-10.641H54.98v10.545C37.099,877,26.169,887.252,26.169,901.342v0.227
				c0,15.818,12.516,20.545,28.811,24.307v12.769c-7.261-0.928-14.177-3.966-20.482-8.985l-11.989,14.314
				c8.629,7.727,20.17,11.97,32.471,12.715v9.187h5.422v-9.075c18.031-0.481,29.934-9.811,29.934-25.254v-0.229
				C90.336,916.777,79.235,911.002,61.361,907.116L61.361,907.116L61.361,907.116z M47.93,899.573v-0.229
				c0-2.634,2.339-4.751,7.05-4.949v11.089C49.5,903.817,47.93,902.274,47.93,899.573L47.93,899.573L47.93,899.573z M68.579,933.645
				c0,3.189-2.875,5.133-8.177,5.3v-11.677c6.389,1.856,8.177,3.529,8.177,6.154V933.645L68.579,933.645z"/>
			<path id="path3377" d="M387.488,868.167h-84.978c-2.913,0-5.27,2.358-5.27,5.271v84.978c0,2.912,2.356,5.271,5.27,5.271h18.191
				h27.559V926.7h-12.445v-14.414h12.445v-10.629c0-12.337,7.532-19.058,18.539-19.058c5.272,0,9.801,0.39,11.122,0.563v12.893
				l-7.632,0.01c-5.986,0-7.141,2.841-7.141,7.015v9.206h14.271l-1.861,14.414h-12.409v36.985h22.342h1.996
				c2.911,0,5.271-2.357,5.271-5.271v-84.978C392.759,870.525,390.399,868.167,387.488,868.167L387.488,868.167L387.488,868.167z"/>
			<path id="path3379" d="M500.629,874.791c-9.297,3.347-15.172,11.974-14.503,21.42l0.224,3.645l-3.719-0.445
				c-13.536-1.711-25.362-7.514-35.402-17.256l-4.908-4.834l-1.265,3.569c-2.678,7.958-0.968,16.362,4.61,22.016
				c2.976,3.124,2.306,3.569-2.826,1.711c-1.784-0.595-3.347-1.042-3.495-0.818c-0.521,0.521,1.266,7.289,2.679,9.966
				c1.934,3.72,5.875,7.363,10.188,9.521l3.646,1.71l-4.313,0.075c-4.165,0-4.312,0.073-3.867,1.636
				c1.487,4.835,7.363,9.967,13.908,12.197l4.61,1.562l-4.017,2.38c-5.95,3.421-12.94,5.354-19.933,5.504
				c-3.347,0.074-6.099,0.371-6.099,0.596c0,0.745,9.072,4.907,14.354,6.545c15.842,4.834,34.658,2.752,48.79-5.504
				c10.04-5.875,20.081-17.554,24.767-28.857c2.528-6.024,5.059-17.031,5.059-22.312c0-3.422,0.223-3.867,4.388-7.958
				c2.454-2.38,4.76-4.983,5.206-5.728c0.744-1.413,0.67-1.413-3.123-0.147c-6.322,2.229-7.215,1.934-4.091-1.413
				c2.306-2.38,5.058-6.694,5.058-7.959c0-0.224-1.115,0.148-2.381,0.817c-1.338,0.744-4.313,1.859-6.545,2.529l-4.016,1.264
				l-3.646-2.454c-2.008-1.339-4.834-2.825-6.322-3.271C509.852,873.452,504.051,873.601,500.629,874.791"/>
			<path id="path3381" d="M664.46,868.244h-69.221c-8.271,0-14.977,6.704-14.977,14.975v69.214c0,8.271,6.705,14.975,14.977,14.975
				h69.22c8.271,0,14.975-6.704,14.975-14.975V883.22C679.435,874.949,672.73,868.244,664.46,868.244L664.46,868.244L664.46,868.244
				z M610.271,951.483h-14.903v-44.846h14.903V951.483L610.271,951.483z M602.821,900.515h-0.1c-5.004,0-8.236-3.442-8.236-7.748
				c0-4.397,3.333-7.747,8.433-7.747c5.098,0,8.239,3.35,8.335,7.747C611.253,897.072,608.016,900.515,602.821,900.515
				L602.821,900.515L602.821,900.515z M664.019,951.483h-14.904v-23.992c0-6.026-2.156-10.142-7.55-10.142
				c-4.115,0-6.57,2.772-7.646,5.452c-0.393,0.957-0.49,2.297-0.49,3.639v25.043H618.52c0,0,0.197-40.638,0-44.846h14.907v6.348
				c1.981-3.058,5.523-7.398,13.433-7.398c9.807,0,17.159,6.407,17.159,20.182V951.483L664.019,951.483z"/>
			<path id="path3383" d="M2.27,1062.333c5.002-1.249,11.805-2.95,23.722-3.267c-0.329-0.659-0.626-1.342-0.889-2.045
				c-4.638-0.041-18.92,0.618-23.812,1.827c-0.028,0.011-0.058,0.012-0.087,0.012c-0.164,0-0.315-0.113-0.355-0.278
				c-0.047-0.193,0.072-0.393,0.267-0.441c4.848-1.197,18.786-1.862,23.723-1.851c-1.111-3.269-1.602-7.011-1.602-11.189
				c0-7.423,2.312-10.223,5.417-14.178c-2.375-8.46,0.852-14.241,0.852-14.241s4.991-1.035,14.424,5.722
				c5.114-2.19,18.747-2.373,25.196-0.486c3.96-2.617,11.2-6.331,14.123-5.292c0.79,1.274,2.494,4.985,1.033,13.145
				c0.993,1.788,6.148,5.6,6.169,16.371c-0.085,3.974-0.498,7.327-1.263,10.165c12.301-0.104,19.536,0.911,24.52,1.829
				c0.195,0.04,0.327,0.229,0.293,0.428c-0.034,0.174-0.187,0.3-0.356,0.3c-0.026,0-0.047,0-0.073-0.011
				c-4.975-0.92-12.223-1.932-24.596-1.818c-0.217,0.72-0.459,1.404-0.722,2.057c4.21,0.141,15.775,0.591,25.207,3.477
				c0.196,0.06,0.302,0.263,0.243,0.459c-0.047,0.154-0.191,0.257-0.349,0.257c-0.034,0-0.072,0-0.106-0.018
				c-9.563-2.924-21.379-3.325-25.309-3.454c-3.42,7.515-10.436,10.317-21.775,11.483c3.675,2.313,4.729,5.215,4.729,13.067
				c0,7.852-0.106,8.904-0.081,10.71c0.039,2.964,4.381,4.383,4.219,5.337c-0.161,0.952-3.632,0.799-5.255,0.23
				c-4.597-1.602-4.139-5.426-4.139-5.426l-0.152-10.498c0,0,0.314-5.65-1.772-5.65v17.185c0,3.734,2.613,4.868,2.613,6.25
				c0,2.373-4.775-0.226-6.246-1.707c-2.244-2.251-1.989-7.026-1.934-10.804c0.051-3.647-0.034-11.624-0.034-11.624l-1.523,0.032
				c0,0,0.625,17.426-0.803,20.602c-1.846,4.076-7.414,5.479-7.414,3.621c0-1.249,1.373-0.853,2.131-3.65
				c0.648-2.382,0.427-20.147,0.427-20.147s-1.784,1.057-1.784,4.383c0,1.522-0.043,10.223-0.043,12.812
				c0,3.256-4.625,5.11-6.847,5.11c-1.126,0-2.526-0.055-2.526-0.651c0-1.506,4.23-2.391,4.23-5.522
				c0-2.717-0.059-9.706-0.059-9.706s-2.133,0.365-5.175,0.365c-7.669,0-10.095-4.896-11.249-7.635
				c-1.502-3.564-3.45-5.241-5.519-6.58c-1.271-0.821-1.564-1.793-0.093-2.068c6.789-1.279,8.525,7.698,13.058,9.128
				c3.235,1.021,7.395,0.58,9.464-0.758c0.274-2.743,2.25-5.114,3.896-6.362c-11.531-1.107-18.367-5.111-21.91-11.549
				c-12.062,0.29-18.907,2.001-23.925,3.255c-0.366,0.091-0.722,0.18-1.066,0.269c-0.03,0.01-0.06,0.01-0.09,0.01
				c-0.163,0-0.312-0.109-0.355-0.275c-0.048-0.195,0.073-0.396,0.269-0.444c0.345-0.089,0.699-0.176,1.063-0.27"/>
			<path id="path3385" d="M214.18,1059.952c0-7.155-5.8-12.955-12.955-12.955c-7.155,0-12.955,5.8-12.955,12.955
				c0,7.153,5.8,12.954,12.955,12.954C208.38,1072.906,214.18,1067.105,214.18,1059.952"/>
			<path id="path3387" d="M214.18,1024.452c0-7.155-5.8-12.955-12.955-12.955c-7.155,0-12.955,5.8-12.955,12.955
				c0,7.153,5.8,12.954,12.955,12.954C208.38,1037.406,214.18,1031.605,214.18,1024.452"/>
			<path id="path3389" d="M178.68,1024.452c0-7.155-5.8-12.955-12.955-12.955c-7.155,0-12.955,5.8-12.955,12.955
				c0,7.153,5.8,12.954,12.955,12.954C172.88,1037.406,178.68,1031.605,178.68,1024.452"/>
			<path id="path3391" d="M249.16,1024.452c0-7.155-5.8-12.955-12.955-12.955c-7.155,0-12.955,5.8-12.955,12.955
				c0,7.153,5.8,12.954,12.955,12.954C243.36,1037.406,249.16,1031.605,249.16,1024.452"/>
			<path id="path3393" d="M249.16,1059.952c0-7.155-5.8-12.955-12.955-12.955c-7.155,0-12.955,5.8-12.955,12.955
				c0,7.153,5.8,12.954,12.955,12.954C243.36,1072.906,249.16,1067.105,249.16,1059.952"/>
			<path id="path3395" d="M249.16,1095.452c0-7.155-5.8-12.955-12.955-12.955c-7.155,0-12.955,5.8-12.955,12.955
				c0,7.153,5.8,12.954,12.955,12.954C243.36,1108.406,249.16,1102.605,249.16,1095.452"/>
			<path id="path3397" d="M345.954,1010.548c-27.284,0-49.403,22.118-49.403,49.403c0,27.284,22.119,49.402,49.403,49.402
				c27.285,0,49.403-22.118,49.403-49.402S373.239,1010.548,345.954,1010.548 M345.954,1076.419
				c-9.095,0-16.469-7.373-16.469-16.468c0-9.096,7.374-16.467,16.469-16.467s16.469,7.373,16.469,16.467
				C362.423,1069.046,355.049,1076.419,345.954,1076.419"/>
			<path id="path3399" d="M345.954,1058.716c0.683,0,1.235,0.554,1.235,1.235s-0.554,1.234-1.235,1.234s-1.235-0.553-1.235-1.234
				S345.272,1058.716,345.954,1058.716"/>
			<path id="path3417" d="M328.683,590.716l1.58-0.42l2.011-0.42l1.989-0.221l2,0.109l2,0.21l2,0.521l1.061,0.421l1.89,0.53
				l1.9,0.209l0.84,0.109h3.26l3.16-0.21l3.16-0.319h0.319l1.681-0.21l2.95-0.109l3.05-0.101l3.16,0.101h0.739l1.789,0.109
				l1.682,0.421l1.79,0.64l1.89,0.84l1.79,0.95l1.79,1.26l1.689,1.261l1.369,1.579l1.36,1.801l1.16,1.58l1.37,2.1l1.05,2.211
				l0.84,2.319l0.641,1.271l0.521,2.101l0.53,2.21l0.21,2.22v4.74l0.31,2.949l0.32,3.051l0.529,2.949l0.841,2.95l0.1,0.529l0.851,2
				l0.101,0.421v0.42l-0.21,0.311l-0.641,0.64l-0.729,0.311l-0.63,0.21h-0.53l-0.42-0.21l-0.42-0.42l-0.74-2l-0.729-2.529
				l-0.53-2.521l-0.32-2.641v-0.42l-0.63-4.42l-0.52-4.32l-0.21,1.579l-0.11,3.052l-0.52,3.061l-0.11,0.729l-0.74,3.271l-0.63,6.529
				v3.16l0.101,3.369l0.221,3.16l0.52,3.37l0.642,3.159l0.63,2.42l0.21,0.851l0.1,1.58v1.789l-0.1,0.312l-0.432,0.84l-0.42,0.211
				l-0.42,0.109h-6.108l-0.521-0.109l-0.53-0.211l-0.31-0.42l-0.32-0.521v-2.211l0.222-0.528l0.31-0.42l0.311-0.53l0.109-0.529
				v-0.62l-0.109-0.431l-0.311-0.63l-1.47-3.05l-1.271-3.171l-1.16-3.05l-0.84-3.37l-0.84-3.271l-0.63,2.431l-1.16,4.21l-0.95,4.221
				l-0.84,4.21l-1.16,6.84l-0.198,0.431l-0.32,0.42l-0.32,0.21l-0.529,0.101h-6.311l-0.52-0.101l-0.432-0.21l-0.42-0.42l-0.2-0.53
				l-0.108-0.42v-1.689l0.108-0.521l0.41-0.529l0.32-0.421l0.42-0.21l0.42-0.43l0.21-0.62l0.11-0.54v-3.261l0.63-8.43l0.42-4.32
				l0.74-4.209l-2.42-0.211l-2.74-0.529l-2.63-0.63l-2.63-0.939l-2.53-0.95l0.32,0.729l0.31,1.271l0.21,1.26l-0.1,1.37l-0.32,1.261
				l-0.32,2.109l-0.21,3.8l-0.21,3.681v3.689l0.32,3.79l0.63,5.58v0.431l-0.11,0.42l-0.31,0.42l-0.42,0.21l-0.53,0.101h-6.53
				l-0.52-0.101l-0.42-0.21l-0.42-0.42l-0.32-0.53v-2.101l0.11-0.529l0.42-0.529l0.42-0.421l0.11-0.1l0.199-0.32l0.11-0.319v-0.42
				l-1.79-7.689l-0.63-2.74l-1.271-4.95l-1.89-10.109v0.101l-0.53,3.79v0.109l-0.42,2.109l-0.63,2.11l-0.84,1.89l-1.89,4.11
				l-2.32,6.529l-3.05,9.689l-0.101,0.32l-0.319,0.42l-0.42,0.21l-0.53,0.101h-6.95l-0.52-0.21l-0.32-0.311l-0.21-0.42v-2.641
				l0.21-0.63l0.42-0.421l0.53-0.31l0.52-0.221h0.11l0.31-0.21l0.221-0.21l0.21-0.42l3.68-14.851l0.11-0.319l0.52-3.052l0.42-3.06
				l0.21-3.05v-3.061l-0.32-3.05l-0.31-2.961l-0.11-0.199l-0.199-0.53l-0.431-0.31l-0.529-0.11h-0.521l-0.53,0.21l-1.05,0.74
				l-1.47,1.16l-0.521,0.521l-0.85,0.63l-0.95,0.43l-0.939,0.101l-0.42,0.11l-1.061,0.42l-1.26,0.63l-1.16,0.95l-0.84,1.05
				l-0.74,1.271l-0.42,1.26l-0.31,1.37v0.319l-0.11,2.211l0.11,2.21l0.42,2.21l0.31,1.061l0.43,2.1l0.311,2.32l0.1,2.21l-0.21,0.42
				l-0.31,1.16l-0.63,1.159l-0.841,1.051l-0.85,0.739l-0.729,0.421l-1.37,0.949l-1.58,0.529l-1.48,0.421l-1.68,0.101h-0.84
				l-1.271-0.311l-1.149-0.421l-1.16-0.64l-1.05-0.95l-0.53-0.521l-0.84-1.479v0.109l-0.11-0.109l-0.63-1.47l-0.1-0.11l-0.11-0.63
				v-0.74l0.21-0.52l0.74-0.74l0.939-0.74l0.32-0.199l0.53-0.109h0.529l0.631,0.109l0.52,0.311l0.53,0.42l0.319,0.529l1.051,1.16
				l0.21,0.21l0.63,0.521l0.74,0.209l0.729,0.111l0.85-0.32l0.521-0.42l0.64-0.53l0.101-0.31l0.21-1.051v-0.949l-0.32-1.051
				l-0.52-0.851v-0.101l-0.631-2.109l-0.739-2.85l-0.641-2.95l-0.63-3.05l-0.21-3.051l-0.21-3.16v-3.06l0.21-3.052l0.53-3.06
				l0.53-2.949l0.52-2l0.84-2.631l1.061-2.528l1.26-2.432l1.37-2.42l1.58-2.21l0.21-0.21l0.729-0.84l0.84-0.74l1.16-0.42
				l1.061-0.319h2.2l2.64-0.421l2.52-0.42l2.631-0.739l1.06-0.42L328.683,590.716L328.683,590.716z M329.533,612.836l-0.101-0.53
				l-0.319-2.21l-0.74-2.21l-0.84-2.22l-0.95-2l-1.26-2l-1.271-1.79l-1.47-1.051l-0.94-0.319l-0.949-0.101l-0.95,0.101l-0.42,0.21
				l-1.681,0.63l-0.84,0.852v0.729l0.101,0.21l0.21,0.319l0.31,0.101l0.43,0.11l0.421-0.11l0.21-0.101l1.369-0.739h0.2l0.53-0.102
				h0.63l0.64,0.211l0.41,0.311l0.11,0.109l1.37,1.79l1.149,2l0.96,2l0.73,2.109l0.53,2.211l0.31,1.259l-0.1,0.53l-0.42,0.841
				l-0.431,0.319l-0.42,0.11h-0.63l-0.31-0.11l-2.32-1.061l-0.94-0.521l-0.42-0.1h-0.43l-0.21,0.1l-0.31,0.32l-0.21,0.1l-0.11,0.421
				v0.319l0.42,0.63l0.21,0.11l2.53,1.149l1.05,0.529l0.84,0.21h0.95l0.85-0.21l0.84-0.319l0.631-0.63l0.63-0.729l0.21-0.851
				L329.533,612.836L329.533,612.836z M309.643,609.886v-0.319l-0.109-0.21l-0.11-0.101l-0.41-0.21h-0.739l-0.841,0.311l-0.64,0.21
				l-0.52,0.42l-0.221,0.431v0.1l-0.1,0.21l0.1,0.11l0.221,0.199l0.42,0.221h0.729l0.74-0.221l0.74-0.311l0.52-0.42L309.643,609.886
				L309.643,609.886z"/>
			<g id="g3517" transform="translate(583.114750, 1008.326600)">
				<path id="path3503" d="M78.323,94.936c0,2.802,2.276,5.062,5.068,5.062h6.339c2.798,0,5.068-2.262,5.068-5.062v-50.73
					c0-2.799-2.271-5.062-5.068-5.062h-6.339c-2.792,0-5.068,2.263-5.068,5.062V94.936L78.323,94.936z"/>
				<path id="path3505" d="M53.805,74.271v20.665c0,2.801,2.274,5.062,5.084,5.062h6.324c2.791,0,5.065-2.263,5.065-5.062V74.271
					c0-2.801-2.274-5.076-5.065-5.076h-6.324C56.083,69.194,53.805,71.472,53.805,74.271L53.805,74.271L53.805,74.271z"/>
				<path id="path3507" d="M29.295,81.883v13.055c0,2.801,2.263,5.062,5.068,5.062h6.33c2.792,0,5.069-2.262,5.069-5.062V81.883
					c0-2.8-2.277-5.091-5.069-5.091h-6.33C31.559,76.793,29.295,79.084,29.295,81.883L29.295,81.883L29.295,81.883z"/>
				<path id="path3509" d="M34.131,0C15.271,0,0,15.287,0,34.141c0,18.868,15.271,34.153,34.131,34.153
					c18.869,0,34.153-15.285,34.153-34.153C68.288,15.287,53,0,34.131,0L34.131,0L34.131,0z M34.134,59.669
					c-14.098,0-25.511-11.425-25.511-25.526c0-14.092,11.414-25.519,25.511-25.519v25.576l20.764,14.797
					C50.267,55.46,42.694,59.669,34.134,59.669L34.134,59.669L34.134,59.669z"/>
			</g>
			<g id="Imported-Layers" transform="translate(437.120661, 1008.815000)">
				<path id="Fill-1" d="M25.456,6.417c5.387-6.883,16.959-7.88,23.045-1.496c3.491-0.199,7.48,0.599,9.477,3.79
					c3.691,5.787,3.989,13.069,2.992,19.654c-0.698,3.689,1.396,7.282,0.101,10.972c-0.699,3.991-4.59,6.286-5.587,10.176
					c-4.29,8.979-10.176,18.356-8.879,28.731c0.699,7.88,5.087,14.964,11.073,19.853c-8.979,1.396-18.155,1.396-27.233,1.097
					c-7.583-0.498-15.464-0.898-22.745-3.591c-2.993-1.197-6.485-3.093-6.884-6.685c-0.398-4.688-0.699-10.075,2.693-13.767
					c5.886-6.684,14.664-9.776,23.044-11.772c3.093-0.797,5.287-4.986,2.993-7.681c-2.095-2.993-3.492-6.384-4.688-9.777
					c-4.49-3.19-6.086-9.775-3.99-14.764C18.573,22.779,20.068,13.301,25.456,6.417"/>
				<path id="Fill-2" d="M70.447,51.409c12.869-2.993,26.734,6.584,28.63,19.653c2.395,12.07-5.985,24.84-17.956,27.632
					c-9.179,2.495-19.652-1.295-25.239-8.978c-4.488-5.886-5.985-13.966-3.89-21.048C54.186,60.088,61.668,53.106,70.447,51.409
					L70.447,51.409L70.447,51.409z M82.517,64.577c-3.491,4.789-6.584,9.777-9.977,14.565c-1.495-1.596-2.992-3.291-4.788-4.589
					c-2.493-0.898-3.89,2.194-5.485,3.492c2.194,3.989,5.885,6.884,9.177,9.975c2.096,1.896,4.39-0.498,5.387-2.294
					c3.991-6.284,8.58-12.171,12.271-18.655C88.902,64.477,84.313,61.584,82.517,64.577L82.517,64.577L82.517,64.577z"/>
			</g>
		</g>
		<g id="slack_monochrome.eps" transform="translate(152.000000, 866.000000)" sketch:type="MSShapeGroup">
			<path id="Fill-10" d="M40.038,45.292l4.19,12.508l12.995-4.353l-4.189-12.508L40.038,45.292"/>
			<g id="Group-15">
				<path id="Fill-12" d="M40.038,45.292l4.19,12.508l12.995-4.353l-4.189-12.508L40.038,45.292"/>
				<path id="Fill-14" d="M76.287,57.696l-6.301,2.11l2.184,6.52c0.884,2.641-0.539,5.498-3.18,6.382
					c-0.574,0.193-1.159,0.276-1.73,0.261c-2.06-0.053-3.959-1.373-4.65-3.439l-2.184-6.521L47.43,67.36l2.184,6.521
					c0.884,2.64-0.539,5.498-3.18,6.382c-0.574,0.192-1.158,0.275-1.73,0.261c-2.059-0.054-3.958-1.374-4.65-3.44l-2.184-6.521
					l-6.302,2.11c-0.575,0.192-1.159,0.275-1.731,0.261c-2.059-0.054-3.958-1.374-4.65-3.439c-0.884-2.641,0.54-5.498,3.18-6.382
					l6.302-2.11l-4.19-12.508l-6.301,2.109c-0.574,0.192-1.159,0.275-1.731,0.261c-2.058-0.054-3.958-1.374-4.649-3.44
					c-0.884-2.641,0.539-5.497,3.179-6.381l6.301-2.11l-2.184-6.521c-0.885-2.64,0.539-5.496,3.179-6.381
					c2.641-0.884,5.498,0.539,6.381,3.179l2.184,6.521l12.995-4.352l-2.184-6.521c-0.884-2.641,0.54-5.497,3.18-6.381
					c2.64-0.885,5.498,0.539,6.382,3.179l2.184,6.521l6.301-2.111c2.642-0.884,5.498,0.54,6.382,3.18
					c0.884,2.641-0.54,5.497-3.18,6.382l-6.302,2.11l4.189,12.509l6.302-2.111c2.641-0.883,5.498,0.54,6.381,3.18
					C80.351,53.954,78.927,56.812,76.287,57.696L76.287,57.696z M93.19,36.001C83.164,2.581,68.682-5.217,35.262,4.81
					S-5.956,29.318,4.071,62.738c10.026,33.419,24.509,41.217,57.928,31.19S103.217,69.421,93.19,36.001L93.19,36.001z"/>
			</g>
		</g>
	</g>
</g>
<path d="M130.074,1186.554c0-0.299-0.119-0.589-0.328-0.833c-3.958-4.616-21.836-7.108-41.89-7.775v-13.606
	c0-0.798-0.612-1.446-1.583-1.446c-0.971,0-1.583,0.646-1.583,1.446v13.506c-2.112-0.054-4.828-0.082-7.103-0.082
	c-1.78,0-3.452,0.018-5.563,0.047v-13.471c0-0.798-0.61-1.446-1.583-1.446c-0.972,0-1.583,0.648-1.583,1.446v13.55
	c-21.109,0.601-41.923,3.344-44.057,8.59c-0.059,0.148-0.272,0.303-0.272,0.459v9.217c0,0.032,0.209,0.057,0.21,0.089
	c-0.002,0.05,0.074,0.102,0.074,0.153c0,7.912,34.558,10.002,52.806,10.002c18.249,0,52.782-2.09,52.782-10.002
	c0-0.052-0.181-0.104-0.186-0.153c0.002-0.032-0.143-0.057-0.143-0.089V1186.554z M77.41,1180.653
	c26.467,0,46.333,3.211,49.499,6.417v5.363c-9.499-4.678-34.888-6.041-49.606-6.041c-14.717,0-39.051,1.364-49.606,6.041v-5.209
	C29.807,1184.478,47.959,1180.653,77.41,1180.653z M126.91,1196.396 M108.636,1195.479c1.525,0,2.759,0.726,2.759,1.621
	c0,0.896-1.235,1.622-2.759,1.622c-1.523,0-2.759-0.726-2.759-1.622C105.877,1196.205,107.113,1195.479,108.636,1195.479z
	 M93.052,1198.479c1.523,0,2.758,0.727,2.758,1.621c0,0.896-1.234,1.622-2.758,1.622c-1.523,0-2.759-0.726-2.759-1.622
	C90.293,1199.205,91.529,1198.479,93.052,1198.479z M77.466,1198.479c1.523,0,2.758,0.727,2.758,1.621
	c0,0.896-1.235,1.622-2.758,1.622c-1.524,0-2.758-0.726-2.758-1.622C74.708,1199.205,75.942,1198.479,77.466,1198.479z
	 M61.881,1198.479c1.522,0,2.758,0.727,2.758,1.621c0,0.896-1.236,1.622-2.758,1.622c-1.524,0-2.759-0.726-2.759-1.622
	C59.123,1199.205,60.357,1198.479,61.881,1198.479z M46.297,1195.479c1.523,0,2.758,0.726,2.758,1.621
	c0,0.896-1.236,1.622-2.758,1.622c-1.523,0-2.758-0.726-2.758-1.622C43.539,1196.205,44.773,1195.479,46.297,1195.479z
	 M93.052,1190.188c1.523,0,2.758,0.724,2.758,1.622c0,0.895-1.234,1.622-2.758,1.622c-1.523,0-2.759-0.728-2.759-1.622
	C90.293,1190.911,91.529,1190.188,93.052,1190.188z M77.466,1190.188c1.523,0,2.758,0.724,2.758,1.622
	c0,0.895-1.235,1.622-2.758,1.622c-1.524,0-2.758-0.728-2.758-1.622C74.708,1190.911,75.942,1190.188,77.466,1190.188z
	 M61.881,1190.188c1.522,0,2.758,0.724,2.758,1.622c0,0.895-1.236,1.622-2.758,1.622c-1.524,0-2.759-0.728-2.759-1.622
	C59.123,1190.911,60.357,1190.188,61.881,1190.188z"/>
<path d="M63.529,1216.251c-0.512-0.369-1.133-0.543-1.753-0.497c-0.152,0.011-0.307,0.035-0.459,0.074l-22.299,5.644
	c-1.254,0.315-2.098,1.487-2.003,2.777l0.195,2.658l0.097,1.328l1.381,18.827c-1.421-0.878-3.213-1.327-5.156-1.184
	c-1.13,0.082-2.245,0.353-3.319,0.798c-2.461,1.027-4.359,2.861-5.21,5.037c-0.657,1.682-0.627,3.458,0.081,4.998
	c1.209,2.635,4.211,4.172,7.646,3.92c1.129-0.082,2.245-0.35,3.318-0.799c2.459-1.023,4.358-2.858,5.208-5.03
	c0.366-0.939,0.498-1.902,0.437-2.843l0.024-0.002l-1.559-21.261c0.153-0.011,0.307-0.036,0.459-0.072l21.844-5.528l1.183,16.129
	c-1.422-0.88-3.213-1.328-5.157-1.185c-1.129,0.082-2.247,0.353-3.32,0.798c-2.46,1.026-4.359,2.861-5.207,5.037
	c-0.657,1.682-0.628,3.457,0.079,4.998c1.211,2.634,4.209,4.173,7.646,3.921c1.129-0.083,2.248-0.351,3.321-0.8
	c2.458-1.022,4.355-2.857,5.207-5.03c0.367-0.938,0.497-1.902,0.438-2.844l0.024-0.002l-1.754-23.917l-0.098-1.329l-0.194-2.656
	C64.571,1217.433,64.168,1216.711,63.529,1216.251z"/>
<path d="M126.752,1234.883c-0.444-0.557-1.066-0.933-1.753-1.071c-0.169-0.034-0.345-0.054-0.522-0.058l-25.927-0.623
	c-1.458-0.037-2.728,0.98-3.016,2.409l-0.593,2.946l-0.296,1.473l-4.202,20.865c-1.277-1.384-3.087-2.414-5.241-2.848
	c-1.251-0.252-2.545-0.296-3.847-0.138c-2.983,0.37-5.601,1.788-7.183,3.893c-1.223,1.628-1.728,3.565-1.426,5.453
	c0.516,3.227,3.31,5.806,7.117,6.572c1.251,0.252,2.544,0.299,3.846,0.137c2.981-0.367,5.599-1.784,7.18-3.886
	c0.681-0.909,1.117-1.915,1.335-2.956l0.027,0.006l4.744-23.562c0.169,0.034,0.345,0.054,0.521,0.061l25.398,0.61l-3.599,17.874
	c-1.278-1.386-3.087-2.414-5.242-2.849c-1.252-0.252-2.547-0.296-3.848-0.137c-2.982,0.369-5.6,1.787-7.179,3.893
	c-1.223,1.629-1.729,3.564-1.428,5.453c0.519,3.227,3.308,5.806,7.117,6.572c1.251,0.252,2.546,0.3,3.848,0.138
	c2.979-0.367,5.596-1.785,7.178-3.888c0.683-0.907,1.116-1.915,1.337-2.955l0.027,0.006l5.337-26.507l0.297-1.472l0.593-2.945
	C127.526,1236.481,127.308,1235.575,126.752,1234.883z"/>
</svg>
