<?xml version="1.0" encoding="UTF-8" standalone="no"?>
<svg width="720px" height="1151px" viewBox="0 0 720 1151" version="1.1" xmlns="http://www.w3.org/2000/svg" xmlns:xlink="http://www.w3.org/1999/xlink" xmlns:sketch="http://www.bohemiancoding.com/sketch/ns">
    <!-- Generator: Sketch 3.2.2 (9983) - http://www.bohemiancoding.com/sketch -->
    <title>Slice 1</title>
    <desc>Created with Sketch.</desc>
    <defs></defs>
    <g id="Page-1" stroke="none" stroke-width="1" fill="none" fill-rule="evenodd" sketch:type="MSPage">
        <path d="M72.421,18.635 C44.948,18.635 22.597,40.987 22.597,68.461 C22.597,95.935 44.948,118.286 72.421,118.286 C99.895,118.286 122.248,95.934 122.248,68.461 C122.249,40.987 99.896,18.635 72.421,18.635 L72.421,18.635 Z M76.597,44.635 L76.597,27.266 C80.597,29.563 84.906,36.635 87.546,44.635 L76.597,44.635 L76.597,44.635 Z M89.581,51.635 C90.44,56.635 90.997,60.635 91.208,64.635 L76.598,64.635 L76.598,51.635 L89.581,51.635 L89.581,51.635 Z M68.597,27.266 L68.597,44.635 L57.298,44.635 C59.938,36.635 63.597,29.563 68.597,27.266 L68.597,27.266 Z M68.597,51.635 L68.597,64.635 L53.638,64.635 C53.848,60.635 54.405,56.635 55.264,51.635 L68.597,51.635 L68.597,51.635 Z M45.919,64.635 L30.487,64.635 C30.9,60.635 32.029,55.635 33.763,51.635 L47.318,51.635 C46.572,56.635 46.095,60.635 45.919,64.635 L45.919,64.635 Z M45.919,72.635 C46.095,77.635 46.571,81.635 47.317,85.635 L33.762,85.635 C32.028,81.635 30.899,77.635 30.487,72.635 L45.919,72.635 L45.919,72.635 Z M53.638,72.635 L68.597,72.635 L68.597,85.635 L55.264,85.635 C54.405,81.635 53.849,76.635 53.638,72.635 L53.638,72.635 Z M68.597,93.635 L68.597,109.655 C63.597,107.358 59.938,101.635 57.297,93.635 L68.597,93.635 L68.597,93.635 Z M76.597,109.655 L76.597,93.635 L87.546,93.635 C84.906,101.635 80.597,107.358 76.597,109.655 L76.597,109.655 Z M76.597,85.635 L76.597,72.635 L91.207,72.635 C90.996,76.635 90.439,81.635 89.58,85.635 L76.597,85.635 L76.597,85.635 Z M98.925,72.635 L114.359,72.635 C113.945,77.635 112.818,81.635 111.084,85.635 L97.527,85.635 C98.273,81.635 98.75,77.635 98.925,72.635 L98.925,72.635 Z M98.925,64.635 C98.75,60.635 98.273,56.635 97.527,51.635 L111.082,51.635 C112.816,55.635 113.945,60.635 114.359,64.635 L98.925,64.635 L98.925,64.635 Z M106.717,44.635 L95.704,44.635 C94.112,38.635 92.001,34.445 89.481,30.543 C96.413,33.626 102.357,38.635 106.717,44.635 L106.717,44.635 Z M55.364,30.542 C52.845,34.443 50.734,38.634 49.141,44.634 L38.126,44.634 C42.487,38.635 48.434,33.625 55.364,30.542 L55.364,30.542 Z M38.125,93.635 L49.141,93.635 C50.733,98.635 52.845,103.827 55.363,107.728 C48.433,104.645 42.486,99.635 38.125,93.635 L38.125,93.635 Z M89.481,107.727 C92,103.825 94.111,98.635 95.703,93.635 L106.718,93.635 C102.359,99.635 96.413,104.644 89.481,107.727 L89.481,107.727 Z" id="path3229" fill="#FFFFFF" sketch:type="MSShapeGroup"></path>
        <path d="M214.881,77.513 C217.872,79.8 226.75,81.888 233.878,85.76 C236.228,87.037 236.429,88.929 236.605,90.073 C236.782,91.217 237.156,104.052 237.156,104.052 L167.88,104.052 C167.88,104.052 168.252,91.216 168.429,90.073 C168.605,88.928 168.62,87.192 171.157,85.76 C178.22,81.771 187.124,79.932 190.116,77.645 C191.304,76.737 190.995,75.269 191.259,73.86 C191.525,72.453 192.404,73.421 192.404,71.924 C192.404,70.42 192.685,70.682 192.52,68.683 C192.376,66.942 189.986,66.755 189.852,63.495 C189.824,62.808 188.621,62.35 187.916,61.296 C187.211,60.239 186.067,58.392 186.067,56.279 C186.067,54.168 186.507,54.695 186.507,52.054 C186.507,49.414 186.408,47.884 187.915,41.758 C188.477,39.473 190.389,36.794 192.304,35.582 C194.886,33.948 193.849,36.127 202.523,34.19 C208.147,32.935 216.955,38.766 217.044,43.43 C217.162,49.738 217.548,49.264 217.922,51.878 C218.185,53.726 218.714,53.285 218.714,55.397 C218.714,57.51 217.569,60.15 216.867,61.206 C216.163,62.262 215.51,63.956 215.421,64.638 C214.961,68.163 212.608,67.348 212.509,69.237 C212.419,70.961 212.308,70.741 212.565,72.084 C212.781,73.208 213.436,72.012 213.7,73.42 C213.962,74.828 213.779,76.899 214.881,77.513" id="path3231" fill="#FFFFFF" sketch:type="MSShapeGroup"></path>
        <path d="M230.242,65.55 C230.732,66.286 231.573,66.606 231.592,67.084 C231.687,69.36 233.353,69.488 233.454,70.703 C233.569,72.099 233.371,71.914 233.371,72.964 C233.371,74.007 232.76,73.332 232.573,74.315 C232.388,75.295 232.605,76.321 231.777,76.955 C230.84,77.672 229.076,78.342 226.971,79.108 C230,80.233 233.342,81.558 236.482,83.205 C239.869,84.978 239.937,87.167 240.2,88.865 C240.293,89.466 240.412,92.293 240.517,95.375 L264.584,95.375 C264.584,95.375 264.323,86.423 264.201,85.624 C264.078,84.826 263.992,83.542 262.301,82.615 C257.34,79.903 251.138,78.458 249.053,76.863 C248.283,76.433 248.409,74.99 248.228,74.008 C248.042,73.028 247.585,73.86 247.435,73.076 C247.255,72.138 247.332,72.292 247.396,71.091 C247.465,69.774 249.105,70.341 249.428,67.883 C249.489,67.407 249.946,66.226 250.435,65.489 C250.928,64.753 251.724,62.911 251.724,61.437 C251.724,59.964 251.357,60.271 251.172,58.983 C250.912,57.159 250.642,57.49 250.558,53.089 C250.497,49.836 244.353,45.768 240.431,46.644 C234.381,47.995 235.103,46.475 233.303,47.615 C231.969,48.46 230.633,50.329 230.241,51.924 C229.189,56.196 229.258,57.264 229.258,59.106 C229.258,60.947 228.951,60.58 228.951,62.052 C228.952,63.525 229.75,64.814 230.242,65.55" id="path3233" fill="#FFFFFF" sketch:type="MSShapeGroup"></path>
        <path d="M623.203,181.154 L623.203,168.654 C623.203,165.199 625.998,162.404 629.453,162.404 C632.908,162.404 635.703,165.199 635.703,168.654 L635.703,181.154 C635.703,184.609 632.908,187.404 629.453,187.404 C625.998,187.404 623.203,184.609 623.203,181.154" id="path3235" fill="#FFFFFF" sketch:type="MSShapeGroup"></path>
        <path d="M679.453,174.904 L679.453,181.3 C679.453,188.209 673.862,193.8 666.953,193.8 C660.044,193.8 654.453,188.209 654.453,181.3 L654.453,174.904 L641.953,174.904 L641.953,181.3 C641.953,188.209 636.362,193.8 629.453,193.8 C622.544,193.8 616.953,188.209 616.953,181.3 L616.953,174.904 L598.203,174.904 L598.203,262.404 L698.203,262.404 L698.203,174.904 L679.453,174.904 L679.453,174.904 Z M629.453,249.904 L616.953,249.904 L616.953,237.404 L629.453,237.404 L629.453,249.904 L629.453,249.904 Z M629.453,224.904 L616.953,224.904 L616.953,212.404 L629.453,212.404 L629.453,224.904 L629.453,224.904 Z M654.453,249.904 L641.953,249.904 L641.953,237.404 L654.453,237.404 L654.453,249.904 L654.453,249.904 Z M654.453,224.928 L641.953,224.928 L641.953,212.428 L654.453,212.428 L654.453,224.928 L654.453,224.928 Z M666.953,249.904 L666.953,237.404 L679.453,237.404 L666.953,249.904 L666.953,249.904 Z M679.453,224.904 L666.953,224.904 L666.953,212.404 L679.453,212.404 L679.453,224.904 L679.453,224.904 Z" id="path3237" fill="#FFFFFF" sketch:type="MSShapeGroup"></path>
        <path d="M660.703,181.154 L660.703,168.654 C660.703,165.199 663.498,162.404 666.953,162.404 C670.408,162.404 673.203,165.199 673.203,168.654 L673.203,181.154 C673.203,184.609 670.408,187.404 666.953,187.404 C663.498,187.404 660.703,184.609 660.703,181.154" id="path3239" fill="#FFFFFF" sketch:type="MSShapeGroup"></path>
        <path d="M479.438,106.23 L479.438,56.106 L477.638,55.044 L477.638,105.307 L479.438,106.23 Z" id="polygon3241" fill="#FFFFFF" sketch:type="MSShapeGroup"></path>
        <path d="M503.503,96.688 L504.765,96.11 L505.824,96.274 L505.824,46.233 L504.961,45.937 L503.399,46.545 L503.503,96.688 Z" id="polygon3243" fill="#FFFFFF" sketch:type="MSShapeGroup"></path>
        <path d="M530.81,55.292 L530.81,106.3 L533.129,104.929 L533.129,54.027 L530.81,55.292 Z" id="polygon3245" fill="#FFFFFF" sketch:type="MSShapeGroup"></path>
        <path d="M525.941,47.383 L524.129,51.95 L530.512,54.559 L548.28,44.92 L548.28,98.109 L530.219,107.907 L511.259,100.149 L505.157,97.692 L504.765,97.692 L479.698,107.907 L461.643,98.109 L461.643,44.92 L479.405,54.559 L504.962,44.108 L511.319,46.71 L508.775,40.359 L504.962,38.8 L479.698,49.134 L456.73,36.662 L456.73,101.03 L479.405,113.338 L504.962,102.883 L530.512,113.338 L553.191,101.03 L553.191,36.662 L530.219,49.134 L525.941,47.383 Z" id="polygon3247" fill="#FFFFFF" sketch:type="MSShapeGroup"></path>
        <path d="M518.79,23.582 C513.287,23.582 508.818,28.046 508.818,33.553 C508.818,34.578 509.018,35.545 509.304,36.476 L509.262,36.476 L518.789,60.256 L528.551,35.652 L528.532,35.652 C528.677,34.976 528.761,34.276 528.761,33.553 C528.763,28.046 524.297,23.582 518.79,23.582 M518.79,38.296 C516.436,38.296 514.519,36.382 514.519,34.026 C514.519,31.67 516.436,29.754 518.79,29.754 C521.144,29.754 523.061,31.668 523.061,34.026 C523.061,36.382 521.148,38.296 518.79,38.296" id="path3249" fill="#FFFFFF" sketch:type="MSShapeGroup"></path>
        <path d="M690.635,23.222 L690.635,32.751 L679.895,32.751 L679.895,23.222 L673.095,23.222 L673.095,37.203 L621.698,37.203 L621.698,23.222 L614.919,23.222 L614.919,32.751 L604.213,32.751 L604.213,23.222 L597.423,23.222 L597.423,114.792 L604.213,114.792 L604.213,105.169 L614.92,105.169 L614.92,114.792 L621.698,114.792 L621.698,100.898 L673.095,100.898 L673.095,114.793 L679.895,114.793 L679.895,105.17 L690.635,105.17 L690.635,114.793 L697.422,114.793 L697.422,23.223 L690.635,23.222 L690.635,23.222 Z M614.919,99.999 L604.212,99.999 L604.212,90.384 L614.919,90.384 L614.919,99.999 L614.919,99.999 Z M614.919,83.884 L604.212,83.884 L604.212,74.349 L614.919,74.349 L614.919,83.884 L614.919,83.884 Z M614.919,66.148 L604.212,66.148 L604.212,56.625 L614.919,56.625 L614.919,66.148 L614.919,66.148 Z M614.919,48.25 L604.212,48.25 L604.212,38.715 L614.919,38.715 L614.919,48.25 L614.919,48.25 Z M621.697,48.25 L673.093,48.25 L673.093,90.384 L621.697,90.384 L621.697,48.25 L621.697,48.25 Z M690.635,99.999 L679.895,99.999 L679.895,90.384 L690.635,90.384 L690.635,99.999 L690.635,99.999 Z M690.635,83.884 L679.895,83.884 L679.895,74.349 L690.635,74.349 L690.635,83.884 L690.635,83.884 Z M690.635,66.148 L679.895,66.148 L679.895,56.625 L690.635,56.625 L690.635,66.148 L690.635,66.148 Z M690.635,48.25 L679.895,48.25 L679.895,38.715 L690.635,38.715 L690.635,48.25 L690.635,48.25 Z" id="path3251" fill="#FFFFFF" sketch:type="MSShapeGroup"></path>
        <path d="M108.623,158.126 L34.223,158.126 C32.756,158.126 31.566,159.279 31.566,160.704 L31.566,264.275 C31.566,265.697 32.756,266.853 34.223,266.853 L108.623,266.853 C110.089,266.853 111.28,265.697 111.28,264.275 L111.28,160.704 C111.28,159.279 110.089,158.126 108.623,158.126 L108.623,158.126 Z M104.609,261.851 L38.571,261.851 L38.571,214.993 L104.609,214.993 L104.609,261.851 L104.609,261.851 Z M104.609,209.989 L38.571,209.989 L38.571,163.127 L104.609,163.127 L104.609,209.989 L104.609,209.989 Z" id="path3253" fill="#FFFFFF" sketch:type="MSShapeGroup"></path>
        <path d="M81.224,220.033 L78.509,220.033 L78.509,226.141 C78.509,226.622 78.115,227.012 77.632,227.012 L65.374,227.012 C64.891,227.012 64.5,226.622 64.5,226.141 L64.5,220.033 L61.957,220.033 C61.475,220.033 61.086,220.421 61.086,220.899 L61.086,229.635 C61.086,230.114 61.475,230.5 61.957,230.5 L81.224,230.5 C81.706,230.5 82.097,230.114 82.097,229.635 L82.097,220.899 C82.097,220.421 81.706,220.033 81.224,220.033" id="path3255" fill="#FFFFFF" sketch:type="MSShapeGroup"></path>
        <path d="M81.224,168.17 L78.509,168.17 L78.509,174.275 C78.509,174.76 78.115,175.149 77.632,175.149 L65.374,175.149 C64.891,175.149 64.5,174.76 64.5,174.275 L64.5,168.17 L61.957,168.17 C61.475,168.17 61.086,168.556 61.086,169.035 L61.086,177.773 C61.086,178.25 61.475,178.635 61.957,178.635 L81.224,178.635 C81.706,178.635 82.097,178.25 82.097,177.773 L82.097,169.035 C82.097,168.559 81.706,168.17 81.224,168.17" id="path3257" fill="#FFFFFF" sketch:type="MSShapeGroup"></path>
        <path d="M256.124,174.302 L256.124,233.215 L209.543,233.215 L205.143,233.215 L202.702,236.875 L195.841,247.166 L188.98,236.875 L186.539,233.215 L182.139,233.215 L176.659,233.215 L176.659,174.302 L256.124,174.302 L256.124,174.302 Z M264.345,166.081 L168.442,166.081 L168.442,241.435 L182.141,241.435 L195.844,261.985 L209.543,241.435 L264.345,241.435 L264.345,166.081 L264.345,166.081 Z" id="path3259" fill="#FFFFFF" sketch:type="MSShapeGroup"></path>
        <path d="M211.227,190.035 C207.907,190.66 205.57,193.07 204.222,197.26 C203.547,199.33 203.21,201.375 203.21,203.398 C203.21,203.638 203.221,203.846 203.246,204.013 C203.27,204.181 203.306,204.554 203.354,205.132 L211.227,205.132 L211.227,220.882 L195.841,220.882 L195.841,206.361 C195.841,199.235 197.262,193.744 200.105,189.891 C202.947,186.038 206.652,183.822 211.229,183.245 L211.229,190.035 L211.227,190.035 L211.227,190.035 Z" id="path3261" fill="#FFFFFF" sketch:type="MSShapeGroup"></path>
        <path d="M235.579,190.035 C232.925,190.469 230.917,191.961 229.542,194.514 C228.172,197.066 227.481,200.006 227.481,203.327 C227.481,203.619 227.497,203.907 227.519,204.196 C227.545,204.481 227.604,204.795 227.701,205.132 L235.579,205.132 L235.579,220.882 L220.118,220.882 L220.118,206.361 C220.118,200.632 221.322,195.514 223.725,191.009 C226.14,186.508 230.082,183.918 235.58,183.245 L235.579,190.035 L235.579,190.035 Z" id="path3263" fill="#FFFFFF" sketch:type="MSShapeGroup"></path>
        <path d="M360.954,198.627 C372.625,198.627 382.086,208.088 382.086,219.759 C382.086,231.429 372.625,240.891 360.954,240.891 C349.283,240.891 339.822,231.429 339.822,219.759 C339.822,208.088 349.283,198.627 360.954,198.627" id="path3265" fill="#FFFFFF" sketch:type="MSShapeGroup"></path>
        <path d="M360.954,246.043 C346.461,246.043 334.67,234.252 334.67,219.76 C334.67,214.53 336.212,209.656 338.857,205.558 L310.953,205.558 L310.953,252.049 L410.953,252.049 L410.953,205.555 L383.051,205.555 C385.697,209.655 387.239,214.528 387.239,219.76 C387.237,234.252 375.446,246.043 360.954,246.043" id="path3267" fill="#FFFFFF" sketch:type="MSShapeGroup"></path>
        <path d="M410.953,187.469 L378.342,187.469 L372.178,173.17 L370.102,173.17 L351.806,173.17 L349.731,173.17 L343.567,187.469 L310.954,187.469 L310.954,200.404 L343.194,200.404 C347.876,196.105 354.113,193.476 360.955,193.476 C367.796,193.476 374.033,196.105 378.714,200.404 L410.954,200.404 L410.954,187.469 L410.953,187.469 Z M366.921,184.515 L354.986,184.515 L354.986,178.322 L366.921,178.322 L366.921,184.515 L366.921,184.515 Z" id="path3269" fill="#FFFFFF" sketch:type="MSShapeGroup"></path>
        <rect id="rect3271" fill="#FFFFFF" sketch:type="MSShapeGroup" x="315.77499" y="183.95599" width="11.83" height="1.992"></rect>
        <rect id="rect3273" fill="#FFFFFF" sketch:type="MSShapeGroup" x="317.13699" y="180.49699" width="9.1079998" height="4.4549999"></rect>
        <path d="M552.227,182.208 L552.227,239.249 C552.227,239.249 535.998,234.687 523.942,237.006 C513.143,239.082 505.195,244.94 503.855,245.976 L503.855,246.148 C503.855,246.148 503.815,246.116 503.743,246.061 C503.672,246.116 503.632,246.148 503.632,246.148 L503.632,245.976 C502.291,244.94 494.345,239.083 483.549,237.006 C471.489,234.687 453.673,239.249 453.673,239.249 L453.673,182.04 C452.63,182.196 451.527,182.363 450.338,182.54 L450.338,243.99 C450.338,243.99 469.754,238.993 482.962,241.536 C495.95,244.033 503.798,251.547 503.798,251.547 C503.798,251.547 511.645,244.033 524.632,241.536 C537.843,238.992 556.462,243.99 556.462,243.99 L556.462,182.805 C556.463,182.806 554.841,182.532 552.227,182.208 M482.568,231.232 C493.129,233.262 501.29,239.375 501.29,239.375 L501.29,183.255 C501.29,183.255 493.086,177.136 482.499,175.101 C471.785,173.04 457.787,177.111 457.787,177.111 L457.787,233.23 C457.787,233.23 471.829,229.167 482.568,231.232 M548.103,233.437 L548.103,177.317 C548.103,177.317 535.272,173.245 524.562,175.307 C513.976,177.34 505.5,183.459 505.5,183.459 L505.5,239.58 C505.5,239.58 513.93,233.469 524.493,231.436 C535.229,229.375 548.103,233.437 548.103,233.437" id="path3275" fill="#FFFFFF" sketch:type="MSShapeGroup"></path>
        <rect id="rect3277" fill="#FFFFFF" sketch:type="MSShapeGroup" x="328.703" y="56.534" width="12.5" height="12.5"></rect>
        <rect id="rect3279" fill="#FFFFFF" sketch:type="MSShapeGroup" x="353.703" y="81.533997" width="12.5" height="12.5"></rect>
        <rect id="rect3281" fill="#FFFFFF" sketch:type="MSShapeGroup" x="378.703" y="56.534" width="12.5" height="12.5"></rect>
        <path d="M334.953,37.784 L334.953,25.284 C334.953,21.829 337.748,19.034 341.203,19.034 C344.658,19.034 347.453,21.829 347.453,25.284 L347.453,37.784 C347.453,41.239 344.658,44.034 341.203,44.034 C337.748,44.034 334.953,41.239 334.953,37.784" id="path3283" fill="#FFFFFF" sketch:type="MSShapeGroup"></path>
        <path d="M309.953,119.034 L309.953,31.534 L322.453,31.534 L322.453,106.534 L397.453,106.534 L397.453,31.534 L409.953,31.534 L409.953,119.034 L309.953,119.034 Z" id="polygon3285" fill="#FFFFFF" sketch:type="MSShapeGroup"></path>
        <rect id="rect3287" fill="#FFFFFF" sketch:type="MSShapeGroup" x="353.703" y="56.557999" width="12.5" height="12.5"></rect>
        <rect id="rect3289" fill="#FFFFFF" sketch:type="MSShapeGroup" x="328.703" y="81.533997" width="12.5" height="12.5"></rect>
        <path d="M378.703,81.534 L391.203,81.534 L378.703,94.034 L378.703,81.534 Z" id="polygon3291" fill="#FFFFFF" sketch:type="MSShapeGroup"></path>
        <path d="M372.453,37.784 L372.453,25.284 C372.453,21.829 375.248,19.034 378.703,19.034 C382.158,19.034 384.953,21.829 384.953,25.284 L384.953,37.784 C384.953,41.239 382.158,44.034 378.703,44.034 C375.248,44.034 372.453,41.239 372.453,37.784" id="path3293" fill="#FFFFFF" sketch:type="MSShapeGroup"></path>
        <path d="M120.315,317.814 L120.315,382.175 C120.315,388.165 115.09,393.518 109.61,393.518 L36.455,393.518 C27.406,393.518 22.566,388.801 22.566,377.332 L22.566,330.306 L36.075,330.306 L36.075,317.814 L120.315,317.814 L120.315,317.814 Z M36.075,337.186 L29.446,337.186 L29.446,377.332 C29.446,383.194 30.846,385.999 32.63,385.999 C34.799,385.999 36.075,383.194 36.075,377.332 L36.075,337.186 L36.075,337.186 Z M113.434,324.697 L42.956,324.697 L42.956,377.332 C42.956,381.41 42.192,384.341 41.043,386.635 L109.61,386.635 C111.901,386.635 113.434,383.958 113.434,382.175 L113.434,324.697 L113.434,324.697 Z M70.102,348.911 L53.916,348.911 L53.916,346.617 L70.102,346.617 L70.102,348.911 L70.102,348.911 Z M70.102,356.43 L53.916,356.43 L53.916,354.136 L70.102,354.136 L70.102,356.43 L70.102,356.43 Z M70.102,363.694 L53.916,363.694 L53.916,361.4 L70.102,361.4 L70.102,363.694 L70.102,363.694 Z M70.102,370.703 L53.916,370.703 L53.916,368.411 L70.102,368.411 L70.102,370.703 L70.102,370.703 Z M70.102,377.968 L53.916,377.968 L53.916,375.676 L70.102,375.676 L70.102,377.968 L70.102,377.968 Z M56.336,334.767 L98.776,334.767 L98.776,339.227 L56.336,339.227 L56.336,334.767 L56.336,334.767 Z M76.475,346.617 L103.617,346.617 L103.617,372.489 L76.475,372.489 L76.475,346.617 L76.475,346.617 Z" id="path3295" fill="#FFFFFF" sketch:type="MSShapeGroup"></path>
        <path d="M262.623,324.343 L170.163,324.343 C168.335,324.343 166.854,325.826 166.854,327.652 L166.854,385.68 C166.854,387.51 168.335,388.989 170.163,388.989 L262.623,388.989 C264.451,388.989 265.933,387.51 265.933,385.68 L265.933,327.652 C265.933,325.826 264.451,324.343 262.623,324.343 L262.623,324.343 Z M173.472,333.716 L203.054,355.67 L173.472,379.782 L173.472,333.716 L173.472,333.716 Z M216.392,358.357 L179.482,330.962 L253.307,330.962 L216.392,358.357 L216.392,358.357 Z M207.166,358.719 L214.668,364.289 C215.18,364.668 215.787,364.857 216.392,364.857 C216.997,364.857 217.607,364.668 218.118,364.289 L225.861,358.538 C225.88,358.551 225.888,358.568 225.904,358.581 L254.715,382.371 L178.151,382.371 L207.166,358.719 L207.166,358.719 Z M229.965,355.494 L259.314,333.716 L259.314,379.73 L229.965,355.494 L229.965,355.494 Z" id="path3297" fill="#FFFFFF" sketch:type="MSShapeGroup"></path>
        <path d="M342.062,351.744 C336.72,346.751 332.639,337.034 332.639,329.182 C332.639,318.082 341.416,311.761 349.724,311.761 C358.031,311.761 366.367,318.675 366.367,329.786 C366.367,337.639 361.855,347.045 356.286,351.865 C357.429,356.401 363.696,357.878 376.646,361.554 C381.422,362.909 382.31,364.963 384.955,367.366 L357.174,367.366 C356.597,367.366 356.059,367.5 355.588,367.768 C355.588,367.768 353.965,368.466 353.844,370.708 L353.844,386.867 L311.89,386.867 C311.851,380.078 309.958,365.635 324.346,361.556 C336.935,357.97 340.519,356.482 341.915,352.24" id="path3299" fill="#FFFFFF" sketch:type="MSShapeGroup"></path>
        <path d="M360.115,401 C359.853,401 359.594,400.974 359.348,400.908 L370.599,386.018 L371.455,384.888 L372.963,386.018 L382.604,393.256 L382.903,393.256 L392.545,386.018 L394.052,384.888 L394.911,386.018 L406.16,400.908 C405.902,400.974 405.642,401 405.394,401 L382.8,401 L382.708,401 L360.115,401 L360.115,401 Z" id="path3301" fill="#FFFFFF" sketch:type="MSShapeGroup"></path>
        <path d="M358.581,371.429 C359.035,371.168 359.555,371.037 360.115,371.037 L389.609,371.037 L405.084,371.037 C405.732,371.037 406.33,371.234 406.849,371.558 L395.339,380.029 L387.18,386.019 L382.607,389.383 L378.097,386.019 L358.581,371.429 L358.581,371.429 Z" id="path3303" fill="#FFFFFF" sketch:type="MSShapeGroup"></path>
        <path d="M408.618,374.273 L408.618,397.764 C408.618,398.167 408.553,398.544 408.409,398.895 L396.443,383.084 L408.601,373.947 C408.618,374.04 408.618,374.157 408.618,374.273" id="path3305" fill="#FFFFFF" sketch:type="MSShapeGroup"></path>
        <path d="M369.065,383.084 L366.841,386.019 L357.098,398.896 C356.957,398.544 356.892,398.167 356.892,397.765 L356.892,386.019 L356.892,374.273 C356.892,374.156 356.892,374.039 356.904,373.947 L369.065,383.084 L369.065,383.084 Z" id="path3307" fill="#FFFFFF" sketch:type="MSShapeGroup"></path>
        <path d="M503.869,305.395 C482.939,305.395 466.547,315.92 466.547,329.357 C466.547,329.7 466.568,330.039 466.591,330.38 L466.547,330.38 C466.547,330.38 466.536,337.931 466.5,347.499 C466.48,360.464 466.447,377.137 466.447,383.796 C466.447,397.219 482.784,407.745 503.656,407.745 C524.461,407.745 540.754,397.219 540.754,383.796 C540.754,380.139 540.799,373.282 540.854,365.655 C540.989,349.452 541.179,329.684 541.191,329.395 L541.191,329.355 C541.19,315.92 524.797,305.395 503.869,305.395 L503.869,305.395 Z M535.836,348.521 C535.823,349.844 535.813,351.194 535.803,352.571 L535.803,353.161 C535.566,353.593 535.312,354.014 535.02,354.432 C533.954,355.992 532.554,357.461 530.863,358.798 C524.717,363.687 514.805,366.926 503.867,366.926 C495.336,366.926 487.44,364.952 481.458,361.767 L481.458,365.188 C487.569,368.181 495.326,369.953 503.869,369.953 C515.458,369.953 525.614,366.702 532.154,361.551 C533.518,360.49 534.729,359.322 535.758,358.103 C535.714,362.35 535.682,366.6 535.646,370.453 L535.646,371.592 C531.203,379.325 518.449,385.065 503.87,385.065 C495.337,385.065 487.441,383.09 481.459,379.907 L481.459,383.325 C487.57,386.317 495.322,388.095 503.872,388.095 C517.768,388.095 529.592,383.428 535.615,376.417 C535.605,379.458 535.594,381.999 535.594,383.796 C535.594,393.497 520.97,401.701 503.659,401.701 C486.52,401.701 472.013,393.714 471.627,384.184 L471.608,384.184 L471.608,383.796 L471.608,383.034 L471.608,351.499 L471.655,351.499 C471.658,350.716 471.662,349.928 471.662,349.163 C471.675,346.751 471.675,344.457 471.685,342.334 C471.754,342.189 471.82,342.032 471.911,341.89 C472.504,342.532 473.153,343.147 473.837,343.737 C474.196,344.05 474.566,344.352 474.947,344.654 C475.303,344.93 475.663,345.204 476.044,345.48 C477.913,346.816 480.018,348.012 482.335,349.045 C488.382,351.746 495.785,353.319 503.869,353.319 C511.953,353.319 519.354,351.746 525.401,349.045 C527.706,348.012 529.813,346.816 531.694,345.48 C532.062,345.204 532.432,344.943 532.792,344.654 C533.183,344.352 533.554,344.05 533.912,343.737 C534.593,343.146 535.242,342.532 535.837,341.901 C535.859,341.941 535.883,341.994 535.901,342.032 C535.882,344.064 535.858,346.239 535.836,348.521 L535.836,348.521 Z M536.017,329.371 C536.017,331.402 535.367,333.369 534.18,335.203 C533.934,335.609 533.642,336.003 533.317,336.396 C533.027,336.777 532.714,337.144 532.368,337.497 C532.064,337.826 531.75,338.14 531.428,338.429 C531.081,338.755 530.72,339.071 530.341,339.372 C529.993,339.647 529.636,339.924 529.255,340.198 C527.171,341.704 524.662,343.015 521.853,344.09 C516.692,346.084 510.477,347.264 503.871,347.264 C497.265,347.264 491.047,346.084 485.888,344.09 C483.077,343.015 480.57,341.692 478.487,340.198 C478.104,339.924 477.748,339.646 477.4,339.372 C477.019,339.071 476.66,338.755 476.315,338.429 C475.989,338.127 475.677,337.826 475.374,337.497 C475.026,337.144 474.713,336.776 474.422,336.396 C474.098,336.004 473.819,335.61 473.57,335.203 C472.372,333.369 471.723,331.39 471.723,329.357 C471.723,319.643 486.447,311.451 503.871,311.451 L503.892,311.451 C521.302,311.465 536.018,319.644 536.018,329.357 L536.018,329.371 L536.017,329.371 Z" id="path3309" fill="#FFFFFF" sketch:type="MSShapeGroup"></path>
        <path d="M681.527,307.312 L632.695,307.312 L625.642,307.312 L620.193,307.312 C618.254,307.312 615.476,308.362 614.021,309.643 L613.24,310.332 C611.784,311.615 610.594,314.252 610.594,316.191 L610.594,318.883 L610.594,319.468 L610.594,402.494 C610.594,404.433 612.182,406.02 614.12,406.02 L675.45,406.02 C677.391,406.02 678.976,404.433 678.976,402.494 L678.976,318.883 C678.976,316.943 677.391,315.356 675.45,315.356 L634.453,315.356 C634.453,314.072 633.413,313.032 632.131,313.032 C630.851,313.032 629.812,314.072 629.812,315.356 L629.812,316.268 L629.812,339.557 L623.972,333.855 L618.917,339.557 L618.917,315.355 L614.12,315.355 C614.094,315.355 614.072,315.361 614.047,315.363 L617.839,311.018 L629.166,311.018 L681.471,311.018 L681.471,399.15 L681.527,399.15 C683.465,399.15 685.053,397.562 685.053,395.624 L685.053,310.838 C685.053,308.898 683.465,307.312 681.527,307.312" id="path3311" fill="#FFFFFF" sketch:type="MSShapeGroup"></path>
        <path d="M21.591,458.358 L121.591,458.358 L121.591,542.973 L21.591,542.973 L21.591,458.358 L21.591,458.358 Z M29.284,535.282 L113.899,535.282 L113.899,473.743 L29.284,473.743 L29.284,535.282 L29.284,535.282 Z M36.976,485.282 L48.514,485.282 L60.053,500.667 L48.514,516.052 L36.976,516.052 L48.514,500.667 L36.976,485.282 L36.976,485.282 Z" id="path3313" fill="#FFFFFF" sketch:type="MSShapeGroup"></path>
        <path d="M227.585,546.392 C223.004,548.185 217.859,549.177 212.143,549.177 C206.188,549.177 200.537,547.821 195.401,545.462 C193.078,544.343 191.521,542.876 191.521,540.968 L191.521,535.341 C180.167,528.616 171.871,516.294 169.473,500.749 C167.871,499.661 166.938,498.386 166.938,496.884 C166.938,495.38 167.805,494.267 168.633,493.548 C170.242,492.149 173.065,491.042 176.539,490.165 C178.842,486.647 182.815,484.317 187.322,484.317 C189.047,484.317 190.695,484.659 192.202,485.274 C194.123,481.925 197.713,479.845 201.562,479.845 C202.206,479.845 202.837,479.903 203.452,480.013 C204.463,475.042 208.888,471.384 214.023,471.384 C219.759,471.384 224.449,475.862 224.788,481.515 C227.12,481.729 229.345,482.718 231.074,484.298 L245.288,456.423 C247.179,452.931 252.418,455.767 250.527,459.255 L237.094,483.058 C237.882,483.083 238.65,483.192 239.396,483.378 L259.398,452.599 C261.642,449.323 266.558,452.69 264.316,455.966 L243.396,485.343 C244.889,486.505 246.074,488.052 246.792,489.849 C253.075,491.335 257.654,493.556 257.654,496.884 C257.654,498.532 256.531,499.909 254.629,501.061 C252.084,515.311 245.079,528.196 233.484,535.272 L233.484,540.968 C233.484,543.409 230.96,545.196 227.585,546.392 M212.143,545.601 C217.443,545.601 222.199,544.663 226.337,543.044 C227.814,542.52 228.889,541.936 229.476,541.433 C229.754,541.194 229.87,541.038 229.909,540.968 L229.95,537.181 C224.801,539.608 218.868,540.983 212.143,540.983 C206.106,540.983 200.363,539.673 195.144,537.253 L195.231,541.106 C195.489,541.39 196.009,541.792 196.924,542.233 C201.617,544.379 206.75,545.601 212.143,545.601 M250.829,502.77 C239.475,506.688 217.441,506.897 212.298,506.897 C207.106,506.897 184.694,506.686 173.441,502.653 C177.679,523.749 193.606,537.411 212.143,537.411 C231.379,537.409 246.668,523.811 250.829,502.77 M235.297,486.232 L230.896,494.035 C231.324,494.162 231.743,494.326 232.15,494.525 L237.639,486.078 C237.35,486.047 237.062,486.031 236.767,486.031 C236.254,486.03 235.767,486.107 235.297,486.232 M247.546,494.102 C249.582,494.815 251.268,496.362 252.167,498.376 C254.148,497.399 254.437,496.64 254.437,496.464 C254.437,496.317 254.23,495.749 252.98,494.991 C252.277,494.565 251.241,494.077 249.725,493.569 C249.036,493.339 248.296,493.118 247.514,492.915 C247.541,493.218 247.554,493.524 247.554,493.837 C247.552,493.927 247.55,494.017 247.546,494.102 M243.012,493.915 C243.536,493.782 244.059,493.704 244.574,493.679 C244.527,491.267 243.389,489.159 241.671,487.77 L235.105,496.999 C235.254,497.206 235.396,497.423 235.531,497.645 C236.538,499.354 233.969,500.868 232.967,499.155 C231.161,496.095 226.622,495.683 224.54,498.933 C223.468,500.604 220.96,498.995 222.033,497.325 C223.077,495.698 224.507,494.644 226.074,494.114 L229.652,487.093 C228.175,485.427 226.027,484.45 223.797,484.45 C221.902,484.45 221.833,483.774 221.833,482.169 C221.833,477.858 218.337,474.364 214.025,474.364 C209.789,474.364 206.344,477.765 206.223,481.935 C206.219,482.054 206.206,482.163 206.191,482.261 C209.388,482.073 212.696,483.638 214.394,486.876 C215.318,488.636 212.679,490.019 211.757,488.259 C209.601,484.151 203.511,484.136 201.64,488.636 C200.877,490.466 198.127,489.323 198.888,487.489 C199.77,485.372 201.272,483.901 203.02,483.067 C202.469,482.948 201.95,482.829 201.565,482.829 C196.625,482.829 195.375,486.296 194.15,487.94 C195.349,488.145 196.519,488.608 197.57,489.345 C199.197,490.485 197.487,492.921 195.861,491.784 C193.05,489.813 188.926,490.868 187.536,494.212 C186.772,496.046 184.023,494.899 184.786,493.069 C185.948,490.274 188.341,488.524 190.977,487.989 C189.848,487.542 188.615,487.296 187.325,487.296 C181.863,487.296 177.422,491.745 177.422,497.198 C177.422,499.185 174.443,499.185 174.443,497.198 C174.443,495.899 174.636,494.644 174.997,493.466 C173.591,493.917 172.402,494.427 171.51,494.991 C171.224,495.171 170.968,495.36 170.745,495.554 C170.26,495.974 170.159,496.28 170.159,496.462 C170.159,496.692 170.666,497.942 174.875,499.356 C178.527,500.579 183.569,501.446 188.896,502.038 C190.841,502.255 192.799,502.435 194.711,502.577 C196.007,498.786 200.286,496.31 204.911,496.31 C207.934,496.31 210.715,497.335 212.678,499.054 C214.172,500.36 212.209,502.603 210.717,501.296 C209.345,500.095 207.28,499.286 204.911,499.286 C201.556,499.286 198.972,500.852 197.875,502.794 C205.071,503.239 211.065,503.257 212.301,503.257 C214.031,503.257 225.083,503.22 235.704,502.038 C240.868,501.46 245.771,500.63 249.393,499.462 C248.418,497.421 246.148,496.192 243.743,496.8 C241.818,497.29 241.083,494.4 243.012,493.915" id="path3315" fill="#FFFFFF" sketch:type="MSShapeGroup"></path>
        <path d="M407.524,461.208 C407.217,460.898 406.792,460.72 406.356,460.72 C405.284,460.72 404.214,460.767 403.144,460.837 L403.18,458.079 C403.189,457.495 402.962,456.931 402.55,456.515 C402.139,456.099 401.578,455.825 400.993,455.825 C400.327,455.825 399.659,455.837 398.992,455.837 L399.001,455.837 L399.028,453.614 C399.035,453.031 398.808,452.486 398.396,452.072 C397.987,451.656 397.424,451.431 396.84,451.431 C378.065,451.431 359.798,467.958 354.431,473.243 C341.193,461.003 323.501,453.052 322.725,452.706 C322.04,452.402 321.246,452.47 320.622,452.888 C319.998,453.306 319.63,454.013 319.65,454.761 L319.723,457.644 C319.756,457.657 319.8,457.679 319.833,457.693 C319.099,457.374 318.635,457.181 318.52,457.134 C317.836,456.853 317.056,456.935 316.447,457.359 C315.838,457.779 315.483,458.478 315.504,459.216 L315.594,462.464 C314.585,462.083 314.003,461.876 313.968,461.866 C313.464,461.689 312.891,461.773 312.454,462.091 C312.019,462.413 311.768,462.925 311.786,463.466 L313.972,530.907 C313.997,531.683 314.572,532.343 315.337,532.47 C333.319,535.531 354.79,548.966 355.007,549.103 C355.27,549.267 355.573,549.355 355.882,549.355 C356.078,549.355 356.27,549.32 356.451,549.251 C375.972,542.001 405.363,534.624 405.658,534.552 C406.38,534.372 406.89,533.73 406.902,532.988 L407.995,462.384 C408.003,461.946 407.832,461.521 407.524,461.208 L407.524,461.208 Z M315.144,465.799 C321.555,468.246 339.806,475.705 352.877,485.785 C353.04,485.91 353.226,485.99 353.422,486.043 C352.717,486.264 352.211,486.973 352.24,487.738 L354.351,544.865 C354.182,544.766 354.011,544.664 353.827,544.557 L350.598,486.449 C345.605,480.457 319.644,468.998 315.184,467.059 L315.144,465.799 L315.144,465.799 Z M356.319,509.272 L361.485,512.949 L356.562,515.865 L356.319,509.272 L356.319,509.272 Z M356.615,517.278 L361.674,518.719 L356.855,523.809 L356.615,517.278 L356.615,517.278 Z M357.649,545.324 L356.87,524.207 L363.701,523.938 L360.309,530.553 L367.368,528.09 L366.129,535.164 L372.323,530.774 L373.346,537.614 L378.066,531.721 L381.262,537.66 L384.042,530.842 L389.098,535.301 L389.67,528.223 L396.089,530.76 L394.396,524.121 L401.549,524.489 L397.763,518.93 L403.864,517.373 L403.642,531.68 C398.061,533.108 374.898,539.141 357.649,545.324 L357.649,545.324 Z M378.663,525.086 C378.663,523.576 380.268,522.352 382.251,522.352 C384.232,522.352 385.838,523.576 385.838,525.086 C385.838,526.596 384.233,527.819 382.251,527.819 C380.269,527.819 378.663,526.596 378.663,525.086 L378.663,525.086 Z M399.428,513.168 L403.971,510.481 L403.879,516.336 L399.428,513.168 L399.428,513.168 Z M399.237,507.399 L404.096,502.266 L403.996,508.758 L399.237,507.399 L399.237,507.399 Z M404.104,501.91 L397.215,502.182 L400.604,495.569 L393.547,498.03 L394.786,490.957 L391.804,493.071 L387.033,522.352 C384.642,520.166 378.663,522.352 378.663,522.352 L372.607,491.52 L371.817,490.822 L371.244,497.899 L365.424,495.598 C365.824,495.403 366.189,495.231 366.482,495.102 C367.294,494.74 368.132,494.369 366.131,481.688 C366.079,481.35 365.873,481.059 365.574,480.897 C365.274,480.735 364.918,480.717 364.608,480.856 C364.445,480.93 360.569,482.653 357.589,484.414 C357.228,484.627 357.02,485.026 357.055,485.442 L358.041,497.688 C358.07,498.055 358.283,498.381 358.606,498.559 C358.769,498.649 358.949,498.694 359.13,498.694 C359.307,498.694 359.484,498.651 359.645,498.565 C359.683,498.543 362.724,496.928 364.948,495.828 L366.518,502 L359.367,501.633 L363.151,507.192 L356.307,508.938 L355.516,487.514 C355.489,486.785 354.989,486.219 354.325,486.037 C354.545,485.977 354.757,485.887 354.934,485.74 C355.183,485.53 379.881,464.934 404.689,464.028 L404.104,501.91 L404.104,501.91 Z M360.088,495.86 L359.29,485.955 C361.002,484.985 362.94,484.041 364.19,483.455 C364.8,487.578 365.285,491.969 365.171,493.293 C363.782,493.942 361.555,495.092 360.088,495.86 L360.088,495.86 Z M369.474,471.992 C368.73,472.41 368.01,472.828 367.306,473.244 C375.557,467.453 387.136,461.051 398.781,460.307 L398.768,461.293 C387.55,462.93 376.95,467.787 369.474,471.992 L369.474,471.992 Z M394.629,455.836 C385.075,458.024 375.939,462.096 368.623,466.77 C375.78,461.6 385.184,456.227 394.629,455.494 L394.625,455.836 L394.629,455.836 L394.629,455.836 Z M396.828,456.086 C396.794,456.09 396.76,456.096 396.723,456.1 C396.76,456.096 396.794,456.09 396.828,456.086 L396.828,456.086 Z M354.444,477.831 C354.251,478.005 354.069,478.167 353.902,478.322 C354.068,478.167 354.251,478.002 354.444,477.831 L354.444,477.831 Z M368.324,467.235 C367.964,467.467 367.606,467.699 367.254,467.932 C367.606,467.699 367.964,467.467 368.324,467.235 L368.324,467.235 Z M366.714,468.295 C366.447,468.473 366.18,468.653 365.917,468.832 C366.18,468.653 366.447,468.473 366.714,468.295 L366.714,468.295 Z M365.358,469.217 C365.112,469.387 364.867,469.559 364.628,469.727 C364.868,469.559 365.11,469.387 365.358,469.217 L365.358,469.217 Z M364.081,470.115 C363.845,470.283 363.611,470.453 363.381,470.619 C363.611,470.453 363.845,470.283 364.081,470.115 L364.081,470.115 Z M362.87,470.99 C362.632,471.166 362.398,471.342 362.167,471.514 C362.398,471.342 362.632,471.167 362.87,470.99 L362.87,470.99 Z M361.716,471.85 C361.463,472.039 361.219,472.229 360.975,472.416 C361.219,472.227 361.463,472.04 361.716,471.85 L361.716,471.85 Z M360.619,472.69 C359.904,473.24 359.229,473.778 358.595,474.289 C359.229,473.778 359.904,473.24 360.619,472.69 L360.619,472.69 Z M358.311,474.522 C358.094,474.699 357.878,474.877 357.671,475.047 C357.878,474.877 358.091,474.699 358.311,474.522 L358.311,474.522 Z M357.361,475.307 C357.175,475.463 356.99,475.615 356.812,475.766 C356.99,475.615 357.173,475.461 357.361,475.307 L357.361,475.307 Z M356.512,476.021 C356.343,476.165 356.176,476.308 356.016,476.447 C356.178,476.307 356.342,476.165 356.512,476.021 L356.512,476.021 Z M355.747,476.678 C355.585,476.819 355.429,476.955 355.276,477.088 C355.429,476.956 355.584,476.819 355.747,476.678 L355.747,476.678 Z M355.061,477.278 C354.898,477.422 354.744,477.561 354.594,477.694 C354.744,477.561 354.897,477.424 355.061,477.278 L355.061,477.278 Z M350.041,475.19 C340.769,468.059 330.39,462.631 324.152,459.662 L324.115,458.227 C329.511,460.932 340.792,467.067 350.041,475.19 L350.041,475.19 Z M322.948,459.096 C322.832,459.041 322.718,458.988 322.605,458.936 C322.719,458.99 322.831,459.042 322.948,459.096 L322.948,459.096 Z M321.703,458.524 C321.656,458.502 321.602,458.479 321.556,458.457 C321.603,458.477 321.655,458.502 321.703,458.524 L321.703,458.524 Z M320.67,458.059 C320.585,458.022 320.505,457.985 320.425,457.951 C320.506,457.985 320.583,458.021 320.67,458.059 L320.67,458.059 Z M319.973,462.551 C324.438,464.596 333.069,468.826 341.603,474.533 C333.452,469.936 325.327,466.362 320.018,464.199 L319.973,462.551 L319.973,462.551 Z" id="path3317" fill="#FFFFFF" sketch:type="MSShapeGroup"></path>
        <path d="M371.371,478.796 L379.023,521.434 C379.023,521.434 381.454,520.464 383.72,520.464 C384.854,520.464 385.948,520.706 386.676,521.434 L394.329,470.05 C394.33,470.05 374.65,473.331 371.371,478.796 M389.086,475.577 L383.049,516.108 C382.872,516.118 382.695,516.13 382.518,516.147 L376.067,480.202 C378.236,478.747 383.348,476.944 389.086,475.577" id="path3319" fill="#FFFFFF" sketch:type="MSShapeGroup"></path>
        <rect id="rect3321" fill="#FFFFFF" sketch:type="MSShapeGroup" x="455.81799" y="453.16299" width="45" height="45"></rect>
        <rect id="rect3323" fill="#FFFFFF" sketch:type="MSShapeGroup" x="506.819" y="453.16299" width="45" height="45"></rect>
        <rect id="rect3325" fill="#FFFFFF" sketch:type="MSShapeGroup" x="455.81799" y="503.354" width="45" height="45"></rect>
        <rect id="rect3327" fill="#FFFFFF" sketch:type="MSShapeGroup" x="506.819" y="503.354" width="45" height="45"></rect>
        <path d="M678.748,547.906 L647.849,525.453 L616.948,547.906 L628.751,511.578 L597.85,489.127 L636.045,489.127 L647.85,452.801 L659.655,489.127 L697.85,489.127 L666.95,511.578 L678.748,547.906 L678.748,547.906 Z M647.849,520.506 L671.135,537.424 L662.241,510.051 L685.526,493.131 L656.743,493.131 L647.848,465.756 L638.952,493.131 L610.17,493.131 L633.457,510.051 L624.561,537.424 L647.849,520.506 L647.849,520.506 Z" id="path3329" fill="#FFFFFF" sketch:type="MSShapeGroup"></path>
        <path d="M97.284,696.667 L35.622,696.667 L35.622,630.073 L58.013,609.311 L74.893,609.311 L97.284,630.075 L97.284,696.667 L97.284,696.667 Z M45.899,686.389 L87.006,686.389 L87.006,634.561 L70.861,619.588 L62.045,619.588 L45.899,634.561 L45.899,686.389 L45.899,686.389 Z M61.315,652.989 L56.174,652.989 L56.174,679.966 L61.315,679.966 L61.315,652.989 L61.315,652.989 Z M76.729,652.989 L71.591,652.989 L71.591,679.966 L76.729,679.966 L76.729,652.989 L76.729,652.989 Z M66.451,644.524 C60.431,644.524 55.534,639.624 55.534,633.604 C55.534,627.583 60.431,622.686 66.451,622.686 C72.473,622.686 77.372,627.582 77.372,633.604 C77.372,639.624 72.473,644.524 66.451,644.524 L66.451,644.524 Z M66.451,629.106 C63.974,629.106 61.956,631.124 61.956,633.604 C61.956,636.081 63.974,638.1 66.451,638.1 C68.931,638.1 70.949,636.084 70.949,633.604 C70.949,631.125 68.931,629.106 66.451,629.106 L66.451,629.106 Z M66.638,635.004 C65.399,635.004 64.307,634.104 64.105,632.838 C61.737,617.994 78.668,607.908 90.821,602.668 C91.894,600.475 92.898,598.36 93.77,596.451 C95.801,592.013 99.372,590.955 102.039,591.439 C105.043,591.988 107.36,594.41 107.549,597.197 C107.648,598.653 107.252,602.242 101.479,604.123 C99.177,604.875 96.867,605.713 94.598,606.631 C91.609,612.649 88.166,619.088 85.383,623.457 C84.619,624.651 83.032,625.004 81.834,624.242 C80.638,623.478 80.286,621.89 81.05,620.695 C82.816,617.922 84.944,614.119 87.062,610.082 C76.104,615.764 67.803,623.408 69.179,632.029 C69.4,633.431 68.446,634.748 67.046,634.972 C66.911,634.995 66.773,635.004 66.638,635.004 L66.638,635.004 Z M100.802,596.465 C99.603,596.465 98.818,597.766 98.443,598.586 C98.243,599.026 98.035,599.473 97.821,599.936 C98.586,599.666 99.28,599.436 99.884,599.237 C101.844,598.6 102.439,597.818 102.42,597.542 C102.398,597.208 101.877,596.632 101.114,596.493 C101.008,596.475 100.904,596.465 100.802,596.465 L100.802,596.465 Z" id="path3331" fill="#FFFFFF" sketch:type="MSShapeGroup"></path>
        <path d="M261.105,661.114 C257.36,659.448 253.344,659.198 249.659,660.139 C246.28,643.914 235.929,629.795 221.334,621.739 C222.926,617.432 226.427,614.2 230.656,612.854 C228.833,611.411 226.641,610.379 224.194,609.93 C218.048,608.805 212.095,611.688 209.024,616.719 C207.377,616.264 205.701,615.879 203.989,615.565 C189.178,612.856 166.7,613.17 168.821,628.282 C157.593,636.079 162.095,637.675 168.64,635.667 C178.142,632.856 188.111,633.28 198.494,634.669 C197.951,635.462 197.825,634.954 197.379,637.388 C196.934,639.822 199.23,644.95 203.09,645.656 L203.107,645.658 C202.068,644.16 201.607,642.254 201.958,640.334 C202.309,638.414 203.384,636.84 204.852,635.807 C220.293,639.268 237.353,648.854 246.769,661.151 C242.977,662.858 239.773,665.913 237.949,670.011 C236.648,672.932 236.214,676.016 236.529,678.981 C239.383,673.614 251.974,671.454 250.628,666.706 C254.604,670.134 262.016,665.442 268.489,667.294 C266.715,664.668 264.21,662.497 261.105,661.114" id="path3333" fill="#FFFFFF" sketch:type="MSShapeGroup"></path>
        <path d="M550.239,652.29 L534.039,652.29 L534.039,647.126 L540.542,647.126 L540.542,641.642 L504.943,641.642 L504.943,636.376 L521.144,636.376 C524.845,636.376 525.244,633.728 525.244,632.591 L525.244,613.533 C525.244,610.686 523.866,609.245 521.144,609.245 L486.393,609.245 C484.523,609.245 482.292,609.989 482.292,613.533 L482.292,632.591 C482.292,634.005 482.826,636.376 486.393,636.376 L502.594,636.376 L502.594,641.642 L467.025,641.642 L467.025,647.126 L473.599,647.126 L473.599,652.218 L457.399,652.218 C455.527,652.218 453.297,652.96 453.297,656.505 L453.297,675.562 C453.297,676.976 453.83,679.347 457.399,679.347 L492.151,679.347 C495.85,679.347 496.25,676.7 496.25,675.562 L496.25,656.505 C496.25,653.658 494.871,652.218 492.151,652.218 L475.947,652.218 L475.947,647.126 L531.69,647.126 L531.69,652.292 L515.487,652.292 C513.617,652.292 511.388,653.033 511.388,656.579 L511.388,675.638 C511.388,677.052 511.919,679.423 515.487,679.423 L550.239,679.423 C553.938,679.423 554.339,676.777 554.339,675.638 L554.339,656.579 C554.339,653.733 552.96,652.29 550.239,652.29 L550.239,652.29 Z M485.824,632.792 C485.818,632.741 485.815,632.675 485.815,632.591 L485.815,613.533 C485.815,613.143 485.852,612.93 485.879,612.824 C485.964,612.807 486.124,612.783 486.393,612.783 L521.144,612.783 C521.41,612.783 521.57,612.804 521.662,612.821 C521.687,612.932 521.722,613.147 521.722,613.533 L521.722,632.591 C521.722,632.675 521.719,632.741 521.713,632.79 C521.609,632.813 521.431,632.837 521.145,632.837 L486.394,632.837 C486.113,632.836 485.934,632.815 485.824,632.792 L485.824,632.792 Z M492.665,655.793 C492.693,655.904 492.727,656.121 492.727,656.504 L492.727,675.561 C492.727,675.647 492.723,675.711 492.716,675.76 C492.613,675.781 492.433,675.805 492.149,675.805 L457.399,675.805 C457.119,675.805 456.936,675.783 456.828,675.762 C456.824,675.711 456.819,675.647 456.819,675.561 L456.819,656.504 C456.819,656.115 456.855,655.902 456.881,655.797 C456.969,655.777 457.128,655.756 457.399,655.756 L492.151,655.756 C492.414,655.756 492.576,655.776 492.665,655.793 L492.665,655.793 Z M550.819,675.637 C550.819,675.719 550.814,675.784 550.807,675.836 C550.702,675.856 550.524,675.881 550.239,675.881 L515.487,675.881 C515.209,675.881 515.027,675.86 514.919,675.838 C514.914,675.787 514.91,675.719 514.91,675.637 L514.91,656.578 C514.91,656.187 514.947,655.976 514.973,655.871 C515.06,655.851 515.218,655.832 515.487,655.832 L550.239,655.832 C550.504,655.832 550.665,655.85 550.756,655.866 C550.783,655.978 550.819,656.195 550.819,656.578 L550.819,675.637 L550.819,675.637 Z" id="path3335" fill="#FFFFFF" sketch:type="MSShapeGroup"></path>
        <path d="M698.287,680.498 L598.287,680.498 L598.287,607.498 L698.287,607.498 L698.287,680.498 L698.287,680.498 Z M606.287,672.498 L690.287,672.498 L690.287,615.498 L606.287,615.498 L606.287,672.498 L606.287,672.498 Z" id="path3337" fill="#FFFFFF" sketch:type="MSShapeGroup"></path>
        <path d="M612.286,666.497 L684.286,666.497 L666.286,642.497 L655.286,651.497 L633.286,621.497 L612.286,666.497 Z" id="polygon3339" fill="#FFFFFF" sketch:type="MSShapeGroup"></path>
        <path d="M675.286,622.497 C679.152,622.497 682.286,625.63 682.286,629.497 C682.286,633.362 679.152,636.497 675.286,636.497 C671.42,636.497 668.286,633.362 668.286,629.497 C668.286,625.629 671.42,622.497 675.286,622.497" id="path3341" fill="#FFFFFF" sketch:type="MSShapeGroup"></path>
        <path d="M74.096,836.667 L72.75,836.667 L55.264,836.667 C57.728,836.667 57.954,838.667 57.954,838.667 L72.75,838.667 L74.096,838.667 L88.892,838.667 C88.892,838.667 89.118,836.667 91.582,836.667 L74.096,836.667 L74.096,836.667 Z" id="path3343" fill="#FFFFFF" sketch:type="MSShapeGroup"></path>
        <path d="M72.75,743.667 L74.096,743.667 L91.582,743.667 C89.116,743.667 88.892,738.667 88.892,738.667 L74.096,738.667 L72.75,738.667 L57.954,738.667 C57.954,738.667 57.726,743.667 55.264,743.667 L72.75,743.667 L72.75,743.667 Z" id="path3345" fill="#FFFFFF" sketch:type="MSShapeGroup"></path>
        <path d="M55.422,835.667 L91.422,835.667 L91.422,744.667 L55.422,744.667 L55.422,835.667 L55.422,835.667 Z M80.065,794.288 L62.288,809.214 L73.056,795.142 L62.288,784.767 L70.491,769.667 L84.848,769.667 L72.543,784.968 L80.065,794.288 L80.065,794.288 Z" id="path3347" fill="#FFFFFF" sketch:type="MSShapeGroup"></path>
        <path d="M267.713,806.957 L267.582,805.603 L251.993,808.587 C252.049,804.78 252.193,794.198 252.174,782.73 C252.172,780.959 252.174,779.162 252.174,777.365 C252.178,766.662 252.184,755.595 251.397,749.281 C250.932,745.551 248.568,739.668 244.205,739.668 L244.135,739.668 C228.973,739.881 181.816,745.828 174.015,746.824 C172.196,746.801 170.66,747.429 169.454,748.715 C165.443,752.99 166.749,763.285 166.806,763.723 L166.969,764.958 L182.185,762.871 C183.396,771.527 183.159,783.113 182.938,793.941 C182.885,796.554 182.829,799.252 182.795,801.863 C182.773,803.424 182.74,804.967 182.705,806.48 C182.377,821.261 182.094,834.027 195.17,837.023 C196.237,837.265 197.243,837.388 198.189,837.388 C199.152,837.388 200.052,837.261 200.888,837.007 L200.914,837.123 L261.143,823.772 L261.223,823.752 C261.421,823.693 266.109,822.264 267.38,816.832 C268.288,812.961 267.737,807.198 267.713,806.957 L267.713,806.957 Z M169.136,762.157 C168.88,758.903 168.933,752.889 171.26,750.411 C171.808,749.829 172.457,749.481 173.227,749.354 L173.237,749.422 C173.276,749.418 173.606,749.375 174.174,749.303 C174.206,749.303 174.237,749.303 174.27,749.305 C178.321,749.581 180.572,753.932 181.788,760.424 L169.136,762.157 L169.136,762.157 Z M202.254,833.44 C200.694,834.875 198.558,835.252 195.725,834.606 C184.618,832.063 184.866,820.799 185.184,806.536 C185.217,805.016 185.252,803.466 185.273,801.895 C185.308,799.295 185.362,796.647 185.416,793.995 C185.643,782.907 185.876,771.438 184.694,762.751 C183.737,755.72 181.876,751.063 179.057,748.687 C193.553,746.876 231.049,742.333 244.17,742.148 L244.202,742.148 C246.891,742.148 248.612,746.986 248.937,749.589 C249.705,755.75 249.698,766.737 249.695,777.364 C249.693,779.163 249.693,780.96 249.695,782.735 C249.715,794.75 249.555,805.792 249.505,809.063 L204.959,817.598 L205.125,818.766 C205.548,821.725 205.853,830.131 202.254,833.44 L202.254,833.44 Z M264.966,816.27 C264.069,820.11 260.91,821.249 260.556,821.366 L205.33,833.608 C208.216,829.251 207.952,822.346 207.709,819.594 L265.342,808.555 C265.45,810.428 265.534,813.848 264.966,816.27 L264.966,816.27 Z" id="path3349" fill="#FFFFFF" sketch:type="MSShapeGroup"></path>
        <path d="M310.209,749.932 L310.209,754.075 L310.209,824.257 L310.209,828.4 L314.243,828.4 L406.92,828.4 L410.953,828.4 L410.953,824.257 L410.953,754.075 L410.953,749.932 L406.92,749.932 L314.243,749.932 L310.209,749.932 L310.209,749.932 Z M318.277,758.219 L402.885,758.219 L402.885,820.114 L318.277,820.114 L318.277,758.219 L318.277,758.219 Z" id="path3351" fill="#FFFFFF" sketch:type="MSShapeGroup"></path>
        <path d="M323.77,763.184 L323.77,763.842 L323.77,814.456 L323.77,815.113 L324.384,815.113 L397.008,815.113 L397.667,815.113 L397.667,814.456 L397.667,763.842 L397.667,763.184 L397.008,763.184 L324.384,763.184 L323.77,763.184 L323.77,763.184 Z M325.043,764.5 L396.349,764.5 L396.349,813.795 L325.043,813.795 L325.043,764.5 L325.043,764.5 Z" id="path3353" fill="#FFFFFF" sketch:type="MSShapeGroup"></path>
        <path d="M386.684,789.057 C386.974,788.543 387.28,788.037 387.589,787.536 C387.891,788.05 388.184,788.573 388.512,789.075 C388.937,788.655 389.401,788.28 389.843,787.881 C389.961,788.468 390.098,789.05 390.234,789.636 C390.773,789.402 391.317,789.169 391.862,788.943 C391.836,789.535 391.758,790.125 391.717,790.716 C392.303,790.652 392.89,790.601 393.476,790.554 C393.251,791.107 393.008,791.652 392.779,792.199 C393.358,792.318 393.93,792.451 394.505,792.578 C394.141,793.045 393.724,793.468 393.367,793.941 C393.863,794.244 394.369,794.537 394.875,794.836 C394.373,795.158 393.854,795.455 393.345,795.762 C393.741,796.2 394.123,796.645 394.51,797.092 C393.941,797.244 393.359,797.363 392.784,797.496 C393.009,798.05 393.264,798.588 393.476,799.144 C392.89,799.085 392.303,799.039 391.721,798.974 C391.754,799.57 391.815,800.16 391.862,800.756 C391.317,800.521 390.777,800.278 390.23,800.068 C390.17,800.34 390.063,800.627 390.178,800.9 C391.125,803.748 392.081,806.591 393.047,809.435 C392.274,808.988 391.529,808.499 390.76,808.052 C390.362,808.814 389.987,809.587 389.566,810.335 C389.511,810.165 389.468,809.991 389.425,809.815 C388.839,807.245 388.218,804.676 387.636,802.106 L387.526,802.106 C387.062,804.126 386.584,806.139 386.115,808.155 C385.941,808.868 385.804,809.591 385.598,810.292 C385.175,809.544 384.81,808.771 384.406,808.015 C383.637,808.466 382.893,808.951 382.124,809.396 C383.102,806.57 384.011,803.722 384.979,800.896 C385.07,800.623 385.001,800.334 384.933,800.068 C384.381,800.279 383.841,800.527 383.296,800.756 C383.335,800.159 383.406,799.569 383.442,798.97 C382.855,799.029 382.273,799.081 381.687,799.144 C381.911,798.592 382.158,798.049 382.378,797.496 C381.81,797.363 381.232,797.244 380.661,797.1 C381.036,796.641 381.439,796.204 381.821,795.754 C381.302,795.461 380.793,795.158 380.287,794.836 C380.801,794.537 381.299,794.227 381.818,793.941 C381.439,793.48 381.018,793.052 380.657,792.578 C381.231,792.455 381.804,792.318 382.378,792.199 C382.153,791.652 381.915,791.103 381.687,790.554 C382.278,790.583 382.864,790.652 383.446,790.716 C383.416,790.124 383.348,789.534 383.305,788.943 C383.849,789.166 384.384,789.42 384.938,789.619 C385.065,789.043 385.21,788.469 385.32,787.887 C385.774,788.276 386.204,788.696 386.684,789.057 M387.368,790.028 C385.957,790.073 384.588,790.809 383.78,791.966 C382.876,793.198 382.676,794.894 383.198,796.325 C383.554,797.354 384.32,798.225 385.26,798.77 C386.583,799.53 388.282,799.565 389.655,798.901 C390.408,798.544 391.036,797.954 391.504,797.266 C392.541,795.692 392.499,793.483 391.386,791.959 C390.5,790.68 388.916,789.932 387.368,790.028" id="path3355" fill="#FFFFFF" sketch:type="MSShapeGroup"></path>
        <path d="M387.283,790.366 C388.957,790.223 390.662,791.188 391.419,792.688 C391.801,793.383 391.933,794.192 391.895,794.979 C391.818,796.907 390.267,798.655 388.363,798.965 C386.684,799.291 384.848,798.518 383.943,797.061 C382.948,795.586 383.029,793.495 384.118,792.088 C384.848,791.084 386.042,790.448 387.283,790.366" id="path3357" fill="#FFFFFF" sketch:type="MSShapeGroup"></path>
        <path d="M361.579,773.965 L361.544,776.248 C370.687,776.342 377.268,777.633 381.578,778.955 C386.052,780.328 388.046,781.628 388.046,781.628 L389.275,779.799 C389.275,779.799 386.933,778.285 382.246,776.846 C377.73,775.462 370.922,774.065 361.579,773.965 L361.579,773.965 Z M356.94,774.001 C352.63,774.16 348.944,774.59 345.798,775.16 L346.255,777.373 C349.319,776.846 352.937,776.428 357.151,776.283 L357.186,774.001 C357.106,774.003 357.02,773.999 356.94,774.001 L356.94,774.001 Z M341.51,776.108 C340.542,776.354 339.621,776.596 338.803,776.846 C334.115,778.285 331.809,779.799 331.809,779.799 L333.039,781.628 C333.039,781.628 334.964,780.328 339.436,778.955 C340.199,778.721 341.058,778.478 341.967,778.253 L341.51,776.108 L341.51,776.108 Z" id="path3359" fill="#FFFFFF" sketch:type="MSShapeGroup"></path>
        <rect id="rect3361" fill="#FFFFFF" sketch:type="MSShapeGroup" x="329.52499" y="802.64502" width="16.871" height="1.125"></rect>
        <rect id="rect3363" fill="#FFFFFF" sketch:type="MSShapeGroup" x="329.52499" y="808.26801" width="16.871" height="1.125"></rect>
        <path d="M460.73,765.616 C458.311,761.546 454.126,757.522 451.107,756.362 L450.62,756.174 L450.62,754.215 L450.62,752.256 L450.932,752.213 L478.355,752.17 C478.372,752.916 478.386,754.471 478.366,755.932 C474.74,756.381 470.367,758.155 471.579,762.22 C478.493,777.496 484.784,793.045 491.61,808.36 L503.327,786.454 C498.792,777.167 495.49,767.774 490.526,758.663 C488.909,756.04 484.533,755.969 481.433,755.864 L481.444,752.239 L507.366,752.327 L507.44,755.831 C505.103,756.153 502.349,756.708 502.662,759.54 L510.018,775.811 C512.439,770.645 515.13,765.59 517.266,760.297 C518.235,756.106 513.52,755.895 510.513,755.779 L510.459,752.326 L533.622,752.238 L533.622,755.769 C530.236,756.01 527.034,756.986 525.166,759.488 C520.627,766.506 517.261,774.47 513.725,782.092 C517.217,790.351 520.859,798.601 524.429,806.176 L544.172,760.638 C542.84,757.636 539.822,756.576 536.862,755.89 L536.712,752.217 L558.605,752.392 L558.604,755.964 C557.628,756.116 556.695,756.417 555.793,756.81 C554.079,757.605 552.463,759.181 551.378,761.113 L524.166,823.724 L519.605,823.757 L506.66,793.27 L490.945,823.756 L486.227,823.758 C477.047,804.633 470.405,784.508 460.73,765.616" id="path3365" fill="#FFFFFF" sketch:type="MSShapeGroup"></path>
        <path d="M635.148,753.065 L661.828,792.264 L661.828,753.065 L682.466,753.065 L682.466,823.919 L661.828,823.919 L635.294,785.014 L635.294,823.919 L614.704,823.919 L614.704,753.065 L635.148,753.065 Z" id="polygon3367" fill="#FFFFFF" sketch:type="MSShapeGroup"></path>
        <path d="M79.361,925.116 C79.008,925.042 78.739,924.966 78.402,924.89 L78.402,912.767 C84.006,913.67 89.93,916.125 95.455,920.013 L106.226,904.804 C98.695,898.761 89.648,895.302 78.402,894.619 L78.402,883.978 L72.98,883.978 L72.98,894.523 C55.099,895 44.169,905.252 44.169,919.342 L44.169,919.568 C44.169,935.387 56.685,940.113 72.98,943.875 L72.98,956.644 C65.719,955.716 58.803,952.678 52.498,947.658 L40.509,961.973 C49.138,969.699 60.679,973.942 72.98,974.688 L72.98,983.874 L78.402,983.874 L78.402,974.799 C96.433,974.317 108.336,964.988 108.336,949.545 L108.336,949.316 C108.336,934.777 97.235,929.002 79.361,925.116 L79.361,925.116 Z M65.93,917.573 L65.93,917.344 C65.93,914.71 68.269,912.593 72.98,912.395 L72.98,923.483 C67.5,921.817 65.93,920.274 65.93,917.573 L65.93,917.573 Z M86.579,951.645 C86.579,954.834 83.704,956.777 78.402,956.944 L78.402,945.268 C84.791,947.124 86.579,948.797 86.579,951.422 L86.579,951.645 L86.579,951.645 Z" id="path3369" fill="#FFFFFF" sketch:type="MSShapeGroup"></path>
        <path d="M242.779,946.943 C235.27,951.818 226.115,953.937 217.228,952.843 C208.192,953.952 198.879,951.743 191.3,946.697 C194.671,951.693 190.147,956.705 187.859,961.154 C182.669,958.484 177.48,955.814 172.29,953.142 C175.891,952.21 179.494,951.281 183.095,950.349 C184.555,950.009 185.168,949.027 184.838,947.564 C182.47,941.371 170.988,914.271 183.926,917.845 C189.347,919.342 193.413,925.79 194.295,930.786 C193.796,927.45 194.522,924.044 196.248,921.153 C189.886,921.098 186.511,913.167 191.195,908.675 C195.872,904.192 203.683,907.886 203.446,914.253 C207.614,911.867 212.435,910.696 217.228,910.706 C222.021,910.705 226.834,911.86 231.003,914.253 C230.808,907.899 238.568,904.174 243.261,908.675 C247.945,913.167 244.568,921.094 238.211,921.153 C239.928,924.042 240.658,927.454 240.162,930.786 C241.31,924.202 246.312,918.788 252.772,917.091 C255.224,917.008 256.676,918.44 256.625,920.892 C255.24,930.011 252.916,938.951 249.619,947.566 C249.535,951.712 258.984,952.32 262.168,953.144 C256.978,955.814 251.788,958.484 246.598,961.156 C245.013,958.072 243.429,954.992 241.843,951.908 C241.662,950.066 242.119,948.236 243.156,946.699 L242.779,946.943 L242.779,946.943 Z" id="path3371" fill="#FFFFFF" sketch:type="MSShapeGroup"></path>
        <path d="M191.3,946.443 C191.29,946.443 191.28,946.439 191.273,946.431 C185.029,939.568 183.189,930.212 182.648,925.245 C182.646,925.225 182.66,925.207 182.68,925.206 C182.699,925.204 182.717,925.218 182.719,925.237 C183.26,930.195 185.098,939.534 191.327,946.382 C191.341,946.398 191.34,946.421 191.325,946.433 C191.317,946.441 191.309,946.443 191.3,946.443" id="path3373" fill="#FFFFFF" sketch:type="MSShapeGroup"></path>
        <path d="M243.156,946.443 C243.147,946.443 243.138,946.441 243.133,946.433 C243.117,946.419 243.115,946.398 243.131,946.38 C247.68,941.405 250.817,933.698 251.736,925.237 C251.74,925.217 251.756,925.202 251.777,925.204 C251.797,925.206 251.811,925.225 251.809,925.244 C250.888,933.72 247.744,941.442 243.183,946.431 C243.177,946.439 243.167,946.443 243.156,946.443" id="path3375" fill="#FFFFFF" sketch:type="MSShapeGroup"></path>
        <path d="M405.488,886.167 L320.511,886.167 C317.598,886.167 315.241,888.525 315.241,891.438 L315.241,976.415 C315.241,979.327 317.598,981.686 320.511,981.686 L338.702,981.686 L366.261,981.686 L366.261,944.7 L353.815,944.7 L353.815,930.286 L366.261,930.286 L366.261,919.657 C366.261,907.32 373.793,900.6 384.8,900.6 C390.072,900.6 394.601,900.989 395.922,901.163 L395.922,914.056 L388.29,914.065 C382.304,914.065 381.149,916.906 381.149,921.08 L381.149,930.286 L395.42,930.286 L393.559,944.7 L381.149,944.7 L381.149,981.686 L403.491,981.686 L405.487,981.686 C408.398,981.686 410.758,979.328 410.758,976.415 L410.758,891.438 C410.759,888.525 408.399,886.167 405.488,886.167 L405.488,886.167 Z" id="path3377" fill="#FFFFFF" sketch:type="MSShapeGroup"></path>
        <path d="M518.629,892.791 C509.332,896.138 503.457,904.765 504.126,914.211 L504.35,917.855 L500.631,917.41 C487.095,915.699 475.269,909.897 465.229,900.154 L460.32,895.32 L459.056,898.89 C456.378,906.848 458.088,915.252 463.666,920.905 C466.642,924.029 465.972,924.475 460.84,922.616 C459.056,922.021 457.493,921.574 457.345,921.798 C456.824,922.319 458.61,929.087 460.023,931.764 C461.957,935.483 465.898,939.127 470.211,941.285 L473.856,942.995 L469.543,943.07 C465.378,943.07 465.23,943.144 465.676,944.706 C467.163,949.541 473.039,954.673 479.584,956.903 L484.194,958.465 L480.178,960.845 C474.228,964.266 467.237,966.199 460.245,966.349 C456.898,966.423 454.146,966.72 454.146,966.944 C454.146,967.689 463.219,971.852 468.5,973.489 C484.342,978.323 503.158,976.241 517.29,967.985 C527.33,962.11 537.371,950.432 542.057,939.128 C544.585,933.104 547.115,922.097 547.115,916.816 C547.115,913.395 547.338,912.949 551.503,908.858 C553.957,906.478 556.263,903.875 556.709,903.131 C557.453,901.718 557.379,901.718 553.586,902.983 C547.264,905.213 546.371,904.917 549.495,901.57 C551.801,899.19 554.553,894.876 554.553,893.611 C554.553,893.388 553.437,893.76 552.172,894.429 C550.834,895.173 547.858,896.288 545.627,896.958 L541.611,898.222 L537.966,895.768 C535.958,894.429 533.132,892.942 531.644,892.496 C527.852,891.452 522.051,891.601 518.629,892.791" id="path3379" fill="#FFFFFF" sketch:type="MSShapeGroup"></path>
        <path d="M682.46,886.244 L613.239,886.244 C604.968,886.244 598.263,892.948 598.263,901.219 L598.263,970.433 C598.263,978.703 604.968,985.407 613.239,985.407 L682.459,985.407 C690.73,985.407 697.434,978.703 697.434,970.433 L697.434,901.22 C697.435,892.949 690.73,886.244 682.46,886.244 L682.46,886.244 Z M628.271,969.483 L613.368,969.483 L613.368,924.638 L628.271,924.638 L628.271,969.483 L628.271,969.483 Z M620.821,918.515 L620.722,918.515 C615.718,918.515 612.485,915.072 612.485,910.767 C612.485,906.369 615.818,903.02 620.918,903.02 C626.016,903.02 629.157,906.369 629.253,910.767 C629.253,915.072 626.016,918.515 620.821,918.515 L620.821,918.515 Z M682.019,969.483 L667.114,969.483 L667.114,945.491 C667.114,939.465 664.958,935.35 659.564,935.35 C655.449,935.35 652.994,938.122 651.918,940.802 C651.525,941.759 651.428,943.099 651.428,944.44 L651.428,969.483 L636.52,969.483 C636.52,969.483 636.717,928.846 636.52,924.638 L651.427,924.638 L651.427,930.985 C653.408,927.928 656.95,923.587 664.859,923.587 C674.666,923.587 682.019,929.994 682.019,943.769 L682.019,969.483 L682.019,969.483 Z" id="path3381" fill="#FFFFFF" sketch:type="MSShapeGroup"></path>
        <path d="M20.27,1080.333 C25.272,1079.084 32.075,1077.383 43.992,1077.066 C43.663,1076.407 43.366,1075.725 43.103,1075.022 C38.465,1074.981 24.183,1075.64 19.291,1076.849 C19.263,1076.859 19.233,1076.86 19.204,1076.86 C19.04,1076.86 18.889,1076.747 18.849,1076.582 C18.802,1076.389 18.921,1076.189 19.116,1076.141 C23.964,1074.943 37.902,1074.278 42.839,1074.29 C41.728,1071.022 41.237,1067.279 41.237,1063.101 C41.237,1055.678 43.549,1052.878 46.654,1048.923 C44.279,1040.463 47.506,1034.682 47.506,1034.682 C47.506,1034.682 52.497,1033.646 61.93,1040.403 C67.044,1038.213 80.677,1038.03 87.126,1039.917 C91.086,1037.3 98.326,1033.586 101.249,1034.625 C102.039,1035.899 103.743,1039.61 102.282,1047.769 C103.275,1049.558 108.43,1053.369 108.451,1064.141 C108.366,1068.114 107.953,1071.468 107.188,1074.306 C119.489,1074.202 126.724,1075.217 131.708,1076.135 C131.903,1076.175 132.035,1076.364 132.001,1076.562 C131.967,1076.736 131.814,1076.862 131.645,1076.862 C131.619,1076.862 131.598,1076.862 131.572,1076.852 C126.597,1075.932 119.349,1074.92 106.976,1075.033 C106.759,1075.753 106.517,1076.437 106.254,1077.09 C110.464,1077.231 122.029,1077.681 131.461,1080.566 C131.657,1080.626 131.763,1080.829 131.704,1081.025 C131.657,1081.18 131.513,1081.282 131.355,1081.282 C131.321,1081.282 131.283,1081.282 131.249,1081.265 C121.686,1078.341 109.87,1077.94 105.94,1077.81 C102.52,1085.325 95.504,1088.128 84.165,1089.294 C87.84,1091.607 88.894,1094.509 88.894,1102.361 C88.894,1110.213 88.788,1111.266 88.813,1113.071 C88.852,1116.035 93.194,1117.454 93.032,1118.408 C92.871,1119.36 89.4,1119.207 87.777,1118.639 C83.18,1117.037 83.638,1113.213 83.638,1113.213 L83.486,1102.715 C83.486,1102.715 83.8,1097.064 81.714,1097.064 L81.714,1114.249 C81.714,1117.983 84.327,1119.117 84.327,1120.499 C84.327,1122.872 79.552,1120.273 78.081,1118.792 C75.837,1116.541 76.092,1111.766 76.147,1107.988 C76.198,1104.341 76.113,1096.364 76.113,1096.364 L74.59,1096.396 C74.59,1096.396 75.215,1113.822 73.787,1116.998 C71.941,1121.074 66.373,1122.477 66.373,1120.619 C66.373,1119.37 67.746,1119.767 68.504,1116.969 C69.152,1114.587 68.931,1096.821 68.931,1096.821 C68.931,1096.821 67.147,1097.878 67.147,1101.204 C67.147,1102.727 67.104,1111.427 67.104,1114.016 C67.104,1117.272 62.479,1119.126 60.257,1119.126 C59.131,1119.126 57.731,1119.071 57.731,1118.475 C57.731,1116.969 61.961,1116.084 61.961,1112.952 C61.961,1110.235 61.902,1103.246 61.902,1103.246 C61.902,1103.246 59.769,1103.611 56.727,1103.611 C49.058,1103.611 46.632,1098.716 45.478,1095.977 C43.976,1092.412 42.028,1090.735 39.959,1089.397 C38.688,1088.575 38.395,1087.603 39.866,1087.328 C46.655,1086.049 48.391,1095.026 52.924,1096.456 C56.159,1097.477 60.319,1097.036 62.388,1095.698 C62.662,1092.955 64.638,1090.584 66.284,1089.336 C54.753,1088.228 47.917,1084.225 44.374,1077.787 C32.312,1078.077 25.467,1079.788 20.449,1081.042 C20.083,1081.133 19.727,1081.222 19.383,1081.31 C19.353,1081.32 19.323,1081.32 19.293,1081.32 C19.13,1081.32 18.981,1081.211 18.938,1081.045 C18.89,1080.85 19.011,1080.649 19.207,1080.601 C19.552,1080.512 19.906,1080.425 20.27,1080.331" id="path3383" fill="#FFFFFF" sketch:type="MSShapeGroup"></path>
        <path d="M232.18,1077.952 C232.18,1070.797 226.38,1064.997 219.225,1064.997 C212.07,1064.997 206.27,1070.797 206.27,1077.952 C206.27,1085.106 212.07,1090.906 219.225,1090.906 C226.38,1090.906 232.18,1085.106 232.18,1077.952" id="path3385" fill="#FFFFFF" sketch:type="MSShapeGroup"></path>
        <path d="M232.18,1042.452 C232.18,1035.297 226.38,1029.497 219.225,1029.497 C212.07,1029.497 206.27,1035.297 206.27,1042.452 C206.27,1049.606 212.07,1055.406 219.225,1055.406 C226.38,1055.406 232.18,1049.606 232.18,1042.452" id="path3387" fill="#FFFFFF" sketch:type="MSShapeGroup"></path>
        <path d="M196.68,1042.452 C196.68,1035.297 190.88,1029.497 183.725,1029.497 C176.57,1029.497 170.77,1035.297 170.77,1042.452 C170.77,1049.606 176.57,1055.406 183.725,1055.406 C190.88,1055.406 196.68,1049.606 196.68,1042.452" id="path3389" fill="#FFFFFF" sketch:type="MSShapeGroup"></path>
        <path d="M267.16,1042.452 C267.16,1035.297 261.36,1029.497 254.205,1029.497 C247.05,1029.497 241.25,1035.297 241.25,1042.452 C241.25,1049.606 247.05,1055.406 254.205,1055.406 C261.36,1055.406 267.16,1049.606 267.16,1042.452" id="path3391" fill="#FFFFFF" sketch:type="MSShapeGroup"></path>
        <path d="M267.16,1077.952 C267.16,1070.797 261.36,1064.997 254.205,1064.997 C247.05,1064.997 241.25,1070.797 241.25,1077.952 C241.25,1085.106 247.05,1090.906 254.205,1090.906 C261.36,1090.906 267.16,1085.106 267.16,1077.952" id="path3393" fill="#FFFFFF" sketch:type="MSShapeGroup"></path>
        <path d="M267.16,1113.452 C267.16,1106.297 261.36,1100.497 254.205,1100.497 C247.05,1100.497 241.25,1106.297 241.25,1113.452 C241.25,1120.606 247.05,1126.406 254.205,1126.406 C261.36,1126.406 267.16,1120.606 267.16,1113.452" id="path3395" fill="#FFFFFF" sketch:type="MSShapeGroup"></path>
        <path d="M363.954,1028.548 C336.67,1028.548 314.551,1050.666 314.551,1077.951 C314.551,1105.235 336.67,1127.354 363.954,1127.354 C391.239,1127.354 413.357,1105.235 413.357,1077.951 C413.357,1050.667 391.239,1028.548 363.954,1028.548 M363.954,1094.419 C354.859,1094.419 347.485,1087.046 347.485,1077.951 C347.485,1068.856 354.859,1061.484 363.954,1061.484 C373.049,1061.484 380.423,1068.857 380.423,1077.951 C380.423,1087.046 373.049,1094.419 363.954,1094.419" id="path3397" fill="#FFFFFF" sketch:type="MSShapeGroup"></path>
        <path d="M363.954,1076.716 C364.637,1076.716 365.189,1077.269 365.189,1077.951 C365.189,1078.633 364.636,1079.186 363.954,1079.186 C363.272,1079.186 362.719,1078.633 362.719,1077.951 C362.719,1077.269 363.272,1076.716 363.954,1076.716" id="path3399" fill="#FFFFFF" sketch:type="MSShapeGroup"></path>
        <path d="M346.683,608.716 L348.263,608.296 L350.273,607.876 L352.263,607.655 L354.263,607.765 L356.263,607.975 L358.263,608.495 L359.323,608.916 L361.213,609.446 L363.113,609.655 L363.953,609.765 L367.213,609.765 L370.373,609.555 L373.533,609.235 L373.853,609.235 L375.533,609.025 L378.483,608.916 L381.533,608.815 L384.693,608.916 L385.433,608.916 L387.222,609.025 L388.903,609.446 L390.693,610.086 L392.583,610.926 L394.373,611.876 L396.163,613.136 L397.853,614.396 L399.222,615.976 L400.582,617.776 L401.742,619.356 L403.112,621.456 L404.162,623.667 L405.002,625.986 L405.643,627.257 L406.163,629.357 L406.693,631.567 L406.903,633.787 L406.903,638.527 L407.213,641.477 L407.533,644.527 L408.063,647.477 L408.903,650.427 L409.003,650.956 L409.854,652.956 L409.954,653.377 L409.954,653.797 L409.744,654.107 L409.104,654.747 L408.374,655.058 L407.744,655.268 L407.214,655.268 L406.794,655.058 L406.374,654.638 L405.634,652.638 L404.905,650.108 L404.375,647.588 L404.055,644.947 L404.055,644.527 L403.425,640.107 L402.905,635.787 L402.695,637.366 L402.585,640.418 L402.065,643.478 L401.955,644.207 L401.215,647.478 L400.585,654.008 L400.585,657.168 L400.686,660.537 L400.906,663.697 L401.426,667.067 L402.067,670.227 L402.697,672.647 L402.907,673.497 L403.007,675.077 L403.007,676.866 L402.907,677.178 L402.476,678.018 L402.056,678.228 L401.636,678.338 L395.527,678.338 L395.006,678.228 L394.476,678.018 L394.166,677.598 L393.846,677.077 L393.846,674.866 L394.067,674.338 L394.377,673.918 L394.688,673.388 L394.797,672.858 L394.797,672.238 L394.688,671.808 L394.377,671.178 L392.907,668.128 L391.636,664.957 L390.476,661.907 L389.636,658.537 L388.796,655.267 L388.166,657.697 L387.006,661.907 L386.056,666.128 L385.216,670.338 L384.056,677.178 L383.857,677.608 L383.537,678.028 L383.217,678.238 L382.688,678.339 L376.377,678.339 L375.857,678.238 L375.426,678.028 L375.006,677.608 L374.806,677.078 L374.697,676.658 L374.697,674.969 L374.806,674.448 L375.216,673.919 L375.536,673.498 L375.956,673.288 L376.376,672.858 L376.586,672.238 L376.696,671.698 L376.696,668.438 L377.326,660.008 L377.746,655.688 L378.486,651.478 L376.066,651.268 L373.326,650.738 L370.696,650.108 L368.066,649.169 L365.536,648.219 L365.856,648.948 L366.166,650.219 L366.376,651.479 L366.276,652.849 L365.956,654.109 L365.636,656.219 L365.426,660.019 L365.216,663.699 L365.216,667.389 L365.536,671.179 L366.166,676.759 L366.166,677.189 L366.056,677.609 L365.746,678.029 L365.326,678.239 L364.796,678.34 L358.266,678.34 L357.746,678.239 L357.326,678.029 L356.906,677.609 L356.586,677.079 L356.586,674.979 L356.696,674.449 L357.116,673.92 L357.536,673.499 L357.646,673.399 L357.846,673.079 L357.956,672.76 L357.956,672.34 L356.166,664.65 L355.536,661.91 L354.266,656.96 L352.376,646.851 L352.376,646.951 L351.846,650.741 L351.846,650.851 L351.426,652.96 L350.796,655.07 L349.956,656.96 L348.066,661.07 L345.746,667.6 L342.696,677.289 L342.596,677.609 L342.276,678.029 L341.856,678.239 L341.326,678.34 L334.376,678.34 L333.856,678.13 L333.536,677.819 L333.326,677.399 L333.326,674.759 L333.536,674.129 L333.956,673.708 L334.486,673.398 L335.006,673.178 L335.116,673.178 L335.426,672.968 L335.646,672.758 L335.856,672.338 L339.536,657.487 L339.646,657.168 L340.166,654.116 L340.586,651.057 L340.796,648.007 L340.796,644.946 L340.476,641.896 L340.166,638.936 L340.056,638.736 L339.856,638.206 L339.426,637.896 L338.896,637.786 L338.376,637.786 L337.846,637.996 L336.796,638.736 L335.326,639.896 L334.806,640.417 L333.956,641.047 L333.006,641.477 L332.066,641.577 L331.646,641.687 L330.586,642.107 L329.326,642.737 L328.166,643.687 L327.326,644.737 L326.586,646.008 L326.166,647.268 L325.856,648.638 L325.856,648.957 L325.746,651.168 L325.856,653.378 L326.276,655.588 L326.586,656.648 L327.016,658.748 L327.326,661.068 L327.426,663.278 L327.216,663.698 L326.906,664.858 L326.276,666.018 L325.436,667.068 L324.586,667.808 L323.856,668.228 L322.486,669.178 L320.906,669.707 L319.426,670.128 L317.746,670.228 L316.906,670.228 L315.636,669.918 L314.486,669.497 L313.326,668.857 L312.276,667.907 L311.746,667.387 L310.906,665.907 L310.906,666.017 L310.796,665.907 L310.166,664.437 L310.066,664.327 L309.956,663.697 L309.956,662.957 L310.166,662.437 L310.906,661.697 L311.846,660.957 L312.166,660.758 L312.696,660.648 L313.226,660.648 L313.856,660.758 L314.376,661.068 L314.906,661.488 L315.226,662.018 L316.276,663.178 L316.486,663.388 L317.116,663.908 L317.856,664.117 L318.586,664.228 L319.436,663.908 L319.956,663.488 L320.596,662.958 L320.696,662.648 L320.906,661.598 L320.906,660.648 L320.586,659.598 L320.066,658.747 L320.066,658.647 L319.436,656.537 L318.696,653.687 L318.056,650.737 L317.426,647.687 L317.216,644.637 L317.006,641.477 L317.006,638.417 L317.216,635.365 L317.746,632.306 L318.276,629.356 L318.796,627.356 L319.636,624.726 L320.696,622.197 L321.956,619.766 L323.326,617.346 L324.906,615.136 L325.116,614.926 L325.846,614.086 L326.686,613.346 L327.846,612.926 L328.906,612.606 L331.106,612.606 L333.746,612.186 L336.266,611.766 L338.896,611.026 L339.956,610.606 L346.683,608.716 L346.683,608.716 Z M347.533,630.836 L347.433,630.306 L347.113,628.096 L346.373,625.886 L345.533,623.666 L344.583,621.666 L343.323,619.666 L342.053,617.876 L340.583,616.825 L339.643,616.506 L338.693,616.405 L337.743,616.506 L337.323,616.716 L335.643,617.346 L334.803,618.197 L334.803,618.926 L334.903,619.136 L335.113,619.455 L335.423,619.556 L335.853,619.666 L336.273,619.556 L336.483,619.455 L337.853,618.716 L338.053,618.716 L338.583,618.614 L339.213,618.614 L339.853,618.825 L340.263,619.136 L340.373,619.245 L341.743,621.035 L342.893,623.035 L343.853,625.035 L344.583,627.145 L345.113,629.355 L345.423,630.614 L345.323,631.145 L344.903,631.985 L344.473,632.305 L344.053,632.415 L343.423,632.415 L343.113,632.305 L340.793,631.244 L339.853,630.724 L339.433,630.624 L339.003,630.624 L338.793,630.724 L338.483,631.044 L338.273,631.144 L338.163,631.564 L338.163,631.884 L338.583,632.514 L338.793,632.624 L341.323,633.773 L342.373,634.303 L343.213,634.513 L344.163,634.513 L345.013,634.303 L345.853,633.983 L346.483,633.353 L347.113,632.624 L347.323,631.773 L347.533,630.836 L347.533,630.836 Z M327.643,627.886 L327.643,627.566 L327.533,627.356 L327.423,627.256 L327.013,627.046 L326.273,627.046 L325.433,627.356 L324.793,627.566 L324.273,627.986 L324.053,628.417 L324.053,628.517 L323.953,628.727 L324.053,628.837 L324.273,629.036 L324.693,629.257 L325.423,629.257 L326.163,629.036 L326.903,628.726 L327.423,628.306 L327.643,627.886 L327.643,627.886 Z" id="path3417" fill="#FFFFFF" sketch:type="MSShapeGroup"></path>
        <g id="g3517" sketch:type="MSLayerGroup" transform="translate(601.114750, 1026.326600)" fill="#FFFFFF">
            <path d="M78.323,94.936 C78.323,97.738 80.599,99.998 83.391,99.998 L89.73,99.998 C92.528,99.998 94.798,97.736 94.798,94.936 L94.798,44.206 C94.798,41.407 92.527,39.144 89.73,39.144 L83.391,39.144 C80.599,39.144 78.323,41.407 78.323,44.206 L78.323,94.936 L78.323,94.936 Z" id="path3503" sketch:type="MSShapeGroup"></path>
            <path d="M53.805,74.271 L53.805,94.936 C53.805,97.737 56.08,99.998 58.889,99.998 L65.213,99.998 C68.004,99.998 70.279,97.735 70.279,94.936 L70.279,74.271 C70.279,71.47 68.004,69.195 65.213,69.195 L58.889,69.195 C56.083,69.194 53.805,71.472 53.805,74.271 L53.805,74.271 Z" id="path3505" sketch:type="MSShapeGroup"></path>
            <path d="M29.295,81.883 L29.295,94.938 C29.295,97.739 31.558,100 34.364,100 L40.694,100 C43.486,100 45.763,97.738 45.763,94.938 L45.763,81.883 C45.763,79.084 43.486,76.793 40.694,76.793 L34.364,76.793 C31.559,76.793 29.295,79.084 29.295,81.883 L29.295,81.883 Z" id="path3507" sketch:type="MSShapeGroup"></path>
            <path d="M34.131,0 C15.271,0 0,15.287 0,34.141 C0,53.009 15.271,68.294 34.131,68.294 C53,68.294 68.285,53.009 68.285,34.141 C68.288,15.287 53,0 34.131,0 L34.131,0 Z M34.134,59.669 C20.037,59.669 8.624,48.245 8.624,34.143 C8.624,20.051 20.038,8.625 34.134,8.625 L34.134,34.201 L54.898,48.998 C50.267,55.46 42.694,59.669 34.134,59.669 L34.134,59.669 Z" id="path3509" sketch:type="MSShapeGroup"></path>
        </g>
        <g id="Imported-Layers" sketch:type="MSLayerGroup" transform="translate(455.120661, 1026.815000)" fill="#FFFFFF">
            <path d="M25.4550725,6.4173913 C30.842029,-0.465217391 42.4144928,-1.46231884 48.5,4.92173913 C51.9913043,4.72173913 55.9811594,5.52028986 57.9768116,8.7115942 C61.6681159,14.4985507 61.9666667,21.7811594 60.9695652,28.3652174 C60.2710145,32.0550725 62.3652174,35.6478261 61.0695652,39.3376812 C60.3710145,43.3289855 56.4797101,45.6231884 55.4826087,49.5130435 C51.1927536,58.4927536 45.3072464,67.8695652 46.6043478,78.2449275 C47.3028986,86.1246377 51.6913043,93.2086957 57.6768116,98.0971014 C48.6985507,99.4927536 39.5217391,99.4927536 30.4434783,99.1942029 C22.8608696,98.6956522 14.9797101,98.2956522 7.69855072,95.6028986 C4.7057971,94.4057971 1.21304348,92.5101449 0.814492754,88.9188406 C0.415942029,84.2304348 0.115942029,78.8434783 3.50869565,75.1521739 C9.3942029,68.4681159 18.1724638,65.3753623 26.5521739,63.3797101 C29.6449275,62.5826087 31.8391304,58.3927536 29.5449275,55.6985507 C27.4507246,52.7057971 26.0536232,49.3144928 24.8565217,45.9217391 C20.3666667,42.7304348 18.7710145,36.1463768 20.8666667,31.157971 C18.5724638,22.7782609 20.0681159,13.3014493 25.4550725,6.4173913" id="Fill-1" sketch:type="MSShapeGroup"></path>
            <path d="M70.4463768,51.4086957 C83.315942,48.415942 97.1811594,57.9927536 99.0768116,71.0623188 C101.471014,83.1318841 93.0913043,95.9014493 81.1202899,98.6942029 C71.942029,101.188406 61.4681159,97.3985507 55.8811594,89.715942 C51.3927536,83.8304348 49.8956522,75.7507246 51.9913043,68.6681159 C54.1855072,60.0884058 61.6681159,53.1057971 70.4463768,51.4086957 L70.4463768,51.4086957 Z M82.5173913,64.5768116 C79.026087,69.3652174 75.9333333,74.3536232 72.5405797,79.142029 C71.0449275,77.5463768 69.5478261,75.8507246 67.7521739,74.5536232 C65.2594203,73.6550725 63.8623188,76.7478261 62.2666667,78.0449275 C64.4608696,82.0347826 68.1521739,84.9289855 71.4434783,88.0202899 C73.5391304,89.915942 75.8333333,87.5217391 76.8304348,85.726087 C80.8217391,79.442029 85.4101449,73.5550725 89.1014493,67.0710145 C88.9014493,64.4768116 84.3130435,61.584058 82.5173913,64.5768116 L82.5173913,64.5768116 Z" id="Fill-2" sketch:type="MSShapeGroup"></path>
        </g>
    </g>
</svg>