<?xml version="1.0" encoding="UTF-8" standalone="no"?>
<svg width="720px" height="1151px" viewBox="0 0 720 1151" version="1.1" xmlns="http://www.w3.org/2000/svg" xmlns:xlink="http://www.w3.org/1999/xlink" xmlns:sketch="http://www.bohemiancoding.com/sketch/ns">
    <!-- Generator: Sketch 3.3.3 (12081) - http://www.bohemiancoding.com/sketch -->
    <title>Untitled</title>
    <desc>Created with Sketch.</desc>
    <defs></defs>
    <g id="Page-1" stroke="none" stroke-width="1" fill="none" fill-rule="evenodd" sketch:type="MSPage">
        <g id="members_icons" sketch:type="MSLayerGroup" transform="translate(20.000000, 21.000000)">
            <g id="Page-1" sketch:type="MSShapeGroup">
                <path d="M54.421,0.635 C26.948,0.635 4.597,22.987 4.597,50.461 C4.597,77.935 26.948,100.286 54.421,100.286 C81.895,100.286 104.248,77.934 104.248,50.461 C104.249,22.987 81.896,0.635 54.421,0.635 L54.421,0.635 L54.421,0.635 Z M58.597,26.635 L58.597,9.266 C62.597,11.563 66.906,18.635 69.546,26.635 L58.597,26.635 L58.597,26.635 Z M71.581,33.635 C72.44,38.635 72.997,42.635 73.208,46.635 L58.598,46.635 L58.598,33.635 L71.581,33.635 L71.581,33.635 Z M50.597,9.266 L50.597,26.635 L39.298,26.635 C41.938,18.635 45.597,11.563 50.597,9.266 L50.597,9.266 L50.597,9.266 Z M50.597,33.635 L50.597,46.635 L35.638,46.635 C35.848,42.635 36.405,38.635 37.264,33.635 L50.597,33.635 L50.597,33.635 Z M27.919,46.635 L12.487,46.635 C12.9,42.635 14.029,37.635 15.763,33.635 L29.318,33.635 C28.572,38.635 28.095,42.635 27.919,46.635 L27.919,46.635 L27.919,46.635 Z M27.919,54.635 C28.095,59.635 28.571,63.635 29.317,67.635 L15.762,67.635 C14.028,63.635 12.899,59.635 12.487,54.635 L27.919,54.635 L27.919,54.635 Z M35.638,54.635 L50.597,54.635 L50.597,67.635 L37.264,67.635 C36.405,63.635 35.849,58.635 35.638,54.635 L35.638,54.635 L35.638,54.635 Z M50.597,75.635 L50.597,91.655 C45.597,89.358 41.938,83.635 39.297,75.635 L50.597,75.635 L50.597,75.635 Z M58.597,91.655 L58.597,75.635 L69.546,75.635 C66.906,83.635 62.597,89.358 58.597,91.655 L58.597,91.655 L58.597,91.655 Z M58.597,67.635 L58.597,54.635 L73.207,54.635 C72.996,58.635 72.439,63.635 71.58,67.635 L58.597,67.635 L58.597,67.635 Z M80.925,54.635 L96.359,54.635 C95.945,59.635 94.818,63.635 93.084,67.635 L79.527,67.635 C80.273,63.635 80.75,59.635 80.925,54.635 L80.925,54.635 L80.925,54.635 Z M80.925,46.635 C80.75,42.635 80.273,38.635 79.527,33.635 L93.082,33.635 C94.816,37.635 95.945,42.635 96.359,46.635 L80.925,46.635 L80.925,46.635 Z M88.717,26.635 L77.704,26.635 C76.112,20.635 74.001,16.445 71.481,12.543 C78.413,15.626 84.357,20.635 88.717,26.635 L88.717,26.635 L88.717,26.635 Z M37.364,12.542 C34.845,16.443 32.734,20.634 31.141,26.634 L20.126,26.634 C24.487,20.635 30.434,15.625 37.364,12.542 L37.364,12.542 L37.364,12.542 Z M20.125,75.635 L31.141,75.635 C32.733,80.635 34.845,85.827 37.363,89.728 C30.433,86.645 24.486,81.635 20.125,75.635 L20.125,75.635 L20.125,75.635 Z M71.481,89.727 C74,85.825 76.111,80.635 77.703,75.635 L88.718,75.635 C84.359,81.635 78.413,86.644 71.481,89.727 L71.481,89.727 L71.481,89.727 Z" id="path3229" fill="#000000"></path>
                <path d="M196.881,59.513 C199.872,61.8 208.75,63.888 215.878,67.76 C218.228,69.037 218.429,70.929 218.605,72.073 C218.782,73.217 219.156,86.052 219.156,86.052 L149.88,86.052 C149.88,86.052 150.252,73.216 150.429,72.073 C150.605,70.928 150.62,69.192 153.157,67.76 C160.22,63.771 169.124,61.932 172.116,59.645 C173.304,58.737 172.995,57.269 173.259,55.86 C173.525,54.453 174.404,55.421 174.404,53.924 C174.404,52.42 174.685,52.682 174.52,50.683 C174.376,48.942 171.986,48.755 171.852,45.495 C171.824,44.808 170.621,44.35 169.916,43.296 C169.211,42.239 168.067,40.392 168.067,38.279 C168.067,36.168 168.507,36.695 168.507,34.054 C168.507,31.414 168.408,29.884 169.915,23.758 C170.477,21.473 172.389,18.794 174.304,17.582 C176.886,15.948 175.849,18.127 184.523,16.19 C190.147,14.935 198.955,20.766 199.044,25.43 C199.162,31.738 199.548,31.264 199.922,33.878 C200.185,35.726 200.714,35.285 200.714,37.397 C200.714,39.51 199.569,42.15 198.867,43.206 C198.163,44.262 197.51,45.956 197.421,46.638 C196.961,50.163 194.608,49.348 194.509,51.237 C194.419,52.961 194.308,52.741 194.565,54.084 C194.781,55.208 195.436,54.012 195.7,55.42 C195.962,56.828 195.779,58.899 196.881,59.513" id="path3231" fill="#000000"></path>
                <path d="M212.242,47.55 C212.732,48.286 213.573,48.606 213.592,49.084 C213.687,51.36 215.353,51.488 215.454,52.703 C215.569,54.099 215.371,53.914 215.371,54.964 C215.371,56.007 214.76,55.332 214.573,56.315 C214.388,57.295 214.605,58.321 213.777,58.955 C212.84,59.672 211.076,60.342 208.971,61.108 C212,62.233 215.342,63.558 218.482,65.205 C221.869,66.978 221.937,69.167 222.2,70.865 C222.293,71.466 222.412,74.293 222.517,77.375 L246.584,77.375 C246.584,77.375 246.323,68.423 246.201,67.624 C246.078,66.826 245.992,65.542 244.301,64.615 C239.34,61.903 233.138,60.458 231.053,58.863 C230.283,58.433 230.409,56.99 230.228,56.008 C230.042,55.028 229.585,55.86 229.435,55.076 C229.255,54.138 229.332,54.292 229.396,53.091 C229.465,51.774 231.105,52.341 231.428,49.883 C231.489,49.407 231.946,48.226 232.435,47.489 C232.928,46.753 233.724,44.911 233.724,43.437 C233.724,41.964 233.357,42.271 233.172,40.983 C232.912,39.159 232.642,39.49 232.558,35.089 C232.497,31.836 226.353,27.768 222.431,28.644 C216.381,29.995 217.103,28.475 215.303,29.615 C213.969,30.46 212.633,32.329 212.241,33.924 C211.189,38.196 211.258,39.264 211.258,41.106 C211.258,42.947 210.951,42.58 210.951,44.052 C210.952,45.525 211.75,46.814 212.242,47.55" id="path3233" fill="#000000"></path>
                <path d="M605.203,163.154 L605.203,150.654 C605.203,147.199 607.998,144.404 611.453,144.404 C614.908,144.404 617.703,147.199 617.703,150.654 L617.703,163.154 C617.703,166.609 614.908,169.404 611.453,169.404 C607.998,169.404 605.203,166.609 605.203,163.154" id="path3235" fill="#000000"></path>
                <path d="M661.453,156.904 L661.453,163.3 C661.453,170.209 655.862,175.8 648.953,175.8 C642.044,175.8 636.453,170.209 636.453,163.3 L636.453,156.904 L623.953,156.904 L623.953,163.3 C623.953,170.209 618.362,175.8 611.453,175.8 C604.544,175.8 598.953,170.209 598.953,163.3 L598.953,156.904 L580.203,156.904 L580.203,244.404 L680.203,244.404 L680.203,156.904 L661.453,156.904 L661.453,156.904 Z M611.453,231.904 L598.953,231.904 L598.953,219.404 L611.453,219.404 L611.453,231.904 L611.453,231.904 Z M611.453,206.904 L598.953,206.904 L598.953,194.404 L611.453,194.404 L611.453,206.904 L611.453,206.904 Z M636.453,231.904 L623.953,231.904 L623.953,219.404 L636.453,219.404 L636.453,231.904 L636.453,231.904 Z M636.453,206.928 L623.953,206.928 L623.953,194.428 L636.453,194.428 L636.453,206.928 L636.453,206.928 Z M648.953,231.904 L648.953,219.404 L661.453,219.404 L648.953,231.904 L648.953,231.904 Z M661.453,206.904 L648.953,206.904 L648.953,194.404 L661.453,194.404 L661.453,206.904 L661.453,206.904 Z" id="path3237" fill="#000000"></path>
                <path d="M642.703,163.154 L642.703,150.654 C642.703,147.199 645.498,144.404 648.953,144.404 C652.408,144.404 655.203,147.199 655.203,150.654 L655.203,163.154 C655.203,166.609 652.408,169.404 648.953,169.404 C645.498,169.404 642.703,166.609 642.703,163.154" id="path3239" fill="#000000"></path>
                <path d="M461.438,88.23 L461.438,38.106 L459.638,37.044 L459.638,87.307 L461.438,88.23 L461.438,88.23 Z" id="polygon3241" fill="#000000"></path>
                <path d="M485.503,78.688 L486.765,78.11 L487.824,78.274 L487.824,28.233 L486.961,27.937 L485.399,28.545 L485.503,78.688 L485.503,78.688 Z" id="polygon3243" fill="#000000"></path>
                <path d="M512.81,37.292 L512.81,88.3 L515.129,86.929 L515.129,36.027 L512.81,37.292 L512.81,37.292 Z" id="polygon3245" fill="#000000"></path>
                <path d="M507.941,29.383 L506.129,33.95 L512.512,36.559 L530.28,26.92 L530.28,80.109 L512.219,89.907 L493.259,82.149 L487.157,79.692 L486.765,79.692 L461.698,89.907 L443.643,80.109 L443.643,26.92 L461.405,36.559 L486.962,26.108 L493.319,28.71 L490.775,22.359 L486.962,20.8 L461.698,31.134 L438.73,18.662 L438.73,83.03 L461.405,95.338 L486.962,84.883 L512.512,95.338 L535.191,83.03 L535.191,18.662 L512.219,31.134 L507.941,29.383 L507.941,29.383 Z" id="polygon3247" fill="#000000"></path>
                <path d="M500.79,5.582 C495.287,5.582 490.818,10.046 490.818,15.553 C490.818,16.578 491.018,17.545 491.304,18.476 L491.262,18.476 L500.789,42.256 L510.551,17.652 L510.532,17.652 C510.677,16.976 510.761,16.276 510.761,15.553 C510.763,10.046 506.297,5.582 500.79,5.582 M500.79,20.296 C498.436,20.296 496.519,18.382 496.519,16.026 C496.519,13.67 498.436,11.754 500.79,11.754 C503.144,11.754 505.061,13.668 505.061,16.026 C505.061,18.382 503.148,20.296 500.79,20.296" id="path3249" fill="#000000"></path>
                <path d="M672.635,5.222 L672.635,14.751 L661.895,14.751 L661.895,5.222 L655.095,5.222 L655.095,19.203 L603.698,19.203 L603.698,5.222 L596.919,5.222 L596.919,14.751 L586.213,14.751 L586.213,5.222 L579.423,5.222 L579.423,96.792 L586.213,96.792 L586.213,87.169 L596.92,87.169 L596.92,96.792 L603.698,96.792 L603.698,82.898 L655.095,82.898 L655.095,96.793 L661.895,96.793 L661.895,87.17 L672.635,87.17 L672.635,96.793 L679.422,96.793 L679.422,5.223 L672.635,5.222 L672.635,5.222 Z M596.919,81.999 L586.212,81.999 L586.212,72.384 L596.919,72.384 L596.919,81.999 L596.919,81.999 Z M596.919,65.884 L586.212,65.884 L586.212,56.349 L596.919,56.349 L596.919,65.884 L596.919,65.884 Z M596.919,48.148 L586.212,48.148 L586.212,38.625 L596.919,38.625 L596.919,48.148 L596.919,48.148 Z M596.919,30.25 L586.212,30.25 L586.212,20.715 L596.919,20.715 L596.919,30.25 L596.919,30.25 Z M603.697,30.25 L655.093,30.25 L655.093,72.384 L603.697,72.384 L603.697,30.25 L603.697,30.25 Z M672.635,81.999 L661.895,81.999 L661.895,72.384 L672.635,72.384 L672.635,81.999 L672.635,81.999 Z M672.635,65.884 L661.895,65.884 L661.895,56.349 L672.635,56.349 L672.635,65.884 L672.635,65.884 Z M672.635,48.148 L661.895,48.148 L661.895,38.625 L672.635,38.625 L672.635,48.148 L672.635,48.148 Z M672.635,30.25 L661.895,30.25 L661.895,20.715 L672.635,20.715 L672.635,30.25 L672.635,30.25 Z" id="path3251" fill="#000000"></path>
                <path d="M90.623,140.126 L16.223,140.126 C14.756,140.126 13.566,141.279 13.566,142.704 L13.566,246.275 C13.566,247.697 14.756,248.853 16.223,248.853 L90.623,248.853 C92.089,248.853 93.28,247.697 93.28,246.275 L93.28,142.704 C93.28,141.279 92.089,140.126 90.623,140.126 L90.623,140.126 L90.623,140.126 Z M86.609,243.851 L20.571,243.851 L20.571,196.993 L86.609,196.993 L86.609,243.851 L86.609,243.851 Z M86.609,191.989 L20.571,191.989 L20.571,145.127 L86.609,145.127 L86.609,191.989 L86.609,191.989 Z" id="path3253" fill="#000000"></path>
                <path d="M63.224,202.033 L60.509,202.033 L60.509,208.141 C60.509,208.622 60.115,209.012 59.632,209.012 L47.374,209.012 C46.891,209.012 46.5,208.622 46.5,208.141 L46.5,202.033 L43.957,202.033 C43.475,202.033 43.086,202.421 43.086,202.899 L43.086,211.635 C43.086,212.114 43.475,212.5 43.957,212.5 L63.224,212.5 C63.706,212.5 64.097,212.114 64.097,211.635 L64.097,202.899 C64.097,202.421 63.706,202.033 63.224,202.033" id="path3255" fill="#000000"></path>
                <path d="M63.224,150.17 L60.509,150.17 L60.509,156.275 C60.509,156.76 60.115,157.149 59.632,157.149 L47.374,157.149 C46.891,157.149 46.5,156.76 46.5,156.275 L46.5,150.17 L43.957,150.17 C43.475,150.17 43.086,150.556 43.086,151.035 L43.086,159.773 C43.086,160.25 43.475,160.635 43.957,160.635 L63.224,160.635 C63.706,160.635 64.097,160.25 64.097,159.773 L64.097,151.035 C64.097,150.559 63.706,150.17 63.224,150.17" id="path3257" fill="#000000"></path>
                <path d="M238.124,156.302 L238.124,215.215 L191.543,215.215 L187.143,215.215 L184.702,218.875 L177.841,229.166 L170.98,218.875 L168.539,215.215 L164.139,215.215 L158.659,215.215 L158.659,156.302 L238.124,156.302 L238.124,156.302 Z M246.345,148.081 L150.442,148.081 L150.442,223.435 L164.141,223.435 L177.844,243.985 L191.543,223.435 L246.345,223.435 L246.345,148.081 L246.345,148.081 Z" id="path3259" fill="#000000"></path>
                <path d="M193.227,172.035 C189.907,172.66 187.57,175.07 186.222,179.26 C185.547,181.33 185.21,183.375 185.21,185.398 C185.21,185.638 185.221,185.846 185.246,186.013 C185.27,186.181 185.306,186.554 185.354,187.132 L193.227,187.132 L193.227,202.882 L177.841,202.882 L177.841,188.361 C177.841,181.235 179.262,175.744 182.105,171.891 C184.947,168.038 188.652,165.822 193.229,165.245 L193.229,172.035 L193.227,172.035 L193.227,172.035 Z" id="path3261" fill="#000000"></path>
                <path d="M217.579,172.035 C214.925,172.469 212.917,173.961 211.542,176.514 C210.172,179.066 209.481,182.006 209.481,185.327 C209.481,185.619 209.497,185.907 209.519,186.196 C209.545,186.481 209.604,186.795 209.701,187.132 L217.579,187.132 L217.579,202.882 L202.118,202.882 L202.118,188.361 C202.118,182.632 203.322,177.514 205.725,173.009 C208.14,168.508 212.082,165.918 217.58,165.245 L217.579,172.035 L217.579,172.035 Z" id="path3263" fill="#000000"></path>
                <path d="M342.954,180.627 C354.625,180.627 364.086,190.088 364.086,201.759 C364.086,213.429 354.625,222.891 342.954,222.891 C331.283,222.891 321.822,213.429 321.822,201.759 C321.822,190.088 331.283,180.627 342.954,180.627" id="path3265" fill="#000000"></path>
                <path d="M342.954,228.043 C328.461,228.043 316.67,216.252 316.67,201.76 C316.67,196.53 318.212,191.656 320.857,187.558 L292.953,187.558 L292.953,234.049 L392.953,234.049 L392.953,187.555 L365.051,187.555 C367.697,191.655 369.239,196.528 369.239,201.76 C369.237,216.252 357.446,228.043 342.954,228.043" id="path3267" fill="#000000"></path>
                <path d="M392.953,169.469 L360.342,169.469 L354.178,155.17 L352.102,155.17 L333.806,155.17 L331.731,155.17 L325.567,169.469 L292.954,169.469 L292.954,182.404 L325.194,182.404 C329.876,178.105 336.113,175.476 342.955,175.476 C349.796,175.476 356.033,178.105 360.714,182.404 L392.954,182.404 L392.954,169.469 L392.953,169.469 L392.953,169.469 Z M348.921,166.515 L336.986,166.515 L336.986,160.322 L348.921,160.322 L348.921,166.515 L348.921,166.515 Z" id="path3269" fill="#000000"></path>
                <rect id="rect3271" fill="#000000" x="297.77499" y="165.95599" width="11.83" height="1.992"></rect>
                <rect id="rect3273" fill="#000000" x="299.13699" y="162.49699" width="9.1079998" height="4.4549999"></rect>
                <path d="M534.227,164.208 L534.227,221.249 C534.227,221.249 517.998,216.687 505.942,219.006 C495.143,221.082 487.195,226.94 485.855,227.976 L485.855,228.148 C485.855,228.148 485.815,228.116 485.743,228.061 C485.672,228.116 485.632,228.148 485.632,228.148 L485.632,227.976 C484.291,226.94 476.345,221.083 465.549,219.006 C453.489,216.687 435.673,221.249 435.673,221.249 L435.673,164.04 C434.63,164.196 433.527,164.363 432.338,164.54 L432.338,225.99 C432.338,225.99 451.754,220.993 464.962,223.536 C477.95,226.033 485.798,233.547 485.798,233.547 C485.798,233.547 493.645,226.033 506.632,223.536 C519.843,220.992 538.462,225.99 538.462,225.99 L538.462,164.805 C538.463,164.806 536.841,164.532 534.227,164.208 M464.568,213.232 C475.129,215.262 483.29,221.375 483.29,221.375 L483.29,165.255 C483.29,165.255 475.086,159.136 464.499,157.101 C453.785,155.04 439.787,159.111 439.787,159.111 L439.787,215.23 C439.787,215.23 453.829,211.167 464.568,213.232 M530.103,215.437 L530.103,159.317 C530.103,159.317 517.272,155.245 506.562,157.307 C495.976,159.34 487.5,165.459 487.5,165.459 L487.5,221.58 C487.5,221.58 495.93,215.469 506.493,213.436 C517.229,211.375 530.103,215.437 530.103,215.437" id="path3275" fill="#000000"></path>
                <rect id="rect3277" fill="#000000" x="310.703" y="38.534" width="12.5" height="12.5"></rect>
                <rect id="rect3279" fill="#000000" x="335.703" y="63.533997" width="12.5" height="12.5"></rect>
                <rect id="rect3281" fill="#000000" x="360.703" y="38.534" width="12.5" height="12.5"></rect>
                <path d="M316.953,19.784 L316.953,7.284 C316.953,3.829 319.748,1.034 323.203,1.034 C326.658,1.034 329.453,3.829 329.453,7.284 L329.453,19.784 C329.453,23.239 326.658,26.034 323.203,26.034 C319.748,26.034 316.953,23.239 316.953,19.784" id="path3283" fill="#000000"></path>
                <path d="M291.953,101.034 L291.953,13.534 L304.453,13.534 L304.453,88.534 L379.453,88.534 L379.453,13.534 L391.953,13.534 L391.953,101.034 L291.953,101.034 L291.953,101.034 Z" id="polygon3285" fill="#000000"></path>
                <rect id="rect3287" fill="#000000" x="335.703" y="38.557999" width="12.5" height="12.5"></rect>
                <rect id="rect3289" fill="#000000" x="310.703" y="63.533997" width="12.5" height="12.5"></rect>
                <path d="M360.703,63.534 L373.203,63.534 L360.703,76.034 L360.703,63.534 L360.703,63.534 Z" id="polygon3291" fill="#000000"></path>
                <path d="M354.453,19.784 L354.453,7.284 C354.453,3.829 357.248,1.034 360.703,1.034 C364.158,1.034 366.953,3.829 366.953,7.284 L366.953,19.784 C366.953,23.239 364.158,26.034 360.703,26.034 C357.248,26.034 354.453,23.239 354.453,19.784" id="path3293" fill="#000000"></path>
                <path d="M102.315,299.814 L102.315,364.175 C102.315,370.165 97.09,375.518 91.61,375.518 L18.455,375.518 C9.406,375.518 4.566,370.801 4.566,359.332 L4.566,312.306 L18.075,312.306 L18.075,299.814 L102.315,299.814 L102.315,299.814 Z M18.075,319.186 L11.446,319.186 L11.446,359.332 C11.446,365.194 12.846,367.999 14.63,367.999 C16.799,367.999 18.075,365.194 18.075,359.332 L18.075,319.186 L18.075,319.186 Z M95.434,306.697 L24.956,306.697 L24.956,359.332 C24.956,363.41 24.192,366.341 23.043,368.635 L91.61,368.635 C93.901,368.635 95.434,365.958 95.434,364.175 L95.434,306.697 L95.434,306.697 Z M52.102,330.911 L35.916,330.911 L35.916,328.617 L52.102,328.617 L52.102,330.911 L52.102,330.911 Z M52.102,338.43 L35.916,338.43 L35.916,336.136 L52.102,336.136 L52.102,338.43 L52.102,338.43 Z M52.102,345.694 L35.916,345.694 L35.916,343.4 L52.102,343.4 L52.102,345.694 L52.102,345.694 Z M52.102,352.703 L35.916,352.703 L35.916,350.411 L52.102,350.411 L52.102,352.703 L52.102,352.703 Z M52.102,359.968 L35.916,359.968 L35.916,357.676 L52.102,357.676 L52.102,359.968 L52.102,359.968 Z M38.336,316.767 L80.776,316.767 L80.776,321.227 L38.336,321.227 L38.336,316.767 L38.336,316.767 Z M58.475,328.617 L85.617,328.617 L85.617,354.489 L58.475,354.489 L58.475,328.617 L58.475,328.617 Z" id="path3295" fill="#000000"></path>
                <path d="M244.623,306.343 L152.163,306.343 C150.335,306.343 148.854,307.826 148.854,309.652 L148.854,367.68 C148.854,369.51 150.335,370.989 152.163,370.989 L244.623,370.989 C246.451,370.989 247.933,369.51 247.933,367.68 L247.933,309.652 C247.933,307.826 246.451,306.343 244.623,306.343 L244.623,306.343 L244.623,306.343 Z M155.472,315.716 L185.054,337.67 L155.472,361.782 L155.472,315.716 L155.472,315.716 Z M198.392,340.357 L161.482,312.962 L235.307,312.962 L198.392,340.357 L198.392,340.357 Z M189.166,340.719 L196.668,346.289 C197.18,346.668 197.787,346.857 198.392,346.857 C198.997,346.857 199.607,346.668 200.118,346.289 L207.861,340.538 C207.88,340.551 207.888,340.568 207.904,340.581 L236.715,364.371 L160.151,364.371 L189.166,340.719 L189.166,340.719 Z M211.965,337.494 L241.314,315.716 L241.314,361.73 L211.965,337.494 L211.965,337.494 Z" id="path3297" fill="#000000"></path>
                <path d="M324.062,333.744 C318.72,328.751 314.639,319.034 314.639,311.182 C314.639,300.082 323.416,293.761 331.724,293.761 C340.031,293.761 348.367,300.675 348.367,311.786 C348.367,319.639 343.855,329.045 338.286,333.865 C339.429,338.401 345.696,339.878 358.646,343.554 C363.422,344.909 364.31,346.963 366.955,349.366 L339.174,349.366 C338.597,349.366 338.059,349.5 337.588,349.768 C337.588,349.768 335.965,350.466 335.844,352.708 L335.844,368.867 L293.89,368.867 C293.851,362.078 291.958,347.635 306.346,343.556 C318.935,339.97 322.519,338.482 323.915,334.24" id="path3299" fill="#000000"></path>
                <path d="M342.115,383 C341.853,383 341.594,382.974 341.348,382.908 L352.599,368.018 L353.455,366.888 L354.963,368.018 L364.604,375.256 L364.903,375.256 L374.545,368.018 L376.052,366.888 L376.911,368.018 L388.16,382.908 C387.902,382.974 387.642,383 387.394,383 L364.8,383 L364.708,383 L342.115,383 L342.115,383 Z" id="path3301" fill="#000000"></path>
                <path d="M340.581,353.429 C341.035,353.168 341.555,353.037 342.115,353.037 L371.609,353.037 L387.084,353.037 C387.732,353.037 388.33,353.234 388.849,353.558 L377.339,362.029 L369.18,368.019 L364.607,371.383 L360.097,368.019 L340.581,353.429 L340.581,353.429 Z" id="path3303" fill="#000000"></path>
                <path d="M390.618,356.273 L390.618,379.764 C390.618,380.167 390.553,380.544 390.409,380.895 L378.443,365.084 L390.601,355.947 C390.618,356.04 390.618,356.157 390.618,356.273" id="path3305" fill="#000000"></path>
                <path d="M351.065,365.084 L348.841,368.019 L339.098,380.896 C338.957,380.544 338.892,380.167 338.892,379.765 L338.892,368.019 L338.892,356.273 C338.892,356.156 338.892,356.039 338.904,355.947 L351.065,365.084 L351.065,365.084 Z" id="path3307" fill="#000000"></path>
                <path d="M485.869,287.395 C464.939,287.395 448.547,297.92 448.547,311.357 C448.547,311.7 448.568,312.039 448.591,312.38 L448.547,312.38 C448.547,312.38 448.536,319.931 448.5,329.499 C448.48,342.464 448.447,359.137 448.447,365.796 C448.447,379.219 464.784,389.745 485.656,389.745 C506.461,389.745 522.754,379.219 522.754,365.796 C522.754,362.139 522.799,355.282 522.854,347.655 C522.989,331.452 523.179,311.684 523.191,311.395 L523.191,311.355 C523.19,297.92 506.797,287.395 485.869,287.395 L485.869,287.395 L485.869,287.395 Z M517.836,330.521 C517.823,331.844 517.813,333.194 517.803,334.571 L517.803,335.161 C517.566,335.593 517.312,336.014 517.02,336.432 C515.954,337.992 514.554,339.461 512.863,340.798 C506.717,345.687 496.805,348.926 485.867,348.926 C477.336,348.926 469.44,346.952 463.458,343.767 L463.458,347.188 C469.569,350.181 477.326,351.953 485.869,351.953 C497.458,351.953 507.614,348.702 514.154,343.551 C515.518,342.49 516.729,341.322 517.758,340.103 C517.714,344.35 517.682,348.6 517.646,352.453 L517.646,353.592 C513.203,361.325 500.449,367.065 485.87,367.065 C477.337,367.065 469.441,365.09 463.459,361.907 L463.459,365.325 C469.57,368.317 477.322,370.095 485.872,370.095 C499.768,370.095 511.592,365.428 517.615,358.417 C517.605,361.458 517.594,363.999 517.594,365.796 C517.594,375.497 502.97,383.701 485.659,383.701 C468.52,383.701 454.013,375.714 453.627,366.184 L453.608,366.184 L453.608,365.796 L453.608,365.034 L453.608,333.499 L453.655,333.499 C453.658,332.716 453.662,331.928 453.662,331.163 C453.675,328.751 453.675,326.457 453.685,324.334 C453.754,324.189 453.82,324.032 453.911,323.89 C454.504,324.532 455.153,325.147 455.837,325.737 C456.196,326.05 456.566,326.352 456.947,326.654 C457.303,326.93 457.663,327.204 458.044,327.48 C459.913,328.816 462.018,330.012 464.335,331.045 C470.382,333.746 477.785,335.319 485.869,335.319 C493.953,335.319 501.354,333.746 507.401,331.045 C509.706,330.012 511.813,328.816 513.694,327.48 C514.062,327.204 514.432,326.943 514.792,326.654 C515.183,326.352 515.554,326.05 515.912,325.737 C516.593,325.146 517.242,324.532 517.837,323.901 C517.859,323.941 517.883,323.994 517.901,324.032 C517.882,326.064 517.858,328.239 517.836,330.521 L517.836,330.521 L517.836,330.521 Z M518.017,311.371 C518.017,313.402 517.367,315.369 516.18,317.203 C515.934,317.609 515.642,318.003 515.317,318.396 C515.027,318.777 514.714,319.144 514.368,319.497 C514.064,319.826 513.75,320.14 513.428,320.429 C513.081,320.755 512.72,321.071 512.341,321.372 C511.993,321.647 511.636,321.924 511.255,322.198 C509.171,323.704 506.662,325.015 503.853,326.09 C498.692,328.084 492.477,329.264 485.871,329.264 C479.265,329.264 473.047,328.084 467.888,326.09 C465.077,325.015 462.57,323.692 460.487,322.198 C460.104,321.924 459.748,321.646 459.4,321.372 C459.019,321.071 458.66,320.755 458.315,320.429 C457.989,320.127 457.677,319.826 457.374,319.497 C457.026,319.144 456.713,318.776 456.422,318.396 C456.098,318.004 455.819,317.61 455.57,317.203 C454.372,315.369 453.723,313.39 453.723,311.357 C453.723,301.643 468.447,293.451 485.871,293.451 L485.892,293.451 C503.302,293.465 518.018,301.644 518.018,311.357 L518.018,311.371 L518.017,311.371 L518.017,311.371 Z" id="path3309" fill="#000000"></path>
                <path d="M663.527,289.312 L614.695,289.312 L607.642,289.312 L602.193,289.312 C600.254,289.312 597.476,290.362 596.021,291.643 L595.24,292.332 C593.784,293.615 592.594,296.252 592.594,298.191 L592.594,300.883 L592.594,301.468 L592.594,384.494 C592.594,386.433 594.182,388.02 596.12,388.02 L657.45,388.02 C659.391,388.02 660.976,386.433 660.976,384.494 L660.976,300.883 C660.976,298.943 659.391,297.356 657.45,297.356 L616.453,297.356 C616.453,296.072 615.413,295.032 614.131,295.032 C612.851,295.032 611.812,296.072 611.812,297.356 L611.812,298.268 L611.812,321.557 L605.972,315.855 L600.917,321.557 L600.917,297.355 L596.12,297.355 C596.094,297.355 596.072,297.361 596.047,297.363 L599.839,293.018 L611.166,293.018 L663.471,293.018 L663.471,381.15 L663.527,381.15 C665.465,381.15 667.053,379.562 667.053,377.624 L667.053,292.838 C667.053,290.898 665.465,289.312 663.527,289.312" id="path3311" fill="#000000"></path>
                <path d="M3.591,440.358 L103.591,440.358 L103.591,524.973 L3.591,524.973 L3.591,440.358 L3.591,440.358 Z M11.284,517.282 L95.899,517.282 L95.899,455.743 L11.284,455.743 L11.284,517.282 L11.284,517.282 Z M18.976,467.282 L30.514,467.282 L42.053,482.667 L30.514,498.052 L18.976,498.052 L30.514,482.667 L18.976,467.282 L18.976,467.282 Z" id="path3313" fill="#000000"></path>
                <path d="M209.585,528.392 C205.004,530.185 199.859,531.177 194.143,531.177 C188.188,531.177 182.537,529.821 177.401,527.462 C175.078,526.343 173.521,524.876 173.521,522.968 L173.521,517.341 C162.167,510.616 153.871,498.294 151.473,482.749 C149.871,481.661 148.938,480.386 148.938,478.884 C148.938,477.38 149.805,476.267 150.633,475.548 C152.242,474.149 155.065,473.042 158.539,472.165 C160.842,468.647 164.815,466.317 169.322,466.317 C171.047,466.317 172.695,466.659 174.202,467.274 C176.123,463.925 179.713,461.845 183.562,461.845 C184.206,461.845 184.837,461.903 185.452,462.013 C186.463,457.042 190.888,453.384 196.023,453.384 C201.759,453.384 206.449,457.862 206.788,463.515 C209.12,463.729 211.345,464.718 213.074,466.298 L227.288,438.423 C229.179,434.931 234.418,437.767 232.527,441.255 L219.094,465.058 C219.882,465.083 220.65,465.192 221.396,465.378 L241.398,434.599 C243.642,431.323 248.558,434.69 246.316,437.966 L225.396,467.343 C226.889,468.505 228.074,470.052 228.792,471.849 C235.075,473.335 239.654,475.556 239.654,478.884 C239.654,480.532 238.531,481.909 236.629,483.061 C234.084,497.311 227.079,510.196 215.484,517.272 L215.484,522.968 C215.484,525.409 212.96,527.196 209.585,528.392 M194.143,527.601 C199.443,527.601 204.199,526.663 208.337,525.044 C209.814,524.52 210.889,523.936 211.476,523.433 C211.754,523.194 211.87,523.038 211.909,522.968 L211.95,519.181 C206.801,521.608 200.868,522.983 194.143,522.983 C188.106,522.983 182.363,521.673 177.144,519.253 L177.231,523.106 C177.489,523.39 178.009,523.792 178.924,524.233 C183.617,526.379 188.75,527.601 194.143,527.601 M232.829,484.77 C221.475,488.688 199.441,488.897 194.298,488.897 C189.106,488.897 166.694,488.686 155.441,484.653 C159.679,505.749 175.606,519.411 194.143,519.411 C213.379,519.409 228.668,505.811 232.829,484.77 M217.297,468.232 L212.896,476.035 C213.324,476.162 213.743,476.326 214.15,476.525 L219.639,468.078 C219.35,468.047 219.062,468.031 218.767,468.031 C218.254,468.03 217.767,468.107 217.297,468.232 M229.546,476.102 C231.582,476.815 233.268,478.362 234.167,480.376 C236.148,479.399 236.437,478.64 236.437,478.464 C236.437,478.317 236.23,477.749 234.98,476.991 C234.277,476.565 233.241,476.077 231.725,475.569 C231.036,475.339 230.296,475.118 229.514,474.915 C229.541,475.218 229.554,475.524 229.554,475.837 C229.552,475.927 229.55,476.017 229.546,476.102 M225.012,475.915 C225.536,475.782 226.059,475.704 226.574,475.679 C226.527,473.267 225.389,471.159 223.671,469.77 L217.105,478.999 C217.254,479.206 217.396,479.423 217.531,479.645 C218.538,481.354 215.969,482.868 214.967,481.155 C213.161,478.095 208.622,477.683 206.54,480.933 C205.468,482.604 202.96,480.995 204.033,479.325 C205.077,477.698 206.507,476.644 208.074,476.114 L211.652,469.093 C210.175,467.427 208.027,466.45 205.797,466.45 C203.902,466.45 203.833,465.774 203.833,464.169 C203.833,459.858 200.337,456.364 196.025,456.364 C191.789,456.364 188.344,459.765 188.223,463.935 C188.219,464.054 188.206,464.163 188.191,464.261 C191.388,464.073 194.696,465.638 196.394,468.876 C197.318,470.636 194.679,472.019 193.757,470.259 C191.601,466.151 185.511,466.136 183.64,470.636 C182.877,472.466 180.127,471.323 180.888,469.489 C181.77,467.372 183.272,465.901 185.02,465.067 C184.469,464.948 183.95,464.829 183.565,464.829 C178.625,464.829 177.375,468.296 176.15,469.94 C177.349,470.145 178.519,470.608 179.57,471.345 C181.197,472.485 179.487,474.921 177.861,473.784 C175.05,471.813 170.926,472.868 169.536,476.212 C168.772,478.046 166.023,476.899 166.786,475.069 C167.948,472.274 170.341,470.524 172.977,469.989 C171.848,469.542 170.615,469.296 169.325,469.296 C163.863,469.296 159.422,473.745 159.422,479.198 C159.422,481.185 156.443,481.185 156.443,479.198 C156.443,477.899 156.636,476.644 156.997,475.466 C155.591,475.917 154.402,476.427 153.51,476.991 C153.224,477.171 152.968,477.36 152.745,477.554 C152.26,477.974 152.159,478.28 152.159,478.462 C152.159,478.692 152.666,479.942 156.875,481.356 C160.527,482.579 165.569,483.446 170.896,484.038 C172.841,484.255 174.799,484.435 176.711,484.577 C178.007,480.786 182.286,478.31 186.911,478.31 C189.934,478.31 192.715,479.335 194.678,481.054 C196.172,482.36 194.209,484.603 192.717,483.296 C191.345,482.095 189.28,481.286 186.911,481.286 C183.556,481.286 180.972,482.852 179.875,484.794 C187.071,485.239 193.065,485.257 194.301,485.257 C196.031,485.257 207.083,485.22 217.704,484.038 C222.868,483.46 227.771,482.63 231.393,481.462 C230.418,479.421 228.148,478.192 225.743,478.8 C223.818,479.29 223.083,476.4 225.012,475.915" id="path3315" fill="#000000"></path>
                <path d="M389.524,443.208 C389.217,442.898 388.792,442.72 388.356,442.72 C387.284,442.72 386.214,442.767 385.144,442.837 L385.18,440.079 C385.189,439.495 384.962,438.931 384.55,438.515 C384.139,438.099 383.578,437.825 382.993,437.825 C382.327,437.825 381.659,437.837 380.992,437.837 L381.001,437.837 L381.028,435.614 C381.035,435.031 380.808,434.486 380.396,434.072 C379.987,433.656 379.424,433.431 378.84,433.431 C360.065,433.431 341.798,449.958 336.431,455.243 C323.193,443.003 305.501,435.052 304.725,434.706 C304.04,434.402 303.246,434.47 302.622,434.888 C301.998,435.306 301.63,436.013 301.65,436.761 L301.723,439.644 C301.756,439.657 301.8,439.679 301.833,439.693 C301.099,439.374 300.635,439.181 300.52,439.134 C299.836,438.853 299.056,438.935 298.447,439.359 C297.838,439.779 297.483,440.478 297.504,441.216 L297.594,444.464 C296.585,444.083 296.003,443.876 295.968,443.866 C295.464,443.689 294.891,443.773 294.454,444.091 C294.019,444.413 293.768,444.925 293.786,445.466 L295.972,512.907 C295.997,513.683 296.572,514.343 297.337,514.47 C315.319,517.531 336.79,530.966 337.007,531.103 C337.27,531.267 337.573,531.355 337.882,531.355 C338.078,531.355 338.27,531.32 338.451,531.251 C357.972,524.001 387.363,516.624 387.658,516.552 C388.38,516.372 388.89,515.73 388.902,514.988 L389.995,444.384 C390.003,443.946 389.832,443.521 389.524,443.208 L389.524,443.208 L389.524,443.208 Z M297.144,447.799 C303.555,450.246 321.806,457.705 334.877,467.785 C335.04,467.91 335.226,467.99 335.422,468.043 C334.717,468.264 334.211,468.973 334.24,469.738 L336.351,526.865 C336.182,526.766 336.011,526.664 335.827,526.557 L332.598,468.449 C327.605,462.457 301.644,450.998 297.184,449.059 L297.144,447.799 L297.144,447.799 Z M338.319,491.272 L343.485,494.949 L338.562,497.865 L338.319,491.272 L338.319,491.272 Z M338.615,499.278 L343.674,500.719 L338.855,505.809 L338.615,499.278 L338.615,499.278 Z M339.649,527.324 L338.87,506.207 L345.701,505.938 L342.309,512.553 L349.368,510.09 L348.129,517.164 L354.323,512.774 L355.346,519.614 L360.066,513.721 L363.262,519.66 L366.042,512.842 L371.098,517.301 L371.67,510.223 L378.089,512.76 L376.396,506.121 L383.549,506.489 L379.763,500.93 L385.864,499.373 L385.642,513.68 C380.061,515.108 356.898,521.141 339.649,527.324 L339.649,527.324 L339.649,527.324 Z M360.663,507.086 C360.663,505.576 362.268,504.352 364.251,504.352 C366.232,504.352 367.838,505.576 367.838,507.086 C367.838,508.596 366.233,509.819 364.251,509.819 C362.269,509.819 360.663,508.596 360.663,507.086 L360.663,507.086 L360.663,507.086 Z M381.428,495.168 L385.971,492.481 L385.879,498.336 L381.428,495.168 L381.428,495.168 Z M381.237,489.399 L386.096,484.266 L385.996,490.758 L381.237,489.399 L381.237,489.399 Z M386.104,483.91 L379.215,484.182 L382.604,477.569 L375.547,480.03 L376.786,472.957 L373.804,475.071 L369.033,504.352 C366.642,502.166 360.663,504.352 360.663,504.352 L354.607,473.52 L353.817,472.822 L353.244,479.899 L347.424,477.598 C347.824,477.403 348.189,477.231 348.482,477.102 C349.294,476.74 350.132,476.369 348.131,463.688 C348.079,463.35 347.873,463.059 347.574,462.897 C347.274,462.735 346.918,462.717 346.608,462.856 C346.445,462.93 342.569,464.653 339.589,466.414 C339.228,466.627 339.02,467.026 339.055,467.442 L340.041,479.688 C340.07,480.055 340.283,480.381 340.606,480.559 C340.769,480.649 340.949,480.694 341.13,480.694 C341.307,480.694 341.484,480.651 341.645,480.565 C341.683,480.543 344.724,478.928 346.948,477.828 L348.518,484 L341.367,483.633 L345.151,489.192 L338.307,490.938 L337.516,469.514 C337.489,468.785 336.989,468.219 336.325,468.037 C336.545,467.977 336.757,467.887 336.934,467.74 C337.183,467.53 361.881,446.934 386.689,446.028 L386.104,483.91 L386.104,483.91 Z M342.088,477.86 L341.29,467.955 C343.002,466.985 344.94,466.041 346.19,465.455 C346.8,469.578 347.285,473.969 347.171,475.293 C345.782,475.942 343.555,477.092 342.088,477.86 L342.088,477.86 L342.088,477.86 Z M351.474,453.992 C350.73,454.41 350.01,454.828 349.306,455.244 C357.557,449.453 369.136,443.051 380.781,442.307 L380.768,443.293 C369.55,444.93 358.95,449.787 351.474,453.992 L351.474,453.992 L351.474,453.992 Z M376.629,437.836 C367.075,440.024 357.939,444.096 350.623,448.77 C357.78,443.6 367.184,438.227 376.629,437.494 L376.625,437.836 L376.629,437.836 L376.629,437.836 Z M378.828,438.086 C378.794,438.09 378.76,438.096 378.723,438.1 C378.76,438.096 378.794,438.09 378.828,438.086 L378.828,438.086 L378.828,438.086 Z M336.444,459.831 C336.251,460.005 336.069,460.167 335.902,460.322 C336.068,460.167 336.251,460.002 336.444,459.831 L336.444,459.831 L336.444,459.831 Z M350.324,449.235 C349.964,449.467 349.606,449.699 349.254,449.932 C349.606,449.699 349.964,449.467 350.324,449.235 L350.324,449.235 L350.324,449.235 Z M348.714,450.295 C348.447,450.473 348.18,450.653 347.917,450.832 C348.18,450.653 348.447,450.473 348.714,450.295 L348.714,450.295 L348.714,450.295 Z M347.358,451.217 C347.112,451.387 346.867,451.559 346.628,451.727 C346.868,451.559 347.11,451.387 347.358,451.217 L347.358,451.217 L347.358,451.217 Z M346.081,452.115 C345.845,452.283 345.611,452.453 345.381,452.619 C345.611,452.453 345.845,452.283 346.081,452.115 L346.081,452.115 L346.081,452.115 Z M344.87,452.99 C344.632,453.166 344.398,453.342 344.167,453.514 C344.398,453.342 344.632,453.167 344.87,452.99 L344.87,452.99 L344.87,452.99 Z M343.716,453.85 C343.463,454.039 343.219,454.229 342.975,454.416 C343.219,454.227 343.463,454.04 343.716,453.85 L343.716,453.85 L343.716,453.85 Z M342.619,454.69 C341.904,455.24 341.229,455.778 340.595,456.289 C341.229,455.778 341.904,455.24 342.619,454.69 L342.619,454.69 L342.619,454.69 Z M340.311,456.522 C340.094,456.699 339.878,456.877 339.671,457.047 C339.878,456.877 340.091,456.699 340.311,456.522 L340.311,456.522 L340.311,456.522 Z M339.361,457.307 C339.175,457.463 338.99,457.615 338.812,457.766 C338.99,457.615 339.173,457.461 339.361,457.307 L339.361,457.307 L339.361,457.307 Z M338.512,458.021 C338.343,458.165 338.176,458.308 338.016,458.447 C338.178,458.307 338.342,458.165 338.512,458.021 L338.512,458.021 L338.512,458.021 Z M337.747,458.678 C337.585,458.819 337.429,458.955 337.276,459.088 C337.429,458.956 337.584,458.819 337.747,458.678 L337.747,458.678 L337.747,458.678 Z M337.061,459.278 C336.898,459.422 336.744,459.561 336.594,459.694 C336.744,459.561 336.897,459.424 337.061,459.278 L337.061,459.278 L337.061,459.278 Z M332.041,457.19 C322.769,450.059 312.39,444.631 306.152,441.662 L306.115,440.227 C311.511,442.932 322.792,449.067 332.041,457.19 L332.041,457.19 L332.041,457.19 Z M304.948,441.096 C304.832,441.041 304.718,440.988 304.605,440.936 C304.719,440.99 304.831,441.042 304.948,441.096 L304.948,441.096 L304.948,441.096 Z M303.703,440.524 C303.656,440.502 303.602,440.479 303.556,440.457 C303.603,440.477 303.655,440.502 303.703,440.524 L303.703,440.524 L303.703,440.524 Z M302.67,440.059 C302.585,440.022 302.505,439.985 302.425,439.951 C302.506,439.985 302.583,440.021 302.67,440.059 L302.67,440.059 L302.67,440.059 Z M301.973,444.551 C306.438,446.596 315.069,450.826 323.603,456.533 C315.452,451.936 307.327,448.362 302.018,446.199 L301.973,444.551 L301.973,444.551 Z" id="path3317" fill="#000000"></path>
                <path d="M353.371,460.796 L361.023,503.434 C361.023,503.434 363.454,502.464 365.72,502.464 C366.854,502.464 367.948,502.706 368.676,503.434 L376.329,452.05 C376.33,452.05 356.65,455.331 353.371,460.796 M371.086,457.577 L365.049,498.108 C364.872,498.118 364.695,498.13 364.518,498.147 L358.067,462.202 C360.236,460.747 365.348,458.944 371.086,457.577" id="path3319" fill="#000000"></path>
                <rect id="rect3321" fill="#000000" x="437.81799" y="435.16299" width="45" height="45"></rect>
                <rect id="rect3323" fill="#000000" x="488.819" y="435.16299" width="45" height="45"></rect>
                <rect id="rect3325" fill="#000000" x="437.81799" y="485.354" width="45" height="45"></rect>
                <rect id="rect3327" fill="#000000" x="488.819" y="485.354" width="45" height="45"></rect>
                <path d="M660.748,529.906 L629.849,507.453 L598.948,529.906 L610.751,493.578 L579.85,471.127 L618.045,471.127 L629.85,434.801 L641.655,471.127 L679.85,471.127 L648.95,493.578 L660.748,529.906 L660.748,529.906 Z M629.849,502.506 L653.135,519.424 L644.241,492.051 L667.526,475.131 L638.743,475.131 L629.848,447.756 L620.952,475.131 L592.17,475.131 L615.457,492.051 L606.561,519.424 L629.849,502.506 L629.849,502.506 Z" id="path3329" fill="#000000"></path>
                <path d="M79.284,678.667 L17.622,678.667 L17.622,612.073 L40.013,591.311 L56.893,591.311 L79.284,612.075 L79.284,678.667 L79.284,678.667 Z M27.899,668.389 L69.006,668.389 L69.006,616.561 L52.861,601.588 L44.045,601.588 L27.899,616.561 L27.899,668.389 L27.899,668.389 Z M43.315,634.989 L38.174,634.989 L38.174,661.966 L43.315,661.966 L43.315,634.989 L43.315,634.989 Z M58.729,634.989 L53.591,634.989 L53.591,661.966 L58.729,661.966 L58.729,634.989 L58.729,634.989 Z M48.451,626.524 C42.431,626.524 37.534,621.624 37.534,615.604 C37.534,609.583 42.431,604.686 48.451,604.686 C54.473,604.686 59.372,609.582 59.372,615.604 C59.372,621.624 54.473,626.524 48.451,626.524 L48.451,626.524 L48.451,626.524 Z M48.451,611.106 C45.974,611.106 43.956,613.124 43.956,615.604 C43.956,618.081 45.974,620.1 48.451,620.1 C50.931,620.1 52.949,618.084 52.949,615.604 C52.949,613.125 50.931,611.106 48.451,611.106 L48.451,611.106 L48.451,611.106 Z M48.638,617.004 C47.399,617.004 46.307,616.104 46.105,614.838 C43.737,599.994 60.668,589.908 72.821,584.668 C73.894,582.475 74.898,580.36 75.77,578.451 C77.801,574.013 81.372,572.955 84.039,573.439 C87.043,573.988 89.36,576.41 89.549,579.197 C89.648,580.653 89.252,584.242 83.479,586.123 C81.177,586.875 78.867,587.713 76.598,588.631 C73.609,594.649 70.166,601.088 67.383,605.457 C66.619,606.651 65.032,607.004 63.834,606.242 C62.638,605.478 62.286,603.89 63.05,602.695 C64.816,599.922 66.944,596.119 69.062,592.082 C58.104,597.764 49.803,605.408 51.179,614.029 C51.4,615.431 50.446,616.748 49.046,616.972 C48.911,616.995 48.773,617.004 48.638,617.004 L48.638,617.004 L48.638,617.004 Z M82.802,578.465 C81.603,578.465 80.818,579.766 80.443,580.586 C80.243,581.026 80.035,581.473 79.821,581.936 C80.586,581.666 81.28,581.436 81.884,581.237 C83.844,580.6 84.439,579.818 84.42,579.542 C84.398,579.208 83.877,578.632 83.114,578.493 C83.008,578.475 82.904,578.465 82.802,578.465 L82.802,578.465 L82.802,578.465 Z" id="path3331" fill="#000000"></path>
                <path d="M243.105,643.114 C239.36,641.448 235.344,641.198 231.659,642.139 C228.28,625.914 217.929,611.795 203.334,603.739 C204.926,599.432 208.427,596.2 212.656,594.854 C210.833,593.411 208.641,592.379 206.194,591.93 C200.048,590.805 194.095,593.688 191.024,598.719 C189.377,598.264 187.701,597.879 185.989,597.565 C171.178,594.856 148.7,595.17 150.821,610.282 C139.593,618.079 144.095,619.675 150.64,617.667 C160.142,614.856 170.111,615.28 180.494,616.669 C179.951,617.462 179.825,616.954 179.379,619.388 C178.934,621.822 181.23,626.95 185.09,627.656 L185.107,627.658 C184.068,626.16 183.607,624.254 183.958,622.334 C184.309,620.414 185.384,618.84 186.852,617.807 C202.293,621.268 219.353,630.854 228.769,643.151 C224.977,644.858 221.773,647.913 219.949,652.011 C218.648,654.932 218.214,658.016 218.529,660.981 C221.383,655.614 233.974,653.454 232.628,648.706 C236.604,652.134 244.016,647.442 250.489,649.294 C248.715,646.668 246.21,644.497 243.105,643.114" id="path3333" fill="#000000"></path>
                <path d="M532.239,634.29 L516.039,634.29 L516.039,629.126 L522.542,629.126 L522.542,623.642 L486.943,623.642 L486.943,618.376 L503.144,618.376 C506.845,618.376 507.244,615.728 507.244,614.591 L507.244,595.533 C507.244,592.686 505.866,591.245 503.144,591.245 L468.393,591.245 C466.523,591.245 464.292,591.989 464.292,595.533 L464.292,614.591 C464.292,616.005 464.826,618.376 468.393,618.376 L484.594,618.376 L484.594,623.642 L449.025,623.642 L449.025,629.126 L455.599,629.126 L455.599,634.218 L439.399,634.218 C437.527,634.218 435.297,634.96 435.297,638.505 L435.297,657.562 C435.297,658.976 435.83,661.347 439.399,661.347 L474.151,661.347 C477.85,661.347 478.25,658.7 478.25,657.562 L478.25,638.505 C478.25,635.658 476.871,634.218 474.151,634.218 L457.947,634.218 L457.947,629.126 L513.69,629.126 L513.69,634.292 L497.487,634.292 C495.617,634.292 493.388,635.033 493.388,638.579 L493.388,657.638 C493.388,659.052 493.919,661.423 497.487,661.423 L532.239,661.423 C535.938,661.423 536.339,658.777 536.339,657.638 L536.339,638.579 C536.339,635.733 534.96,634.29 532.239,634.29 L532.239,634.29 L532.239,634.29 Z M467.824,614.792 C467.818,614.741 467.815,614.675 467.815,614.591 L467.815,595.533 C467.815,595.143 467.852,594.93 467.879,594.824 C467.964,594.807 468.124,594.783 468.393,594.783 L503.144,594.783 C503.41,594.783 503.57,594.804 503.662,594.821 C503.687,594.932 503.722,595.147 503.722,595.533 L503.722,614.591 C503.722,614.675 503.719,614.741 503.713,614.79 C503.609,614.813 503.431,614.837 503.145,614.837 L468.394,614.837 C468.113,614.836 467.934,614.815 467.824,614.792 L467.824,614.792 L467.824,614.792 Z M474.665,637.793 C474.693,637.904 474.727,638.121 474.727,638.504 L474.727,657.561 C474.727,657.647 474.723,657.711 474.716,657.76 C474.613,657.781 474.433,657.805 474.149,657.805 L439.399,657.805 C439.119,657.805 438.936,657.783 438.828,657.762 C438.824,657.711 438.819,657.647 438.819,657.561 L438.819,638.504 C438.819,638.115 438.855,637.902 438.881,637.797 C438.969,637.777 439.128,637.756 439.399,637.756 L474.151,637.756 C474.414,637.756 474.576,637.776 474.665,637.793 L474.665,637.793 L474.665,637.793 Z M532.819,657.637 C532.819,657.719 532.814,657.784 532.807,657.836 C532.702,657.856 532.524,657.881 532.239,657.881 L497.487,657.881 C497.209,657.881 497.027,657.86 496.919,657.838 C496.914,657.787 496.91,657.719 496.91,657.637 L496.91,638.578 C496.91,638.187 496.947,637.976 496.973,637.871 C497.06,637.851 497.218,637.832 497.487,637.832 L532.239,637.832 C532.504,637.832 532.665,637.85 532.756,637.866 C532.783,637.978 532.819,638.195 532.819,638.578 L532.819,657.637 L532.819,657.637 Z" id="path3335" fill="#000000"></path>
                <path d="M680.287,662.498 L580.287,662.498 L580.287,589.498 L680.287,589.498 L680.287,662.498 L680.287,662.498 Z M588.287,654.498 L672.287,654.498 L672.287,597.498 L588.287,597.498 L588.287,654.498 L588.287,654.498 Z" id="path3337" fill="#000000"></path>
                <path d="M594.286,648.497 L666.286,648.497 L648.286,624.497 L637.286,633.497 L615.286,603.497 L594.286,648.497 L594.286,648.497 Z" id="polygon3339" fill="#000000"></path>
                <path d="M657.286,604.497 C661.152,604.497 664.286,607.63 664.286,611.497 C664.286,615.362 661.152,618.497 657.286,618.497 C653.42,618.497 650.286,615.362 650.286,611.497 C650.286,607.629 653.42,604.497 657.286,604.497" id="path3341" fill="#000000"></path>
                <path d="M56.096,818.667 L54.75,818.667 L37.264,818.667 C39.728,818.667 39.954,820.667 39.954,820.667 L54.75,820.667 L56.096,820.667 L70.892,820.667 C70.892,820.667 71.118,818.667 73.582,818.667 L56.096,818.667 L56.096,818.667 Z" id="path3343" fill="#000000"></path>
                <path d="M54.75,725.667 L56.096,725.667 L73.582,725.667 C71.116,725.667 70.892,720.667 70.892,720.667 L56.096,720.667 L54.75,720.667 L39.954,720.667 C39.954,720.667 39.726,725.667 37.264,725.667 L54.75,725.667 L54.75,725.667 Z" id="path3345" fill="#000000"></path>
                <path d="M37.422,817.667 L73.422,817.667 L73.422,726.667 L37.422,726.667 L37.422,817.667 L37.422,817.667 Z M62.065,776.288 L44.288,791.214 L55.056,777.142 L44.288,766.767 L52.491,751.667 L66.848,751.667 L54.543,766.968 L62.065,776.288 L62.065,776.288 Z" id="path3347" fill="#000000"></path>
                <path d="M249.713,788.957 L249.582,787.603 L233.993,790.587 C234.049,786.78 234.193,776.198 234.174,764.73 C234.172,762.959 234.174,761.162 234.174,759.365 C234.178,748.662 234.184,737.595 233.397,731.281 C232.932,727.551 230.568,721.668 226.205,721.668 L226.135,721.668 C210.973,721.881 163.816,727.828 156.015,728.824 C154.196,728.801 152.66,729.429 151.454,730.715 C147.443,734.99 148.749,745.285 148.806,745.723 L148.969,746.958 L164.185,744.871 C165.396,753.527 165.159,765.113 164.938,775.941 C164.885,778.554 164.829,781.252 164.795,783.863 C164.773,785.424 164.74,786.967 164.705,788.48 C164.377,803.261 164.094,816.027 177.17,819.023 C178.237,819.265 179.243,819.388 180.189,819.388 C181.152,819.388 182.052,819.261 182.888,819.007 L182.914,819.123 L243.143,805.772 L243.223,805.752 C243.421,805.693 248.109,804.264 249.38,798.832 C250.288,794.961 249.737,789.198 249.713,788.957 L249.713,788.957 L249.713,788.957 Z M151.136,744.157 C150.88,740.903 150.933,734.889 153.26,732.411 C153.808,731.829 154.457,731.481 155.227,731.354 L155.237,731.422 C155.276,731.418 155.606,731.375 156.174,731.303 C156.206,731.303 156.237,731.303 156.27,731.305 C160.321,731.581 162.572,735.932 163.788,742.424 L151.136,744.157 L151.136,744.157 Z M184.254,815.44 C182.694,816.875 180.558,817.252 177.725,816.606 C166.618,814.063 166.866,802.799 167.184,788.536 C167.217,787.016 167.252,785.466 167.273,783.895 C167.308,781.295 167.362,778.647 167.416,775.995 C167.643,764.907 167.876,753.438 166.694,744.751 C165.737,737.72 163.876,733.063 161.057,730.687 C175.553,728.876 213.049,724.333 226.17,724.148 L226.202,724.148 C228.891,724.148 230.612,728.986 230.937,731.589 C231.705,737.75 231.698,748.737 231.695,759.364 C231.693,761.163 231.693,762.96 231.695,764.735 C231.715,776.75 231.555,787.792 231.505,791.063 L186.959,799.598 L187.125,800.766 C187.548,803.725 187.853,812.131 184.254,815.44 L184.254,815.44 L184.254,815.44 Z M246.966,798.27 C246.069,802.11 242.91,803.249 242.556,803.366 L187.33,815.608 C190.216,811.251 189.952,804.346 189.709,801.594 L247.342,790.555 C247.45,792.428 247.534,795.848 246.966,798.27 L246.966,798.27 L246.966,798.27 Z" id="path3349" fill="#000000"></path>
                <path d="M292.209,731.932 L292.209,736.075 L292.209,806.257 L292.209,810.4 L296.243,810.4 L388.92,810.4 L392.953,810.4 L392.953,806.257 L392.953,736.075 L392.953,731.932 L388.92,731.932 L296.243,731.932 L292.209,731.932 L292.209,731.932 Z M300.277,740.219 L384.885,740.219 L384.885,802.114 L300.277,802.114 L300.277,740.219 L300.277,740.219 Z" id="path3351" fill="#000000"></path>
                <path d="M305.77,745.184 L305.77,745.842 L305.77,796.456 L305.77,797.113 L306.384,797.113 L379.008,797.113 L379.667,797.113 L379.667,796.456 L379.667,745.842 L379.667,745.184 L379.008,745.184 L306.384,745.184 L305.77,745.184 L305.77,745.184 Z M307.043,746.5 L378.349,746.5 L378.349,795.795 L307.043,795.795 L307.043,746.5 L307.043,746.5 Z" id="path3353" fill="#000000"></path>
                <path d="M368.684,771.057 C368.974,770.543 369.28,770.037 369.589,769.536 C369.891,770.05 370.184,770.573 370.512,771.075 C370.937,770.655 371.401,770.28 371.843,769.881 C371.961,770.468 372.098,771.05 372.234,771.636 C372.773,771.402 373.317,771.169 373.862,770.943 C373.836,771.535 373.758,772.125 373.717,772.716 C374.303,772.652 374.89,772.601 375.476,772.554 C375.251,773.107 375.008,773.652 374.779,774.199 C375.358,774.318 375.93,774.451 376.505,774.578 C376.141,775.045 375.724,775.468 375.367,775.941 C375.863,776.244 376.369,776.537 376.875,776.836 C376.373,777.158 375.854,777.455 375.345,777.762 C375.741,778.2 376.123,778.645 376.51,779.092 C375.941,779.244 375.359,779.363 374.784,779.496 C375.009,780.05 375.264,780.588 375.476,781.144 C374.89,781.085 374.303,781.039 373.721,780.974 C373.754,781.57 373.815,782.16 373.862,782.756 C373.317,782.521 372.777,782.278 372.23,782.068 C372.17,782.34 372.063,782.627 372.178,782.9 C373.125,785.748 374.081,788.591 375.047,791.435 C374.274,790.988 373.529,790.499 372.76,790.052 C372.362,790.814 371.987,791.587 371.566,792.335 C371.511,792.165 371.468,791.991 371.425,791.815 C370.839,789.245 370.218,786.676 369.636,784.106 L369.526,784.106 C369.062,786.126 368.584,788.139 368.115,790.155 C367.941,790.868 367.804,791.591 367.598,792.292 C367.175,791.544 366.81,790.771 366.406,790.015 C365.637,790.466 364.893,790.951 364.124,791.396 C365.102,788.57 366.011,785.722 366.979,782.896 C367.07,782.623 367.001,782.334 366.933,782.068 C366.381,782.279 365.841,782.527 365.296,782.756 C365.335,782.159 365.406,781.569 365.442,780.97 C364.855,781.029 364.273,781.081 363.687,781.144 C363.911,780.592 364.158,780.049 364.378,779.496 C363.81,779.363 363.232,779.244 362.661,779.1 C363.036,778.641 363.439,778.204 363.821,777.754 C363.302,777.461 362.793,777.158 362.287,776.836 C362.801,776.537 363.299,776.227 363.818,775.941 C363.439,775.48 363.018,775.052 362.657,774.578 C363.231,774.455 363.804,774.318 364.378,774.199 C364.153,773.652 363.915,773.103 363.687,772.554 C364.278,772.583 364.864,772.652 365.446,772.716 C365.416,772.124 365.348,771.534 365.305,770.943 C365.849,771.166 366.384,771.42 366.938,771.619 C367.065,771.043 367.21,770.469 367.32,769.887 C367.774,770.276 368.204,770.696 368.684,771.057 M369.368,772.028 C367.957,772.073 366.588,772.809 365.78,773.966 C364.876,775.198 364.676,776.894 365.198,778.325 C365.554,779.354 366.32,780.225 367.26,780.77 C368.583,781.53 370.282,781.565 371.655,780.901 C372.408,780.544 373.036,779.954 373.504,779.266 C374.541,777.692 374.499,775.483 373.386,773.959 C372.5,772.68 370.916,771.932 369.368,772.028" id="path3355" fill="#000000"></path>
                <path d="M369.283,772.366 C370.957,772.223 372.662,773.188 373.419,774.688 C373.801,775.383 373.933,776.192 373.895,776.979 C373.818,778.907 372.267,780.655 370.363,780.965 C368.684,781.291 366.848,780.518 365.943,779.061 C364.948,777.586 365.029,775.495 366.118,774.088 C366.848,773.084 368.042,772.448 369.283,772.366" id="path3357" fill="#000000"></path>
                <path d="M343.579,755.965 L343.544,758.248 C352.687,758.342 359.268,759.633 363.578,760.955 C368.052,762.328 370.046,763.628 370.046,763.628 L371.275,761.799 C371.275,761.799 368.933,760.285 364.246,758.846 C359.73,757.462 352.922,756.065 343.579,755.965 L343.579,755.965 L343.579,755.965 Z M338.94,756.001 C334.63,756.16 330.944,756.59 327.798,757.16 L328.255,759.373 C331.319,758.846 334.937,758.428 339.151,758.283 L339.186,756.001 C339.106,756.003 339.02,755.999 338.94,756.001 L338.94,756.001 L338.94,756.001 Z M323.51,758.108 C322.542,758.354 321.621,758.596 320.803,758.846 C316.115,760.285 313.809,761.799 313.809,761.799 L315.039,763.628 C315.039,763.628 316.964,762.328 321.436,760.955 C322.199,760.721 323.058,760.478 323.967,760.253 L323.51,758.108 L323.51,758.108 Z" id="path3359" fill="#000000"></path>
                <rect id="rect3361" fill="#000000" x="311.52499" y="784.64502" width="16.871" height="1.125"></rect>
                <rect id="rect3363" fill="#000000" x="311.52499" y="790.26801" width="16.871" height="1.125"></rect>
                <path d="M442.73,747.616 C440.311,743.546 436.126,739.522 433.107,738.362 L432.62,738.174 L432.62,736.215 L432.62,734.256 L432.932,734.213 L460.355,734.17 C460.372,734.916 460.386,736.471 460.366,737.932 C456.74,738.381 452.367,740.155 453.579,744.22 C460.493,759.496 466.784,775.045 473.61,790.36 L485.327,768.454 C480.792,759.167 477.49,749.774 472.526,740.663 C470.909,738.04 466.533,737.969 463.433,737.864 L463.444,734.239 L489.366,734.327 L489.44,737.831 C487.103,738.153 484.349,738.708 484.662,741.54 L492.018,757.811 C494.439,752.645 497.13,747.59 499.266,742.297 C500.235,738.106 495.52,737.895 492.513,737.779 L492.459,734.326 L515.622,734.238 L515.622,737.769 C512.236,738.01 509.034,738.986 507.166,741.488 C502.627,748.506 499.261,756.47 495.725,764.092 C499.217,772.351 502.859,780.601 506.429,788.176 L526.172,742.638 C524.84,739.636 521.822,738.576 518.862,737.89 L518.712,734.217 L540.605,734.392 L540.604,737.964 C539.628,738.116 538.695,738.417 537.793,738.81 C536.079,739.605 534.463,741.181 533.378,743.113 L506.166,805.724 L501.605,805.757 L488.66,775.27 L472.945,805.756 L468.227,805.758 C459.047,786.633 452.405,766.508 442.73,747.616" id="path3365" fill="#000000"></path>
                <path d="M617.148,735.065 L643.828,774.264 L643.828,735.065 L664.466,735.065 L664.466,805.919 L643.828,805.919 L617.294,767.014 L617.294,805.919 L596.704,805.919 L596.704,735.065 L617.148,735.065 L617.148,735.065 Z" id="polygon3367" fill="#000000"></path>
                <path d="M61.361,907.116 C61.008,907.042 60.739,906.966 60.402,906.89 L60.402,894.767 C66.006,895.67 71.93,898.125 77.455,902.013 L88.226,886.804 C80.695,880.761 71.648,877.302 60.402,876.619 L60.402,865.978 L54.98,865.978 L54.98,876.523 C37.099,877 26.169,887.252 26.169,901.342 L26.169,901.568 C26.169,917.387 38.685,922.113 54.98,925.875 L54.98,938.644 C47.719,937.716 40.803,934.678 34.498,929.658 L22.509,943.973 C31.138,951.699 42.679,955.942 54.98,956.688 L54.98,965.874 L60.402,965.874 L60.402,956.799 C78.433,956.317 90.336,946.988 90.336,931.545 L90.336,931.316 C90.336,916.777 79.235,911.002 61.361,907.116 L61.361,907.116 L61.361,907.116 Z M47.93,899.573 L47.93,899.344 C47.93,896.71 50.269,894.593 54.98,894.395 L54.98,905.483 C49.5,903.817 47.93,902.274 47.93,899.573 L47.93,899.573 L47.93,899.573 Z M68.579,933.645 C68.579,936.834 65.704,938.777 60.402,938.944 L60.402,927.268 C66.791,929.124 68.579,930.797 68.579,933.422 L68.579,933.645 L68.579,933.645 Z" id="path3369" fill="#000000"></path>
                <path d="M387.488,868.167 L302.511,868.167 C299.598,868.167 297.241,870.525 297.241,873.438 L297.241,958.415 C297.241,961.327 299.598,963.686 302.511,963.686 L320.702,963.686 L348.261,963.686 L348.261,926.7 L335.815,926.7 L335.815,912.286 L348.261,912.286 L348.261,901.657 C348.261,889.32 355.793,882.6 366.8,882.6 C372.072,882.6 376.601,882.989 377.922,883.163 L377.922,896.056 L370.29,896.065 C364.304,896.065 363.149,898.906 363.149,903.08 L363.149,912.286 L377.42,912.286 L375.559,926.7 L363.149,926.7 L363.149,963.686 L385.491,963.686 L387.487,963.686 C390.398,963.686 392.758,961.328 392.758,958.415 L392.758,873.438 C392.759,870.525 390.399,868.167 387.488,868.167 L387.488,868.167 L387.488,868.167 Z" id="path3377" fill="#000000"></path>
                <path d="M500.629,874.791 C491.332,878.138 485.457,886.765 486.126,896.211 L486.35,899.855 L482.631,899.41 C469.095,897.699 457.269,891.897 447.229,882.154 L442.32,877.32 L441.056,880.89 C438.378,888.848 440.088,897.252 445.666,902.905 C448.642,906.029 447.972,906.475 442.84,904.616 C441.056,904.021 439.493,903.574 439.345,903.798 C438.824,904.319 440.61,911.087 442.023,913.764 C443.957,917.483 447.898,921.127 452.211,923.285 L455.856,924.995 L451.543,925.07 C447.378,925.07 447.23,925.144 447.676,926.706 C449.163,931.541 455.039,936.673 461.584,938.903 L466.194,940.465 L462.178,942.845 C456.228,946.266 449.237,948.199 442.245,948.349 C438.898,948.423 436.146,948.72 436.146,948.944 C436.146,949.689 445.219,953.852 450.5,955.489 C466.342,960.323 485.158,958.241 499.29,949.985 C509.33,944.11 519.371,932.432 524.057,921.128 C526.585,915.104 529.115,904.097 529.115,898.816 C529.115,895.395 529.338,894.949 533.503,890.858 C535.957,888.478 538.263,885.875 538.709,885.131 C539.453,883.718 539.379,883.718 535.586,884.983 C529.264,887.213 528.371,886.917 531.495,883.57 C533.801,881.19 536.553,876.876 536.553,875.611 C536.553,875.388 535.437,875.76 534.172,876.429 C532.834,877.173 529.858,878.288 527.627,878.958 L523.611,880.222 L519.966,877.768 C517.958,876.429 515.132,874.942 513.644,874.496 C509.852,873.452 504.051,873.601 500.629,874.791" id="path3379" fill="#000000"></path>
                <path d="M664.46,868.244 L595.239,868.244 C586.968,868.244 580.263,874.948 580.263,883.219 L580.263,952.433 C580.263,960.703 586.968,967.407 595.239,967.407 L664.459,967.407 C672.73,967.407 679.434,960.703 679.434,952.433 L679.434,883.22 C679.435,874.949 672.73,868.244 664.46,868.244 L664.46,868.244 L664.46,868.244 Z M610.271,951.483 L595.368,951.483 L595.368,906.638 L610.271,906.638 L610.271,951.483 L610.271,951.483 Z M602.821,900.515 L602.722,900.515 C597.718,900.515 594.485,897.072 594.485,892.767 C594.485,888.369 597.818,885.02 602.918,885.02 C608.016,885.02 611.157,888.369 611.253,892.767 C611.253,897.072 608.016,900.515 602.821,900.515 L602.821,900.515 L602.821,900.515 Z M664.019,951.483 L649.114,951.483 L649.114,927.491 C649.114,921.465 646.958,917.35 641.564,917.35 C637.449,917.35 634.994,920.122 633.918,922.802 C633.525,923.759 633.428,925.099 633.428,926.44 L633.428,951.483 L618.52,951.483 C618.52,951.483 618.717,910.846 618.52,906.638 L633.427,906.638 L633.427,912.985 C635.408,909.928 638.95,905.587 646.859,905.587 C656.666,905.587 664.019,911.994 664.019,925.769 L664.019,951.483 L664.019,951.483 Z" id="path3381" fill="#000000"></path>
                <path d="M2.27,1062.333 C7.272,1061.084 14.075,1059.383 25.992,1059.066 C25.663,1058.407 25.366,1057.725 25.103,1057.022 C20.465,1056.981 6.183,1057.64 1.291,1058.849 C1.263,1058.859 1.233,1058.86 1.204,1058.86 C1.04,1058.86 0.889,1058.747 0.849,1058.582 C0.802,1058.389 0.921,1058.189 1.116,1058.141 C5.964,1056.943 19.902,1056.278 24.839,1056.29 C23.728,1053.022 23.237,1049.279 23.237,1045.101 C23.237,1037.678 25.549,1034.878 28.654,1030.923 C26.279,1022.463 29.506,1016.682 29.506,1016.682 C29.506,1016.682 34.497,1015.646 43.93,1022.403 C49.044,1020.213 62.677,1020.03 69.126,1021.917 C73.086,1019.3 80.326,1015.586 83.249,1016.625 C84.039,1017.899 85.743,1021.61 84.282,1029.769 C85.275,1031.558 90.43,1035.369 90.451,1046.141 C90.366,1050.114 89.953,1053.468 89.188,1056.306 C101.489,1056.202 108.724,1057.217 113.708,1058.135 C113.903,1058.175 114.035,1058.364 114.001,1058.562 C113.967,1058.736 113.814,1058.862 113.645,1058.862 C113.619,1058.862 113.598,1058.862 113.572,1058.852 C108.597,1057.932 101.349,1056.92 88.976,1057.033 C88.759,1057.753 88.517,1058.437 88.254,1059.09 C92.464,1059.231 104.029,1059.681 113.461,1062.566 C113.657,1062.626 113.763,1062.829 113.704,1063.025 C113.657,1063.18 113.513,1063.282 113.355,1063.282 C113.321,1063.282 113.283,1063.282 113.249,1063.265 C103.686,1060.341 91.87,1059.94 87.94,1059.81 C84.52,1067.325 77.504,1070.128 66.165,1071.294 C69.84,1073.607 70.894,1076.509 70.894,1084.361 C70.894,1092.213 70.788,1093.266 70.813,1095.071 C70.852,1098.035 75.194,1099.454 75.032,1100.408 C74.871,1101.36 71.4,1101.207 69.777,1100.639 C65.18,1099.037 65.638,1095.213 65.638,1095.213 L65.486,1084.715 C65.486,1084.715 65.8,1079.064 63.714,1079.064 L63.714,1096.249 C63.714,1099.983 66.327,1101.117 66.327,1102.499 C66.327,1104.872 61.552,1102.273 60.081,1100.792 C57.837,1098.541 58.092,1093.766 58.147,1089.988 C58.198,1086.341 58.113,1078.364 58.113,1078.364 L56.59,1078.396 C56.59,1078.396 57.215,1095.822 55.787,1098.998 C53.941,1103.074 48.373,1104.477 48.373,1102.619 C48.373,1101.37 49.746,1101.767 50.504,1098.969 C51.152,1096.587 50.931,1078.821 50.931,1078.821 C50.931,1078.821 49.147,1079.878 49.147,1083.204 C49.147,1084.727 49.104,1093.427 49.104,1096.016 C49.104,1099.272 44.479,1101.126 42.257,1101.126 C41.131,1101.126 39.731,1101.071 39.731,1100.475 C39.731,1098.969 43.961,1098.084 43.961,1094.952 C43.961,1092.235 43.902,1085.246 43.902,1085.246 C43.902,1085.246 41.769,1085.611 38.727,1085.611 C31.058,1085.611 28.632,1080.716 27.478,1077.977 C25.976,1074.412 24.028,1072.735 21.959,1071.397 C20.688,1070.575 20.395,1069.603 21.866,1069.328 C28.655,1068.049 30.391,1077.026 34.924,1078.456 C38.159,1079.477 42.319,1079.036 44.388,1077.698 C44.662,1074.955 46.638,1072.584 48.284,1071.336 C36.753,1070.228 29.917,1066.225 26.374,1059.787 C14.312,1060.077 7.467,1061.788 2.449,1063.042 C2.083,1063.133 1.727,1063.222 1.383,1063.31 C1.353,1063.32 1.323,1063.32 1.293,1063.32 C1.13,1063.32 0.981,1063.211 0.938,1063.045 C0.89,1062.85 1.011,1062.649 1.207,1062.601 C1.552,1062.512 1.906,1062.425 2.27,1062.331" id="path3383" fill="#000000"></path>
                <path d="M214.18,1059.952 C214.18,1052.797 208.38,1046.997 201.225,1046.997 C194.07,1046.997 188.27,1052.797 188.27,1059.952 C188.27,1067.106 194.07,1072.906 201.225,1072.906 C208.38,1072.906 214.18,1067.106 214.18,1059.952" id="path3385" fill="#000000"></path>
                <path d="M214.18,1024.452 C214.18,1017.297 208.38,1011.497 201.225,1011.497 C194.07,1011.497 188.27,1017.297 188.27,1024.452 C188.27,1031.606 194.07,1037.406 201.225,1037.406 C208.38,1037.406 214.18,1031.606 214.18,1024.452" id="path3387" fill="#000000"></path>
                <path d="M178.68,1024.452 C178.68,1017.297 172.88,1011.497 165.725,1011.497 C158.57,1011.497 152.77,1017.297 152.77,1024.452 C152.77,1031.606 158.57,1037.406 165.725,1037.406 C172.88,1037.406 178.68,1031.606 178.68,1024.452" id="path3389" fill="#000000"></path>
                <path d="M249.16,1024.452 C249.16,1017.297 243.36,1011.497 236.205,1011.497 C229.05,1011.497 223.25,1017.297 223.25,1024.452 C223.25,1031.606 229.05,1037.406 236.205,1037.406 C243.36,1037.406 249.16,1031.606 249.16,1024.452" id="path3391" fill="#000000"></path>
                <path d="M249.16,1059.952 C249.16,1052.797 243.36,1046.997 236.205,1046.997 C229.05,1046.997 223.25,1052.797 223.25,1059.952 C223.25,1067.106 229.05,1072.906 236.205,1072.906 C243.36,1072.906 249.16,1067.106 249.16,1059.952" id="path3393" fill="#000000"></path>
                <path d="M249.16,1095.452 C249.16,1088.297 243.36,1082.497 236.205,1082.497 C229.05,1082.497 223.25,1088.297 223.25,1095.452 C223.25,1102.606 229.05,1108.406 236.205,1108.406 C243.36,1108.406 249.16,1102.606 249.16,1095.452" id="path3395" fill="#000000"></path>
                <path d="M345.954,1010.548 C318.67,1010.548 296.551,1032.666 296.551,1059.951 C296.551,1087.235 318.67,1109.354 345.954,1109.354 C373.239,1109.354 395.357,1087.235 395.357,1059.951 C395.357,1032.667 373.239,1010.548 345.954,1010.548 M345.954,1076.419 C336.859,1076.419 329.485,1069.046 329.485,1059.951 C329.485,1050.856 336.859,1043.484 345.954,1043.484 C355.049,1043.484 362.423,1050.857 362.423,1059.951 C362.423,1069.046 355.049,1076.419 345.954,1076.419" id="path3397" fill="#000000"></path>
                <path d="M345.954,1058.716 C346.637,1058.716 347.189,1059.269 347.189,1059.951 C347.189,1060.633 346.636,1061.186 345.954,1061.186 C345.272,1061.186 344.719,1060.633 344.719,1059.951 C344.719,1059.269 345.272,1058.716 345.954,1058.716" id="path3399" fill="#000000"></path>
                <path d="M328.683,590.716 L330.263,590.296 L332.273,589.876 L334.263,589.655 L336.263,589.765 L338.263,589.975 L340.263,590.495 L341.323,590.916 L343.213,591.446 L345.113,591.655 L345.953,591.765 L349.213,591.765 L352.373,591.555 L355.533,591.235 L355.853,591.235 L357.533,591.025 L360.483,590.916 L363.533,590.815 L366.693,590.916 L367.433,590.916 L369.222,591.025 L370.903,591.446 L372.693,592.086 L374.583,592.926 L376.373,593.876 L378.163,595.136 L379.853,596.396 L381.222,597.976 L382.582,599.776 L383.742,601.356 L385.112,603.456 L386.162,605.667 L387.002,607.986 L387.643,609.257 L388.163,611.357 L388.693,613.567 L388.903,615.787 L388.903,620.527 L389.213,623.477 L389.533,626.527 L390.063,629.477 L390.903,632.427 L391.003,632.956 L391.854,634.956 L391.954,635.377 L391.954,635.797 L391.744,636.107 L391.104,636.747 L390.374,637.058 L389.744,637.268 L389.214,637.268 L388.794,637.058 L388.374,636.638 L387.634,634.638 L386.905,632.108 L386.375,629.588 L386.055,626.947 L386.055,626.527 L385.425,622.107 L384.905,617.787 L384.695,619.366 L384.585,622.418 L384.065,625.478 L383.955,626.207 L383.215,629.478 L382.585,636.008 L382.585,639.168 L382.686,642.537 L382.906,645.697 L383.426,649.067 L384.067,652.227 L384.697,654.647 L384.907,655.497 L385.007,657.077 L385.007,658.866 L384.907,659.178 L384.476,660.018 L384.056,660.228 L383.636,660.338 L377.527,660.338 L377.006,660.228 L376.476,660.018 L376.166,659.598 L375.846,659.077 L375.846,656.866 L376.067,656.338 L376.377,655.918 L376.688,655.388 L376.797,654.858 L376.797,654.238 L376.688,653.808 L376.377,653.178 L374.907,650.128 L373.636,646.957 L372.476,643.907 L371.636,640.537 L370.796,637.267 L370.166,639.697 L369.006,643.907 L368.056,648.128 L367.216,652.338 L366.056,659.178 L365.857,659.608 L365.537,660.028 L365.217,660.238 L364.688,660.339 L358.377,660.339 L357.857,660.238 L357.426,660.028 L357.006,659.608 L356.806,659.078 L356.697,658.658 L356.697,656.969 L356.806,656.448 L357.216,655.919 L357.536,655.498 L357.956,655.288 L358.376,654.858 L358.586,654.238 L358.696,653.698 L358.696,650.438 L359.326,642.008 L359.746,637.688 L360.486,633.478 L358.066,633.268 L355.326,632.738 L352.696,632.108 L350.066,631.169 L347.536,630.219 L347.856,630.948 L348.166,632.219 L348.376,633.479 L348.276,634.849 L347.956,636.109 L347.636,638.219 L347.426,642.019 L347.216,645.699 L347.216,649.389 L347.536,653.179 L348.166,658.759 L348.166,659.189 L348.056,659.609 L347.746,660.029 L347.326,660.239 L346.796,660.34 L340.266,660.34 L339.746,660.239 L339.326,660.029 L338.906,659.609 L338.586,659.079 L338.586,656.979 L338.696,656.449 L339.116,655.92 L339.536,655.499 L339.646,655.399 L339.846,655.079 L339.956,654.76 L339.956,654.34 L338.166,646.65 L337.536,643.91 L336.266,638.96 L334.376,628.851 L334.376,628.951 L333.846,632.741 L333.846,632.851 L333.426,634.96 L332.796,637.07 L331.956,638.96 L330.066,643.07 L327.746,649.6 L324.696,659.289 L324.596,659.609 L324.276,660.029 L323.856,660.239 L323.326,660.34 L316.376,660.34 L315.856,660.13 L315.536,659.819 L315.326,659.399 L315.326,656.759 L315.536,656.129 L315.956,655.708 L316.486,655.398 L317.006,655.178 L317.116,655.178 L317.426,654.968 L317.646,654.758 L317.856,654.338 L321.536,639.487 L321.646,639.168 L322.166,636.116 L322.586,633.057 L322.796,630.007 L322.796,626.946 L322.476,623.896 L322.166,620.936 L322.056,620.736 L321.856,620.206 L321.426,619.896 L320.896,619.786 L320.376,619.786 L319.846,619.996 L318.796,620.736 L317.326,621.896 L316.806,622.417 L315.956,623.047 L315.006,623.477 L314.066,623.577 L313.646,623.687 L312.586,624.107 L311.326,624.737 L310.166,625.687 L309.326,626.737 L308.586,628.008 L308.166,629.268 L307.856,630.638 L307.856,630.957 L307.746,633.168 L307.856,635.378 L308.276,637.588 L308.586,638.648 L309.016,640.748 L309.326,643.068 L309.426,645.278 L309.216,645.698 L308.906,646.858 L308.276,648.018 L307.436,649.068 L306.586,649.808 L305.856,650.228 L304.486,651.178 L302.906,651.707 L301.426,652.128 L299.746,652.228 L298.906,652.228 L297.636,651.918 L296.486,651.497 L295.326,650.857 L294.276,649.907 L293.746,649.387 L292.906,647.907 L292.906,648.017 L292.796,647.907 L292.166,646.437 L292.066,646.327 L291.956,645.697 L291.956,644.957 L292.166,644.437 L292.906,643.697 L293.846,642.957 L294.166,642.758 L294.696,642.648 L295.226,642.648 L295.856,642.758 L296.376,643.068 L296.906,643.488 L297.226,644.018 L298.276,645.178 L298.486,645.388 L299.116,645.908 L299.856,646.117 L300.586,646.228 L301.436,645.908 L301.956,645.488 L302.596,644.958 L302.696,644.648 L302.906,643.598 L302.906,642.648 L302.586,641.598 L302.066,640.747 L302.066,640.647 L301.436,638.537 L300.696,635.687 L300.056,632.737 L299.426,629.687 L299.216,626.637 L299.006,623.477 L299.006,620.417 L299.216,617.365 L299.746,614.306 L300.276,611.356 L300.796,609.356 L301.636,606.726 L302.696,604.197 L303.956,601.766 L305.326,599.346 L306.906,597.136 L307.116,596.926 L307.846,596.086 L308.686,595.346 L309.846,594.926 L310.906,594.606 L313.106,594.606 L315.746,594.186 L318.266,593.766 L320.896,593.026 L321.956,592.606 L328.683,590.716 L328.683,590.716 Z M329.533,612.836 L329.433,612.306 L329.113,610.096 L328.373,607.886 L327.533,605.666 L326.583,603.666 L325.323,601.666 L324.053,599.876 L322.583,598.825 L321.643,598.506 L320.693,598.405 L319.743,598.506 L319.323,598.716 L317.643,599.346 L316.803,600.197 L316.803,600.926 L316.903,601.136 L317.113,601.455 L317.423,601.556 L317.853,601.666 L318.273,601.556 L318.483,601.455 L319.853,600.716 L320.053,600.716 L320.583,600.614 L321.213,600.614 L321.853,600.825 L322.263,601.136 L322.373,601.245 L323.743,603.035 L324.893,605.035 L325.853,607.035 L326.583,609.145 L327.113,611.355 L327.423,612.614 L327.323,613.145 L326.903,613.985 L326.473,614.305 L326.053,614.415 L325.423,614.415 L325.113,614.305 L322.793,613.244 L321.853,612.724 L321.433,612.624 L321.003,612.624 L320.793,612.724 L320.483,613.044 L320.273,613.144 L320.163,613.564 L320.163,613.884 L320.583,614.514 L320.793,614.624 L323.323,615.773 L324.373,616.303 L325.213,616.513 L326.163,616.513 L327.013,616.303 L327.853,615.983 L328.483,615.353 L329.113,614.624 L329.323,613.773 L329.533,612.836 L329.533,612.836 Z M309.643,609.886 L309.643,609.566 L309.533,609.356 L309.423,609.256 L309.013,609.046 L308.273,609.046 L307.433,609.356 L306.793,609.566 L306.273,609.986 L306.053,610.417 L306.053,610.517 L305.953,610.727 L306.053,610.837 L306.273,611.036 L306.693,611.257 L307.423,611.257 L308.163,611.036 L308.903,610.726 L309.423,610.306 L309.643,609.886 L309.643,609.886 Z" id="path3417" fill="#000000"></path>
                <g id="g3517" transform="translate(583.114750, 1008.326600)" fill="#010101">
                    <path d="M78.323,94.936 C78.323,97.738 80.599,99.998 83.391,99.998 L89.73,99.998 C92.528,99.998 94.798,97.736 94.798,94.936 L94.798,44.206 C94.798,41.407 92.527,39.144 89.73,39.144 L83.391,39.144 C80.599,39.144 78.323,41.407 78.323,44.206 L78.323,94.936 L78.323,94.936 Z" id="path3503"></path>
                    <path d="M53.805,74.271 L53.805,94.936 C53.805,97.737 56.08,99.998 58.889,99.998 L65.213,99.998 C68.004,99.998 70.279,97.735 70.279,94.936 L70.279,74.271 C70.279,71.47 68.004,69.195 65.213,69.195 L58.889,69.195 C56.083,69.194 53.805,71.472 53.805,74.271 L53.805,74.271 L53.805,74.271 Z" id="path3505"></path>
                    <path d="M29.295,81.883 L29.295,94.938 C29.295,97.739 31.558,100 34.364,100 L40.694,100 C43.486,100 45.763,97.738 45.763,94.938 L45.763,81.883 C45.763,79.084 43.486,76.793 40.694,76.793 L34.364,76.793 C31.559,76.793 29.295,79.084 29.295,81.883 L29.295,81.883 L29.295,81.883 Z" id="path3507"></path>
                    <path d="M34.131,0 C15.271,0 0,15.287 0,34.141 C0,53.009 15.271,68.294 34.131,68.294 C53,68.294 68.285,53.009 68.285,34.141 C68.288,15.287 53,0 34.131,0 L34.131,0 L34.131,0 Z M34.134,59.669 C20.037,59.669 8.624,48.245 8.624,34.143 C8.624,20.051 20.038,8.625 34.134,8.625 L34.134,34.201 L54.898,48.998 C50.267,55.46 42.694,59.669 34.134,59.669 L34.134,59.669 L34.134,59.669 Z" id="path3509"></path>
                </g>
                <g id="Imported-Layers" transform="translate(437.120661, 1008.815000)" fill="#000000">
                    <path d="M25.4550725,6.4173913 C30.842029,-0.465217391 42.4144928,-1.46231884 48.5,4.92173913 C51.9913043,4.72173913 55.9811594,5.52028986 57.9768116,8.7115942 C61.6681159,14.4985507 61.9666667,21.7811594 60.9695652,28.3652174 C60.2710145,32.0550725 62.3652174,35.6478261 61.0695652,39.3376812 C60.3710145,43.3289855 56.4797101,45.6231884 55.4826087,49.5130435 C51.1927536,58.4927536 45.3072464,67.8695652 46.6043478,78.2449275 C47.3028986,86.1246377 51.6913043,93.2086957 57.6768116,98.0971014 C48.6985507,99.4927536 39.5217391,99.4927536 30.4434783,99.1942029 C22.8608696,98.6956522 14.9797101,98.2956522 7.69855072,95.6028986 C4.7057971,94.4057971 1.21304348,92.5101449 0.814492754,88.9188406 C0.415942029,84.2304348 0.115942029,78.8434783 3.50869565,75.1521739 C9.3942029,68.4681159 18.1724638,65.3753623 26.5521739,63.3797101 C29.6449275,62.5826087 31.8391304,58.3927536 29.5449275,55.6985507 C27.4507246,52.7057971 26.0536232,49.3144928 24.8565217,45.9217391 C20.3666667,42.7304348 18.7710145,36.1463768 20.8666667,31.157971 C18.5724638,22.7782609 20.0681159,13.3014493 25.4550725,6.4173913" id="Fill-1"></path>
                    <path d="M70.4463768,51.4086957 C83.315942,48.415942 97.1811594,57.9927536 99.0768116,71.0623188 C101.471014,83.1318841 93.0913043,95.9014493 81.1202899,98.6942029 C71.942029,101.188406 61.4681159,97.3985507 55.8811594,89.715942 C51.3927536,83.8304348 49.8956522,75.7507246 51.9913043,68.6681159 C54.1855072,60.0884058 61.6681159,53.1057971 70.4463768,51.4086957 L70.4463768,51.4086957 L70.4463768,51.4086957 Z M82.5173913,64.5768116 C79.026087,69.3652174 75.9333333,74.3536232 72.5405797,79.142029 C71.0449275,77.5463768 69.5478261,75.8507246 67.7521739,74.5536232 C65.2594203,73.6550725 63.8623188,76.7478261 62.2666667,78.0449275 C64.4608696,82.0347826 68.1521739,84.9289855 71.4434783,88.0202899 C73.5391304,89.915942 75.8333333,87.5217391 76.8304348,85.726087 C80.8217391,79.442029 85.4101449,73.5550725 89.1014493,67.0710145 C88.9014493,64.4768116 84.3130435,61.584058 82.5173913,64.5768116 L82.5173913,64.5768116 L82.5173913,64.5768116 Z" id="Fill-2"></path>
                </g>
            </g>
            <g id="slack_monochrome.eps" transform="translate(152.000000, 866.000000)" fill="#000000" sketch:type="MSShapeGroup">
                <path d="M40.0376667,45.2915556 L44.2275556,57.7997778 L57.2226667,53.4473333 L53.0335556,40.9391111 L40.0376667,45.2915556" id="Fill-10"></path>
                <g id="Group-15">
                    <path d="M40.0376667,45.2915556 L44.2275556,57.7997778 L57.2226667,53.4473333 L53.0335556,40.9391111 L40.0376667,45.2915556" id="Fill-12"></path>
                    <path d="M76.2867778,57.6963333 L69.9852222,59.8064444 L72.1692222,66.3265556 C73.0535556,68.9671111 71.6302222,71.8246667 68.9896667,72.7082222 C68.4156667,72.9011111 67.8307778,72.9843333 67.2591111,72.9687778 C65.1995556,72.9158889 63.3002222,71.5952222 62.6087778,69.5294444 L60.4247778,63.0085556 L47.4296667,67.3602222 L49.6136667,73.8811111 C50.498,76.5208889 49.0746667,79.3784444 46.4341111,80.2627778 C45.8601111,80.4548889 45.276,80.5381111 44.7035556,80.5233333 C42.6447778,80.4696667 40.7454444,79.149 40.0532222,77.0832222 L37.8692222,70.5623333 L31.5668889,72.6732222 C30.9921111,72.8653333 30.408,72.9485556 29.8355556,72.9337778 C27.7767778,72.8801111 25.8774444,71.5594444 25.1852222,69.4936667 C24.3008889,66.8531111 25.725,63.9963333 28.3647778,63.112 L34.6671111,61.0018889 L30.4772222,48.4936667 L24.1756667,50.6037778 C23.6016667,50.7958889 23.0167778,50.8791111 22.4443333,50.8643333 C20.3863333,50.8106667 18.4862222,49.49 17.7947778,47.4242222 C16.9104444,44.7836667 18.3337778,41.9268889 20.9743333,41.0425556 L27.2751111,38.9324444 L25.0911111,32.4115556 C24.2067778,29.7717778 25.6301111,26.915 28.2706667,26.0298889 C30.9112222,25.1463333 33.768,26.5696667 34.6515556,29.2094444 L36.8355556,35.7303333 L49.8306667,31.3786667 L47.6466667,24.8577778 C46.7623333,22.2172222 48.1864444,19.3604444 50.8262222,18.4761111 C53.466,17.5917778 56.3235556,19.0158889 57.2078889,21.6556667 L59.3918889,28.1765556 L65.6934444,26.0656667 C68.3347778,25.1821111 71.1907778,26.6054444 72.0751111,29.2452222 C72.9594444,31.8857778 71.5353333,34.7425556 68.8955556,35.6268889 L62.594,37.737 L66.7831111,50.246 L73.0854444,48.1351111 C75.726,47.2515556 78.5827778,48.6748889 79.4663333,51.3146667 C80.3506667,53.9544444 78.9273333,56.812 76.2867778,57.6963333 L76.2867778,57.6963333 Z M93.1902222,36.001 C83.1638889,2.58144444 68.6816667,-5.21655556 35.2621111,4.80977778 C1.84255556,14.8361111 -5.95544444,29.3183333 4.07088889,62.7378889 C14.0972222,96.1574444 28.5794444,103.955444 61.999,93.9291111 C95.4185556,83.9027778 103.216556,69.4205556 93.1902222,36.001 L93.1902222,36.001 Z" id="Fill-14"></path>
                </g>
            </g>
        </g>
    </g>
</svg>