<?xml version="1.0" encoding="utf-8"?>
<!-- Generator: Adobe Illustrator 15.0.2, SVG Export Plug-In . SVG Version: 6.00 Build 0)  -->
<!DOCTYPE svg PUBLIC "-//W3C//DTD SVG 1.1//EN" "http://www.w3.org/Graphics/SVG/1.1/DTD/svg11.dtd">
<svg version="1.1" id="Layer_1" xmlns="http://www.w3.org/2000/svg" xmlns:xlink="http://www.w3.org/1999/xlink" x="0px" y="0px"
	 width="720px" height="1150.56px" viewBox="0 0 720 1150.56" enable-background="new 0 0 720 1150.56" xml:space="preserve">
<path d="M69.421,20.635c-27.473,0-49.824,22.352-49.824,49.826c0,27.474,22.351,49.825,49.824,49.825
	c27.474,0,49.827-22.352,49.827-49.825C119.249,42.987,96.896,20.635,69.421,20.635 M73.597,46.635V29.266
	c4,2.297,8.309,9.369,10.949,17.369H73.597z M86.581,53.635c0.859,5,1.416,9,1.627,13h-14.61v-13H86.581z M65.597,29.266v17.369
	H54.298C56.938,38.635,60.597,31.563,65.597,29.266 M65.597,53.635v13H50.638c0.21-4,0.767-8,1.626-13H65.597z M42.919,66.635
	H27.487c0.413-4,1.542-9,3.276-13h13.555C43.572,58.635,43.095,62.635,42.919,66.635 M42.919,74.635c0.176,5,0.652,9,1.398,13
	H30.762c-1.734-4-2.863-8-3.275-13H42.919z M50.638,74.635h14.959v13H52.264C51.405,83.635,50.849,78.635,50.638,74.635
	 M65.597,95.635v16.02c-5-2.297-8.659-8.02-11.3-16.02H65.597z M73.597,111.655v-16.02h10.949
	C81.906,103.635,77.597,109.358,73.597,111.655 M73.597,87.635v-13h14.61c-0.211,4-0.768,9-1.627,13H73.597z M95.925,74.635h15.434
	c-0.414,5-1.541,9-3.275,13H94.527C95.273,83.635,95.75,79.635,95.925,74.635 M95.925,66.635c-0.175-4-0.652-8-1.398-13h13.555
	c1.734,4,2.863,9,3.277,13H95.925z M103.717,46.635H92.704c-1.592-6-3.703-10.19-6.223-14.092
	C93.413,35.626,99.357,40.635,103.717,46.635 M52.364,32.542c-2.519,3.901-4.63,8.092-6.223,14.092H35.126
	C39.487,40.635,45.434,35.625,52.364,32.542 M35.125,95.635h11.016c1.592,5,3.704,10.192,6.222,14.093
	C45.433,106.645,39.486,101.635,35.125,95.635 M86.481,109.727c2.519-3.902,4.63-9.092,6.222-14.092h11.015
	C99.359,101.635,93.413,106.644,86.481,109.727"/>
<path d="M211.881,79.513c2.991,2.287,11.869,4.375,18.997,8.247c2.35,1.277,2.551,3.169,2.727,4.313
	c0.177,1.144,0.551,13.979,0.551,13.979H164.88c0,0,0.372-12.836,0.549-13.979c0.176-1.145,0.191-2.881,2.728-4.313
	c7.063-3.989,15.967-5.828,18.959-8.115c1.188-0.908,0.879-2.376,1.143-3.785c0.266-1.407,1.145-0.439,1.145-1.936
	c0-1.504,0.281-1.242,0.116-3.241c-0.144-1.741-2.534-1.928-2.668-5.188c-0.028-0.687-1.231-1.145-1.936-2.199
	c-0.705-1.057-1.849-2.904-1.849-5.017c0-2.111,0.44-1.584,0.44-4.225c0-2.64-0.099-4.17,1.408-10.296
	c0.562-2.285,2.474-4.964,4.389-6.176c2.582-1.634,1.545,0.545,10.219-1.392c5.624-1.255,14.432,4.576,14.521,9.24
	c0.118,6.308,0.504,5.834,0.878,8.448c0.263,1.848,0.792,1.407,0.792,3.519c0,2.113-1.145,4.753-1.847,5.809
	c-0.704,1.056-1.357,2.75-1.446,3.432c-0.46,3.525-2.813,2.71-2.912,4.599c-0.09,1.724-0.201,1.504,0.056,2.847
	c0.216,1.124,0.871-0.072,1.135,1.336C210.962,76.828,210.779,78.899,211.881,79.513"/>
<path d="M227.242,67.55c0.49,0.736,1.331,1.056,1.35,1.534c0.095,2.276,1.761,2.404,1.862,3.619
	c0.115,1.396-0.083,1.211-0.083,2.261c0,1.043-0.611,0.368-0.798,1.351c-0.185,0.98,0.032,2.006-0.796,2.64
	c-0.937,0.717-2.701,1.387-4.806,2.153c3.029,1.125,6.371,2.45,9.511,4.097c3.387,1.773,3.455,3.962,3.718,5.66
	c0.093,0.601,0.212,3.428,0.317,6.51h24.067c0,0-0.261-8.952-0.383-9.751c-0.123-0.798-0.209-2.082-1.9-3.009
	c-4.961-2.712-11.163-4.157-13.248-5.752c-0.77-0.43-0.644-1.873-0.825-2.855c-0.186-0.98-0.643-0.148-0.793-0.932
	c-0.18-0.938-0.103-0.784-0.039-1.985c0.069-1.317,1.709-0.75,2.032-3.208c0.061-0.476,0.518-1.657,1.007-2.394
	c0.493-0.736,1.289-2.578,1.289-4.052c0-1.473-0.367-1.166-0.552-2.454c-0.26-1.824-0.53-1.493-0.614-5.894
	c-0.061-3.253-6.205-7.321-10.127-6.445c-6.05,1.351-5.328-0.169-7.128,0.971c-1.334,0.845-2.67,2.714-3.062,4.309
	c-1.052,4.272-0.983,5.34-0.983,7.182c0,1.841-0.307,1.474-0.307,2.946C225.952,65.525,226.75,66.814,227.242,67.55"/>
<path d="M620.203,183.154v-12.5c0-3.455,2.795-6.25,6.25-6.25s6.25,2.795,6.25,6.25v12.5c0,3.455-2.795,6.25-6.25,6.25
	S620.203,186.609,620.203,183.154"/>
<path d="M676.453,176.904v6.396c0,6.909-5.591,12.5-12.5,12.5s-12.5-5.591-12.5-12.5v-6.396h-12.5v6.396
	c0,6.909-5.591,12.5-12.5,12.5s-12.5-5.591-12.5-12.5v-6.396h-18.75v87.5h100v-87.5H676.453z M626.453,251.904h-12.5v-12.5h12.5
	V251.904z M626.453,226.904h-12.5v-12.5h12.5V226.904z M651.453,251.904h-12.5v-12.5h12.5V251.904z M651.453,226.928h-12.5v-12.5
	h12.5V226.928z M663.953,251.904v-12.5h12.5L663.953,251.904z M676.453,226.904h-12.5v-12.5h12.5V226.904z"/>
<path d="M657.703,183.154v-12.5c0-3.455,2.795-6.25,6.25-6.25s6.25,2.795,6.25,6.25v12.5c0,3.455-2.795,6.25-6.25,6.25
	S657.703,186.609,657.703,183.154"/>
<polygon points="474.638,107.307 476.438,108.23 476.438,58.106 474.638,57.044 "/>
<polygon points="500.399,48.545 500.503,98.688 501.765,98.11 502.824,98.274 502.824,48.233 501.961,47.937 "/>
<polygon points="530.129,56.027 527.81,57.292 527.81,108.3 530.129,106.929 "/>
<polygon points="527.219,51.134 522.941,49.383 521.129,53.95 527.512,56.559 545.28,46.92 545.28,100.109 527.219,109.907 
	508.259,102.149 502.157,99.692 501.765,99.692 476.698,109.907 458.643,100.109 458.643,46.92 476.405,56.559 501.962,46.108 
	508.319,48.71 505.775,42.359 501.962,40.8 476.698,51.134 453.73,38.662 453.73,103.03 476.405,115.338 501.962,104.883 
	527.512,115.338 550.191,103.03 550.191,38.662 "/>
<path d="M515.79,25.582c-5.503,0-9.972,4.464-9.972,9.971c0,1.025,0.2,1.992,0.486,2.923h-0.042l9.527,23.78l9.762-24.604h-0.019
	c0.145-0.676,0.229-1.376,0.229-2.099C525.763,30.046,521.297,25.582,515.79,25.582 M515.79,40.296c-2.354,0-4.271-1.914-4.271-4.27
	s1.917-4.272,4.271-4.272c2.354,0,4.271,1.914,4.271,4.272C520.061,38.382,518.148,40.296,515.79,40.296"/>
<path d="M687.635,25.222v9.529h-10.74v-9.529h-6.8v13.981h-51.397V25.222h-6.779v9.529h-10.706v-9.529h-6.79v91.57h6.79v-9.623
	h10.707v9.623h6.778v-13.894h51.397v13.895h6.8v-9.623h10.74v9.623h6.787v-91.57L687.635,25.222L687.635,25.222z M611.919,101.999
	h-10.707v-9.615h10.707V101.999z M611.919,85.884h-10.707v-9.535h10.707V85.884z M611.919,68.148h-10.707v-9.523h10.707V68.148z
	 M611.919,50.25h-10.707v-9.535h10.707V50.25z M618.697,50.25h51.396v42.134h-51.396V50.25z M687.635,101.999h-10.74v-9.615h10.74
	V101.999z M687.635,85.884h-10.74v-9.535h10.74V85.884z M687.635,68.148h-10.74v-9.523h10.74V68.148z M687.635,50.25h-10.74v-9.535
	h10.74V50.25z"/>
<path d="M105.623,160.126h-74.4c-1.467,0-2.657,1.153-2.657,2.578v103.571c0,1.422,1.19,2.578,2.657,2.578h74.4
	c1.466,0,2.657-1.156,2.657-2.578V162.704C108.28,161.279,107.089,160.126,105.623,160.126 M101.609,263.851H35.571v-46.858h66.038
	V263.851z M101.609,211.989H35.571v-46.862h66.038V211.989z"/>
<path d="M78.224,222.033h-2.715v6.108c0,0.481-0.394,0.871-0.877,0.871H62.374c-0.483,0-0.874-0.39-0.874-0.871v-6.108h-2.543
	c-0.482,0-0.871,0.388-0.871,0.866v8.736c0,0.479,0.389,0.865,0.871,0.865h19.267c0.482,0,0.873-0.386,0.873-0.865v-8.736
	C79.097,222.421,78.706,222.033,78.224,222.033"/>
<path d="M78.224,170.17h-2.715v6.105c0,0.485-0.394,0.874-0.877,0.874H62.374c-0.483,0-0.874-0.389-0.874-0.874v-6.105h-2.543
	c-0.482,0-0.871,0.386-0.871,0.865v8.738c0,0.477,0.389,0.862,0.871,0.862h19.267c0.482,0,0.873-0.385,0.873-0.862v-8.738
	C79.097,170.559,78.706,170.17,78.224,170.17"/>
<path d="M253.124,176.302v58.913h-46.581h-4.4l-2.441,3.66l-6.861,10.291l-6.861-10.291l-2.441-3.66h-4.4h-5.48v-58.913H253.124z
	 M261.345,168.081h-95.903v75.354h13.699l13.703,20.55l13.699-20.55h54.802V168.081z"/>
<path d="M208.227,192.035c-3.32,0.625-5.657,3.035-7.005,7.225c-0.675,2.07-1.012,4.115-1.012,6.138c0,0.24,0.011,0.448,0.036,0.615
	c0.024,0.168,0.06,0.541,0.108,1.119h7.873v15.75h-15.386v-14.521c0-7.126,1.421-12.617,4.264-16.47
	c2.842-3.853,6.547-6.069,11.124-6.646v6.79H208.227z"/>
<path d="M232.579,192.035c-2.654,0.434-4.662,1.926-6.037,4.479c-1.37,2.552-2.061,5.492-2.061,8.813
	c0,0.292,0.016,0.58,0.038,0.869c0.026,0.285,0.085,0.599,0.182,0.936h7.878v15.75h-15.461v-14.521
	c0-5.729,1.204-10.847,3.607-15.352c2.415-4.501,6.357-7.091,11.855-7.764L232.579,192.035L232.579,192.035z"/>
<path d="M357.954,200.627c11.671,0,21.132,9.461,21.132,21.132c0,11.67-9.461,21.132-21.132,21.132s-21.132-9.462-21.132-21.132
	C336.822,210.088,346.283,200.627,357.954,200.627"/>
<path d="M357.954,248.043c-14.493,0-26.284-11.791-26.284-26.283c0-5.23,1.542-10.104,4.187-14.202h-27.904v46.491h100v-46.494
	h-27.902c2.646,4.1,4.188,8.973,4.188,14.205C384.237,236.252,372.446,248.043,357.954,248.043"/>
<path d="M407.953,189.469h-32.611l-6.164-14.299h-2.076h-18.296h-2.075l-6.164,14.299h-32.613v12.935h32.24
	c4.682-4.299,10.919-6.928,17.761-6.928c6.841,0,13.078,2.629,17.759,6.928h32.24V189.469z M363.921,186.515h-11.935v-6.193h11.935
	V186.515z"/>
<rect x="312.775" y="185.956" width="11.83" height="1.992"/>
<rect x="314.137" y="182.497" width="9.108" height="4.455"/>
<path d="M549.227,184.208v57.041c0,0-16.229-4.562-28.285-2.243c-10.799,2.076-18.747,7.934-20.087,8.97v0.172
	c0,0-0.04-0.032-0.112-0.087c-0.071,0.055-0.111,0.087-0.111,0.087v-0.172c-1.341-1.036-9.287-6.893-20.083-8.97
	c-12.06-2.319-29.876,2.243-29.876,2.243v-57.209c-1.043,0.156-2.146,0.323-3.335,0.5v61.45c0,0,19.416-4.997,32.624-2.454
	c12.988,2.497,20.836,10.011,20.836,10.011s7.847-7.514,20.834-10.011c13.211-2.544,31.83,2.454,31.83,2.454v-61.185
	C553.463,184.806,551.841,184.532,549.227,184.208 M479.568,233.232c10.561,2.03,18.722,8.143,18.722,8.143v-56.12
	c0,0-8.204-6.119-18.791-8.154c-10.714-2.061-24.712,2.01-24.712,2.01v56.119C454.787,235.23,468.829,231.167,479.568,233.232
	 M545.103,235.437v-56.12c0,0-12.831-4.072-23.541-2.01c-10.586,2.033-19.062,8.152-19.062,8.152v56.121
	c0,0,8.43-6.111,18.993-8.144C532.229,231.375,545.103,235.437,545.103,235.437"/>
<rect x="325.703" y="58.534" width="12.5" height="12.5"/>
<rect x="350.703" y="83.534" width="12.5" height="12.5"/>
<rect x="375.703" y="58.534" width="12.5" height="12.5"/>
<path d="M331.953,39.784v-12.5c0-3.455,2.795-6.25,6.25-6.25s6.25,2.795,6.25,6.25v12.5c0,3.455-2.795,6.25-6.25,6.25
	S331.953,43.239,331.953,39.784"/>
<polygon points="406.953,121.034 306.953,121.034 306.953,33.534 319.453,33.534 319.453,108.534 394.453,108.534 394.453,33.534 
	406.953,33.534 "/>
<rect x="350.703" y="58.558" width="12.5" height="12.5"/>
<rect x="325.703" y="83.534" width="12.5" height="12.5"/>
<polygon points="375.703,96.034 375.703,83.534 388.203,83.534 "/>
<path d="M369.453,39.784v-12.5c0-3.455,2.795-6.25,6.25-6.25s6.25,2.795,6.25,6.25v12.5c0,3.455-2.795,6.25-6.25,6.25
	S369.453,43.239,369.453,39.784"/>
<path d="M117.315,319.814v64.361c0,5.99-5.225,11.343-10.705,11.343H33.455c-9.049,0-13.889-4.717-13.889-16.186v-47.026h13.509
	v-12.492H117.315z M33.075,339.186h-6.629v40.146c0,5.862,1.4,8.667,3.184,8.667c2.169,0,3.445-2.805,3.445-8.667V339.186z
	 M110.434,326.697H39.956v52.635c0,4.078-0.764,7.009-1.913,9.303h68.567c2.291,0,3.824-2.677,3.824-4.46V326.697z M67.102,350.911
	H50.916v-2.294h16.186V350.911z M67.102,358.43H50.916v-2.294h16.186V358.43z M67.102,365.694H50.916V363.4h16.186V365.694z
	 M67.102,372.703H50.916v-2.292h16.186V372.703z M67.102,379.968H50.916v-2.292h16.186V379.968z M53.336,336.767h42.44v4.46h-42.44
	V336.767z M73.475,348.617h27.142v25.872H73.475V348.617z"/>
<path d="M259.623,326.343h-92.46c-1.828,0-3.309,1.483-3.309,3.309v58.028c0,1.83,1.481,3.309,3.309,3.309h92.46
	c1.828,0,3.31-1.479,3.31-3.309v-58.028C262.933,327.826,261.451,326.343,259.623,326.343 M170.472,335.716l29.582,21.954
	l-29.582,24.112V335.716z M213.392,360.357l-36.91-27.395h73.825L213.392,360.357z M204.166,360.719l7.502,5.57
	c0.512,0.379,1.119,0.568,1.724,0.568s1.215-0.189,1.726-0.568l7.743-5.751c0.019,0.013,0.027,0.03,0.043,0.043l28.811,23.79
	h-76.564L204.166,360.719z M226.965,357.494l29.349-21.778v46.014L226.965,357.494z"/>
<path d="M339.062,353.744c-5.342-4.993-9.423-14.71-9.423-22.562c0-11.1,8.777-17.421,17.085-17.421
	c8.307,0,16.643,6.914,16.643,18.025c0,7.853-4.512,17.259-10.081,22.079c1.143,4.536,7.41,6.013,20.36,9.689
	c4.776,1.355,5.664,3.409,8.309,5.812h-27.781c-0.577,0-1.115,0.134-1.586,0.402c0,0-1.623,0.698-1.744,2.94v16.159h-41.954
	c-0.039-6.789-1.932-21.232,12.456-25.311c12.589-3.586,16.173-5.074,17.569-9.316"/>
<path d="M357.115,403c-0.262,0-0.521-0.026-0.767-0.092l11.251-14.89l0.856-1.13l1.508,1.13l9.641,7.238h0.299l9.642-7.238
	l1.507-1.13l0.859,1.13l11.249,14.89c-0.258,0.066-0.518,0.092-0.766,0.092h-22.594h-0.092H357.115z"/>
<path d="M355.581,373.429c0.454-0.261,0.974-0.392,1.534-0.392h29.494h15.475c0.648,0,1.246,0.197,1.765,0.521l-11.51,8.471
	l-8.159,5.99l-4.573,3.364l-4.51-3.364L355.581,373.429z"/>
<path d="M405.618,376.273v23.491c0,0.403-0.065,0.78-0.209,1.131l-11.966-15.811l12.158-9.137
	C405.618,376.04,405.618,376.157,405.618,376.273"/>
<path d="M366.065,385.084l-2.224,2.935l-9.743,12.877c-0.141-0.352-0.206-0.729-0.206-1.131v-11.746v-11.746
	c0-0.117,0-0.234,0.012-0.326L366.065,385.084z"/>
<path d="M500.869,307.395c-20.93,0-37.322,10.525-37.322,23.962c0,0.343,0.021,0.682,0.044,1.023h-0.044
	c0,0-0.011,7.551-0.047,17.119c-0.02,12.965-0.053,29.638-0.053,36.297c0,13.423,16.337,23.949,37.209,23.949
	c20.805,0,37.098-10.526,37.098-23.949c0-3.657,0.045-10.514,0.1-18.141c0.135-16.203,0.325-35.971,0.337-36.26v-0.04
	C538.19,317.92,521.797,307.395,500.869,307.395 M532.836,350.521c-0.013,1.323-0.023,2.673-0.033,4.05v0.59
	c-0.237,0.432-0.491,0.853-0.783,1.271c-1.066,1.56-2.466,3.029-4.157,4.366c-6.146,4.889-16.058,8.128-26.996,8.128
	c-8.531,0-16.427-1.974-22.409-5.159v3.421c6.111,2.993,13.868,4.765,22.411,4.765c11.589,0,21.745-3.251,28.285-8.402
	c1.364-1.061,2.575-2.229,3.604-3.448c-0.044,4.247-0.076,8.497-0.112,12.35v1.139c-4.443,7.733-17.197,13.473-31.776,13.473
	c-8.533,0-16.429-1.975-22.411-5.158v3.418c6.111,2.992,13.863,4.77,22.413,4.77c13.896,0,25.72-4.667,31.743-11.678
	c-0.01,3.041-0.021,5.582-0.021,7.379c0,9.701-14.624,17.905-31.935,17.905c-17.139,0-31.646-7.987-32.032-17.517h-0.019v-0.388
	v-0.762v-31.535h0.047c0.003-0.783,0.007-1.571,0.007-2.336c0.013-2.412,0.013-4.706,0.023-6.829
	c0.069-0.145,0.135-0.302,0.226-0.444c0.593,0.642,1.242,1.257,1.926,1.847c0.359,0.313,0.729,0.615,1.11,0.917
	c0.356,0.276,0.716,0.55,1.097,0.826c1.869,1.336,3.974,2.532,6.291,3.565c6.047,2.701,13.45,4.274,21.534,4.274
	s15.485-1.573,21.532-4.274c2.305-1.033,4.412-2.229,6.293-3.565c0.368-0.276,0.738-0.537,1.098-0.826
	c0.391-0.302,0.762-0.604,1.12-0.917c0.681-0.591,1.33-1.205,1.925-1.836c0.022,0.04,0.046,0.093,0.064,0.131
	C532.882,346.064,532.858,348.239,532.836,350.521 M533.017,331.371c0,2.031-0.65,3.998-1.837,5.832
	c-0.246,0.406-0.538,0.8-0.863,1.193c-0.29,0.381-0.603,0.748-0.949,1.101c-0.304,0.329-0.618,0.643-0.94,0.932
	c-0.347,0.326-0.708,0.642-1.087,0.943c-0.348,0.275-0.705,0.552-1.086,0.826c-2.084,1.506-4.593,2.817-7.402,3.892
	c-5.161,1.994-11.376,3.174-17.982,3.174s-12.824-1.18-17.983-3.174c-2.811-1.075-5.318-2.398-7.401-3.892
	c-0.383-0.274-0.739-0.552-1.087-0.826c-0.381-0.301-0.74-0.617-1.085-0.943c-0.326-0.302-0.638-0.603-0.941-0.932
	c-0.348-0.353-0.661-0.721-0.952-1.101c-0.324-0.392-0.603-0.786-0.852-1.193c-1.198-1.834-1.847-3.813-1.847-5.846
	c0-9.714,14.724-17.906,32.148-17.906h0.021c17.41,0.014,32.126,8.193,32.126,17.906V331.371z"/>
<path d="M678.527,309.312h-48.832h-7.053h-5.449c-1.939,0-4.717,1.05-6.172,2.331l-0.781,0.689c-1.456,1.283-2.646,3.92-2.646,5.859
	v2.692v0.585v83.026c0,1.939,1.588,3.526,3.526,3.526h61.33c1.941,0,3.526-1.587,3.526-3.526v-83.611
	c0-1.94-1.585-3.527-3.526-3.527h-40.997c0-1.284-1.04-2.324-2.322-2.324c-1.28,0-2.319,1.04-2.319,2.324v0.912v23.289l-5.84-5.702
	l-5.055,5.702v-24.202h-4.797c-0.026,0-0.048,0.006-0.073,0.008l3.792-4.345h11.327h52.305v88.132h0.056
	c1.938,0,3.526-1.588,3.526-3.526v-84.786C682.053,310.898,680.465,309.312,678.527,309.312"/>
<path d="M18.591,460.358h100v84.615h-100V460.358z M26.284,537.282h84.615v-61.539H26.284V537.282z M33.976,487.282h11.538
	l11.539,15.385l-11.539,15.385H33.976l11.538-15.385L33.976,487.282z"/>
<path d="M224.585,548.392c-4.581,1.793-9.726,2.785-15.442,2.785c-5.955,0-11.606-1.356-16.742-3.715
	c-2.323-1.119-3.88-2.586-3.88-4.494v-5.627c-11.354-6.725-19.65-19.047-22.048-34.592c-1.602-1.088-2.535-2.363-2.535-3.865
	c0-1.504,0.867-2.617,1.695-3.336c1.609-1.399,4.432-2.506,7.906-3.383c2.303-3.518,6.276-5.848,10.783-5.848
	c1.725,0,3.373,0.342,4.88,0.957c1.921-3.349,5.511-5.429,9.36-5.429c0.644,0,1.275,0.058,1.89,0.168
	c1.011-4.971,5.436-8.629,10.571-8.629c5.736,0,10.426,4.478,10.765,10.131c2.332,0.214,4.557,1.203,6.286,2.783l14.214-27.875
	c1.891-3.492,7.13-0.656,5.239,2.832l-13.433,23.803c0.788,0.025,1.556,0.134,2.302,0.32l20.002-30.779
	c2.244-3.276,7.16,0.091,4.918,3.367l-20.92,29.377c1.493,1.162,2.678,2.709,3.396,4.506c6.283,1.486,10.862,3.707,10.862,7.035
	c0,1.648-1.123,3.025-3.025,4.177c-2.545,14.25-9.55,27.135-21.145,34.211v5.696C230.484,545.409,227.96,547.196,224.585,548.392
	 M209.143,547.601c5.3,0,10.056-0.938,14.194-2.557c1.477-0.524,2.552-1.108,3.139-1.611c0.278-0.239,0.394-0.395,0.433-0.465
	l0.041-3.787c-5.149,2.427-11.082,3.802-17.807,3.802c-6.037,0-11.78-1.31-16.999-3.73l0.087,3.853
	c0.258,0.284,0.778,0.686,1.693,1.127C198.617,546.379,203.75,547.601,209.143,547.601 M247.829,504.77
	c-11.354,3.918-33.388,4.127-38.531,4.127c-5.192,0-27.604-0.211-38.857-4.244c4.238,21.096,20.165,34.758,38.702,34.758
	C228.379,539.409,243.668,525.811,247.829,504.77 M232.297,488.232l-4.401,7.803c0.428,0.127,0.847,0.291,1.254,0.49l5.489-8.447
	c-0.289-0.031-0.577-0.047-0.872-0.047C233.254,488.03,232.767,488.107,232.297,488.232 M244.546,496.102
	c2.036,0.713,3.722,2.26,4.621,4.274c1.981-0.977,2.27-1.736,2.27-1.912c0-0.147-0.207-0.715-1.457-1.473
	c-0.703-0.426-1.739-0.914-3.255-1.422c-0.689-0.23-1.429-0.451-2.211-0.654c0.027,0.303,0.04,0.609,0.04,0.922
	C244.552,495.927,244.55,496.017,244.546,496.102 M240.012,495.915c0.524-0.133,1.047-0.211,1.562-0.236
	c-0.047-2.412-1.185-4.52-2.903-5.909l-6.566,9.229c0.149,0.207,0.291,0.424,0.426,0.646c1.007,1.709-1.562,3.223-2.564,1.51
	c-1.806-3.06-6.345-3.472-8.427-0.222c-1.072,1.671-3.58,0.062-2.507-1.608c1.044-1.627,2.474-2.681,4.041-3.211l3.578-7.021
	c-1.477-1.666-3.625-2.643-5.855-2.643c-1.895,0-1.964-0.676-1.964-2.281c0-4.311-3.496-7.805-7.808-7.805
	c-4.236,0-7.681,3.401-7.802,7.571c-0.004,0.119-0.017,0.228-0.032,0.326c3.197-0.188,6.505,1.377,8.203,4.615
	c0.924,1.76-1.715,3.143-2.637,1.383c-2.156-4.108-8.246-4.123-10.117,0.377c-0.763,1.83-3.513,0.687-2.752-1.147
	c0.882-2.117,2.384-3.588,4.132-4.422c-0.551-0.119-1.07-0.238-1.455-0.238c-4.94,0-6.19,3.467-7.415,5.111
	c1.199,0.205,2.369,0.668,3.42,1.405c1.627,1.14-0.083,3.576-1.709,2.439c-2.811-1.971-6.935-0.916-8.325,2.428
	c-0.764,1.834-3.513,0.687-2.75-1.143c1.162-2.795,3.555-4.545,6.191-5.08c-1.129-0.447-2.362-0.693-3.652-0.693
	c-5.462,0-9.903,4.449-9.903,9.902c0,1.987-2.979,1.987-2.979,0c0-1.299,0.193-2.554,0.554-3.732
	c-1.406,0.451-2.595,0.961-3.487,1.525c-0.286,0.18-0.542,0.369-0.765,0.563c-0.485,0.42-0.586,0.726-0.586,0.908
	c0,0.23,0.507,1.48,4.716,2.894c3.652,1.223,8.694,2.09,14.021,2.682c1.945,0.217,3.903,0.397,5.815,0.539
	c1.296-3.791,5.575-6.267,10.2-6.267c3.023,0,5.804,1.025,7.767,2.744c1.494,1.306-0.469,3.549-1.961,2.242
	c-1.372-1.201-3.437-2.01-5.806-2.01c-3.355,0-5.939,1.566-7.036,3.508c7.196,0.445,13.19,0.463,14.426,0.463
	c1.73,0,12.782-0.037,23.403-1.219c5.164-0.578,10.067-1.408,13.689-2.576c-0.975-2.041-3.245-3.27-5.65-2.662
	C238.818,499.29,238.083,496.4,240.012,495.915"/>
<path d="M404.524,463.208c-0.307-0.31-0.732-0.488-1.168-0.488c-1.072,0-2.142,0.047-3.212,0.117l0.036-2.758
	c0.009-0.584-0.218-1.148-0.63-1.564c-0.411-0.416-0.972-0.69-1.557-0.69c-0.666,0-1.334,0.012-2.001,0.012h0.009l0.027-2.223
	c0.007-0.583-0.22-1.128-0.632-1.542c-0.409-0.416-0.972-0.641-1.556-0.641c-18.775,0-37.042,16.527-42.409,21.812
	c-13.238-12.24-30.93-20.191-31.706-20.537c-0.685-0.304-1.479-0.236-2.103,0.182s-0.992,1.125-0.972,1.873l0.073,2.883
	c0.033,0.013,0.077,0.035,0.11,0.049c-0.734-0.319-1.198-0.512-1.313-0.559c-0.684-0.281-1.464-0.199-2.073,0.225
	c-0.609,0.42-0.964,1.119-0.943,1.857l0.09,3.248c-1.009-0.381-1.591-0.588-1.626-0.598c-0.504-0.177-1.077-0.093-1.514,0.225
	c-0.435,0.322-0.686,0.834-0.668,1.375l2.186,67.441c0.025,0.776,0.6,1.436,1.365,1.563c17.982,3.061,39.453,16.496,39.67,16.633
	c0.263,0.164,0.566,0.252,0.875,0.252c0.196,0,0.388-0.035,0.569-0.104c19.521-7.25,48.912-14.627,49.207-14.699
	c0.722-0.18,1.232-0.822,1.244-1.564l1.093-70.604C405.003,463.946,404.832,463.521,404.524,463.208 M312.144,467.799
	c6.411,2.447,24.662,9.906,37.733,19.986c0.163,0.125,0.349,0.205,0.545,0.258c-0.705,0.221-1.211,0.93-1.182,1.695l2.111,57.127
	c-0.169-0.099-0.34-0.201-0.524-0.308l-3.229-58.108c-4.993-5.992-30.954-17.451-35.414-19.39L312.144,467.799z M353.319,511.272
	l5.166,3.677l-4.923,2.916L353.319,511.272z M353.615,519.278l5.059,1.441l-4.819,5.09L353.615,519.278z M354.649,547.324
	l-0.779-21.117l6.831-0.269l-3.392,6.615l7.059-2.463l-1.239,7.074l6.194-4.39l1.023,6.84l4.72-5.893l3.196,5.939l2.78-6.818
	l5.056,4.459l0.572-7.078l6.419,2.537l-1.693-6.639l7.153,0.368l-3.786-5.559l6.101-1.557l-0.222,14.307
	C395.061,535.108,371.898,541.141,354.649,547.324 M375.663,527.086c0-1.51,1.605-2.734,3.588-2.734
	c1.981,0,3.587,1.224,3.587,2.734c0,1.51-1.605,2.733-3.587,2.733C377.269,529.819,375.663,528.596,375.663,527.086
	 M396.428,515.168l4.543-2.687l-0.092,5.855L396.428,515.168z M396.237,509.399l4.859-5.133l-0.1,6.492L396.237,509.399z
	 M401.104,503.91l-6.889,0.272l3.389-6.613l-7.057,2.461l1.239-7.073l-2.982,2.114l-4.771,29.281c-2.391-2.186-8.37,0-8.37,0
	l-6.056-30.832l-0.79-0.698l-0.573,7.077l-5.82-2.301c0.4-0.195,0.765-0.367,1.058-0.496c0.812-0.362,1.65-0.733-0.351-13.414
	c-0.052-0.338-0.258-0.629-0.557-0.791c-0.3-0.162-0.656-0.18-0.966-0.041c-0.163,0.074-4.039,1.797-7.019,3.558
	c-0.361,0.213-0.569,0.612-0.534,1.028l0.986,12.246c0.029,0.367,0.242,0.693,0.565,0.871c0.163,0.09,0.343,0.135,0.524,0.135
	c0.177,0,0.354-0.043,0.515-0.129c0.038-0.022,3.079-1.637,5.303-2.737l1.57,6.172l-7.151-0.367l3.784,5.559l-6.844,1.746
	l-0.791-21.424c-0.027-0.729-0.527-1.295-1.191-1.477c0.22-0.06,0.432-0.15,0.609-0.297c0.249-0.21,24.947-20.806,49.755-21.712
	L401.104,503.91z M357.088,497.86l-0.798-9.905c1.712-0.97,3.65-1.914,4.9-2.5c0.61,4.123,1.095,8.514,0.981,9.838
	C360.782,495.942,358.555,497.092,357.088,497.86 M366.474,473.992c-0.744,0.418-1.464,0.836-2.168,1.252
	c8.251-5.791,19.83-12.193,31.475-12.937l-0.013,0.986C384.55,464.93,373.95,469.787,366.474,473.992 M391.629,457.836
	c-9.554,2.188-18.69,6.26-26.006,10.934c7.157-5.17,16.561-10.543,26.006-11.276l-0.004,0.342H391.629z M393.828,458.086
	c-0.034,0.004-0.068,0.01-0.105,0.014C393.76,458.096,393.794,458.09,393.828,458.086 M351.444,479.831
	c-0.193,0.174-0.375,0.336-0.542,0.491C351.068,480.167,351.251,480.002,351.444,479.831 M365.324,469.235
	c-0.36,0.232-0.718,0.464-1.07,0.697C364.606,469.699,364.964,469.467,365.324,469.235 M363.714,470.295
	c-0.267,0.178-0.534,0.358-0.797,0.537C363.18,470.653,363.447,470.473,363.714,470.295 M362.358,471.217
	c-0.246,0.17-0.491,0.342-0.73,0.51C361.868,471.559,362.11,471.387,362.358,471.217 M361.081,472.115
	c-0.236,0.168-0.47,0.338-0.7,0.504C360.611,472.453,360.845,472.283,361.081,472.115 M359.87,472.99
	c-0.238,0.176-0.472,0.352-0.703,0.524C359.398,473.342,359.632,473.167,359.87,472.99 M358.716,473.85
	c-0.253,0.189-0.497,0.379-0.741,0.566C358.219,474.227,358.463,474.04,358.716,473.85 M357.619,474.69
	c-0.715,0.55-1.39,1.088-2.024,1.599C356.229,475.778,356.904,475.24,357.619,474.69 M355.311,476.522
	c-0.217,0.177-0.433,0.355-0.64,0.525C354.878,476.877,355.091,476.699,355.311,476.522 M354.361,477.307
	c-0.186,0.156-0.371,0.308-0.549,0.459C353.99,477.615,354.173,477.461,354.361,477.307 M353.512,478.021
	c-0.169,0.144-0.336,0.287-0.496,0.426C353.178,478.307,353.342,478.165,353.512,478.021 M352.747,478.678
	c-0.162,0.141-0.318,0.277-0.471,0.41C352.429,478.956,352.584,478.819,352.747,478.678 M352.061,479.278
	c-0.163,0.144-0.317,0.283-0.467,0.416C351.744,479.561,351.897,479.424,352.061,479.278 M347.041,477.19
	c-9.272-7.131-19.651-12.559-25.889-15.528l-0.037-1.435C326.511,462.932,337.792,469.067,347.041,477.19 M319.948,461.096
	c-0.116-0.055-0.23-0.108-0.343-0.16C319.719,460.99,319.831,461.042,319.948,461.096 M318.703,460.524
	c-0.047-0.022-0.101-0.045-0.147-0.067C318.603,460.477,318.655,460.502,318.703,460.524 M317.67,460.059
	c-0.085-0.037-0.165-0.074-0.245-0.108C317.506,459.985,317.583,460.021,317.67,460.059 M316.973,464.551
	c4.465,2.045,13.096,6.275,21.63,11.982c-8.151-4.597-16.276-8.171-21.585-10.334L316.973,464.551z"/>
<path d="M368.371,480.796l7.652,42.638c0,0,2.431-0.97,4.697-0.97c1.134,0,2.228,0.242,2.956,0.97l7.653-51.384
	C391.33,472.05,371.65,475.331,368.371,480.796 M386.086,477.577l-6.037,40.531c-0.177,0.01-0.354,0.022-0.531,0.039l-6.451-35.945
	C375.236,480.747,380.348,478.944,386.086,477.577"/>
<rect x="452.818" y="455.163" width="45" height="45"/>
<rect x="503.819" y="455.163" width="45" height="45"/>
<rect x="452.818" y="505.354" width="45" height="45"/>
<rect x="503.819" y="505.354" width="45" height="45"/>
<path d="M675.748,549.906l-30.899-22.453l-30.901,22.453l11.803-36.328l-30.901-22.451h38.195l11.805-36.326l11.805,36.326h38.195
	l-30.9,22.451L675.748,549.906z M644.849,522.506l23.286,16.918l-8.894-27.373l23.285-16.92h-28.783l-8.895-27.375l-8.896,27.375
	H607.17l23.287,16.92l-8.896,27.373L644.849,522.506z"/>
<path d="M94.284,698.667H32.622v-66.594l22.391-20.762h16.88l22.391,20.764V698.667z M42.899,688.389h41.107v-51.828l-16.145-14.973
	h-8.816l-16.146,14.973V688.389z M58.315,654.989h-5.141v26.977h5.141V654.989z M73.729,654.989h-5.138v26.977h5.138V654.989z
	 M63.451,646.524c-6.02,0-10.917-4.9-10.917-10.92c0-6.021,4.897-10.918,10.917-10.918c6.022,0,10.921,4.896,10.921,10.918
	C74.372,641.624,69.473,646.524,63.451,646.524 M63.451,631.106c-2.477,0-4.495,2.018-4.495,4.498c0,2.477,2.018,4.496,4.495,4.496
	c2.48,0,4.498-2.016,4.498-4.496C67.949,633.125,65.931,631.106,63.451,631.106 M63.638,637.004c-1.239,0-2.331-0.9-2.533-2.166
	c-2.368-14.844,14.563-24.93,26.716-30.17c1.073-2.193,2.077-4.308,2.949-6.217c2.031-4.438,5.602-5.496,8.269-5.012
	c3.004,0.549,5.321,2.971,5.51,5.758c0.099,1.456-0.297,5.045-6.07,6.926c-2.302,0.752-4.612,1.59-6.881,2.508
	c-2.989,6.018-6.432,12.457-9.215,16.826c-0.764,1.194-2.351,1.547-3.549,0.785c-1.196-0.764-1.548-2.352-0.784-3.547
	c1.766-2.773,3.894-6.576,6.012-10.613c-10.958,5.682-19.259,13.326-17.883,21.947c0.221,1.402-0.733,2.719-2.133,2.943
	C63.911,636.995,63.773,637.004,63.638,637.004 M97.802,598.465c-1.199,0-1.984,1.301-2.359,2.121c-0.2,0.44-0.408,0.887-0.622,1.35
	c0.765-0.27,1.459-0.5,2.063-0.699c1.96-0.637,2.555-1.419,2.536-1.695c-0.022-0.334-0.543-0.91-1.306-1.049
	C98.008,598.475,97.904,598.465,97.802,598.465"/>
<path d="M258.105,663.114c-3.745-1.666-7.761-1.916-11.446-0.975c-3.379-16.225-13.73-30.344-28.325-38.4
	c1.592-4.307,5.093-7.539,9.322-8.885c-1.823-1.443-4.015-2.475-6.462-2.924c-6.146-1.125-12.099,1.758-15.17,6.789
	c-1.647-0.455-3.323-0.84-5.035-1.154c-14.811-2.709-37.289-2.395-35.168,12.717c-11.228,7.797-6.726,9.393-0.181,7.385
	c9.502-2.811,19.471-2.387,29.854-0.998c-0.543,0.793-0.669,0.285-1.115,2.719c-0.445,2.434,1.851,7.562,5.711,8.268l0.017,0.002
	c-1.039-1.498-1.5-3.404-1.149-5.324s1.426-3.494,2.894-4.527c15.441,3.461,32.501,13.047,41.917,25.344
	c-3.792,1.707-6.996,4.762-8.82,8.86c-1.301,2.921-1.735,6.005-1.42,8.97c2.854-5.367,15.445-7.527,14.099-12.275
	c3.976,3.428,11.388-1.264,17.861,0.588C263.715,666.668,261.21,664.497,258.105,663.114"/>
<path d="M547.239,654.29h-16.2v-5.164h6.503v-5.484h-35.599v-5.266h16.201c3.701,0,4.1-2.648,4.1-3.785v-19.058
	c0-2.847-1.378-4.288-4.1-4.288h-34.751c-1.87,0-4.101,0.744-4.101,4.288v19.058c0,1.414,0.534,3.785,4.101,3.785h16.201v5.266
	h-35.569v5.484h6.574v5.092h-16.2c-1.872,0-4.102,0.742-4.102,4.287v19.057c0,1.414,0.533,3.785,4.102,3.785h34.752
	c3.699,0,4.099-2.647,4.099-3.785v-19.057c0-2.847-1.379-4.287-4.099-4.287h-16.204v-5.092h55.743v5.166h-16.203
	c-1.87,0-4.099,0.741-4.099,4.287v19.059c0,1.414,0.531,3.785,4.099,3.785h34.752c3.699,0,4.1-2.646,4.1-3.785v-19.059
	C551.339,655.733,549.96,654.29,547.239,654.29 M482.824,634.792c-0.006-0.051-0.009-0.117-0.009-0.201v-19.058
	c0-0.39,0.037-0.603,0.064-0.709c0.085-0.017,0.245-0.041,0.514-0.041h34.751c0.266,0,0.426,0.021,0.518,0.038
	c0.025,0.111,0.06,0.326,0.06,0.712v19.058c0,0.084-0.003,0.15-0.009,0.199c-0.104,0.023-0.282,0.047-0.568,0.047h-34.751
	C483.113,634.836,482.934,634.815,482.824,634.792 M489.665,657.793c0.028,0.111,0.062,0.328,0.062,0.711v19.057
	c0,0.086-0.004,0.15-0.011,0.199c-0.103,0.021-0.283,0.045-0.567,0.045h-34.75c-0.28,0-0.463-0.022-0.571-0.043
	c-0.004-0.051-0.009-0.115-0.009-0.201v-19.057c0-0.389,0.036-0.602,0.062-0.707c0.088-0.02,0.247-0.041,0.518-0.041h34.752
	C489.414,657.756,489.576,657.776,489.665,657.793 M547.819,677.637c0,0.082-0.005,0.147-0.012,0.199
	c-0.105,0.02-0.283,0.045-0.568,0.045h-34.752c-0.278,0-0.46-0.021-0.568-0.043c-0.005-0.051-0.009-0.119-0.009-0.201v-19.059
	c0-0.391,0.037-0.602,0.063-0.707c0.087-0.02,0.245-0.039,0.514-0.039h34.752c0.265,0,0.426,0.018,0.517,0.034
	c0.027,0.112,0.063,0.329,0.063,0.712V677.637z"/>
<path d="M695.287,682.498h-100v-73h100V682.498z M603.287,674.498h84v-57h-84V674.498z"/>
<polygon points="630.286,623.497 609.286,668.497 681.286,668.497 663.286,644.497 652.286,653.497 "/>
<path d="M672.286,624.497c3.866,0,7,3.133,7,7c0,3.865-3.134,7-7,7s-7-3.135-7-7C665.286,627.629,668.42,624.497,672.286,624.497"/>
<path d="M71.096,838.667H69.75H52.264c2.464,0,2.69,2,2.69,2H69.75h1.346h14.796c0,0,0.226-2,2.69-2H71.096z"/>
<path d="M69.75,745.667h1.346h17.486c-2.466,0-2.69-5-2.69-5H71.096H69.75H54.954c0,0-0.228,5-2.69,5H69.75z"/>
<path d="M52.422,837.667h36v-91h-36V837.667z M77.065,796.288l-17.777,14.926l10.768-14.072l-10.768-10.375l8.203-15.1h14.357
	l-12.305,15.301L77.065,796.288z"/>
<path d="M264.713,808.957l-0.131-1.354l-15.589,2.984c0.056-3.807,0.2-14.389,0.181-25.857c-0.002-1.771,0-3.568,0-5.365
	c0.004-10.703,0.01-21.77-0.777-28.084c-0.465-3.73-2.829-9.613-7.192-9.613h-0.07c-15.162,0.213-62.319,6.16-70.12,7.156
	c-1.819-0.023-3.355,0.605-4.561,1.891c-4.011,4.275-2.705,14.57-2.648,15.008l0.163,1.235l15.216-2.087
	c1.211,8.656,0.974,20.242,0.753,31.07c-0.053,2.613-0.109,5.311-0.143,7.922c-0.022,1.561-0.055,3.104-0.09,4.617
	c-0.328,14.781-0.611,27.547,12.465,30.543c1.067,0.242,2.073,0.365,3.019,0.365c0.963,0,1.863-0.127,2.699-0.381l0.026,0.116
	l60.229-13.351l0.08-0.02c0.198-0.059,4.886-1.488,6.157-6.92C265.288,814.961,264.737,809.198,264.713,808.957 M166.136,764.157
	c-0.256-3.254-0.203-9.268,2.124-11.746c0.548-0.582,1.197-0.93,1.967-1.057l0.01,0.068c0.039-0.004,0.369-0.047,0.937-0.119
	c0.032,0,0.063,0,0.096,0.002c4.051,0.276,6.302,4.627,7.518,11.119L166.136,764.157z M199.254,835.44
	c-1.56,1.435-3.696,1.812-6.529,1.166c-11.107-2.543-10.859-13.807-10.541-28.07c0.033-1.52,0.068-3.07,0.089-4.641
	c0.035-2.6,0.089-5.248,0.143-7.9c0.227-11.088,0.46-22.557-0.722-31.244c-0.957-7.031-2.818-11.688-5.637-14.064
	c14.496-1.811,51.992-6.354,65.113-6.539h0.032c2.689,0,4.41,4.838,4.735,7.441c0.768,6.161,0.761,17.148,0.758,27.775
	c-0.002,1.799-0.002,3.596,0,5.371c0.02,12.015-0.14,23.057-0.19,26.328l-44.546,8.535l0.166,1.168
	C202.548,823.725,202.853,832.131,199.254,835.44 M261.966,818.27c-0.897,3.84-4.056,4.979-4.41,5.096l-55.226,12.242
	c2.886-4.357,2.622-11.262,2.379-14.014l57.633-11.039C262.45,812.428,262.534,815.848,261.966,818.27"/>
<path d="M307.209,751.932v4.143v70.182v4.143h4.034h92.677h4.033v-4.143v-70.182v-4.143h-4.033h-92.677H307.209z M315.277,760.219
	h84.608v61.895h-84.608V760.219z"/>
<path d="M320.77,765.184v0.658v50.614v0.657h0.614h72.624h0.659v-0.657v-50.614v-0.658h-0.659h-72.624H320.77z M322.043,766.5
	h71.306v49.295h-71.306V766.5z"/>
<path d="M383.684,791.057c0.29-0.514,0.596-1.02,0.905-1.521c0.302,0.514,0.595,1.037,0.923,1.539
	c0.425-0.42,0.889-0.795,1.331-1.194c0.118,0.587,0.255,1.169,0.391,1.755c0.539-0.234,1.083-0.467,1.628-0.693
	c-0.026,0.592-0.104,1.182-0.145,1.773c0.586-0.064,1.173-0.115,1.759-0.162c-0.225,0.553-0.468,1.098-0.697,1.645
	c0.579,0.119,1.151,0.252,1.726,0.379c-0.364,0.467-0.781,0.89-1.138,1.363c0.496,0.303,1.002,0.596,1.508,0.895
	c-0.502,0.322-1.021,0.619-1.53,0.926c0.396,0.438,0.778,0.883,1.165,1.33c-0.569,0.152-1.151,0.271-1.726,0.404
	c0.225,0.554,0.48,1.092,0.692,1.648c-0.586-0.059-1.173-0.105-1.755-0.17c0.033,0.596,0.094,1.186,0.141,1.782
	c-0.545-0.235-1.085-0.478-1.632-0.688c-0.06,0.272-0.167,0.559-0.052,0.832c0.947,2.848,1.903,5.691,2.869,8.535
	c-0.773-0.447-1.518-0.936-2.287-1.383c-0.398,0.762-0.773,1.535-1.194,2.283c-0.055-0.17-0.098-0.344-0.141-0.52
	c-0.586-2.57-1.207-5.139-1.789-7.709h-0.11c-0.464,2.02-0.942,4.033-1.411,6.049c-0.174,0.713-0.311,1.436-0.517,2.137
	c-0.423-0.748-0.788-1.521-1.192-2.277c-0.769,0.451-1.513,0.936-2.282,1.381c0.978-2.826,1.887-5.674,2.855-8.5
	c0.091-0.273,0.022-0.562-0.046-0.828c-0.552,0.211-1.092,0.459-1.637,0.688c0.039-0.597,0.11-1.187,0.146-1.786
	c-0.587,0.059-1.169,0.111-1.755,0.174c0.224-0.552,0.471-1.095,0.691-1.648c-0.568-0.133-1.146-0.252-1.717-0.396
	c0.375-0.459,0.778-0.896,1.16-1.346c-0.519-0.293-1.028-0.596-1.534-0.918c0.514-0.299,1.012-0.609,1.531-0.895
	c-0.379-0.461-0.8-0.889-1.161-1.363c0.574-0.123,1.147-0.26,1.721-0.379c-0.225-0.547-0.463-1.096-0.691-1.645
	c0.591,0.029,1.177,0.098,1.759,0.162c-0.03-0.592-0.098-1.182-0.141-1.773c0.544,0.223,1.079,0.477,1.633,0.676
	c0.127-0.576,0.272-1.15,0.382-1.732C382.774,790.276,383.204,790.696,383.684,791.057 M384.368,792.028
	c-1.411,0.045-2.78,0.781-3.588,1.938c-0.904,1.232-1.104,2.928-0.582,4.359c0.356,1.029,1.122,1.9,2.062,2.445
	c1.323,0.76,3.022,0.795,4.395,0.131c0.753-0.357,1.381-0.947,1.849-1.635c1.037-1.574,0.995-3.783-0.118-5.307
	C387.5,792.68,385.916,791.932,384.368,792.028"/>
<path d="M384.283,792.366c1.674-0.143,3.379,0.822,4.136,2.322c0.382,0.695,0.514,1.504,0.476,2.291
	c-0.077,1.928-1.628,3.676-3.532,3.986c-1.679,0.326-3.515-0.447-4.42-1.904c-0.995-1.475-0.914-3.566,0.175-4.973
	C381.848,793.084,383.042,792.448,384.283,792.366"/>
<path d="M358.579,775.965l-0.035,2.283c9.143,0.094,15.724,1.385,20.034,2.707c4.474,1.373,6.468,2.673,6.468,2.673l1.229-1.829
	c0,0-2.342-1.514-7.029-2.953C374.73,777.462,367.922,776.065,358.579,775.965 M353.94,776.001
	c-4.31,0.159-7.996,0.589-11.142,1.159l0.457,2.213c3.064-0.527,6.682-0.945,10.896-1.09l0.035-2.282
	C354.106,776.003,354.02,775.999,353.94,776.001 M338.51,778.108c-0.968,0.246-1.889,0.488-2.707,0.738
	c-4.688,1.439-6.994,2.953-6.994,2.953l1.23,1.829c0,0,1.925-1.3,6.397-2.673c0.763-0.234,1.622-0.477,2.531-0.702L338.51,778.108z"
	/>
<rect x="326.525" y="804.645" width="16.871" height="1.125"/>
<rect x="326.525" y="810.268" width="16.871" height="1.125"/>
<path d="M457.73,767.616c-2.419-4.07-6.604-8.094-9.623-9.254l-0.487-0.188v-1.959v-1.959l0.312-0.043l27.423-0.043
	c0.017,0.746,0.031,2.301,0.011,3.762c-3.626,0.449-7.999,2.223-6.787,6.288c6.914,15.276,13.205,30.825,20.031,46.14l11.717-21.906
	c-4.535-9.287-7.837-18.68-12.801-27.791c-1.617-2.623-5.993-2.694-9.093-2.799l0.011-3.625l25.922,0.088l0.074,3.504
	c-2.337,0.322-5.091,0.877-4.778,3.709l7.356,16.271c2.421-5.166,5.112-10.221,7.248-15.514c0.969-4.191-3.746-4.402-6.753-4.518
	l-0.054-3.453l23.163-0.088v3.531c-3.386,0.241-6.588,1.217-8.456,3.719c-4.539,7.018-7.905,14.982-11.441,22.604
	c3.492,8.259,7.134,16.509,10.704,24.084l19.743-45.538c-1.332-3.002-4.35-4.062-7.31-4.748l-0.15-3.673l21.893,0.175l-0.001,3.572
	c-0.976,0.152-1.909,0.453-2.811,0.846c-1.714,0.795-3.33,2.371-4.415,4.303l-27.212,62.611l-4.561,0.033L503.66,795.27
	l-15.715,30.486l-4.718,0.002C474.047,806.633,467.405,786.508,457.73,767.616"/>
<polygon points="611.704,755.065 632.148,755.065 658.828,794.264 658.828,755.065 679.466,755.065 679.466,825.919 
	658.828,825.919 632.294,787.014 632.294,825.919 611.704,825.919 "/>
<path d="M76.361,927.116c-0.353-0.074-0.622-0.15-0.959-0.226v-12.123c5.604,0.903,11.528,3.358,17.053,7.246l10.771-15.209
	c-7.531-6.043-16.578-9.502-27.824-10.185v-10.641H69.98v10.545C52.099,897,41.169,907.252,41.169,921.342v0.226
	c0,15.819,12.516,20.545,28.811,24.307v12.769c-7.261-0.928-14.177-3.966-20.482-8.986l-11.989,14.315
	c8.629,7.726,20.17,11.969,32.471,12.715v9.186h5.422v-9.075c18.031-0.482,29.934-9.811,29.934-25.254v-0.229
	C105.336,936.777,94.235,931.002,76.361,927.116 M62.93,919.573v-0.229c0-2.634,2.339-4.751,7.05-4.949v11.088
	C64.5,923.817,62.93,922.274,62.93,919.573 M83.579,953.645c0,3.189-2.875,5.132-8.177,5.299v-11.676
	c6.389,1.856,8.177,3.529,8.177,6.154V953.645z"/>
<path d="M239.779,948.943c-7.509,4.875-16.664,6.994-25.551,5.9c-9.036,1.109-18.349-1.1-25.928-6.146
	c3.371,4.996-1.153,10.008-3.441,14.457c-5.19-2.67-10.379-5.34-15.569-8.012c3.601-0.932,7.204-1.861,10.805-2.793
	c1.46-0.34,2.073-1.322,1.743-2.785c-2.368-6.193-13.85-33.293-0.912-29.719c5.421,1.497,9.487,7.945,10.369,12.941
	c-0.499-3.336,0.227-6.742,1.953-9.633c-6.362-0.055-9.737-7.986-5.053-12.478c4.677-4.483,12.488-0.789,12.251,5.578
	c4.168-2.386,8.989-3.557,13.782-3.547c4.793-0.001,9.606,1.154,13.775,3.547c-0.195-6.354,7.565-10.079,12.258-5.578
	c4.684,4.492,1.307,12.419-5.05,12.478c1.717,2.889,2.447,6.301,1.951,9.633c1.148-6.584,6.15-11.998,12.61-13.695
	c2.452-0.083,3.904,1.349,3.853,3.801c-1.385,9.119-3.709,18.059-7.006,26.674c-0.084,4.146,9.365,4.754,12.549,5.578
	c-5.19,2.67-10.38,5.34-15.57,8.012c-1.585-3.084-3.169-6.164-4.755-9.248c-0.181-1.842,0.276-3.672,1.313-5.209L239.779,948.943z"
	/>
<path d="M188.3,948.443c-0.01,0-0.02-0.004-0.027-0.012c-6.244-6.863-8.084-16.219-8.625-21.186
	c-0.002-0.02,0.012-0.038,0.032-0.039c0.019-0.002,0.037,0.012,0.039,0.031c0.541,4.958,2.379,14.297,8.608,21.145
	c0.014,0.016,0.013,0.039-0.002,0.051C188.317,948.441,188.309,948.443,188.3,948.443"/>
<path d="M240.156,948.443c-0.009,0-0.018-0.002-0.023-0.01c-0.016-0.014-0.018-0.035-0.002-0.053
	c4.549-4.975,7.686-12.682,8.605-21.143c0.004-0.02,0.02-0.035,0.041-0.033c0.02,0.002,0.034,0.021,0.032,0.04
	c-0.921,8.476-4.065,16.198-8.626,21.187C240.177,948.439,240.167,948.443,240.156,948.443"/>
<path d="M402.488,888.167h-84.977c-2.913,0-5.27,2.358-5.27,5.271v84.977c0,2.912,2.357,5.271,5.27,5.271h18.191h27.559v-36.986
	h-12.446v-14.414h12.446v-10.629c0-12.337,7.532-19.057,18.539-19.057c5.272,0,9.801,0.389,11.122,0.563v12.893l-7.632,0.009
	c-5.986,0-7.141,2.841-7.141,7.015v9.206h14.271l-1.861,14.414h-12.41v36.986h22.342h1.996c2.911,0,5.271-2.358,5.271-5.271v-84.977
	C407.759,890.525,405.399,888.167,402.488,888.167z"/>
<path d="M515.629,894.791c-9.297,3.347-15.172,11.974-14.503,21.42l0.224,3.644l-3.719-0.445
	c-13.536-1.711-25.362-7.513-35.402-17.256l-4.909-4.834l-1.264,3.57c-2.678,7.958-0.968,16.362,4.61,22.015
	c2.976,3.124,2.306,3.57-2.826,1.711c-1.784-0.595-3.347-1.042-3.495-0.818c-0.521,0.521,1.265,7.289,2.678,9.966
	c1.934,3.719,5.875,7.363,10.188,9.521l3.645,1.71l-4.313,0.075c-4.165,0-4.313,0.074-3.867,1.636
	c1.487,4.835,7.363,9.967,13.908,12.197l4.61,1.562l-4.016,2.38c-5.95,3.421-12.941,5.354-19.933,5.504
	c-3.347,0.074-6.099,0.371-6.099,0.595c0,0.745,9.073,4.908,14.354,6.545c15.842,4.834,34.658,2.752,48.79-5.504
	c10.04-5.875,20.081-17.553,24.767-28.857c2.528-6.024,5.058-17.031,5.058-22.312c0-3.421,0.223-3.867,4.388-7.958
	c2.454-2.38,4.76-4.983,5.206-5.727c0.744-1.413,0.67-1.413-3.123-0.148c-6.322,2.23-7.215,1.934-4.091-1.413
	c2.306-2.38,5.058-6.694,5.058-7.959c0-0.223-1.116,0.149-2.381,0.818c-1.338,0.744-4.314,1.859-6.545,2.529l-4.016,1.264
	l-3.645-2.454c-2.008-1.339-4.834-2.826-6.322-3.272C524.852,893.452,519.051,893.601,515.629,894.791"/>
<path d="M679.46,888.244h-69.221c-8.271,0-14.976,6.704-14.976,14.975v69.214c0,8.27,6.705,14.974,14.976,14.974h69.22
	c8.271,0,14.975-6.704,14.975-14.974v-69.213C694.435,894.949,687.73,888.244,679.46,888.244z M625.271,971.483h-14.903v-44.845
	h14.903V971.483z M617.821,920.515h-0.099c-5.004,0-8.237-3.443-8.237-7.748c0-4.398,3.333-7.747,8.433-7.747
	c5.098,0,8.239,3.349,8.335,7.747C626.253,917.072,623.016,920.515,617.821,920.515z M679.019,971.483h-14.905v-23.992
	c0-6.026-2.156-10.141-7.55-10.141c-4.115,0-6.57,2.772-7.646,5.452c-0.393,0.957-0.49,2.297-0.49,3.638v25.043H633.52
	c0,0,0.197-40.637,0-44.845h14.907v6.347c1.981-3.057,5.523-7.398,13.432-7.398c9.807,0,17.16,6.407,17.16,20.182V971.483z"/>
<path d="M17.27,1082.333c5.002-1.249,11.805-2.95,23.722-3.267c-0.329-0.659-0.626-1.341-0.889-2.044
	c-4.638-0.041-18.92,0.618-23.812,1.827c-0.028,0.009-0.058,0.011-0.087,0.011c-0.164,0-0.315-0.113-0.355-0.278
	c-0.047-0.193,0.072-0.393,0.267-0.441c4.848-1.198,18.786-1.863,23.723-1.851c-1.111-3.268-1.602-7.011-1.602-11.189
	c0-7.423,2.312-10.223,5.417-14.178c-2.375-8.46,0.852-14.241,0.852-14.241s4.991-1.036,14.424,5.721
	c5.114-2.19,18.747-2.373,25.196-0.486c3.96-2.617,11.2-6.331,14.123-5.292c0.79,1.274,2.494,4.985,1.033,13.144
	c0.993,1.789,6.148,5.6,6.169,16.372c-0.085,3.973-0.498,7.327-1.263,10.165c12.301-0.104,19.536,0.911,24.52,1.829
	c0.195,0.04,0.327,0.229,0.293,0.427c-0.034,0.174-0.187,0.3-0.356,0.3c-0.026,0-0.047-0.002-0.073-0.006
	c-4.975-0.92-12.223-1.932-24.596-1.819c-0.217,0.72-0.459,1.404-0.722,2.057c4.21,0.141,15.775,0.591,25.207,3.476
	c0.196,0.06,0.302,0.263,0.243,0.459c-0.047,0.155-0.191,0.257-0.349,0.257c-0.034,0-0.072-0.004-0.106-0.017
	c-9.563-2.924-21.379-3.325-25.309-3.455c-3.42,7.515-10.436,10.318-21.775,11.484c3.675,2.313,4.729,5.215,4.729,13.067
	c0,7.852-0.106,8.905-0.081,10.71c0.039,2.964,4.381,4.383,4.219,5.337c-0.161,0.952-3.632,0.799-5.255,0.231
	c-4.597-1.602-4.139-5.426-4.139-5.426l-0.152-10.498c0,0,0.314-5.651-1.772-5.651v17.185c0,3.734,2.613,4.868,2.613,6.25
	c0,2.373-4.775-0.226-6.246-1.707c-2.244-2.251-1.989-7.026-1.934-10.804c0.051-3.647-0.034-11.624-0.034-11.624l-1.523,0.032
	c0,0,0.625,17.426-0.803,20.602c-1.846,4.076-7.414,5.479-7.414,3.621c0-1.249,1.373-0.852,2.131-3.65
	c0.648-2.382,0.427-20.148,0.427-20.148s-1.784,1.057-1.784,4.383c0,1.523-0.043,10.223-0.043,12.812c0,3.256-4.625,5.11-6.847,5.11
	c-1.126,0-2.526-0.055-2.526-0.651c0-1.506,4.23-2.391,4.23-5.523c0-2.717-0.059-9.706-0.059-9.706s-2.133,0.365-5.175,0.365
	c-7.669,0-10.095-4.895-11.249-7.634c-1.502-3.565-3.45-5.242-5.519-6.58c-1.271-0.822-1.564-1.794-0.093-2.069
	c6.789-1.279,8.525,7.698,13.058,9.128c3.235,1.021,7.395,0.58,9.464-0.758c0.274-2.743,2.25-5.114,3.896-6.362
	c-11.531-1.108-18.367-5.111-21.91-11.549c-12.062,0.29-18.907,2.001-23.925,3.255c-0.366,0.091-0.722,0.18-1.066,0.268
	c-0.03,0.006-0.06,0.008-0.09,0.008c-0.163,0-0.312-0.109-0.355-0.275c-0.048-0.195,0.073-0.396,0.269-0.444
	C16.552,1082.514,16.906,1082.427,17.27,1082.333"/>
<path d="M229.18,1079.952c0-7.155-5.8-12.955-12.955-12.955c-7.155,0-12.955,5.8-12.955,12.955c0,7.154,5.8,12.954,12.955,12.954
	C223.38,1092.906,229.18,1087.106,229.18,1079.952"/>
<path d="M229.18,1044.452c0-7.155-5.8-12.955-12.955-12.955c-7.155,0-12.955,5.8-12.955,12.955c0,7.154,5.8,12.954,12.955,12.954
	C223.38,1057.406,229.18,1051.606,229.18,1044.452"/>
<path d="M193.68,1044.452c0-7.155-5.8-12.955-12.955-12.955c-7.155,0-12.955,5.8-12.955,12.955c0,7.154,5.8,12.954,12.955,12.954
	C187.88,1057.406,193.68,1051.606,193.68,1044.452"/>
<path d="M264.16,1044.452c0-7.155-5.8-12.955-12.955-12.955c-7.155,0-12.955,5.8-12.955,12.955c0,7.154,5.8,12.954,12.955,12.954
	C258.36,1057.406,264.16,1051.606,264.16,1044.452"/>
<path d="M264.16,1079.952c0-7.155-5.8-12.955-12.955-12.955c-7.155,0-12.955,5.8-12.955,12.955c0,7.154,5.8,12.954,12.955,12.954
	C258.36,1092.906,264.16,1087.106,264.16,1079.952"/>
<path d="M264.16,1115.452c0-7.155-5.8-12.955-12.955-12.955c-7.155,0-12.955,5.8-12.955,12.955c0,7.154,5.8,12.954,12.955,12.954
	C258.36,1128.406,264.16,1122.606,264.16,1115.452"/>
<path d="M360.954,1030.548c-27.284,0-49.403,22.118-49.403,49.403c0,27.284,22.119,49.403,49.403,49.403
	c27.285,0,49.403-22.119,49.403-49.403C410.357,1052.667,388.239,1030.548,360.954,1030.548 M360.954,1096.419
	c-9.095,0-16.469-7.373-16.469-16.468s7.374-16.467,16.469-16.467c9.095,0,16.469,7.373,16.469,16.467
	C377.423,1089.046,370.049,1096.419,360.954,1096.419"/>
<path d="M360.954,1078.716c0.683,0,1.235,0.553,1.235,1.235s-0.553,1.235-1.235,1.235c-0.682,0-1.235-0.553-1.235-1.235
	S360.272,1078.716,360.954,1078.716"/>
<g>
	<g>
		<path d="M546.73,1116.706l-0.428-0.252c-0.066-0.037-0.08-0.046-0.145-0.082l-0.629-0.279c-2.42-0.87-5.402-0.48-6.73-2.356
			c-0.254-0.36-0.422-0.776-0.635-1.181l-2.154-4.204c-0.484-1.009-1.037-1.999-1.541-3.002c-0.201-0.405-0.393-0.812-0.617-1.2
			c-0.207-0.354-0.404-0.803-0.594-1.177l-0.621-1.198c-0.203-0.406-0.434-0.809-0.609-1.204l-0.311-0.598
			c-0.434-0.777-1.129-2.206-1.533-3.011c-0.383-0.768-1-2.041-1.385-2.7l-1.08-2.103c-0.213-0.39-0.398-0.797-0.605-1.209
			l-3.072-6.011c-0.049-0.094-0.09-0.181-0.141-0.271c-0.379-0.683-0.695-1.42-1.074-2.105c-0.223-0.408-0.406-0.773-0.619-1.197
			c-0.453-0.912-0.885-1.81-1.379-2.71l-0.152-0.299c-0.113-0.213-0.234-0.337-0.268-0.644l-0.229-3.404
			c0-0.221-0.029-0.237-0.043-0.41l-0.086-1.275c-0.061-0.551-0.082-1.142-0.098-1.722l-0.139-1.679
			c-0.004-0.51-0.062-1.237-0.123-1.694l-0.557-7.62c-0.018-0.33-0.037-0.514-0.045-0.863c-0.006-0.219-0.035-0.205-0.049-0.406
			l-0.082-1.278c-0.062-0.584-0.053-1.125-0.102-1.717c-0.045-0.556-0.104-1.091-0.133-1.685c-0.025-0.525-0.172-1.045-0.232-1.586
			c-0.025-0.246-0.084-0.558-0.117-0.789c-0.131-0.902-0.232-1.799-0.531-2.649c-0.043-0.127-0.074-0.236-0.111-0.341
			c-0.074-0.205-0.154-0.465-0.248-0.661c-0.17-0.364-0.348-0.496-0.68-0.683l-7.104-4.252c-0.387-0.229-1.074-0.776-1.574-0.5
			c-0.105,0.06-0.152,0.138-0.234,0.219c-1.439,1.443-1.102,0.937-2.094,2.357c-0.549,0.789-1.052,1.609-1.586,2.41
			c-0.074,0.109-0.102,0.169-0.176,0.279l-0.87,1.354c-0.072,0.109-0.114,0.162-0.183,0.273c-0.859,1.41-1.875,2.968-2.789,4.342
			c-0.629,0.943-2.4,3.577-2.787,4.346c-0.436,0.864-0.678,0.879-1.527,0.879c-0.18,0-1.327-0.477-1.587-0.639
			c-0.087-0.052-0.099-0.078-0.185-0.134c0.106-0.453,2.246-4.337,2.67-5.05c0.201-0.336,0.383-0.62,0.586-0.961
			c0.384-0.646,0.781-1.312,1.195-1.938c0.934-1.41,2.025-3.32,2.916-4.806c0.481-0.804,0.937-1.63,1.434-2.425
			c0.092-0.146,0.283-0.352,0.283-0.537c0-0.824,0.117-1.827-0.213-2.603c-0.385-0.909-1.216-1.508-2.24-1.53
			c-0.252-0.006-0.299-0.047-0.543-0.047c-0.25,0-0.316,0.045-0.592,0.047c-1.152,0.014-1.592,0.828-2.152,1.664
			c-0.344,0.515-0.627,1.013-0.954,1.545c-0.331,0.539-0.647,1.03-0.97,1.57c-1.185,1.969-2.426,3.874-3.602,5.85
			c-1.013,1.703-2.104,3.351-3.115,5.059c-0.17,0.283-0.314,0.503-0.484,0.789c-0.465,0.784-0.998,1.531-1.44,2.33
			c-0.116,0.21-0.122,0.164-0.164,0.472c-0.089,0.628-0.11,1.167-0.11,1.798c0,0.961-0.123,1.328,0.682,1.907
			c0.339,0.247,0.738,0.47,1.115,0.701l0.556,0.354c0.194,0.123,0.37,0.231,0.554,0.354c0.176,0.118,0.365,0.234,0.559,0.35
			c0.209,0.123,0.359,0.227,0.562,0.348c1.123,0.662,2.203,1.41,3.321,2.082l4.435,2.787c0.555,0.373,1.125,0.683,1.678,1.047
			c1.459,0.957,2.97,1.841,4.436,2.787c1.662,1.071,3.371,2.071,5.031,3.146c0.186,0.12,0.375,0.243,0.555,0.352
			c0.201,0.119,0.352,0.227,0.557,0.351c1.5,0.887,2.973,1.845,4.447,2.776c0.361,0.229,0.762,0.449,1.109,0.709
			c0.23,0.174,1.379,2.521,1.59,2.949c0.797,1.606,1.688,3.135,2.482,4.738c0.107,0.216,0.197,0.405,0.305,0.605
			c0.199,0.388,0.396,0.811,0.629,1.188c0.32,0.533,2.98,5.712,3.111,5.974c0.055,0.106,0.076,0.162,0.141,0.268
			c0.076,0.127,0.094,0.178,0.156,0.3c0.514,0.987,1.018,2.001,1.566,2.978l3.945,7.591c0.023,0.049,0.057,0.099,0.08,0.144
			l0.463,0.901c0.061,0.106,0.098,0.177,0.156,0.295l3.73,7.127c0.334,0.553,0.686,1.136,1.111,1.612
			c0.09,0.104,0.121,0.156,0.203,0.252l0.336,0.347c0.402,0.425,0.865,0.821,1.369,1.128c1.342,0.814,3.648,1.466,5.801,1.466h4.314
			C547.703,1118.172,547.396,1117.209,546.73,1116.706z M514.004,1069.903c-0.109-0.052-0.391-0.062-0.543-0.094
			c-0.186-0.039-0.352-0.085-0.518-0.166c-0.354-0.174-1.814-1.112-2.084-1.322c-0.135-0.109-0.205-0.227-0.354-0.326l0.908-2.406
			c0.219-0.848,0.574-1.654,0.896-2.467c0.107-0.272,0.199-0.502,0.316-0.771c0.107-0.253,0.27-0.543,0.33-0.805h0.09
			c0.037,0.151,0.41,0.662,0.646,1.672c0.275,1.188,0.182,2.068,0.305,3.15C514.025,1066.624,514.004,1069.5,514.004,1069.903z"/>
		<path d="M489.148,1089.471c0.099-0.168,0.193-0.403,0.281-0.582l0.545-1.18c-1.176-0.099-0.613-0.219-1.92-0.059
			c-0.328,0.041-0.427,0.012-0.701,0.114c-0.474,0.18-2.646,0.723-3.25,0.839l-3.355,0.779c-0.616,0.175-2.051,0.58-2.617,0.697
			c-0.611,0.125-0.512,0.125-0.91,0.724c-0.973,1.463-2.257,3.276-3.128,4.686l-3.459,5.22c-0.372,0.559-1.002,1.444-1.312,2.002
			c-0.107,0.192-0.187,0.342-0.285,0.531c-0.527,1.016-6.551,10.631-7.51,12.192l10.275,0.123
			c0.329-0.376,7.502-11.317,7.609-11.478l8.064-12.102C487.831,1091.447,488.869,1089.954,489.148,1089.471z"/>
		<path d="M501.934,1085.697c-0.287-0.3-0.777-0.364-1.207-0.426c-0.955-0.14-2.908-0.165-3.699,0.133
			c-0.58,0.218-0.897,0.691-1.258,1.151c-0.195,0.249-0.318,0.41-0.498,0.682c-0.473,0.707-0.976,1.342-1.502,2.131l-1.185,1.812
			c-0.091,0.146-0.134,0.222-0.229,0.361c-1.063,1.588-2.496,3.844-3.553,5.532l-3.939,6.279c-5.549,9.021,2.572,12.462,9.063,1.753
			c0.267-0.494,0.599-0.989,0.89-1.473l3.547-5.854c0.535-0.901,1.703-2.873,2.211-3.647c0.338-0.512,1.602-2.654,1.716-3.01
			c0.187-0.574,0.131-2.016,0.131-2.686C502.422,1087.547,502.361,1086.143,501.934,1085.697z"/>
		<path d="M503.999,1077.094c-0.333-0.159-3.013-1.85-3.54-2.186c-1.202-0.758-2.669-1.557-3.77-2.27l-0.834-0.483
			c-0.304-0.177-0.552-0.331-0.852-0.512c-0.446-0.267-1.258-0.784-1.607-1.074c-0.203-0.169-1.615-0.894-1.785-0.894
			c-0.854,0-0.596-0.078-1.127,0.281c-0.512,0.347-0.605,0.61-0.99,1.236l-0.864,1.363c-0.114,0.171-0.187,0.305-0.298,0.473
			c-0.75,1.117-1.438,2.283-2.169,3.417c-0.41,0.638-0.876,1.451-1.292,2.07c-0.213,0.315-0.373,0.614-0.575,0.925l-0.589,0.91
			c-0.428,0.641-0.688,1.135-1.193,1.804c-0.138,0.183-0.438,0.716-0.545,0.955c-0.292,0.646-0.211,0.2-0.211,1.281
			c0.303-0.024,3.033-0.847,3.598-0.988c1.004-0.255,2.553-0.717,3.572-1.016l0.717-0.194c0.279-0.066,0.475-0.138,0.743-0.208
			c0.244-0.062,0.431-0.132,0.71-0.198c0.268-0.065,0.467-0.141,0.707-0.201l2.154-0.615c1.572-0.473,3.441-0.954,5.041-1.411
			c0.74-0.21,5.486-1.589,5.787-1.616C504.744,1077.49,504.307,1077.239,503.999,1077.094z"/>
		<path d="M538.348,1122.14c-0.453,0-0.834,0.096-1.154,0.257c-0.986,0.496-1.391,1.861-1.391,2.923c0,1.22,0.27,2.136,1.34,2.563
			c0.92,0.367,2.602,0.328,3.418-0.483c0.17-0.166,0.391-0.549,0.473-0.801c0.234-0.703,0.217-1.7-0.018-2.402
			C540.549,1122.795,539.904,1122.14,538.348,1122.14z"/>
		<path d="M517.174,1043.629c4.277,0,7.762-3.481,7.762-7.762c0-4.279-3.482-7.762-7.762-7.762c-4.281,0-7.764,3.482-7.764,7.762
			C509.41,1040.148,512.895,1043.629,517.174,1043.629z"/>
	</g>
</g>
<path d="M343.683,610.716l1.58-0.42l2.01-0.42l1.99-0.221l2,0.11l2,0.21l2,0.52l1.06,0.421l1.89,0.53l1.9,0.209l0.84,0.11h3.26
	l3.16-0.21l3.16-0.32h0.32l1.68-0.21l2.95-0.109l3.05-0.101l3.16,0.101h0.74l1.789,0.109l1.681,0.421l1.79,0.64l1.89,0.84l1.79,0.95
	l1.79,1.26l1.69,1.26l1.369,1.58l1.36,1.8l1.16,1.58l1.37,2.1l1.05,2.211l0.84,2.319l0.641,1.271l0.52,2.1l0.53,2.21l0.21,2.22v4.74
	l0.31,2.95l0.32,3.05l0.53,2.95l0.84,2.95l0.1,0.529l0.851,2l0.1,0.421v0.42l-0.21,0.31l-0.64,0.64l-0.73,0.311l-0.63,0.21h-0.53
	l-0.42-0.21l-0.42-0.42l-0.74-2l-0.729-2.53l-0.53-2.52l-0.32-2.641v-0.42l-0.63-4.42l-0.52-4.32l-0.21,1.579l-0.11,3.052
	l-0.52,3.06l-0.11,0.729l-0.74,3.271l-0.63,6.53v3.16l0.101,3.369l0.22,3.16l0.52,3.37l0.641,3.16l0.63,2.42l0.21,0.85l0.1,1.58
	v1.789l-0.1,0.312l-0.431,0.84l-0.42,0.21l-0.42,0.11h-6.109l-0.521-0.11l-0.53-0.21l-0.31-0.42l-0.32-0.521v-2.211l0.221-0.528
	l0.31-0.42l0.311-0.53l0.109-0.53v-0.62l-0.109-0.43l-0.311-0.63l-1.47-3.05l-1.271-3.171l-1.16-3.05l-0.84-3.37l-0.84-3.27
	l-0.63,2.43l-1.16,4.21l-0.95,4.221l-0.84,4.21l-1.16,6.84l-0.199,0.43l-0.32,0.42l-0.32,0.21l-0.529,0.101h-6.311l-0.52-0.101
	l-0.431-0.21l-0.42-0.42l-0.2-0.53l-0.109-0.42v-1.689l0.109-0.521l0.41-0.529l0.32-0.421l0.42-0.21l0.42-0.43l0.21-0.62l0.11-0.54
	v-3.26l0.63-8.43l0.42-4.32l0.74-4.21l-2.42-0.21l-2.74-0.53l-2.63-0.63l-2.63-0.939l-2.53-0.95l0.32,0.729l0.31,1.271l0.21,1.26
	l-0.1,1.37l-0.32,1.26l-0.32,2.11l-0.21,3.8l-0.21,3.68v3.69l0.32,3.79l0.63,5.58v0.43l-0.11,0.42l-0.31,0.42l-0.42,0.21
	l-0.53,0.101h-6.53l-0.52-0.101l-0.42-0.21l-0.42-0.42l-0.32-0.53v-2.1l0.11-0.53l0.42-0.529l0.42-0.421l0.11-0.1l0.2-0.32
	l0.11-0.319v-0.42l-1.79-7.69l-0.63-2.74l-1.27-4.95l-1.89-10.109v0.1l-0.53,3.79v0.11l-0.42,2.109l-0.63,2.11l-0.84,1.89
	l-1.89,4.11l-2.32,6.53l-3.05,9.689l-0.1,0.32l-0.32,0.42l-0.42,0.21l-0.53,0.101h-6.95l-0.52-0.21l-0.32-0.311l-0.21-0.42v-2.64
	l0.21-0.63l0.42-0.421l0.53-0.31l0.52-0.22h0.11l0.31-0.21l0.22-0.21l0.21-0.42l3.68-14.851l0.11-0.319l0.52-3.052l0.42-3.059
	l0.21-3.05v-3.061l-0.32-3.05l-0.31-2.96l-0.11-0.2l-0.2-0.53l-0.43-0.31l-0.53-0.11h-0.52l-0.53,0.21l-1.05,0.74l-1.47,1.16
	l-0.52,0.521l-0.85,0.63l-0.95,0.43l-0.94,0.1l-0.42,0.11l-1.06,0.42l-1.26,0.63l-1.16,0.95l-0.84,1.05l-0.74,1.271l-0.42,1.26
	l-0.31,1.37v0.319l-0.11,2.211l0.11,2.21l0.42,2.21l0.31,1.06l0.43,2.1l0.31,2.32l0.1,2.21l-0.21,0.42l-0.31,1.16l-0.63,1.16
	l-0.84,1.05l-0.85,0.74l-0.73,0.42l-1.37,0.95l-1.58,0.529l-1.48,0.421l-1.68,0.1h-0.84l-1.27-0.31l-1.15-0.421l-1.16-0.64
	l-1.05-0.95l-0.53-0.52l-0.84-1.48v0.11l-0.11-0.11l-0.63-1.47l-0.1-0.11l-0.11-0.63v-0.74l0.21-0.52l0.74-0.74l0.94-0.74
	l0.32-0.199l0.53-0.11h0.53l0.63,0.11l0.52,0.31l0.53,0.42l0.32,0.53l1.05,1.16l0.21,0.21l0.63,0.52l0.74,0.209l0.73,0.111
	l0.85-0.32l0.52-0.42l0.64-0.53l0.1-0.31l0.21-1.05v-0.95l-0.32-1.05l-0.52-0.851v-0.1l-0.63-2.11l-0.74-2.85l-0.64-2.95l-0.63-3.05
	l-0.21-3.05l-0.21-3.16v-3.06l0.21-3.052l0.53-3.059l0.53-2.95l0.52-2l0.84-2.63l1.06-2.529l1.26-2.431l1.37-2.42l1.58-2.21
	l0.21-0.21l0.73-0.84l0.84-0.74l1.16-0.42l1.06-0.32h2.2l2.64-0.42l2.52-0.42l2.63-0.74l1.06-0.42L343.683,610.716z
	 M344.533,632.836l-0.1-0.53l-0.32-2.21l-0.74-2.21l-0.84-2.22l-0.95-2l-1.26-2l-1.27-1.79l-1.47-1.051l-0.94-0.319l-0.95-0.101
	l-0.95,0.101l-0.42,0.21l-1.68,0.63l-0.84,0.851v0.729l0.1,0.21l0.21,0.319l0.31,0.101l0.43,0.11l0.42-0.11l0.21-0.101l1.37-0.739
	h0.2l0.53-0.102h0.63l0.64,0.211l0.41,0.311l0.11,0.109l1.37,1.79l1.15,2l0.96,2l0.73,2.11l0.53,2.21l0.31,1.259l-0.1,0.531
	l-0.42,0.84l-0.43,0.32l-0.42,0.11h-0.63l-0.31-0.11l-2.32-1.061l-0.94-0.52l-0.42-0.1h-0.43l-0.21,0.1l-0.31,0.32l-0.21,0.1
	l-0.11,0.42v0.32l0.42,0.63l0.21,0.11l2.53,1.149l1.05,0.53l0.84,0.21h0.95l0.85-0.21l0.84-0.32l0.63-0.63l0.63-0.729l0.21-0.851
	L344.533,632.836z M324.643,629.886v-0.32l-0.11-0.21l-0.11-0.1l-0.41-0.21h-0.74l-0.84,0.31l-0.64,0.21l-0.52,0.42l-0.22,0.431v0.1
	l-0.1,0.21l0.1,0.11l0.22,0.199l0.42,0.221h0.73l0.74-0.221l0.74-0.31l0.52-0.42L324.643,629.886z"/>
<g>
	<defs>
		<rect id="SVGID_1_" x="306.953" y="609.656" width="100" height="70.681"/>
	</defs>
	<clipPath id="SVGID_2_">
		<use xlink:href="#SVGID_1_"  overflow="visible"/>
	</clipPath>
</g>
</svg>
