<?xml version="1.0" encoding="utf-8"?>
<!-- Generator: Adobe Illustrator 18.0.0, SVG Export Plug-In . SVG Version: 6.00 Build 0)  -->
<!DOCTYPE svg PUBLIC "-//W3C//DTD SVG 1.1//EN" "http://www.w3.org/Graphics/SVG/1.1/DTD/svg11.dtd">
<svg version="1.1"
	 id="Layer_1" xmlns:svg="http://www.w3.org/2000/svg" xmlns:cc="http://creativecommons.org/ns#" xmlns:dc="http://purl.org/dc/elements/1.1/" xmlns:rdf="http://www.w3.org/1999/02/22-rdf-syntax-ns#"
	 xmlns="http://www.w3.org/2000/svg" xmlns:xlink="http://www.w3.org/1999/xlink" x="0px" y="0px" viewBox="0 0 720 1150.6"
	 enable-background="new 0 0 720 1150.6" xml:space="preserve">
<path id="path3229" fill="#FFFFFF" d="M69.4,20.6c-27.5,0-49.8,22.4-49.8,49.8s22.4,49.8,49.8,49.8c27.5,0,49.8-22.4,49.8-49.8
	C119.2,43,96.9,20.6,69.4,20.6 M73.6,46.6V29.3c4,2.3,8.3,9.4,10.9,17.4H73.6z M86.6,53.6c0.9,5,1.4,9,1.6,13H73.6v-13H86.6z
	 M65.6,29.3v17.4H54.3C56.9,38.6,60.6,31.6,65.6,29.3 M65.6,53.6v13h-15c0.2-4,0.8-8,1.6-13C52.3,53.6,65.6,53.6,65.6,53.6z
	 M42.9,66.6H27.5c0.4-4,1.5-9,3.3-13h13.6C43.6,58.6,43.1,62.6,42.9,66.6 M42.9,74.6c0.2,5,0.7,9,1.4,13H30.8c-1.7-4-2.9-8-3.3-13
	C27.5,74.6,42.9,74.6,42.9,74.6z M50.6,74.6h15v13H52.3C51.4,83.6,50.8,78.6,50.6,74.6 M65.6,95.6v16c-5-2.3-8.7-8-11.3-16H65.6z
	 M73.6,111.7v-16h10.9C81.9,103.6,77.6,109.4,73.6,111.7 M73.6,87.6v-13h14.6c-0.2,4-0.8,9-1.6,13H73.6z M95.9,74.6h15.4
	c-0.4,5-1.5,9-3.3,13H94.5C95.3,83.6,95.8,79.6,95.9,74.6 M95.9,66.6c-0.2-4-0.7-8-1.4-13h13.6c1.7,4,2.9,9,3.3,13H95.9z
	 M103.7,46.6h-11c-1.6-6-3.7-10.2-6.2-14.1C93.4,35.6,99.4,40.6,103.7,46.6 M52.4,32.5c-2.5,3.9-4.6,8.1-6.2,14.1h-11
	C39.5,40.6,45.4,35.6,52.4,32.5 M35.1,95.6h11c1.6,5,3.7,10.2,6.2,14.1C45.4,106.6,39.5,101.6,35.1,95.6 M86.5,109.7
	c2.5-3.9,4.6-9.1,6.2-14.1h11C99.4,101.6,93.4,106.6,86.5,109.7"/>
<path id="path3231" fill="#FFFFFF" d="M211.9,79.5c3,2.3,11.9,4.4,19,8.2c2.4,1.3,2.6,3.2,2.7,4.3c0.2,1.1,0.6,14,0.6,14h-69.3
	c0,0,0.4-12.8,0.5-14c0.2-1.1,0.2-2.9,2.7-4.3c7.1-4,16-5.8,19-8.1c1.2-0.9,0.9-2.4,1.1-3.8c0.3-1.4,1.1-0.4,1.1-1.9
	c0-1.5,0.3-1.2,0.1-3.2c-0.1-1.7-2.5-1.9-2.7-5.2c0-0.7-1.2-1.1-1.9-2.2c-0.7-1.1-1.8-2.9-1.8-5c0-2.1,0.4-1.6,0.4-4.2
	c0-2.6-0.1-4.2,1.4-10.3c0.6-2.3,2.5-5,4.4-6.2c2.6-1.6,1.5,0.5,10.2-1.4c5.6-1.3,14.4,4.6,14.5,9.2c0.1,6.3,0.5,5.8,0.9,8.4
	c0.3,1.8,0.8,1.4,0.8,3.5c0,2.1-1.1,4.8-1.8,5.8c-0.7,1.1-1.4,2.8-1.4,3.4c-0.5,3.5-2.8,2.7-2.9,4.6c-0.1,1.7-0.2,1.5,0.1,2.8
	c0.2,1.1,0.9-0.1,1.1,1.3C211,76.8,210.8,78.9,211.9,79.5"/>
<path id="path3233" fill="#FFFFFF" d="M227.2,67.6c0.5,0.7,1.3,1.1,1.4,1.5c0.1,2.3,1.8,2.4,1.9,3.6c0.1,1.4-0.1,1.2-0.1,2.3
	c0,1-0.6,0.4-0.8,1.4c-0.2,1,0,2-0.8,2.6c-0.9,0.7-2.7,1.4-4.8,2.2c3,1.1,6.4,2.4,9.5,4.1c3.4,1.8,3.5,4,3.7,5.7
	c0.1,0.6,0.2,3.4,0.3,6.5h24.1c0,0-0.3-9-0.4-9.8c-0.1-0.8-0.2-2.1-1.9-3c-5-2.7-11.2-4.2-13.2-5.8c-0.8-0.4-0.6-1.9-0.8-2.9
	c-0.2-1-0.6-0.1-0.8-0.9c-0.2-0.9-0.1-0.8,0-2c0.1-1.3,1.7-0.8,2-3.2c0.1-0.5,0.5-1.7,1-2.4c0.5-0.7,1.3-2.6,1.3-4.1
	c0-1.5-0.4-1.2-0.6-2.5c-0.3-1.8-0.5-1.5-0.6-5.9c-0.1-3.3-6.2-7.3-10.1-6.4c-6.1,1.4-5.3-0.2-7.1,1c-1.3,0.8-2.7,2.7-3.1,4.3
	c-1.1,4.3-1,5.3-1,7.2c0,1.8-0.3,1.5-0.3,2.9C226,65.5,226.8,66.8,227.2,67.6"/>
<path id="path3235" fill="#FFFFFF" d="M620.2,183.2v-12.5c0-3.5,2.8-6.2,6.2-6.2s6.2,2.8,6.2,6.2v12.5c0,3.5-2.8,6.2-6.2,6.2
	S620.2,186.6,620.2,183.2"/>
<path id="path3237" fill="#FFFFFF" d="M676.5,176.9v6.4c0,6.9-5.6,12.5-12.5,12.5s-12.5-5.6-12.5-12.5v-6.4H639v6.4
	c0,6.9-5.6,12.5-12.5,12.5s-12.5-5.6-12.5-12.5v-6.4h-18.8v87.5h100v-87.5L676.5,176.9L676.5,176.9z M626.5,251.9H614v-12.5h12.5
	V251.9z M626.5,226.9H614v-12.5h12.5V226.9z M651.5,251.9H639v-12.5h12.5V251.9z M651.5,226.9H639v-12.5h12.5V226.9z M664,251.9
	v-12.5h12.5L664,251.9z M676.5,226.9H664v-12.5h12.5V226.9z"/>
<path id="path3239" fill="#FFFFFF" d="M657.7,183.2v-12.5c0-3.5,2.8-6.2,6.2-6.2s6.2,2.8,6.2,6.2v12.5c0,3.5-2.8,6.2-6.2,6.2
	S657.7,186.6,657.7,183.2"/>
<polygon id="polygon3241" fill="#FFFFFF" points="476.4,108.2 476.4,58.1 474.6,57 474.6,107.3 "/>
<polygon id="polygon3243" fill="#FFFFFF" points="500.5,98.7 501.8,98.1 502.8,98.3 502.8,48.2 502,47.9 500.4,48.5 "/>
<polygon id="polygon3245" fill="#FFFFFF" points="527.8,57.3 527.8,108.3 530.1,106.9 530.1,56 "/>
<polygon id="polygon3247" fill="#FFFFFF" points="522.9,49.4 521.1,54 527.5,56.6 545.3,46.9 545.3,100.1 527.2,109.9 508.3,102.1 
	502.2,99.7 501.8,99.7 476.7,109.9 458.6,100.1 458.6,46.9 476.4,56.6 502,46.1 508.3,48.7 505.8,42.4 502,40.8 476.7,51.1 
	453.7,38.7 453.7,103 476.4,115.3 502,104.9 527.5,115.3 550.2,103 550.2,38.7 527.2,51.1 "/>
<path id="path3249" fill="#FFFFFF" d="M515.8,25.6c-5.5,0-10,4.5-10,10c0,1,0.2,2,0.5,2.9h0l9.5,23.8l9.8-24.6h0
	c0.1-0.7,0.2-1.4,0.2-2.1C525.8,30,521.3,25.6,515.8,25.6 M515.8,40.3c-2.4,0-4.3-1.9-4.3-4.3s1.9-4.3,4.3-4.3s4.3,1.9,4.3,4.3
	C520.1,38.4,518.1,40.3,515.8,40.3"/>
<path id="path3251" fill="#FFFFFF" d="M687.6,25.2v9.5h-10.7v-9.5h-6.8v14h-51.4v-14h-6.8v9.5h-10.7v-9.5h-6.8v91.6h6.8v-9.6h10.7
	v9.6h6.8v-13.9h51.4v13.9h6.8v-9.6h10.7v9.6h6.8V25.2L687.6,25.2L687.6,25.2L687.6,25.2z M611.9,102h-10.7v-9.6h10.7V102z
	 M611.9,85.9h-10.7v-9.5h10.7V85.9z M611.9,68.1h-10.7v-9.5h10.7V68.1z M611.9,50.2h-10.7v-9.5h10.7V50.2z M618.7,50.2h51.4v42.1
	h-51.4V50.2z M687.6,102h-10.7v-9.6h10.7V102z M687.6,85.9h-10.7v-9.5h10.7V85.9z M687.6,68.1h-10.7v-9.5h10.7V68.1z M687.6,50.2
	h-10.7v-9.5h10.7V50.2z"/>
<path id="path3253" fill="#FFFFFF" d="M105.6,160.1H31.2c-1.5,0-2.7,1.2-2.7,2.6v103.6c0,1.4,1.2,2.6,2.7,2.6h74.4
	c1.5,0,2.7-1.2,2.7-2.6V162.7C108.3,161.3,107.1,160.1,105.6,160.1 M101.6,263.9h-66V217h66V263.9z M101.6,212h-66v-46.9h66V212z"/>
<path id="path3255" fill="#FFFFFF" d="M78.2,222h-2.7v6.1c0,0.5-0.4,0.9-0.9,0.9H62.4c-0.5,0-0.9-0.4-0.9-0.9V222H59
	c-0.5,0-0.9,0.4-0.9,0.9v8.7c0,0.5,0.4,0.9,0.9,0.9h19.3c0.5,0,0.9-0.4,0.9-0.9v-8.7C79.1,222.4,78.7,222,78.2,222"/>
<path id="path3257" fill="#FFFFFF" d="M78.2,170.2h-2.7v6.1c0,0.5-0.4,0.9-0.9,0.9H62.4c-0.5,0-0.9-0.4-0.9-0.9v-6.1H59
	c-0.5,0-0.9,0.4-0.9,0.9v8.7c0,0.5,0.4,0.9,0.9,0.9h19.3c0.5,0,0.9-0.4,0.9-0.9V171C79.1,170.6,78.7,170.2,78.2,170.2"/>
<path id="path3259" fill="#FFFFFF" d="M253.1,176.3v58.9h-46.6h-4.4l-2.4,3.7l-6.9,10.3l-6.9-10.3l-2.4-3.7h-4.4h-5.5v-58.9H253.1
	L253.1,176.3z M261.3,168.1h-95.9v75.4h13.7l13.7,20.5l13.7-20.6h54.8V168.1L261.3,168.1z"/>
<path id="path3261" fill="#FFFFFF" d="M208.2,192c-3.3,0.6-5.7,3-7,7.2c-0.7,2.1-1,4.1-1,6.1c0,0.2,0,0.4,0,0.6
	c0,0.2,0.1,0.5,0.1,1.1h7.9v15.8h-15.4v-14.5c0-7.1,1.4-12.6,4.3-16.5c2.8-3.9,6.5-6.1,11.1-6.6L208.2,192L208.2,192L208.2,192z"/>
<path id="path3263" fill="#FFFFFF" d="M232.6,192c-2.7,0.4-4.7,1.9-6,4.5c-1.4,2.6-2.1,5.5-2.1,8.8c0,0.3,0,0.6,0,0.9
	c0,0.3,0.1,0.6,0.2,0.9h7.9v15.8h-15.5v-14.5c0-5.7,1.2-10.8,3.6-15.4c2.4-4.5,6.4-7.1,11.9-7.8L232.6,192L232.6,192L232.6,192z"/>
<path id="path3265" fill="#FFFFFF" d="M358,200.6c11.7,0,21.1,9.5,21.1,21.1c0,11.7-9.5,21.1-21.1,21.1s-21.1-9.5-21.1-21.1
	C336.8,210.1,346.3,200.6,358,200.6"/>
<path id="path3267" fill="#FFFFFF" d="M358,248c-14.5,0-26.3-11.8-26.3-26.3c0-5.2,1.5-10.1,4.2-14.2H308V254h100v-46.5h-27.9
	c2.6,4.1,4.2,9,4.2,14.2C384.2,236.3,372.4,248,358,248"/>
<path id="path3269" fill="#FFFFFF" d="M408,189.5h-32.6l-6.2-14.3h-2.1h-18.3h-2.1l-6.2,14.3H308v12.9h32.2
	c4.7-4.3,10.9-6.9,17.8-6.9c6.8,0,13.1,2.6,17.8,6.9H408L408,189.5L408,189.5z M363.9,186.5H352v-6.2h11.9V186.5z"/>
<rect id="rect3271" x="312.8" y="186" fill="#FFFFFF" width="11.8" height="2"/>
<rect id="rect3273" x="314.1" y="182.5" fill="#FFFFFF" width="9.1" height="4.5"/>
<path id="path3275" fill="#FFFFFF" d="M549.2,184.2v57c0,0-16.2-4.6-28.3-2.2c-10.8,2.1-18.7,7.9-20.1,9v0.2c0,0,0,0-0.1-0.1
	c-0.1,0.1-0.1,0.1-0.1,0.1V248c-1.3-1-9.3-6.9-20.1-9c-12.1-2.3-29.9,2.2-29.9,2.2V184c-1,0.2-2.1,0.3-3.3,0.5V246
	c0,0,19.4-5,32.6-2.5c13,2.5,20.8,10,20.8,10s7.8-7.5,20.8-10c13.2-2.5,31.8,2.5,31.8,2.5v-61.2
	C553.5,184.8,551.8,184.5,549.2,184.2 M479.6,233.2c10.6,2,18.7,8.1,18.7,8.1v-56.1c0,0-8.2-6.1-18.8-8.2c-10.7-2.1-24.7,2-24.7,2
	v56.1C454.8,235.2,468.8,231.2,479.6,233.2 M545.1,235.4v-56.1c0,0-12.8-4.1-23.5-2c-10.6,2-19.1,8.2-19.1,8.2v56.1
	c0,0,8.4-6.1,19-8.1C532.2,231.4,545.1,235.4,545.1,235.4"/>
<rect id="rect3277" x="325.7" y="58.5" fill="#FFFFFF" width="12.5" height="12.5"/>
<rect id="rect3279" x="350.7" y="83.5" fill="#FFFFFF" width="12.5" height="12.5"/>
<rect id="rect3281" x="375.7" y="58.5" fill="#FFFFFF" width="12.5" height="12.5"/>
<path id="path3283" fill="#FFFFFF" d="M332,39.8V27.3c0-3.5,2.8-6.2,6.2-6.2s6.2,2.8,6.2,6.2v12.5c0,3.5-2.8,6.2-6.2,6.2
	S332,43.2,332,39.8"/>
<polygon id="polygon3285" fill="#FFFFFF" points="307,121 307,33.5 319.5,33.5 319.5,108.5 394.5,108.5 394.5,33.5 407,33.5 
	407,121 "/>
<rect id="rect3287" x="350.7" y="58.6" fill="#FFFFFF" width="12.5" height="12.5"/>
<rect id="rect3289" x="325.7" y="83.5" fill="#FFFFFF" width="12.5" height="12.5"/>
<polygon id="polygon3291" fill="#FFFFFF" points="375.7,83.5 388.2,83.5 375.7,96 "/>
<path id="path3293" fill="#FFFFFF" d="M369.5,39.8V27.3c0-3.5,2.8-6.2,6.2-6.2s6.2,2.8,6.2,6.2v12.5c0,3.5-2.8,6.2-6.2,6.2
	S369.5,43.2,369.5,39.8"/>
<path id="path3295" fill="#FFFFFF" d="M117.3,319.8v64.4c0,6-5.2,11.3-10.7,11.3H33.5c-9,0-13.9-4.7-13.9-16.2v-47h13.5v-12.5
	L117.3,319.8L117.3,319.8z M33.1,339.2h-6.6v40.1c0,5.9,1.4,8.7,3.2,8.7c2.2,0,3.4-2.8,3.4-8.7V339.2z M110.4,326.7H40v52.6
	c0,4.1-0.8,7-1.9,9.3h68.6c2.3,0,3.8-2.7,3.8-4.5C110.4,384.2,110.4,326.7,110.4,326.7z M67.1,350.9H50.9v-2.3h16.2
	C67.1,348.6,67.1,350.9,67.1,350.9z M67.1,358.4H50.9v-2.3h16.2C67.1,356.1,67.1,358.4,67.1,358.4z M67.1,365.7H50.9v-2.3h16.2
	L67.1,365.7L67.1,365.7z M67.1,372.7H50.9v-2.3h16.2C67.1,370.4,67.1,372.7,67.1,372.7z M67.1,380H50.9v-2.3h16.2
	C67.1,377.7,67.1,380,67.1,380z M53.3,336.8h42.4v4.5H53.3C53.3,341.2,53.3,336.8,53.3,336.8z M73.5,348.6h27.1v25.9H73.5V348.6z"/>
<path id="path3297" fill="#FFFFFF" d="M259.6,326.3h-92.5c-1.8,0-3.3,1.5-3.3,3.3v58c0,1.8,1.5,3.3,3.3,3.3h92.5
	c1.8,0,3.3-1.5,3.3-3.3v-58C262.9,327.8,261.5,326.3,259.6,326.3 M170.5,335.7l29.6,22l-29.6,24.1V335.7z M213.4,360.4L176.5,333
	h73.8L213.4,360.4L213.4,360.4z M204.2,360.7l7.5,5.6c0.5,0.4,1.1,0.6,1.7,0.6s1.2-0.2,1.7-0.6l7.7-5.8c0,0,0,0,0,0l28.8,23.8h-76.6
	L204.2,360.7L204.2,360.7z M227,357.5l29.3-21.8v46L227,357.5L227,357.5z"/>
<path id="path3299" fill="#FFFFFF" d="M339.1,353.7c-5.3-5-9.4-14.7-9.4-22.6c0-11.1,8.8-17.4,17.1-17.4c8.3,0,16.6,6.9,16.6,18
	c0,7.9-4.5,17.3-10.1,22.1c1.1,4.5,7.4,6,20.4,9.7c4.8,1.4,5.7,3.4,8.3,5.8h-27.8c-0.6,0-1.1,0.1-1.6,0.4c0,0-1.6,0.7-1.7,2.9v16.2
	h-42c0-6.8-1.9-21.2,12.5-25.3c12.6-3.6,16.2-5.1,17.6-9.3"/>
<path id="path3301" fill="#FFFFFF" d="M357.1,403c-0.3,0-0.5,0-0.8-0.1l11.3-14.9l0.9-1.1l1.5,1.1l9.6,7.2h0.3l9.6-7.2l1.5-1.1
	l0.9,1.1l11.2,14.9c-0.3,0.1-0.5,0.1-0.8,0.1h-22.6h-0.1H357.1z"/>
<path id="path3303" fill="#FFFFFF" d="M355.6,373.4c0.5-0.3,1-0.4,1.5-0.4h29.5h15.5c0.6,0,1.2,0.2,1.8,0.5l-11.5,8.5l-8.2,6
	l-4.6,3.4l-4.5-3.4L355.6,373.4z"/>
<path id="path3305" fill="#FFFFFF" d="M405.6,376.3v23.5c0,0.4-0.1,0.8-0.2,1.1l-12-15.8l12.2-9.1
	C405.6,376,405.6,376.2,405.6,376.3"/>
<path id="path3307" fill="#FFFFFF" d="M366.1,385.1l-2.2,2.9l-9.7,12.9c-0.1-0.4-0.2-0.7-0.2-1.1V388v-11.7c0-0.1,0-0.2,0-0.3
	L366.1,385.1z"/>
<path id="path3309" fill="#FFFFFF" d="M500.9,307.4c-20.9,0-37.3,10.5-37.3,24c0,0.3,0,0.7,0,1h0c0,0,0,7.6,0,17.1
	c0,13-0.1,29.6-0.1,36.3c0,13.4,16.3,23.9,37.2,23.9c20.8,0,37.1-10.5,37.1-23.9c0-3.7,0-10.5,0.1-18.1c0.1-16.2,0.3-36,0.3-36.3v0
	C538.2,317.9,521.8,307.4,500.9,307.4 M532.8,350.5c0,1.3,0,2.7,0,4v0.6c-0.2,0.4-0.5,0.9-0.8,1.3c-1.1,1.6-2.5,3-4.2,4.4
	c-6.1,4.9-16.1,8.1-27,8.1c-8.5,0-16.4-2-22.4-5.2v3.4c6.1,3,13.9,4.8,22.4,4.8c11.6,0,21.7-3.3,28.3-8.4c1.4-1.1,2.6-2.2,3.6-3.4
	c0,4.2-0.1,8.5-0.1,12.4v1.1c-4.4,7.7-17.2,13.5-31.8,13.5c-8.5,0-16.4-2-22.4-5.2v3.4c6.1,3,13.9,4.8,22.4,4.8
	c13.9,0,25.7-4.7,31.7-11.7c0,3,0,5.6,0,7.4c0,9.7-14.6,17.9-31.9,17.9c-17.1,0-31.6-8-32-17.5h0v-0.4V385v-31.5h0
	c0-0.8,0-1.6,0-2.3c0-2.4,0-4.7,0-6.8c0.1-0.1,0.1-0.3,0.2-0.4c0.6,0.6,1.2,1.3,1.9,1.8c0.4,0.3,0.7,0.6,1.1,0.9
	c0.4,0.3,0.7,0.5,1.1,0.8c1.9,1.3,4,2.5,6.3,3.6c6,2.7,13.5,4.3,21.5,4.3c8.1,0,15.5-1.6,21.5-4.3c2.3-1,4.4-2.2,6.3-3.6
	c0.4-0.3,0.7-0.5,1.1-0.8c0.4-0.3,0.8-0.6,1.1-0.9c0.7-0.6,1.3-1.2,1.9-1.8c0,0,0,0.1,0.1,0.1C532.9,346.1,532.9,348.2,532.8,350.5
	 M533,331.4c0,2-0.7,4-1.8,5.8c-0.2,0.4-0.5,0.8-0.9,1.2c-0.3,0.4-0.6,0.7-0.9,1.1c-0.3,0.3-0.6,0.6-0.9,0.9
	c-0.3,0.3-0.7,0.6-1.1,0.9c-0.3,0.3-0.7,0.6-1.1,0.8c-2.1,1.5-4.6,2.8-7.4,3.9c-5.2,2-11.4,3.2-18,3.2s-12.8-1.2-18-3.2
	c-2.8-1.1-5.3-2.4-7.4-3.9c-0.4-0.3-0.7-0.6-1.1-0.8c-0.4-0.3-0.7-0.6-1.1-0.9c-0.3-0.3-0.6-0.6-0.9-0.9c-0.3-0.4-0.7-0.7-1-1.1
	c-0.3-0.4-0.6-0.8-0.9-1.2c-1.2-1.8-1.8-3.8-1.8-5.8c0-9.7,14.7-17.9,32.1-17.9h0C518.3,313.5,533,321.6,533,331.4L533,331.4
	L533,331.4z"/>
<path id="path3311" fill="#FFFFFF" d="M678.5,309.3h-48.8h-7.1h-5.4c-1.9,0-4.7,1-6.2,2.3l-0.8,0.7c-1.5,1.3-2.6,3.9-2.6,5.9v2.7
	v0.6v83c0,1.9,1.6,3.5,3.5,3.5h61.3c1.9,0,3.5-1.6,3.5-3.5v-83.6c0-1.9-1.6-3.5-3.5-3.5h-41c0-1.3-1-2.3-2.3-2.3
	c-1.3,0-2.3,1-2.3,2.3v0.9v23.3l-5.8-5.7l-5.1,5.7v-24.2h-4.8c0,0,0,0-0.1,0l3.8-4.3h11.3h52.3v88.1h0.1c1.9,0,3.5-1.6,3.5-3.5
	v-84.8C682.1,310.9,680.5,309.3,678.5,309.3"/>
<path id="path3313" fill="#FFFFFF" d="M18.6,460.4h100V545h-100L18.6,460.4L18.6,460.4z M26.3,537.3h84.6v-61.5H26.3V537.3z
	 M34,487.3h11.5l11.5,15.4l-11.5,15.4H34l11.5-15.4L34,487.3L34,487.3z"/>
<path id="path3315" fill="#FFFFFF" d="M224.6,548.4c-4.6,1.8-9.7,2.8-15.4,2.8c-6,0-11.6-1.4-16.7-3.7c-2.3-1.1-3.9-2.6-3.9-4.5
	v-5.6c-11.4-6.7-19.6-19-22-34.6c-1.6-1.1-2.5-2.4-2.5-3.9c0-1.5,0.9-2.6,1.7-3.3c1.6-1.4,4.4-2.5,7.9-3.4c2.3-3.5,6.3-5.8,10.8-5.8
	c1.7,0,3.4,0.3,4.9,1c1.9-3.3,5.5-5.4,9.4-5.4c0.6,0,1.3,0.1,1.9,0.2c1-5,5.4-8.6,10.6-8.6c5.7,0,10.4,4.5,10.8,10.1
	c2.3,0.2,4.6,1.2,6.3,2.8l14.2-27.9c1.9-3.5,7.1-0.7,5.2,2.8l-13.4,23.8c0.8,0,1.6,0.1,2.3,0.3l20-30.8c2.2-3.3,7.2,0.1,4.9,3.4
	l-20.9,29.4c1.5,1.2,2.7,2.7,3.4,4.5c6.3,1.5,10.9,3.7,10.9,7c0,1.6-1.1,3-3,4.2c-2.5,14.2-9.6,27.1-21.1,34.2v5.7
	C230.5,545.4,228,547.2,224.6,548.4 M209.1,547.6c5.3,0,10.1-0.9,14.2-2.6c1.5-0.5,2.6-1.1,3.1-1.6c0.3-0.2,0.4-0.4,0.4-0.5l0-3.8
	c-5.1,2.4-11.1,3.8-17.8,3.8c-6,0-11.8-1.3-17-3.7l0.1,3.9c0.3,0.3,0.8,0.7,1.7,1.1C198.6,546.4,203.8,547.6,209.1,547.6
	 M247.8,504.8c-11.4,3.9-33.4,4.1-38.5,4.1c-5.2,0-27.6-0.2-38.9-4.2c4.2,21.1,20.2,34.8,38.7,34.8
	C228.4,539.4,243.7,525.8,247.8,504.8 M232.3,488.2l-4.4,7.8c0.4,0.1,0.8,0.3,1.3,0.5l5.5-8.4c-0.3,0-0.6,0-0.9,0
	C233.3,488,232.8,488.1,232.3,488.2 M244.5,496.1c2,0.7,3.7,2.3,4.6,4.3c2-1,2.3-1.7,2.3-1.9c0-0.1-0.2-0.7-1.5-1.5
	c-0.7-0.4-1.7-0.9-3.3-1.4c-0.7-0.2-1.4-0.5-2.2-0.7c0,0.3,0,0.6,0,0.9C244.6,495.9,244.6,496,244.5,496.1 M240,495.9
	c0.5-0.1,1-0.2,1.6-0.2c0-2.4-1.2-4.5-2.9-5.9l-6.6,9.2c0.1,0.2,0.3,0.4,0.4,0.6c1,1.7-1.6,3.2-2.6,1.5c-1.8-3.1-6.3-3.5-8.4-0.2
	c-1.1,1.7-3.6,0.1-2.5-1.6c1-1.6,2.5-2.7,4-3.2l3.6-7c-1.5-1.7-3.6-2.6-5.9-2.6c-1.9,0-2-0.7-2-2.3c0-4.3-3.5-7.8-7.8-7.8
	c-4.2,0-7.7,3.4-7.8,7.6c0,0.1,0,0.2,0,0.3c3.2-0.2,6.5,1.4,8.2,4.6c0.9,1.8-1.7,3.1-2.6,1.4c-2.2-4.1-8.2-4.1-10.1,0.4
	c-0.8,1.8-3.5,0.7-2.8-1.1c0.9-2.1,2.4-3.6,4.1-4.4c-0.6-0.1-1.1-0.2-1.5-0.2c-4.9,0-6.2,3.5-7.4,5.1c1.2,0.2,2.4,0.7,3.4,1.4
	c1.6,1.1-0.1,3.6-1.7,2.4c-2.8-2-6.9-0.9-8.3,2.4c-0.8,1.8-3.5,0.7-2.8-1.1c1.2-2.8,3.6-4.5,6.2-5.1c-1.1-0.4-2.4-0.7-3.7-0.7
	c-5.5,0-9.9,4.4-9.9,9.9c0,2-3,2-3,0c0-1.3,0.2-2.6,0.6-3.7c-1.4,0.5-2.6,1-3.5,1.5c-0.3,0.2-0.5,0.4-0.8,0.6
	c-0.5,0.4-0.6,0.7-0.6,0.9c0,0.2,0.5,1.5,4.7,2.9c3.7,1.2,8.7,2.1,14,2.7c1.9,0.2,3.9,0.4,5.8,0.5c1.3-3.8,5.6-6.3,10.2-6.3
	c3,0,5.8,1,7.8,2.7c1.5,1.3-0.5,3.5-2,2.2c-1.4-1.2-3.4-2-5.8-2c-3.4,0-5.9,1.6-7,3.5c7.2,0.4,13.2,0.5,14.4,0.5
	c1.7,0,12.8,0,23.4-1.2c5.2-0.6,10.1-1.4,13.7-2.6c-1-2-3.2-3.3-5.6-2.7C238.8,499.3,238.1,496.4,240,495.9"/>
<path id="path3317" fill="#FFFFFF" d="M404.5,463.2c-0.3-0.3-0.7-0.5-1.2-0.5c-1.1,0-2.1,0-3.2,0.1l0-2.8c0-0.6-0.2-1.1-0.6-1.6
	c-0.4-0.4-1-0.7-1.6-0.7c-0.7,0-1.3,0-2,0h0l0-2.2c0-0.6-0.2-1.1-0.6-1.5c-0.4-0.4-1-0.6-1.6-0.6c-18.8,0-37,16.5-42.4,21.8
	c-13.2-12.2-30.9-20.2-31.7-20.5c-0.7-0.3-1.5-0.2-2.1,0.2s-1,1.1-1,1.9l0.1,2.9c0,0,0.1,0,0.1,0c-0.7-0.3-1.2-0.5-1.3-0.6
	c-0.7-0.3-1.5-0.2-2.1,0.2c-0.6,0.4-1,1.1-0.9,1.9l0.1,3.2c-1-0.4-1.6-0.6-1.6-0.6c-0.5-0.2-1.1-0.1-1.5,0.2
	c-0.4,0.3-0.7,0.8-0.7,1.4l2.2,67.4c0,0.8,0.6,1.4,1.4,1.6c18,3.1,39.5,16.5,39.7,16.6c0.3,0.2,0.6,0.3,0.9,0.3c0.2,0,0.4,0,0.6-0.1
	c19.5-7.2,48.9-14.6,49.2-14.7c0.7-0.2,1.2-0.8,1.2-1.6l1.1-70.6C405,463.9,404.8,463.5,404.5,463.2 M312.1,467.8
	c6.4,2.4,24.7,9.9,37.7,20c0.2,0.1,0.3,0.2,0.5,0.3c-0.7,0.2-1.2,0.9-1.2,1.7l2.1,57.1c-0.2-0.1-0.3-0.2-0.5-0.3l-3.2-58.1
	c-5-6-31-17.5-35.4-19.4L312.1,467.8L312.1,467.8z M353.3,511.3l5.2,3.7l-4.9,2.9L353.3,511.3L353.3,511.3z M353.6,519.3l5.1,1.4
	l-4.8,5.1L353.6,519.3z M354.6,547.3l-0.8-21.1l6.8-0.3l-3.4,6.6l7.1-2.5l-1.2,7.1l6.2-4.4l1,6.8l4.7-5.9l3.2,5.9l2.8-6.8l5.1,4.5
	l0.6-7.1l6.4,2.5l-1.7-6.6l7.2,0.4l-3.8-5.6l6.1-1.6l-0.2,14.3C395.1,535.1,371.9,541.1,354.6,547.3 M375.7,527.1
	c0-1.5,1.6-2.7,3.6-2.7c2,0,3.6,1.2,3.6,2.7s-1.6,2.7-3.6,2.7S375.7,528.6,375.7,527.1 M396.4,515.2l4.5-2.7l-0.1,5.9L396.4,515.2
	L396.4,515.2z M396.2,509.4l4.9-5.1l-0.1,6.5L396.2,509.4z M401.1,503.9l-6.9,0.3l3.4-6.6l-7.1,2.5l1.2-7.1l-3,2.1l-4.8,29.3
	c-2.4-2.2-8.4,0-8.4,0l-6.1-30.8l-0.8-0.7l-0.6,7.1l-5.8-2.3c0.4-0.2,0.8-0.4,1.1-0.5c0.8-0.4,1.6-0.7-0.4-13.4
	c-0.1-0.3-0.3-0.6-0.6-0.8c-0.3-0.2-0.7-0.2-1,0c-0.2,0.1-4,1.8-7,3.6c-0.4,0.2-0.6,0.6-0.5,1l1,12.2c0,0.4,0.2,0.7,0.6,0.9
	c0.2,0.1,0.3,0.1,0.5,0.1c0.2,0,0.4,0,0.5-0.1c0,0,3.1-1.6,5.3-2.7l1.6,6.2l-7.2-0.4l3.8,5.6l-6.8,1.7l-0.8-21.4
	c0-0.7-0.5-1.3-1.2-1.5c0.2-0.1,0.4-0.1,0.6-0.3c0.2-0.2,24.9-20.8,49.8-21.7L401.1,503.9L401.1,503.9z M357.1,497.9l-0.8-9.9
	c1.7-1,3.6-1.9,4.9-2.5c0.6,4.1,1.1,8.5,1,9.8C360.8,495.9,358.6,497.1,357.1,497.9 M366.5,474c-0.7,0.4-1.5,0.8-2.2,1.3
	c8.3-5.8,19.8-12.2,31.5-12.9l0,1C384.5,464.9,373.9,469.8,366.5,474 M391.6,457.8c-9.6,2.2-18.7,6.3-26,10.9
	c7.2-5.2,16.6-10.5,26-11.3V457.8L391.6,457.8z M393.8,458.1c0,0-0.1,0-0.1,0C393.8,458.1,393.8,458.1,393.8,458.1 M351.4,479.8
	c-0.2,0.2-0.4,0.3-0.5,0.5C351.1,480.2,351.3,480,351.4,479.8 M365.3,469.2c-0.4,0.2-0.7,0.5-1.1,0.7
	C364.6,469.7,365,469.5,365.3,469.2 M363.7,470.3c-0.3,0.2-0.5,0.4-0.8,0.5C363.2,470.7,363.4,470.5,363.7,470.3 M362.4,471.2
	c-0.2,0.2-0.5,0.3-0.7,0.5C361.9,471.6,362.1,471.4,362.4,471.2 M361.1,472.1c-0.2,0.2-0.5,0.3-0.7,0.5
	C360.6,472.5,360.8,472.3,361.1,472.1 M359.9,473c-0.2,0.2-0.5,0.4-0.7,0.5C359.4,473.3,359.6,473.2,359.9,473 M358.7,473.8
	c-0.3,0.2-0.5,0.4-0.7,0.6C358.2,474.2,358.5,474,358.7,473.8 M357.6,474.7c-0.7,0.5-1.4,1.1-2,1.6
	C356.2,475.8,356.9,475.2,357.6,474.7 M355.3,476.5c-0.2,0.2-0.4,0.4-0.6,0.5C354.9,476.9,355.1,476.7,355.3,476.5 M354.4,477.3
	c-0.2,0.2-0.4,0.3-0.5,0.5C354,477.6,354.2,477.5,354.4,477.3 M353.5,478c-0.2,0.1-0.3,0.3-0.5,0.4
	C353.2,478.3,353.3,478.2,353.5,478 M352.7,478.7c-0.2,0.1-0.3,0.3-0.5,0.4C352.4,479,352.6,478.8,352.7,478.7 M352.1,479.3
	c-0.2,0.1-0.3,0.3-0.5,0.4C351.7,479.6,351.9,479.4,352.1,479.3 M347,477.2c-9.3-7.1-19.7-12.6-25.9-15.5l0-1.4
	C326.5,462.9,337.8,469.1,347,477.2 M319.9,461.1c-0.1-0.1-0.2-0.1-0.3-0.2C319.7,461,319.8,461,319.9,461.1 M318.7,460.5
	c0,0-0.1,0-0.1-0.1C318.6,460.5,318.7,460.5,318.7,460.5 M317.7,460.1c-0.1,0-0.2-0.1-0.2-0.1C317.5,460,317.6,460,317.7,460.1
	 M317,464.6c4.5,2,13.1,6.3,21.6,12c-8.2-4.6-16.3-8.2-21.6-10.3L317,464.6z"/>
<path id="path3319" fill="#FFFFFF" d="M368.4,480.8l7.7,42.6c0,0,2.4-1,4.7-1c1.1,0,2.2,0.2,3,1l7.7-51.4
	C391.3,472,371.6,475.3,368.4,480.8 M386.1,477.6l-6,40.5c-0.2,0-0.4,0-0.5,0l-6.5-35.9C375.2,480.7,380.3,478.9,386.1,477.6"/>
<rect id="rect3321" x="452.8" y="455.2" fill="#FFFFFF" width="45" height="45"/>
<rect id="rect3323" x="503.8" y="455.2" fill="#FFFFFF" width="45" height="45"/>
<rect id="rect3325" x="452.8" y="505.4" fill="#FFFFFF" width="45" height="45"/>
<rect id="rect3327" x="503.8" y="505.4" fill="#FFFFFF" width="45" height="45"/>
<path id="path3329" fill="#FFFFFF" d="M675.7,549.9l-30.9-22.5l-30.9,22.5l11.8-36.3l-30.9-22.5H633l11.8-36.3l11.8,36.3h38.2
	l-30.9,22.5L675.7,549.9L675.7,549.9z M644.8,522.5l23.3,16.9l-8.9-27.4l23.3-16.9h-28.8l-8.9-27.4l-8.9,27.4h-28.8l23.3,16.9
	l-8.9,27.4L644.8,522.5z"/>
<path id="path3331" fill="#FFFFFF" d="M94.3,698.7H32.6v-66.6L55,611.3h16.9l22.4,20.8V698.7L94.3,698.7z M42.9,688.4H84v-51.8
	l-16.1-15H59l-16.1,15V688.4L42.9,688.4z M58.3,655h-5.1v27h5.1V655z M73.7,655h-5.1v27h5.1V655z M63.5,646.5
	c-6,0-10.9-4.9-10.9-10.9c0-6,4.9-10.9,10.9-10.9c6,0,10.9,4.9,10.9,10.9C74.4,641.6,69.5,646.5,63.5,646.5 M63.5,631.1
	c-2.5,0-4.5,2-4.5,4.5c0,2.5,2,4.5,4.5,4.5c2.5,0,4.5-2,4.5-4.5C67.9,633.1,65.9,631.1,63.5,631.1 M63.6,637c-1.2,0-2.3-0.9-2.5-2.2
	c-2.4-14.8,14.6-24.9,26.7-30.2c1.1-2.2,2.1-4.3,2.9-6.2c2-4.4,5.6-5.5,8.3-5c3,0.5,5.3,3,5.5,5.8c0.1,1.5-0.3,5-6.1,6.9
	c-2.3,0.8-4.6,1.6-6.9,2.5c-3,6-6.4,12.5-9.2,16.8c-0.8,1.2-2.4,1.5-3.5,0.8c-1.2-0.8-1.5-2.4-0.8-3.5c1.8-2.8,3.9-6.6,6-10.6
	c-11,5.7-19.3,13.3-17.9,21.9c0.2,1.4-0.7,2.7-2.1,2.9C63.9,637,63.8,637,63.6,637 M97.8,598.5c-1.2,0-2,1.3-2.4,2.1
	c-0.2,0.4-0.4,0.9-0.6,1.3c0.8-0.3,1.5-0.5,2.1-0.7c2-0.6,2.6-1.4,2.5-1.7c0-0.3-0.5-0.9-1.3-1C98,598.5,97.9,598.5,97.8,598.5"/>
<path id="path3333" fill="#FFFFFF" d="M258.1,663.1c-3.7-1.7-7.8-1.9-11.4-1c-3.4-16.2-13.7-30.3-28.3-38.4c1.6-4.3,5.1-7.5,9.3-8.9
	c-1.8-1.4-4-2.5-6.5-2.9c-6.1-1.1-12.1,1.8-15.2,6.8c-1.6-0.5-3.3-0.8-5-1.2c-14.8-2.7-37.3-2.4-35.2,12.7
	c-11.2,7.8-6.7,9.4-0.2,7.4c9.5-2.8,19.5-2.4,29.9-1c-0.5,0.8-0.7,0.3-1.1,2.7c-0.4,2.4,1.9,7.6,5.7,8.3l0,0c-1-1.5-1.5-3.4-1.1-5.3
	s1.4-3.5,2.9-4.5c15.4,3.5,32.5,13,41.9,25.3c-3.8,1.7-7,4.8-8.8,8.9c-1.3,2.9-1.7,6-1.4,9c2.9-5.4,15.4-7.5,14.1-12.3
	c4,3.4,11.4-1.3,17.9,0.6C263.7,666.7,261.2,664.5,258.1,663.1"/>
<path id="path3335" fill="#FFFFFF" d="M547.2,654.3H531v-5.2h6.5v-5.5h-35.6v-5.3h16.2c3.7,0,4.1-2.6,4.1-3.8v-19.1
	c0-2.8-1.4-4.3-4.1-4.3h-34.8c-1.9,0-4.1,0.7-4.1,4.3v19.1c0,1.4,0.5,3.8,4.1,3.8h16.2v5.3H464v5.5h6.6v5.1h-16.2
	c-1.9,0-4.1,0.7-4.1,4.3v19.1c0,1.4,0.5,3.8,4.1,3.8h34.8c3.7,0,4.1-2.6,4.1-3.8v-19.1c0-2.8-1.4-4.3-4.1-4.3h-16.2v-5.1h55.7v5.2
	h-16.2c-1.9,0-4.1,0.7-4.1,4.3v19.1c0,1.4,0.5,3.8,4.1,3.8h34.8c3.7,0,4.1-2.6,4.1-3.8v-19.1C551.3,655.7,550,654.3,547.2,654.3
	 M482.8,634.8c0-0.1,0-0.1,0-0.2v-19.1c0-0.4,0-0.6,0.1-0.7c0.1,0,0.2,0,0.5,0h34.8c0.3,0,0.4,0,0.5,0c0,0.1,0.1,0.3,0.1,0.7v19.1
	c0,0.1,0,0.2,0,0.2c-0.1,0-0.3,0-0.6,0h-34.8C483.1,634.8,482.9,634.8,482.8,634.8 M489.7,657.8c0,0.1,0.1,0.3,0.1,0.7v19.1
	c0,0.1,0,0.2,0,0.2c-0.1,0-0.3,0-0.6,0h-34.8c-0.3,0-0.5,0-0.6,0c0-0.1,0-0.1,0-0.2v-19.1c0-0.4,0-0.6,0.1-0.7c0.1,0,0.2,0,0.5,0
	h34.8C489.4,657.8,489.6,657.8,489.7,657.8 M547.8,677.6c0,0.1,0,0.1,0,0.2c-0.1,0-0.3,0-0.6,0h-34.8c-0.3,0-0.5,0-0.6,0
	c0-0.1,0-0.1,0-0.2v-19.1c0-0.4,0-0.6,0.1-0.7c0.1,0,0.2,0,0.5,0h34.8c0.3,0,0.4,0,0.5,0c0,0.1,0.1,0.3,0.1,0.7V677.6L547.8,677.6z"
	/>
<path id="path3337" fill="#FFFFFF" d="M695.3,682.5h-100v-73h100V682.5z M603.3,674.5h84v-57h-84V674.5z"/>
<polygon id="polygon3339" fill="#FFFFFF" points="609.3,668.5 681.3,668.5 663.3,644.5 652.3,653.5 630.3,623.5 "/>
<path id="path3341" fill="#FFFFFF" d="M672.3,624.5c3.9,0,7,3.1,7,7c0,3.9-3.1,7-7,7s-7-3.1-7-7
	C665.3,627.6,668.4,624.5,672.3,624.5"/>
<path id="path3343" fill="#FFFFFF" d="M71.1,838.7h-1.3H52.3c2.5,0,2.7,2,2.7,2h14.8h1.3h14.8c0,0,0.2-2,2.7-2H71.1z"/>
<path id="path3345" fill="#FFFFFF" d="M69.8,745.7h1.3h17.5c-2.5,0-2.7-5-2.7-5H71.1h-1.3H55c0,0-0.2,5-2.7,5H69.8z"/>
<path id="path3347" fill="#FFFFFF" d="M52.4,837.7h36v-91h-36C52.4,746.7,52.4,837.7,52.4,837.7z M77.1,796.3l-17.8,14.9l10.8-14.1
	l-10.8-10.4l8.2-15.1h14.4L69.5,787L77.1,796.3L77.1,796.3z"/>
<path id="path3349" fill="#FFFFFF" d="M264.7,809l-0.1-1.4l-15.6,3c0.1-3.8,0.2-14.4,0.2-25.9c0-1.8,0-3.6,0-5.4
	c0-10.7,0-21.8-0.8-28.1c-0.5-3.7-2.8-9.6-7.2-9.6h-0.1c-15.2,0.2-62.3,6.2-70.1,7.2c-1.8,0-3.4,0.6-4.6,1.9c-4,4.3-2.7,14.6-2.6,15
	l0.2,1.2l15.2-2.1c1.2,8.7,1,20.2,0.8,31.1c-0.1,2.6-0.1,5.3-0.1,7.9c0,1.6-0.1,3.1-0.1,4.6c-0.3,14.8-0.6,27.5,12.5,30.5
	c1.1,0.2,2.1,0.4,3,0.4c1,0,1.9-0.1,2.7-0.4l0,0.1l60.2-13.4l0.1,0c0.2-0.1,4.9-1.5,6.2-6.9C265.3,815,264.7,809.2,264.7,809
	 M166.1,764.2c-0.3-3.3-0.2-9.3,2.1-11.7c0.5-0.6,1.2-0.9,2-1.1l0,0.1c0,0,0.4,0,0.9-0.1c0,0,0.1,0,0.1,0c4.1,0.3,6.3,4.6,7.5,11.1
	L166.1,764.2L166.1,764.2z M199.3,835.4c-1.6,1.4-3.7,1.8-6.5,1.2c-11.1-2.5-10.9-13.8-10.5-28.1c0-1.5,0.1-3.1,0.1-4.6
	c0-2.6,0.1-5.2,0.1-7.9c0.2-11.1,0.5-22.6-0.7-31.2c-1-7-2.8-11.7-5.6-14.1c14.5-1.8,52-6.4,65.1-6.5h0c2.7,0,4.4,4.8,4.7,7.4
	c0.8,6.2,0.8,17.1,0.8,27.8c0,1.8,0,3.6,0,5.4c0,12-0.1,23.1-0.2,26.3l-44.5,8.5l0.2,1.2C202.5,823.7,202.9,832.1,199.3,835.4
	 M262,818.3c-0.9,3.8-4.1,5-4.4,5.1l-55.2,12.2c2.9-4.4,2.6-11.3,2.4-14l57.6-11C262.4,812.4,262.5,815.8,262,818.3"/>
<path id="path3351" fill="#FFFFFF" d="M307.2,751.9v4.1v70.2v4.1h4h92.7h4v-4.1v-70.2v-4.1h-4h-92.7H307.2z M315.3,760.2h84.6v61.9
	h-84.6V760.2z"/>
<path id="path3353" fill="#FFFFFF" d="M320.8,765.2v0.7v50.6v0.7h0.6H394h0.7v-0.7v-50.6v-0.7H394h-72.6H320.8z M322,766.5h71.3
	v49.3H322V766.5z"/>
<path id="path3355" fill="#FFFFFF" d="M383.7,791.1c0.3-0.5,0.6-1,0.9-1.5c0.3,0.5,0.6,1,0.9,1.5c0.4-0.4,0.9-0.8,1.3-1.2
	c0.1,0.6,0.3,1.2,0.4,1.8c0.5-0.2,1.1-0.5,1.6-0.7c0,0.6-0.1,1.2-0.1,1.8c0.6-0.1,1.2-0.1,1.8-0.2c-0.2,0.6-0.5,1.1-0.7,1.6
	c0.6,0.1,1.2,0.3,1.7,0.4c-0.4,0.5-0.8,0.9-1.1,1.4c0.5,0.3,1,0.6,1.5,0.9c-0.5,0.3-1,0.6-1.5,0.9c0.4,0.4,0.8,0.9,1.2,1.3
	c-0.6,0.2-1.2,0.3-1.7,0.4c0.2,0.6,0.5,1.1,0.7,1.6c-0.6-0.1-1.2-0.1-1.8-0.2c0,0.6,0.1,1.2,0.1,1.8c-0.5-0.2-1.1-0.5-1.6-0.7
	c-0.1,0.3-0.2,0.6-0.1,0.8c0.9,2.8,1.9,5.7,2.9,8.5c-0.8-0.4-1.5-0.9-2.3-1.4c-0.4,0.8-0.8,1.5-1.2,2.3c-0.1-0.2-0.1-0.3-0.1-0.5
	c-0.6-2.6-1.2-5.1-1.8-7.7h-0.1c-0.5,2-0.9,4-1.4,6c-0.2,0.7-0.3,1.4-0.5,2.1c-0.4-0.7-0.8-1.5-1.2-2.3c-0.8,0.5-1.5,0.9-2.3,1.4
	c1-2.8,1.9-5.7,2.9-8.5c0.1-0.3,0-0.6,0-0.8c-0.6,0.2-1.1,0.5-1.6,0.7c0-0.6,0.1-1.2,0.1-1.8c-0.6,0.1-1.2,0.1-1.8,0.2
	c0.2-0.6,0.5-1.1,0.7-1.6c-0.6-0.1-1.1-0.3-1.7-0.4c0.4-0.5,0.8-0.9,1.2-1.3c-0.5-0.3-1-0.6-1.5-0.9c0.5-0.3,1-0.6,1.5-0.9
	c-0.4-0.5-0.8-0.9-1.2-1.4c0.6-0.1,1.1-0.3,1.7-0.4c-0.2-0.5-0.5-1.1-0.7-1.6c0.6,0,1.2,0.1,1.8,0.2c0-0.6-0.1-1.2-0.1-1.8
	c0.5,0.2,1.1,0.5,1.6,0.7c0.1-0.6,0.3-1.2,0.4-1.7C382.8,790.3,383.2,790.7,383.7,791.1 M384.4,792c-1.4,0-2.8,0.8-3.6,1.9
	c-0.9,1.2-1.1,2.9-0.6,4.4c0.4,1,1.1,1.9,2.1,2.4c1.3,0.8,3,0.8,4.4,0.1c0.8-0.4,1.4-0.9,1.8-1.6c1-1.6,1-3.8-0.1-5.3
	C387.5,792.7,385.9,791.9,384.4,792"/>
<path id="path3357" fill="#FFFFFF" d="M384.3,792.4c1.7-0.1,3.4,0.8,4.1,2.3c0.4,0.7,0.5,1.5,0.5,2.3c-0.1,1.9-1.6,3.7-3.5,4
	c-1.7,0.3-3.5-0.4-4.4-1.9c-1-1.5-0.9-3.6,0.2-5C381.8,793.1,383,792.4,384.3,792.4"/>
<path id="path3359" fill="#FFFFFF" d="M358.6,776l0,2.3c9.1,0.1,15.7,1.4,20,2.7c4.5,1.4,6.5,2.7,6.5,2.7l1.2-1.8c0,0-2.3-1.5-7-3
	C374.7,777.5,367.9,776.1,358.6,776 M353.9,776c-4.3,0.2-8,0.6-11.1,1.2l0.5,2.2c3.1-0.5,6.7-0.9,10.9-1.1l0-2.3
	C354.1,776,354,776,353.9,776 M338.5,778.1c-1,0.2-1.9,0.5-2.7,0.7c-4.7,1.4-7,3-7,3l1.2,1.8c0,0,1.9-1.3,6.4-2.7
	c0.8-0.2,1.6-0.5,2.5-0.7L338.5,778.1L338.5,778.1z"/>
<rect id="rect3361" x="326.5" y="804.6" fill="#FFFFFF" width="16.9" height="1.1"/>
<rect id="rect3363" x="326.5" y="810.3" fill="#FFFFFF" width="16.9" height="1.1"/>
<path id="path3365" fill="#FFFFFF" d="M457.7,767.6c-2.4-4.1-6.6-8.1-9.6-9.3l-0.5-0.2v-2v-2l0.3,0l27.4,0c0,0.7,0,2.3,0,3.8
	c-3.6,0.4-8,2.2-6.8,6.3c6.9,15.3,13.2,30.8,20,46.1l11.7-21.9c-4.5-9.3-7.8-18.7-12.8-27.8c-1.6-2.6-6-2.7-9.1-2.8l0-3.6l25.9,0.1
	l0.1,3.5c-2.3,0.3-5.1,0.9-4.8,3.7l7.4,16.3c2.4-5.2,5.1-10.2,7.2-15.5c1-4.2-3.7-4.4-6.8-4.5l-0.1-3.5l23.2-0.1v3.5
	c-3.4,0.2-6.6,1.2-8.5,3.7c-4.5,7-7.9,15-11.4,22.6c3.5,8.3,7.1,16.5,10.7,24.1l19.7-45.5c-1.3-3-4.3-4.1-7.3-4.7l-0.2-3.7l21.9,0.2
	l0,3.6c-1,0.2-1.9,0.5-2.8,0.8c-1.7,0.8-3.3,2.4-4.4,4.3l-27.2,62.6l-4.6,0l-12.9-30.5l-15.7,30.5l-4.7,0
	C474,806.6,467.4,786.5,457.7,767.6"/>
<polygon id="polygon3367" fill="#FFFFFF" points="632.1,755.1 658.8,794.3 658.8,755.1 679.5,755.1 679.5,825.9 658.8,825.9 
	632.3,787 632.3,825.9 611.7,825.9 611.7,755.1 "/>
<path id="path3369" fill="#FFFFFF" d="M76.4,927.1c-0.4-0.1-0.6-0.2-1-0.2v-12.1c5.6,0.9,11.5,3.4,17.1,7.2l10.8-15.2
	c-7.5-6-16.6-9.5-27.8-10.2V886H70v10.5c-17.9,0.5-28.8,10.7-28.8,24.8v0.2c0,15.8,12.5,20.5,28.8,24.3v12.8c-7.3-0.9-14.2-4-20.5-9
	l-12,14.3c8.6,7.7,20.2,12,32.5,12.7v9.2h5.4v-9.1c18-0.5,29.9-9.8,29.9-25.3v-0.2C105.3,936.8,94.2,931,76.4,927.1 M62.9,919.6
	v-0.2c0-2.6,2.3-4.8,7.1-4.9v11.1C64.5,923.8,62.9,922.3,62.9,919.6 M83.6,953.6c0,3.2-2.9,5.1-8.2,5.3v-11.7
	c6.4,1.9,8.2,3.5,8.2,6.2V953.6z"/>
<path id="path3371" fill="#FFFFFF" d="M239.8,948.9c-7.5,4.9-16.7,7-25.6,5.9c-9,1.1-18.3-1.1-25.9-6.1c3.4,5-1.2,10-3.4,14.5
	c-5.2-2.7-10.4-5.3-15.6-8c3.6-0.9,7.2-1.9,10.8-2.8c1.5-0.3,2.1-1.3,1.7-2.8c-2.4-6.2-13.9-33.3-0.9-29.7
	c5.4,1.5,9.5,7.9,10.4,12.9c-0.5-3.3,0.2-6.7,2-9.6c-6.4-0.1-9.7-8-5.1-12.5c4.7-4.5,12.5-0.8,12.3,5.6c4.2-2.4,9-3.6,13.8-3.5
	c4.8,0,9.6,1.2,13.8,3.5c-0.2-6.4,7.6-10.1,12.3-5.6c4.7,4.5,1.3,12.4-5.1,12.5c1.7,2.9,2.4,6.3,2,9.6c1.1-6.6,6.1-12,12.6-13.7
	c2.5-0.1,3.9,1.3,3.9,3.8c-1.4,9.1-3.7,18.1-7,26.7c-0.1,4.1,9.4,4.8,12.5,5.6c-5.2,2.7-10.4,5.3-15.6,8c-1.6-3.1-3.2-6.2-4.8-9.2
	c-0.2-1.8,0.3-3.7,1.3-5.2L239.8,948.9L239.8,948.9z"/>
<path id="path3373" fill="#FFFFFF" d="M188.3,948.4C188.3,948.4,188.3,948.4,188.3,948.4c-6.3-6.9-8.1-16.2-8.7-21.2c0,0,0,0,0,0
	c0,0,0,0,0,0C180.3,932.2,182.1,941.5,188.3,948.4C188.3,948.4,188.3,948.4,188.3,948.4C188.3,948.4,188.3,948.4,188.3,948.4"/>
<path id="path3375" fill="#FFFFFF" d="M240.2,948.4C240.1,948.4,240.1,948.4,240.2,948.4C240.1,948.4,240.1,948.4,240.2,948.4
	c4.5-5,7.7-12.7,8.6-21.2c0,0,0,0,0,0c0,0,0,0,0,0C247.9,935.7,244.7,943.4,240.2,948.4C240.2,948.4,240.2,948.4,240.2,948.4"/>
<path id="path3377" fill="#FFFFFF" d="M402.5,888.2h-85c-2.9,0-5.3,2.4-5.3,5.3v85c0,2.9,2.4,5.3,5.3,5.3h18.2h27.6v-37h-12.4v-14.4
	h12.4v-10.6c0-12.3,7.5-19.1,18.5-19.1c5.3,0,9.8,0.4,11.1,0.6v12.9l-7.6,0c-6,0-7.1,2.8-7.1,7v9.2h14.3l-1.9,14.4h-12.4v37h22.3h2
	c2.9,0,5.3-2.4,5.3-5.3v-85C407.8,890.5,405.4,888.2,402.5,888.2L402.5,888.2z"/>
<path id="path3379" fill="#FFFFFF" d="M515.6,894.8c-9.3,3.3-15.2,12-14.5,21.4l0.2,3.6l-3.7-0.4c-13.5-1.7-25.4-7.5-35.4-17.3
	l-4.9-4.8l-1.3,3.6c-2.7,8-1,16.4,4.6,22c3,3.1,2.3,3.6-2.8,1.7c-1.8-0.6-3.3-1-3.5-0.8c-0.5,0.5,1.3,7.3,2.7,10
	c1.9,3.7,5.9,7.4,10.2,9.5l3.6,1.7l-4.3,0.1c-4.2,0-4.3,0.1-3.9,1.6c1.5,4.8,7.4,10,13.9,12.2l4.6,1.6l-4,2.4
	c-6,3.4-12.9,5.4-19.9,5.5c-3.3,0.1-6.1,0.4-6.1,0.6c0,0.7,9.1,4.9,14.4,6.5c15.8,4.8,34.7,2.8,48.8-5.5c10-5.9,20.1-17.6,24.8-28.9
	c2.5-6,5.1-17,5.1-22.3c0-3.4,0.2-3.9,4.4-8c2.5-2.4,4.8-5,5.2-5.7c0.7-1.4,0.7-1.4-3.1-0.1c-6.3,2.2-7.2,1.9-4.1-1.4
	c2.3-2.4,5.1-6.7,5.1-8c0-0.2-1.1,0.1-2.4,0.8c-1.3,0.7-4.3,1.9-6.5,2.5l-4,1.3l-3.6-2.5c-2-1.3-4.8-2.8-6.3-3.3
	C524.9,893.5,519.1,893.6,515.6,894.8"/>
<path id="path3381" fill="#FFFFFF" d="M679.5,888.2h-69.2c-8.3,0-15,6.7-15,15v69.2c0,8.3,6.7,15,15,15h69.2c8.3,0,15-6.7,15-15
	v-69.2C694.4,894.9,687.7,888.2,679.5,888.2L679.5,888.2z M625.3,971.5h-14.9v-44.8h14.9V971.5z M617.8,920.5L617.8,920.5
	c-5.1,0-8.3-3.4-8.3-7.7c0-4.4,3.3-7.7,8.4-7.7c5.1,0,8.2,3.3,8.3,7.7C626.3,917.1,623,920.5,617.8,920.5z M679,971.5h-14.9v-24
	c0-6-2.2-10.1-7.5-10.1c-4.1,0-6.6,2.8-7.6,5.5c-0.4,1-0.5,2.3-0.5,3.6v25h-14.9c0,0,0.2-40.6,0-44.8h14.9v6.3
	c2-3.1,5.5-7.4,13.4-7.4c9.8,0,17.2,6.4,17.2,20.2V971.5z"/>
<path id="path3383" fill="#FFFFFF" d="M17.3,1082.3c5-1.2,11.8-2.9,23.7-3.3c-0.3-0.7-0.6-1.3-0.9-2c-4.6,0-18.9,0.6-23.8,1.8
	c0,0-0.1,0-0.1,0c-0.2,0-0.3-0.1-0.4-0.3c0-0.2,0.1-0.4,0.3-0.4c4.8-1.2,18.8-1.9,23.7-1.9c-1.1-3.3-1.6-7-1.6-11.2
	c0-7.4,2.3-10.2,5.4-14.2c-2.4-8.5,0.9-14.2,0.9-14.2s5-1,14.4,5.7c5.1-2.2,18.7-2.4,25.2-0.5c4-2.6,11.2-6.3,14.1-5.3
	c0.8,1.3,2.5,5,1,13.1c1,1.8,6.1,5.6,6.2,16.4c-0.1,4-0.5,7.3-1.3,10.2c12.3-0.1,19.5,0.9,24.5,1.8c0.2,0,0.3,0.2,0.3,0.4
	c0,0.2-0.2,0.3-0.4,0.3c0,0,0,0-0.1,0c-5-0.9-12.2-1.9-24.6-1.8c-0.2,0.7-0.5,1.4-0.7,2.1c4.2,0.1,15.8,0.6,25.2,3.5
	c0.2,0.1,0.3,0.3,0.2,0.5c0,0.2-0.2,0.3-0.3,0.3c0,0-0.1,0-0.1,0c-9.6-2.9-21.4-3.3-25.3-3.5c-3.4,7.5-10.4,10.3-21.8,11.5
	c3.7,2.3,4.7,5.2,4.7,13.1s-0.1,8.9-0.1,10.7c0,3,4.4,4.4,4.2,5.3c-0.2,1-3.6,0.8-5.3,0.2c-4.6-1.6-4.1-5.4-4.1-5.4l-0.2-10.5
	c0,0,0.3-5.7-1.8-5.7v17.2c0,3.7,2.6,4.9,2.6,6.2c0,2.4-4.8-0.2-6.2-1.7c-2.2-2.3-2-7-1.9-10.8c0.1-3.6,0-11.6,0-11.6l-1.5,0
	c0,0,0.6,17.4-0.8,20.6c-1.8,4.1-7.4,5.5-7.4,3.6c0-1.2,1.4-0.9,2.1-3.7c0.6-2.4,0.4-20.1,0.4-20.1s-1.8,1.1-1.8,4.4
	c0,1.5,0,10.2,0,12.8c0,3.3-4.6,5.1-6.8,5.1c-1.1,0-2.5-0.1-2.5-0.7c0-1.5,4.2-2.4,4.2-5.5c0-2.7-0.1-9.7-0.1-9.7s-2.1,0.4-5.2,0.4
	c-7.7,0-10.1-4.9-11.2-7.6c-1.5-3.6-3.5-5.2-5.5-6.6c-1.3-0.8-1.6-1.8-0.1-2.1c6.8-1.3,8.5,7.7,13.1,9.1c3.2,1,7.4,0.6,9.5-0.8
	c0.3-2.7,2.2-5.1,3.9-6.4c-11.5-1.1-18.4-5.1-21.9-11.5c-12.1,0.3-18.9,2-23.9,3.3c-0.4,0.1-0.7,0.2-1.1,0.3c0,0-0.1,0-0.1,0
	c-0.2,0-0.3-0.1-0.4-0.3c0-0.2,0.1-0.4,0.3-0.4C16.6,1082.5,16.9,1082.4,17.3,1082.3"/>
<path id="path3385" fill="#FFFFFF" d="M229.2,1080c0-7.2-5.8-13-13-13s-13,5.8-13,13c0,7.2,5.8,13,13,13S229.2,1087.1,229.2,1080"/>
<path id="path3387" fill="#FFFFFF" d="M229.2,1044.5c0-7.2-5.8-13-13-13s-13,5.8-13,13c0,7.2,5.8,13,13,13
	S229.2,1051.6,229.2,1044.5"/>
<path id="path3389" fill="#FFFFFF" d="M193.7,1044.5c0-7.2-5.8-13-13-13s-13,5.8-13,13c0,7.2,5.8,13,13,13
	S193.7,1051.6,193.7,1044.5"/>
<path id="path3391" fill="#FFFFFF" d="M264.2,1044.5c0-7.2-5.8-13-13-13c-7.2,0-13,5.8-13,13c0,7.2,5.8,13,13,13
	C258.4,1057.4,264.2,1051.6,264.2,1044.5"/>
<path id="path3393" fill="#FFFFFF" d="M264.2,1080c0-7.2-5.8-13-13-13c-7.2,0-13,5.8-13,13c0,7.2,5.8,13,13,13
	C258.4,1092.9,264.2,1087.1,264.2,1080"/>
<path id="path3395" fill="#FFFFFF" d="M264.2,1115.5c0-7.2-5.8-13-13-13c-7.2,0-13,5.8-13,13c0,7.2,5.8,13,13,13
	C258.4,1128.4,264.2,1122.6,264.2,1115.5"/>
<path id="path3397" fill="#FFFFFF" d="M361,1030.5c-27.3,0-49.4,22.1-49.4,49.4c0,27.3,22.1,49.4,49.4,49.4
	c27.3,0,49.4-22.1,49.4-49.4C410.4,1052.7,388.2,1030.5,361,1030.5 M361,1096.4c-9.1,0-16.5-7.4-16.5-16.5s7.4-16.5,16.5-16.5
	s16.5,7.4,16.5,16.5C377.4,1089,370,1096.4,361,1096.4"/>
<path id="path3399" fill="#FFFFFF" d="M361,1078.7c0.7,0,1.2,0.6,1.2,1.2s-0.6,1.2-1.2,1.2c-0.7,0-1.2-0.6-1.2-1.2
	S360.3,1078.7,361,1078.7"/>
<path id="path3417" fill="#FFFFFF" d="M343.7,610.7l1.6-0.4l2-0.4l2-0.2l2,0.1l2,0.2l2,0.5l1.1,0.4l1.9,0.5l1.9,0.2l0.8,0.1h3.3
	l3.2-0.2l3.2-0.3h0.3l1.7-0.2l3-0.1l3-0.1l3.2,0.1h0.7l1.8,0.1l1.7,0.4l1.8,0.6l1.9,0.8l1.8,1l1.8,1.3l1.7,1.3l1.4,1.6l1.4,1.8
	l1.2,1.6l1.4,2.1l1,2.2l0.8,2.3l0.6,1.3l0.5,2.1l0.5,2.2l0.2,2.2v4.7l0.3,3l0.3,3l0.5,3l0.8,3l0.1,0.5l0.9,2l0.1,0.4v0.4l-0.2,0.3
	l-0.6,0.6l-0.7,0.3l-0.6,0.2h-0.5l-0.4-0.2l-0.4-0.4l-0.7-2l-0.7-2.5l-0.5-2.5l-0.3-2.6v-0.4l-0.6-4.4l-0.5-4.3l-0.2,1.6l-0.1,3.1
	l-0.5,3.1l-0.1,0.7l-0.7,3.3l-0.6,6.5v3.2l0.1,3.4l0.2,3.2l0.5,3.4l0.6,3.2l0.6,2.4l0.2,0.8l0.1,1.6v1.8l-0.1,0.3l-0.4,0.8l-0.4,0.2
	l-0.4,0.1h-6.1l-0.5-0.1l-0.5-0.2l-0.3-0.4l-0.3-0.5v-2.2l0.2-0.5l0.3-0.4l0.3-0.5l0.1-0.5v-0.6l-0.1-0.4l-0.3-0.6l-1.5-3l-1.3-3.2
	l-1.2-3l-0.8-3.4l-0.8-3.3l-0.6,2.4l-1.2,4.2l-1,4.2l-0.8,4.2l-1.2,6.8l-0.2,0.4l-0.3,0.4l-0.3,0.2l-0.5,0.1h-6.3l-0.5-0.1l-0.4-0.2
	l-0.4-0.4l-0.2-0.5l-0.1-0.4V677l0.1-0.5l0.4-0.5l0.3-0.4l0.4-0.2l0.4-0.4l0.2-0.6l0.1-0.5v-3.3l0.6-8.4l0.4-4.3l0.7-4.2l-2.4-0.2
	l-2.7-0.5l-2.6-0.6l-2.6-0.9l-2.5-1l0.3,0.7l0.3,1.3l0.2,1.3l-0.1,1.4l-0.3,1.3l-0.3,2.1l-0.2,3.8l-0.2,3.7v3.7l0.3,3.8l0.6,5.6v0.4
	l-0.1,0.4l-0.3,0.4l-0.4,0.2l-0.5,0.1h-6.5l-0.5-0.1l-0.4-0.2l-0.4-0.4l-0.3-0.5V677l0.1-0.5l0.4-0.5l0.4-0.4l0.1-0.1l0.2-0.3
	l0.1-0.3v-0.4l-1.8-7.7l-0.6-2.7l-1.3-5l-1.9-10.1v0.1l-0.5,3.8v0.1l-0.4,2.1l-0.6,2.1L347,659l-1.9,4.1l-2.3,6.5l-3,9.7l-0.1,0.3
	l-0.3,0.4l-0.4,0.2l-0.5,0.1h-7l-0.5-0.2l-0.3-0.3l-0.2-0.4v-2.6l0.2-0.6l0.4-0.4l0.5-0.3l0.5-0.2h0.1l0.3-0.2l0.2-0.2l0.2-0.4
	l3.7-14.9l0.1-0.3l0.5-3.1l0.4-3.1l0.2-3v-3.1l-0.3-3l-0.3-3l-0.1-0.2l-0.2-0.5l-0.4-0.3l-0.5-0.1h-0.5l-0.5,0.2l-1,0.7l-1.5,1.2
	l-0.5,0.5L331,643l-1,0.4l-0.9,0.1l-0.4,0.1l-1.1,0.4l-1.3,0.6l-1.2,1l-0.8,1l-0.7,1.3l-0.4,1.3l-0.3,1.4v0.3l-0.1,2.2l0.1,2.2
	l0.4,2.2l0.3,1.1l0.4,2.1l0.3,2.3l0.1,2.2l-0.2,0.4l-0.3,1.2l-0.6,1.2l-0.8,1l-0.9,0.7l-0.7,0.4l-1.4,1l-1.6,0.5l-1.5,0.4l-1.7,0.1
	h-0.8l-1.3-0.3l-1.1-0.4l-1.2-0.6l-1-1l-0.5-0.5l-0.8-1.5v0.1l-0.1-0.1l-0.6-1.5l-0.1-0.1l-0.1-0.6V665l0.2-0.5l0.7-0.7l0.9-0.7
	l0.3-0.2l0.5-0.1h0.5l0.6,0.1l0.5,0.3l0.5,0.4l0.3,0.5l1,1.2l0.2,0.2l0.6,0.5l0.7,0.2l0.7,0.1l0.9-0.3l0.5-0.4l0.6-0.5l0.1-0.3
	l0.2-1v-1l-0.3-1l-0.5-0.9v-0.1l-0.6-2.1l-0.7-2.8l-0.6-3l-0.6-3l-0.2-3l-0.2-3.2v-3.1l0.2-3.1l0.5-3.1l0.5-3l0.5-2l0.8-2.6l1.1-2.5
	l1.3-2.4l1.4-2.4l1.6-2.2l0.2-0.2l0.7-0.8l0.8-0.7l1.2-0.4l1.1-0.3h2.2l2.6-0.4l2.5-0.4l2.6-0.7l1.1-0.4L343.7,610.7L343.7,610.7z
	 M344.5,632.8l-0.1-0.5l-0.3-2.2l-0.7-2.2l-0.8-2.2l-1-2l-1.3-2l-1.3-1.8l-1.5-1.1l-0.9-0.3l-1-0.1l-1,0.1l-0.4,0.2l-1.7,0.6
	l-0.8,0.9v0.7l0.1,0.2l0.2,0.3l0.3,0.1l0.4,0.1l0.4-0.1l0.2-0.1l1.4-0.7h0.2l0.5-0.1h0.6l0.6,0.2l0.4,0.3l0.1,0.1l1.4,1.8l1.1,2l1,2
	l0.7,2.1l0.5,2.2l0.3,1.3l-0.1,0.5l-0.4,0.8l-0.4,0.3l-0.4,0.1h-0.6l-0.3-0.1l-2.3-1.1l-0.9-0.5l-0.4-0.1H336l-0.2,0.1l-0.3,0.3
	l-0.2,0.1l-0.1,0.4v0.3l0.4,0.6l0.2,0.1l2.5,1.1l1,0.5l0.8,0.2h1l0.9-0.2l0.8-0.3l0.6-0.6l0.6-0.7l0.2-0.9L344.5,632.8L344.5,632.8z
	 M324.6,629.9v-0.3l-0.1-0.2l-0.1-0.1L324,629h-0.7l-0.8,0.3l-0.6,0.2l-0.5,0.4l-0.2,0.4v0.1l-0.1,0.2l0.1,0.1l0.2,0.2l0.4,0.2h0.7
	l0.7-0.2l0.7-0.3l0.5-0.4L324.6,629.9L324.6,629.9z"/>
<g id="g3517" transform="translate(598.11475,1028.3266)">
	<path id="path3503" fill="#FFFFFF" d="M78.3,94.9c0,2.8,2.3,5.1,5.1,5.1h6.3c2.8,0,5.1-2.3,5.1-5.1V44.2c0-2.8-2.3-5.1-5.1-5.1
		h-6.3c-2.8,0-5.1,2.3-5.1,5.1V94.9z"/>
	<path id="path3505" fill="#FFFFFF" d="M53.8,74.3v20.7c0,2.8,2.3,5.1,5.1,5.1h6.3c2.8,0,5.1-2.3,5.1-5.1V74.3
		c0-2.8-2.3-5.1-5.1-5.1h-6.3C56.1,69.2,53.8,71.5,53.8,74.3z"/>
	<path id="path3507" fill="#FFFFFF" d="M29.3,81.9v13.1c0,2.8,2.3,5.1,5.1,5.1h6.3c2.8,0,5.1-2.3,5.1-5.1V81.9
		c0-2.8-2.3-5.1-5.1-5.1h-6.3C31.6,76.8,29.3,79.1,29.3,81.9z"/>
	<path id="path3509" fill="#FFFFFF" d="M34.1,0C15.3,0,0,15.3,0,34.1C0,53,15.3,68.3,34.1,68.3C53,68.3,68.3,53,68.3,34.1
		C68.3,15.3,53,0,34.1,0z M34.1,59.7C20,59.7,8.6,48.2,8.6,34.1C8.6,20.1,20,8.6,34.1,8.6v25.6L54.9,49
		C50.3,55.5,42.7,59.7,34.1,59.7z"/>
</g>
<g>
	<path fill="#FFFFFF" d="M481.4,1035c5.4-6.9,17-7.9,23.1-1.5c3.5-0.2,7.5,0.6,9.5,3.8c3.7,5.8,4,13.1,3,19.7
		c-0.7,3.7,1.4,7.3,0.1,11c-0.7,4-4.6,6.3-5.6,10.2c-4.3,9-10.2,18.4-8.9,28.8c0.7,7.9,5.1,15,11.1,19.9c-9,1.4-18.2,1.4-27.3,1.1
		c-7.6-0.5-15.5-0.9-22.8-3.6c-3-1.2-6.5-3.1-6.9-6.7c-0.4-4.7-0.7-10.1,2.7-13.8c5.9-6.7,14.7-9.8,23.1-11.8c3.1-0.8,5.3-5,3-7.7
		c-2.1-3-3.5-6.4-4.7-9.8c-4.5-3.2-6.1-9.8-4-14.8C474.5,1051.4,476,1041.9,481.4,1035z"/>
	<g>
		<path fill="#FFFFFF" d="M526.5,1080.1c12.9-3,26.8,6.6,28.7,19.7c2.4,12.1-6,24.9-18,27.7c-9.2,2.5-19.7-1.3-25.3-9
			c-4.5-5.9-6-14-3.9-21.1C510.2,1088.8,517.7,1081.8,526.5,1080.1z M538.6,1093.3c-3.5,4.8-6.6,9.8-10,14.6c-1.5-1.6-3-3.3-4.8-4.6
			c-2.5-0.9-3.9,2.2-5.5,3.5c2.2,4,5.9,6.9,9.2,10c2.1,1.9,4.4-0.5,5.4-2.3c4-6.3,8.6-12.2,12.3-18.7
			C545,1093.2,540.4,1090.3,538.6,1093.3z"/>
	</g>
</g>
</svg>
